<svg width="32" height="32" viewBox="0 0 32 32" fill="none" xmlns="http://www.w3.org/2000/svg">
<path d="M27 4H5C2.79086 4 1 5.79086 1 8V24C1 26.2091 2.79086 28 5 28H27C29.2091 28 31 26.2091 31 24V8C31 5.79086 29.2091 4 27 4Z" fill="white"/>
<path d="M1.6377 5.846H30.3617C29.6507 4.738 28.4147 4 26.9997 4H4.9997C3.5857 4 2.3497 4.738 1.6377 5.846Z" fill="#FF0035"/>
<path d="M2.03 7.69141C2.022 7.79441 2 7.89341 2 7.99941V9.53841H31V7.99941C31 7.89441 30.978 7.79541 30.97 7.69141H2.03Z" fill="#FF0035"/>
<path d="M2 11.3848H31V13.2308H2V11.3848Z" fill="#FF0035"/>
<path d="M2 15.0762H31V16.9222H2V15.0762Z" fill="#FF0035"/>
<path d="M1 18.7695H31V20.6155H1V18.7695Z" fill="#FF0035"/>
<path d="M1 23.9999C1 24.1049 1.023 24.2039 1.031 24.3079H30.969C30.977 24.2049 31 24.1059 31 23.9999V22.4609H1V23.9999Z" fill="#FF0035"/>
<path d="M30.3617 26.1543H1.6377C2.3487 27.2623 3.5847 28.0003 4.9997 28.0003H26.9997C28.4137 28.0003 29.6497 27.2623 30.3617 26.1543Z" fill="#FF0035"/>
<path d="M5 4H16V16.923H1V8C1 5.792 2.792 4 5 4Z" fill="#3160DB"/>
<path d="M4.6013 7.46289L5.1933 7.03289H4.4623L4.2363 6.33789L4.0103 7.03289H3.2793L3.8703 7.46289L3.6443 8.15789L4.2363 7.72889L4.8273 8.15789L4.6013 7.46289Z" fill="white"/>
<path d="M7.57981 7.46289L8.17181 7.03289H7.44081L7.21481 6.33789L6.98881 7.03289H6.25781L6.84881 7.46289L6.62281 8.15789L7.21481 7.72889L7.80581 8.15789L7.57981 7.46289Z" fill="white"/>
<path d="M10.5603 7.46289L11.1513 7.03289H10.4203L10.1943 6.33789L9.9683 7.03289H9.2373L9.8283 7.46289L9.6033 8.15789L10.1943 7.72889L10.7853 8.15789L10.5603 7.46289Z" fill="white"/>
<path d="M6.06614 9.2832L6.65814 8.8542H5.92714L5.70114 8.1582L5.47514 8.8542H4.74414L5.33514 9.2832L5.10914 9.9792L5.70114 9.5492L6.29214 9.9792L6.06614 9.2832Z" fill="white"/>
<path d="M9.04566 9.2832L9.63666 8.8542H8.90566L8.67966 8.1582L8.45366 8.8542H7.72266L8.31366 9.2832L8.08866 9.9792L8.67966 9.5492L9.27066 9.9792L9.04566 9.2832Z" fill="white"/>
<path d="M12.0251 9.2832L12.6161 8.8542H11.8851L11.6591 8.1582L11.4331 8.8542H10.7021L11.2941 9.2832L11.0681 9.9792L11.6591 9.5492L12.2511 9.9792L12.0251 9.2832Z" fill="white"/>
<path d="M6.06614 12.9238L6.65814 12.4938H5.92714L5.70114 11.7988L5.47514 12.4938H4.74414L5.33514 12.9238L5.10914 13.6188L5.70114 13.1898L6.29214 13.6188L6.06614 12.9238Z" fill="white"/>
<path d="M9.04566 12.9238L9.63666 12.4938H8.90566L8.67966 11.7988L8.45366 12.4938H7.72266L8.31366 12.9238L8.08866 13.6188L8.67966 13.1898L9.27066 13.6188L9.04566 12.9238Z" fill="white"/>
<path d="M12.0251 12.9238L12.6161 12.4938H11.8851L11.6591 11.7988L11.4331 12.4938H10.7021L11.2941 12.9238L11.0681 13.6188L11.6591 13.1898L12.2511 13.6188L12.0251 12.9238Z" fill="white"/>
<path d="M13.5388 7.46289L14.1298 7.03289H13.3988L13.1728 6.33789L12.9468 7.03289H12.2158L12.8078 7.46289L12.5818 8.15789L13.1728 7.72889L13.7648 8.15789L13.5388 7.46289Z" fill="white"/>
<path d="M4.6013 11.1035L5.1933 10.6735H4.4623L4.2363 9.97852L4.0103 10.6735H3.2793L3.8703 11.1035L3.6443 11.7985L4.2363 11.3685L4.8273 11.7985L4.6013 11.1035Z" fill="white"/>
<path d="M7.57981 11.1035L8.17181 10.6735H7.44081L7.21481 9.97852L6.98881 10.6735H6.25781L6.84881 11.1035L6.62281 11.7985L7.21481 11.3685L7.80581 11.7985L7.57981 11.1035Z" fill="white"/>
<path d="M10.5603 11.1035L11.1513 10.6735H10.4203L10.1943 9.97852L9.9683 10.6735H9.2373L9.8283 11.1035L9.6033 11.7985L10.1943 11.3685L10.7853 11.7985L10.5603 11.1035Z" fill="white"/>
<path d="M13.5388 11.1035L14.1298 10.6735H13.3988L13.1728 9.97852L12.9468 10.6735H12.2158L12.8078 11.1035L12.5818 11.7985L13.1728 11.3685L13.7648 11.7985L13.5388 11.1035Z" fill="white"/>
<path d="M4.6013 14.7441L5.1933 14.3151H4.4623L4.2363 13.6191L4.0103 14.3151H3.2793L3.8703 14.7441L3.6443 15.4401L4.2363 15.0101L4.8273 15.4401L4.6013 14.7441Z" fill="white"/>
<path d="M7.57981 14.7441L8.17181 14.3151H7.44081L7.21481 13.6191L6.98881 14.3151H6.25781L6.84881 14.7441L6.62281 15.4401L7.21481 15.0101L7.80581 15.4401L7.57981 14.7441Z" fill="white"/>
<path d="M10.5603 14.7441L11.1513 14.3151H10.4203L10.1943 13.6191L9.9683 14.3151H9.2373L9.8283 14.7441L9.6033 15.4401L10.1943 15.0101L10.7853 15.4401L10.5603 14.7441Z" fill="white"/>
<path d="M13.5388 14.7441L14.1298 14.3151H13.3988L13.1728 13.6191L12.9468 14.3151H12.2158L12.8078 14.7441L12.5818 15.4401L13.1728 15.0101L13.7648 15.4401L13.5388 14.7441Z" fill="white"/>
</svg>
