<svg width="259" height="45" viewBox="0 0 259 45" fill="none" xmlns="http://www.w3.org/2000/svg">
<path d="M80.3046 36.3727C76.2226 36.3727 73.2076 34.6719 71.5377 31.5796L75.5423 28.7655C76.6401 30.5282 78.2327 31.3322 80.3819 31.3322C82.732 31.3322 84.3091 30.3735 84.3091 29.0438C84.3091 27.2193 81.325 25.7814 78.712 24.4826C75.9134 23.0911 72.8365 21.5603 72.8365 17.5867C72.8365 13.2728 76.4855 10.4279 81.0622 10.4279C84.4638 10.4279 87.2778 11.8349 88.4065 14.8499L84.7112 17.4321C83.969 15.9477 82.531 15.3447 81.1395 15.3447C79.2686 15.3447 77.8771 16.427 77.8771 17.7104C77.8771 19.1947 79.7634 19.7049 82.6238 21.0501C86.7521 22.9983 89.3497 25.1011 89.3497 28.9356C89.3497 33.4814 85.6389 36.3727 80.3046 36.3727Z" fill="#0C1D2E"/>
<path d="M97.8888 36.3818V11.4575H101.801V36.3818H97.8888ZM122.72 11.3956H126.648V36.8148H126.462L110.521 20.1625V36.4128H106.609V11.0246H106.81L122.72 27.6459V11.3956ZM146.284 15.292H135.353V21.956H144.784V25.8524H135.353V36.4128H131.441V11.3956H146.284V15.292ZM160.555 36.7838C153.474 36.7838 147.691 31.0011 147.691 23.9506C147.691 16.8382 153.474 11.0246 160.571 11.0246C167.652 11.0246 173.466 16.8382 173.466 23.9506C173.466 31.0011 167.652 36.7838 160.555 36.7838ZM160.555 32.8256C165.472 32.8256 169.508 28.821 169.508 23.9197C169.508 18.9874 165.472 14.9673 160.555 14.9673C155.638 14.9673 151.634 18.9874 151.634 23.9197C151.634 28.821 155.638 32.8256 160.555 32.8256ZM191.432 11.4575V15.3384H184.753V36.3818H180.826V15.3384H174.146V11.4575H191.432ZM209.399 15.3075H198.468V21.6932H207.899V25.5895H198.468V32.4855H209.399V36.3818H194.556V11.4575H209.399V15.3075ZM225.216 36.7838C218.15 36.7838 212.29 30.9702 212.29 23.9351C212.29 16.9155 218.15 11.0246 225.155 11.0246C228.386 11.0709 231.37 12.447 233.813 14.8281L231.54 17.905C229.793 16.1579 227.52 14.9982 225.077 14.9982C220.562 14.9982 216.249 18.9564 216.249 23.9506C216.249 28.9757 220.624 32.8566 225.093 32.8566C227.644 32.8566 229.839 31.5887 231.556 29.8879L233.813 33.0421C231.664 35.1604 228.927 36.7838 225.216 36.7838ZM251.61 11.4575H255.521V36.3818H251.61V25.8524H240.817V36.3818H236.921V11.4575H240.817V21.9715H251.61V11.4575Z" fill="#3D4A58"/>
<path d="M18.8788 36.0518L17.3017 32.5729H7.32887L5.73631 36.0518H0.324697L12.2303 10.5089H12.3849L24.3059 36.0518H18.8788ZM9.27706 28.3054H15.3535L12.323 21.6414L9.27706 28.3054ZM45.8905 36.0518H39.7676L31.8358 24.2699V36.0518H26.8262L26.8107 11.1274H34.9436C39.5976 11.1274 43.4166 14.7145 43.4166 19.1984C43.4166 22.399 41.4839 25.1976 38.809 26.1408L45.8905 36.0518ZM31.8203 16.0906V22.3526L35.0363 22.3681C36.7371 22.3836 38.2524 21.0075 38.2524 19.2294C38.2524 17.4513 36.7217 16.0906 35.0363 16.0906H31.8203Z" fill="#0C1D2E"/>
<path d="M53.2066 23.1689C53.6667 15.1423 59.6185 11.8149 62.5369 11.1546C52.772 8.90507 48.0302 15.9688 46.8799 19.7819C49.2444 27.0672 55.3794 29.1122 57.8717 28.9844C54.3441 28.3198 53.2066 25.15 53.2066 23.1689Z" fill="url(#paint0_linear_1238_21638)"/>
<path d="M53.2754 22.2091C53.2802 22.1262 53.2914 22.0401 53.3087 21.9513C54.3583 14.2856 59.928 11.4693 62.414 11.1533C67.8332 12.6359 70.1679 16.4575 70.6579 18.183L64.0082 20.0502C59.5838 14.4112 53.8169 19.3433 53.3087 21.9513C53.2971 22.0366 53.2859 22.1226 53.2754 22.2091Z" fill="url(#paint1_linear_1238_21638)"/>
<path d="M70.0827 29.1746L64.1395 27.3213C62.1967 32.1782 57.4932 34.6492 55.4482 35.3096C63.6282 37.4824 68.9537 32.0077 70.0827 29.1746Z" fill="url(#paint2_linear_1238_21638)"/>
<path d="M64.1388 27.3222L63.4997 27.0665C61.9148 28.8559 59.1541 29.2115 57.6842 28.9837C50.4245 27.859 47.3315 21.6984 46.8841 19.7812C44.8391 29.6995 51.7836 34.2666 55.4475 35.3104C60.8668 33.6233 63.4784 29.3246 64.1388 27.3222Z" fill="url(#paint3_linear_1238_21638)"/>
<defs>
<linearGradient id="paint0_linear_1238_21638" x1="49.473" y1="25.1646" x2="62.4806" y2="11.6188" gradientUnits="userSpaceOnUse">
<stop stop-color="#691D59"/>
<stop offset="0.667261" stop-color="#3D9FC7"/>
<stop offset="1" stop-color="#82D1E0"/>
</linearGradient>
<linearGradient id="paint1_linear_1238_21638" x1="70.1084" y1="19.6914" x2="55.0375" y2="16.6413" gradientUnits="userSpaceOnUse">
<stop stop-color="#BFC231"/>
<stop offset="0.400694" stop-color="#9CBA3D"/>
<stop offset="0.985" stop-color="#2A6875"/>
</linearGradient>
<linearGradient id="paint2_linear_1238_21638" x1="55.8956" y1="35.7569" x2="67.9554" y2="28.662" gradientUnits="userSpaceOnUse">
<stop stop-color="#82D1E0"/>
<stop offset="0.46" stop-color="#3D9FC7"/>
<stop offset="0.99" stop-color="#691D59"/>
</linearGradient>
<linearGradient id="paint3_linear_1238_21638" x1="62.3032" y1="31.5334" x2="46.5146" y2="20.2302" gradientUnits="userSpaceOnUse">
<stop stop-color="#9F3988"/>
<stop offset="0.43" stop-color="#E9242C"/>
<stop offset="1" stop-color="#DEB772"/>
</linearGradient>
</defs>
</svg>
