<svg width="25" height="24" viewBox="0 0 25 24" fill="none" xmlns="http://www.w3.org/2000/svg">
<path fill-rule="evenodd" clip-rule="evenodd" d="M11.5987 12.0066L11.6002 12.3607C11.6124 13.7652 11.6971 15.0183 11.8431 15.8124C11.8431 15.8267 12.0023 16.6143 12.1038 16.8764C12.2631 17.2554 12.5511 17.577 12.9121 17.7808C13.2012 17.9262 13.5045 18 13.8219 18C14.0715 17.9884 14.483 17.8629 14.7768 17.7576L15.0208 17.664C16.6376 17.0218 19.7281 14.9234 20.9117 13.6402L20.9989 13.5505L21.3884 13.1302C21.6339 12.8085 21.7637 12.4153 21.7637 11.9923C21.7637 11.6134 21.648 11.2344 21.4168 10.9282C21.3475 10.829 21.236 10.7017 21.1367 10.5942L20.7577 10.1974C19.4532 8.87572 16.6288 7.02183 15.1648 6.40756C15.1648 6.39435 14.255 6.01432 13.8219 6H13.7641C13.0998 6 12.4791 6.37892 12.1616 6.99137C12.0749 7.1588 11.9917 7.48678 11.9284 7.77483L11.8147 8.31871C11.6849 9.19332 11.5987 10.535 11.5987 12.0066ZM5.26693 10.4817C4.43675 10.4817 3.76367 11.1613 3.76367 11.9996C3.76367 12.8378 4.43675 13.5175 5.26693 13.5175L8.96615 13.1903C9.61742 13.1903 10.1454 12.6583 10.1454 11.9996C10.1454 11.3419 9.61742 10.8088 8.96615 10.8088L5.26693 10.4817Z" fill="#0A51C9"/>
</svg>
