<svg width="1040" height="1084" viewBox="0 0 1040 1084" fill="none" xmlns="http://www.w3.org/2000/svg">
<g opacity="0.6">
<path opacity="0.2" d="M216.618 543.615C213.461 466.933 206.387 416.897 259.484 364.212C316.175 307.961 314.353 245.661 404.048 243.728C577.751 239.985 813.338 391.593 819.865 550.149C823.381 635.548 713.926 696.209 649.928 750.223C595.106 796.493 592.52 842.392 510.737 844.155C333.482 847.975 223.145 702.17 216.618 543.615Z" fill="url(#paint0_radial_244_4519)"/>
<path d="M541.734 850.838C451.298 847.882 370.332 808.864 311.506 748.627C248.698 684.313 211.129 595.811 214.222 501.188C220.213 317.942 376.879 167.564 563.872 173.677C664.589 176.97 729.429 297.213 789.168 369.039C840.341 430.567 894.205 437.05 891.384 523.327C885.271 710.32 728.727 856.952 541.734 850.838Z" fill="white"/>
<path opacity="0.2" d="M558.672 854.223C468.236 851.267 387.269 812.248 328.443 752.012C265.635 687.698 228.066 599.196 231.16 504.573C237.151 321.326 393.817 170.948 580.81 177.062C681.526 180.354 746.367 300.598 806.105 372.424C857.279 433.952 911.142 440.435 908.321 526.712C902.208 713.705 745.664 860.337 558.672 854.223Z" fill="url(#paint1_radial_244_4519)"/>
<path opacity="0.2" d="M497.146 832.69C406.705 829.915 325.66 791.06 266.714 730.942C203.776 666.754 166.03 578.328 168.933 483.699C174.556 300.44 330.92 149.748 517.925 155.486C618.648 158.576 683.73 278.689 743.612 350.395C794.909 411.82 848.785 418.195 846.138 504.477C840.4 691.482 684.151 838.428 497.146 832.69Z" fill="url(#paint2_radial_244_4519)"/>
<path opacity="0.2" d="M575.874 776.414C499.183 779.331 449.223 786.246 395.624 733.014C338.396 676.179 276.075 677.807 272.666 588.156C266.064 414.538 413.921 179.554 572.496 173.524C657.906 170.276 720.415 279.858 775.525 343.989C822.733 398.924 868.711 401.652 871.82 483.395C878.557 660.562 734.449 770.384 575.874 776.414Z" fill="url(#paint3_radial_244_4519)"/>
<path opacity="0.2" d="M860.351 542.019C860.351 632.503 821.257 612.759 762.975 673.522C700.747 738.398 616.263 880.781 521.59 880.781C338.245 880.781 182.828 729.112 182.828 542.019C182.828 441.249 300.889 372.514 370.724 310.461C430.547 257.304 435.267 203.258 521.59 203.258C708.683 203.258 860.351 354.927 860.351 542.019Z" fill="url(#paint4_radial_244_4519)"/>
<path opacity="0.2" d="M701.891 827.575C642.757 896.062 590.814 861.926 519.755 858.784C443.885 855.43 349.21 878.213 298.287 798.402C199.669 643.838 215.193 398.02 337.463 256.409C403.319 180.136 511.742 227.638 589.859 239.542C656.776 249.74 694.636 212.811 741.067 285.583C841.701 443.306 824.161 685.964 701.891 827.575Z" fill="url(#paint5_radial_244_4519)"/>
<path opacity="0.2" d="M815.906 373.567C842.745 459.979 835.462 556.331 802.717 642.983C767.755 735.501 703.768 816.96 621.299 863.457C461.59 953.502 281.219 884.989 225.723 706.316C195.832 610.081 278.285 486.457 320.711 392.898C357.055 312.754 345.135 258.821 420.33 216.426C583.304 124.54 760.41 194.894 815.906 373.567Z" fill="url(#paint6_radial_244_4519)"/>
<path opacity="0.2" d="M295.924 319.904C335.181 254.243 360.317 290.72 421.28 284.177C486.37 277.192 587.808 231.342 644.014 292.34C752.862 410.469 779.329 620.664 698.158 756.431C654.439 829.556 554.527 803.368 486.145 803.403C427.567 803.434 401.317 839.612 350.069 783.995C238.995 663.451 214.754 455.671 295.924 319.904Z" fill="url(#paint7_radial_244_4519)"/>
<path opacity="0.2" d="M604.973 782.081C529.761 785.934 480.721 793.478 428.65 740.7C373.056 684.349 311.944 686.735 309.406 596.798C304.49 422.627 451.551 185 607.066 177.032C690.829 172.741 751.128 281.967 804.581 345.666C850.37 400.232 895.421 402.414 897.735 484.418C902.752 662.15 760.489 774.113 604.973 782.081Z" fill="url(#paint8_radial_244_4519)"/>
<path opacity="0.2" d="M602.675 824.324C514.603 845.078 524.854 802.497 452.343 759.705C374.924 714.017 216.96 664.442 195.245 572.292C153.193 393.835 265.172 207.775 447.277 164.863C545.361 141.75 639.342 240.898 715.759 294.639C781.219 340.675 834.908 332.874 854.707 416.895C897.618 599 784.78 781.412 602.675 824.324Z" fill="url(#paint9_radial_244_4519)"/>
<path opacity="0.2" d="M860.351 462.41C860.351 531.631 821.257 516.526 762.975 563.01C700.747 612.64 616.263 721.563 521.59 721.563C338.245 721.563 182.828 605.536 182.828 462.41C182.828 385.321 300.889 332.739 370.724 285.268C430.547 244.603 435.267 203.258 521.59 203.258C708.683 203.258 860.351 319.284 860.351 462.41Z" fill="url(#paint10_radial_244_4519)"/>
<path opacity="0.2" d="M744.192 248.85C807.468 291.793 843.361 352.662 851.24 416.544C859.652 484.752 836.129 556.394 779.903 613.322C671.015 723.568 472.65 745.039 341.813 656.246C271.343 608.422 293.392 504.81 291.472 433.368C289.827 372.168 254.835 343.68 306.101 291.774C417.215 179.275 613.355 160.057 744.192 248.85Z" fill="url(#paint11_radial_244_4519)"/>
<path opacity="0.2" d="M570.182 870.004C475.723 886.202 489.336 841.855 415.471 791.889C336.605 738.541 172.843 675.832 155.896 576.999C123.076 385.599 253.588 196.204 448.901 162.713C554.099 144.674 646.987 255.618 724.268 317.414C790.469 370.35 847.735 365.603 863.187 455.718C896.678 651.031 765.495 836.514 570.182 870.004Z" fill="url(#paint12_radial_244_4519)"/>
<path opacity="0.2" d="M620.151 268.738C677.977 325.136 711.389 402.345 719.568 481.863C728.301 566.764 708.269 654.298 658.477 721.946C562.049 852.954 383.382 869.471 263.816 752.856C199.416 690.046 217.582 562.845 214.655 474.267C212.147 398.389 180.09 361.329 225.49 299.648C323.889 165.962 500.585 152.124 620.151 268.738Z" fill="url(#paint13_radial_244_4519)"/>
<path opacity="0.2" d="M759.693 301.024C834.563 351.835 794.503 381.638 803.825 457.226C813.779 537.93 868.476 664.918 801.947 732.276C673.109 862.721 438.398 888.127 283.589 783.065C200.208 726.478 226.296 603.883 224.024 519.35C222.078 446.938 180.675 413.23 241.335 351.813C372.807 218.702 604.884 195.962 759.693 301.024Z" fill="url(#paint14_radial_244_4519)"/>
<path opacity="0.2" d="M759.942 803.593C691.57 862.86 680.73 820.518 596.415 816.475C506.392 812.159 343.139 841.867 280.76 770.649C159.958 632.728 172.162 416.473 313.535 293.928C389.68 227.923 519.406 271.713 612.309 283.601C691.892 293.785 735.841 261.936 792.717 326.872C915.989 467.612 901.315 681.047 759.942 803.593Z" fill="url(#paint15_radial_244_4519)"/>
<path opacity="0.2" d="M743.626 798.978C675.01 857.963 612.952 826.487 528.882 821.9C439.12 817.003 327.619 834.712 265.903 762.919C146.385 623.884 160.086 407.159 301.963 285.197C378.379 219.507 507.463 264.228 600.044 276.735C679.352 287.448 723.413 255.796 779.685 321.256C901.647 463.133 885.502 677.017 743.626 798.978Z" fill="url(#paint16_radial_244_4519)"/>
<path opacity="0.2" d="M286.929 287.528C343.691 217.062 376.215 253.132 459.721 242.372C548.879 230.884 689.526 176.828 763.255 236.217C906.039 351.231 931.931 566.84 814.566 712.543C751.352 791.02 616.292 770.489 522.979 775.006C443.045 778.876 405.466 818.005 338.24 763.854C192.538 646.489 169.565 433.231 286.929 287.528Z" fill="url(#paint17_radial_244_4519)"/>
<path opacity="0.2" d="M797.591 737.508C862.311 674.272 828.576 618.87 824.271 543.012C819.674 462.019 839.844 360.91 762.251 306.665C611.985 201.616 376.125 218.563 242.304 349.314C170.227 419.737 217.824 535.417 230.675 618.796C241.684 690.221 206.895 730.696 277.643 780.156C430.981 887.352 663.77 868.258 797.591 737.508Z" fill="url(#paint18_radial_244_4519)"/>
</g>
<defs>
<radialGradient id="paint0_radial_244_4519" cx="0" cy="0" r="1" gradientUnits="userSpaceOnUse" gradientTransform="translate(518.008 542.635) rotate(-92.3573) scale(301.351 301.293)">
<stop stop-color="#D1BBFD" stop-opacity="0"/>
<stop offset="0.411458" stop-color="#D1BBFD" stop-opacity="0.109375"/>
<stop offset="1" stop-color="#D1BBFD"/>
</radialGradient>
<radialGradient id="paint1_radial_244_4519" cx="0" cy="0" r="1" gradientUnits="userSpaceOnUse" gradientTransform="translate(569.741 515.642) rotate(-178.128) scale(338.762)">
<stop stop-color="#E1F1FE" stop-opacity="0"/>
<stop offset="0.421875" stop-color="#E1F1FE" stop-opacity="0.0989583"/>
<stop offset="1" stop-color="#E1F1FE"/>
</radialGradient>
<radialGradient id="paint2_radial_244_4519" cx="0" cy="0" r="1" gradientUnits="userSpaceOnUse" gradientTransform="translate(507.536 494.088) rotate(-178.243) scale(338.762)">
<stop stop-color="#F3DAFA" stop-opacity="0"/>
<stop offset="0.307292" stop-color="#F3DAFA" stop-opacity="0.0885417"/>
<stop offset="0.848958" stop-color="#F3DAFA"/>
</radialGradient>
<radialGradient id="paint3_radial_244_4519" cx="0" cy="0" r="1" gradientUnits="userSpaceOnUse" gradientTransform="translate(569.939 475.19) rotate(177.822) scale(301.351)">
<stop stop-color="#D1BBFD" stop-opacity="0"/>
<stop offset="0.411458" stop-color="#D1BBFD" stop-opacity="0.109375"/>
<stop offset="1" stop-color="#D1BBFD"/>
</radialGradient>
<radialGradient id="paint4_radial_244_4519" cx="0" cy="0" r="1" gradientUnits="userSpaceOnUse" gradientTransform="translate(521.59 542.019) rotate(90) scale(338.762)">
<stop stop-color="#D8F7F9" stop-opacity="0"/>
<stop offset="0.453125" stop-color="#D8F7F9" stop-opacity="0.0885417"/>
<stop offset="1" stop-color="#D8F7F9"/>
</radialGradient>
<radialGradient id="paint5_radial_244_4519" cx="0" cy="0" r="1" gradientUnits="userSpaceOnUse" gradientTransform="translate(519.677 541.992) rotate(130.808) scale(338.762 324.555)">
<stop stop-color="#C2C5FD" stop-opacity="0"/>
<stop offset="0.510417" stop-color="#C5C8FD" stop-opacity="0.0989583"/>
<stop offset="1" stop-color="#E2E4FA"/>
</radialGradient>
<radialGradient id="paint6_radial_244_4519" cx="0" cy="0" r="1" gradientUnits="userSpaceOnUse" gradientTransform="translate(520.814 539.942) rotate(72.7451) scale(338.762 331.161)">
<stop stop-color="#F3DAFA" stop-opacity="0"/>
<stop offset="0.307292" stop-color="#F3DAFA" stop-opacity="0.0885417"/>
<stop offset="0.848958" stop-color="#F3DAFA"/>
</radialGradient>
<radialGradient id="paint7_radial_244_4519" cx="0" cy="0" r="1" gradientUnits="userSpaceOnUse" gradientTransform="translate(497.041 538.168) rotate(-59.1261) scale(286.412 284.62)">
<stop stop-color="#F3F3FD" stop-opacity="0"/>
<stop offset="0.546875" stop-color="#F3F3FD" stop-opacity="0.0989583"/>
<stop offset="1" stop-color="#F3F3FD"/>
</radialGradient>
<radialGradient id="paint8_radial_244_4519" cx="0" cy="0" r="1" gradientUnits="userSpaceOnUse" gradientTransform="translate(601.855 479.829) rotate(177.067) scale(295.711 302.134)">
<stop stop-color="#D1BBFD" stop-opacity="0"/>
<stop offset="0.411458" stop-color="#D1BBFD" stop-opacity="0.109375"/>
<stop offset="1" stop-color="#D1BBFD"/>
</radialGradient>
<radialGradient id="paint9_radial_244_4519" cx="0" cy="0" r="1" gradientUnits="userSpaceOnUse" gradientTransform="translate(524.976 494.594) rotate(166.741) scale(338.762)">
<stop stop-color="#D8F7F9" stop-opacity="0"/>
<stop offset="0.453125" stop-color="#D8F7F9" stop-opacity="0.0885417"/>
<stop offset="1" stop-color="#D8F7F9"/>
</radialGradient>
<radialGradient id="paint10_radial_244_4519" cx="0" cy="0" r="1" gradientUnits="userSpaceOnUse" gradientTransform="translate(521.59 462.41) rotate(90) scale(259.153 338.762)">
<stop stop-color="#D8F7F9" stop-opacity="0"/>
<stop offset="0.453125" stop-color="#D8F7F9" stop-opacity="0.0885417"/>
<stop offset="1" stop-color="#D8F7F9"/>
</radialGradient>
<radialGradient id="paint11_radial_244_4519" cx="0" cy="0" r="1" gradientUnits="userSpaceOnUse" gradientTransform="translate(543.002 452.548) rotate(34.163) scale(286.304 281.527)">
<stop stop-color="#E1F1FE" stop-opacity="0"/>
<stop offset="0.421875" stop-color="#E1F1FE" stop-opacity="0.0989583"/>
<stop offset="1" stop-color="#E1F1FE"/>
</radialGradient>
<radialGradient id="paint12_radial_244_4519" cx="0" cy="0" r="1" gradientUnits="userSpaceOnUse" gradientTransform="translate(509.542 516.359) rotate(170.27) scale(358.807)">
<stop stop-color="#D8F7F9" stop-opacity="0"/>
<stop offset="0.453125" stop-color="#D8F7F9" stop-opacity="0.0885417"/>
<stop offset="1" stop-color="#D8F7F9"/>
</radialGradient>
<radialGradient id="paint13_radial_244_4519" cx="0" cy="0" r="1" gradientUnits="userSpaceOnUse" gradientTransform="translate(441.984 510.797) rotate(44.284) scale(302.413 297.687)">
<stop stop-color="#F3DAFA" stop-opacity="0"/>
<stop offset="0.307292" stop-color="#F3DAFA" stop-opacity="0.0885417"/>
<stop offset="0.848958" stop-color="#F3DAFA"/>
</radialGradient>
<radialGradient id="paint14_radial_244_4519" cx="0" cy="0" r="1" gradientUnits="userSpaceOnUse" gradientTransform="translate(521.641 542.045) rotate(34.163) scale(338.762 333.108)">
<stop stop-color="#F3F3FD" stop-opacity="0"/>
<stop offset="0.546875" stop-color="#F3F3FD" stop-opacity="0.0989583"/>
<stop offset="1" stop-color="#F3F3FD"/>
</radialGradient>
<radialGradient id="paint15_radial_244_4519" cx="0" cy="0" r="1" gradientUnits="userSpaceOnUse" gradientTransform="translate(536.739 548.76) rotate(139.08) scale(338.762 338.757)">
<stop stop-color="#D8F7F9" stop-opacity="0"/>
<stop offset="0.723958" stop-color="#D8F7F9" stop-opacity="0.0885417"/>
<stop offset="1" stop-color="#D8F7F9"/>
</radialGradient>
<radialGradient id="paint16_radial_244_4519" cx="0" cy="0" r="1" gradientUnits="userSpaceOnUse" gradientTransform="translate(522.794 542.088) rotate(139.317) scale(338.762)">
<stop stop-color="#C2C5FD" stop-opacity="0"/>
<stop offset="0.510417" stop-color="#C5C8FD" stop-opacity="0.0989583"/>
<stop offset="1" stop-color="#E2E4FA"/>
</radialGradient>
<radialGradient id="paint17_radial_244_4519" cx="0" cy="0" r="1" gradientUnits="userSpaceOnUse" gradientTransform="translate(550.748 500.036) rotate(-51.1483) scale(338.762)">
<stop stop-color="#F3F3FD" stop-opacity="0"/>
<stop offset="0.546875" stop-color="#F3F3FD" stop-opacity="0.0989583"/>
<stop offset="1" stop-color="#F3F3FD"/>
</radialGradient>
<radialGradient id="paint18_radial_244_4519" cx="0" cy="0" r="1" gradientUnits="userSpaceOnUse" gradientTransform="translate(519.947 543.411) rotate(-44.3352) scale(338.762 332.863)">
<stop stop-color="#C2C5FD" stop-opacity="0"/>
<stop offset="0.510417" stop-color="#C5C8FD" stop-opacity="0.0989583"/>
<stop offset="1" stop-color="#E2E4FA"/>
</radialGradient>
</defs>
</svg>
