<svg width="28" height="28" viewBox="0 0 28 28" fill="none" xmlns="http://www.w3.org/2000/svg">
<path d="M17.5931 3.21111H10.4067C9.80232 3.18161 9.21066 3.39168 8.76018 3.79571C8.30968 4.19974 8.0367 4.76513 8.00049 5.36917V12.4584C8.0234 13.6246 8.36409 14.7623 8.98587 15.7492C9.60763 16.736 10.4869 17.5345 11.5289 18.0585C12.29 18.462 13.1384 18.6729 13.9999 18.6729C14.8614 18.6729 15.7098 18.462 16.4709 18.0585C17.5129 17.5345 18.3922 16.736 19.0139 15.7492C19.6357 14.7623 19.9764 13.6246 19.9993 12.4584V5.36917C19.9631 4.76513 19.6901 4.19974 19.2396 3.79571C18.7892 3.39168 18.1975 3.18161 17.5931 3.21111Z" stroke="#303030" stroke-width="1.5" stroke-linecap="round"/>
<path d="M19.9993 5.36918H22.3948C22.9974 5.34261 23.5863 5.55399 24.0344 5.95771C24.4825 6.36144 24.754 6.92515 24.7902 7.52724C24.7867 8.88026 24.4376 10.21 23.7759 11.3902C23.0828 12.6103 22.1148 13.6522 20.9488 14.433L19.9993 15.0804L19.0713 15.6416" stroke="#303030" stroke-width="1.5" stroke-linecap="round"/>
<path d="M8.00037 5.36918H5.60492C5.00232 5.34261 4.41344 5.55399 3.9653 5.95771C3.51717 6.36144 3.2457 6.92515 3.20947 7.52724C3.21298 8.88026 3.56212 10.21 4.22376 11.3902C4.91692 12.6103 5.88486 13.6522 7.05082 14.433L8.00037 15.0804L8.92833 15.6416" stroke="#303030" stroke-width="1.5" stroke-linecap="round"/>
<path d="M11.6045 21.5545V18.0909" stroke="#303030" stroke-width="1.5" stroke-linecap="round"/>
<path d="M16.3955 21.5545V18.0909" stroke="#303030" stroke-width="1.5" stroke-linecap="round"/>
<path d="M10.2772 21.5546H17.7225C18.3264 21.5546 18.9055 21.7944 19.3325 22.2214C19.7594 22.6484 19.9993 23.2276 19.9993 23.8313V24.2198C19.9993 24.3715 19.9391 24.517 19.8318 24.6242C19.7245 24.7314 19.5791 24.7917 19.4275 24.7917H8.57238C8.4207 24.7917 8.27524 24.7314 8.168 24.6242C8.06075 24.517 8.00049 24.3715 8.00049 24.2198V23.8313C8.00049 23.2276 8.24037 22.6484 8.66734 22.2214C9.09431 21.7944 9.67342 21.5546 10.2772 21.5546Z" stroke="#303030" stroke-width="1.5" stroke-linecap="round"/>
<path d="M16.3332 10.5042C16.3332 9.21557 15.2885 8.1709 13.9998 8.1709C12.7112 8.1709 11.6665 9.21557 11.6665 10.5042C11.6665 11.7929 12.7112 12.8376 13.9998 12.8376C15.2885 12.8376 16.3332 11.7929 16.3332 10.5042Z" stroke="#303030" stroke-width="1.5"/>
</svg>
