<svg width="28" height="28" viewBox="0 0 28 28" fill="none" xmlns="http://www.w3.org/2000/svg">
<path d="M22.5138 11.1602H5.48627C5.14129 11.1608 4.80095 11.2394 4.49084 11.3898C4.18072 11.5402 3.90891 11.7587 3.69581 12.0287C3.48272 12.2988 3.3339 12.6135 3.26054 12.949C3.18718 13.2845 3.19118 13.6322 3.27226 13.966L5.09825 21.4406C5.36128 22.403 5.93509 23.2525 6.7312 23.8582C7.52731 24.4638 8.50149 24.7918 9.50348 24.7917H18.4966C19.4985 24.7918 20.4727 24.4638 21.2688 23.8582C22.0649 23.2525 22.6387 22.403 22.9018 21.4406L24.7277 13.966C24.8088 13.6322 24.8128 13.2845 24.7395 12.949C24.6661 12.6135 24.5173 12.2988 24.3042 12.0287C24.0911 11.7587 23.8193 11.5402 23.5092 11.3898C23.1991 11.2394 22.8587 11.1608 22.5138 11.1602Z" stroke="white" stroke-width="1.75" stroke-linecap="round" stroke-linejoin="round"/>
<path d="M9.43508 15.7051V20.2489" stroke="white" stroke-width="1.75" stroke-linecap="round" stroke-linejoin="round"/>
<path d="M14 15.7051V20.2489" stroke="white" stroke-width="1.75" stroke-linecap="round" stroke-linejoin="round"/>
<path d="M18.5651 15.7051V20.2489" stroke="white" stroke-width="1.75" stroke-linecap="round" stroke-linejoin="round"/>
<path d="M21.9888 11.1607C21.9888 9.0518 21.1471 7.02925 19.649 5.538C18.1508 4.04676 16.1188 3.20898 14 3.20898C11.8813 3.20898 9.84933 4.04676 8.35115 5.538C6.85297 7.02925 6.0113 9.0518 6.0113 11.1607" stroke="white" stroke-width="1.75" stroke-linecap="round" stroke-linejoin="round"/>
</svg>
