<svg width="92" height="92" viewBox="0 0 92 92" fill="none" xmlns="http://www.w3.org/2000/svg">
<g clip-path="url(#clip0_1322_23197)">
<path d="M29.9009 56.1752L36.5288 56.6627V62.3165C36.5288 62.3165 24.1448 74.4978 6.09961 60.0752H12.2488L12.9303 54.5195C12.9303 54.5195 19.9481 61.6327 29.9009 56.1752Z" fill="#0D2C40"/>
<path d="M7.45795 30.0547C7.45795 30.0547 -6.01014 42.5779 5.01727 58.6118L11.1728 59.1975L11.7592 53.2524C11.7592 53.2524 6.10131 43.9929 13.4107 36.6835L6.8557 36.177L7.45795 30.0547Z" fill="#0D2C40"/>
<path d="M8.92308 29.183C8.92308 29.183 25.7225 18.366 38.4933 31.4243L32.8322 31.0349L32.2458 37.3661C32.2458 37.3661 25.8049 29.5724 15.0723 35.6155L8.5332 35.3243L8.92308 29.183Z" fill="#0D2C40"/>
<path d="M33.708 38.9252L34.0979 32.3945L40.0506 32.9802L58.007 52.9585H51.8609L51.2745 58.5141L33.708 38.9252Z" fill="#0D2C40"/>
<path d="M31.5625 55.116L54.2988 30.0664L60.3498 30.652L59.9599 36.7934L37.6135 61.6436L37.7086 55.211L31.5625 55.116Z" fill="#02D35F"/>
<path d="M55.1758 29.1629L61.4708 29.6758L61.0334 35.6715C61.0334 35.6715 70.327 29.7486 77.1355 36.0355L83.7919 36.3267L84.391 30.4893C84.391 30.4893 73.988 18.7765 55.1758 29.1629Z" fill="#02D35F"/>
<path d="M78.0871 36.9907L84.7435 37.3801L85.257 31.5078C85.257 31.5078 99.8218 47.7127 84.0842 61.6478L77.6465 61.2014L78.2329 54.5536C78.2329 54.5536 86.9432 44.813 78.0871 36.9907Z" fill="#02D35F"/>
<path d="M59.5709 54.5349L52.8479 53.9492L52.4707 59.8721C52.4707 59.8721 64.4015 73.6141 82.4054 62.6484L76.2562 62.1514L76.8426 55.7916C76.8426 55.7916 69.0102 62.0627 59.5709 54.5349Z" fill="#02D35F"/>
<path d="M68.0789 44.2932V46.5091C68.0597 46.5954 68.0501 46.6835 68.0504 46.7719C68.0501 46.8613 68.0597 46.9504 68.0789 47.0378V50.6086H66.418V44.2773L68.0789 44.2932Z" fill="#0D2C40"/>
<path d="M69.5395 44.2928C68.9925 44.3636 68.4814 44.6038 68.0783 44.9798C67.8002 45.1951 67.5702 45.466 67.4026 45.775C67.2351 46.084 67.1338 46.4244 67.1052 46.7747C67.1297 47.1407 67.2286 47.4979 67.3959 47.8244C67.5632 48.151 67.7954 48.4401 68.0783 48.6741C68.4314 49.0104 68.8885 49.2169 69.3747 49.2597C70.9183 49.2977 71.679 47.9713 71.679 46.7778C71.679 45.5844 70.7345 44.2232 69.5395 44.2928ZM69.0355 47.8731C68.8059 47.863 68.5865 47.775 68.4136 47.6237C68.2408 47.4723 68.1247 47.2666 68.0846 47.0406C68.0654 46.9533 68.0558 46.8641 68.0561 46.7747C68.0558 46.6863 68.0654 46.5982 68.0846 46.5119C68.1247 46.2859 68.2408 46.0802 68.4136 45.9289C68.5865 45.7775 68.8059 45.6895 69.0355 45.6794C69.3092 45.7048 69.5634 45.8314 69.7486 46.0343C69.9337 46.2372 70.0363 46.5018 70.0363 46.7763C70.0363 47.0507 69.9337 47.3153 69.7486 47.5182C69.5634 47.7211 69.3092 47.8477 69.0355 47.8731ZM74.9819 46.1827C74.741 46.1067 73.8503 45.9674 73.8503 45.6319C73.8503 45.4419 74.1229 45.4198 74.256 45.4261C74.6364 45.4261 75.2069 45.8788 75.5239 45.7933C75.806 45.7205 76.0532 44.9924 76.1578 44.7455C75.3572 44.2892 74.4246 44.1194 73.5143 44.2643C73.2894 44.3071 73.0764 44.3981 72.8901 44.531C72.7038 44.6639 72.5485 44.8355 72.4349 45.0341C72.3214 45.2326 72.2522 45.4534 72.2323 45.6812C72.2123 45.909 72.242 46.1384 72.3193 46.3536C72.7219 47.3951 73.9581 46.9868 74.5825 47.6199C74.8392 47.8858 74.3099 48.0061 74.1356 47.9998C73.5995 47.9203 73.0869 47.7259 72.6331 47.43C72.4778 47.6516 71.9992 48.1802 72.0562 48.4556C72.1133 48.731 72.7441 48.9368 73.0072 49.0191C73.8883 49.304 75.2481 49.4116 75.9106 48.6107C76.7379 47.6484 76.0152 46.5183 74.9819 46.1827ZM62.0843 42.5391C61.3947 42.5391 60.7206 42.7433 60.1472 43.1259C59.5739 43.5085 59.127 44.0524 58.8631 44.6887C58.5992 45.325 58.5301 46.0251 58.6647 46.7006C58.7992 47.3761 59.1313 47.9965 59.6189 48.4835C60.1065 48.9705 60.7278 49.3022 61.4041 49.4365C62.0805 49.5709 62.7815 49.5019 63.4186 49.2384C64.0557 48.9748 64.6003 48.5285 64.9834 47.9559C65.3665 47.3832 65.571 46.71 65.571 46.0213C65.571 45.0977 65.2037 44.212 64.5498 43.559C63.8959 42.9059 63.0091 42.5391 62.0843 42.5391ZM62.0843 47.7972C61.7309 47.7965 61.3856 47.6913 61.092 47.4947C60.7984 47.2982 60.5698 47.0191 60.435 46.6928C60.3001 46.3665 60.2652 46.0076 60.3345 45.6615C60.4039 45.3154 60.5744 44.9975 60.8245 44.7482C61.0747 44.4988 61.3932 44.3291 61.7399 44.2604C62.0866 44.1918 62.4459 44.2273 62.7724 44.3626C63.0988 44.4978 63.3779 44.7266 63.5742 45.0202C63.7705 45.3137 63.8752 45.6588 63.8752 46.0118C63.8752 46.2468 63.8288 46.4794 63.7385 46.6965C63.6483 46.9135 63.5161 47.1106 63.3494 47.2765C63.1827 47.4424 62.9849 47.5737 62.7672 47.6631C62.5496 47.7524 62.3165 47.798 62.0812 47.7972H62.0843Z" fill="#0D2C40"/>
<path d="M29.0631 44.2186H27.0757L29.1772 49.7078H30.0838V47.3684L29.0631 44.2186ZM31.1076 44.2281H33.095L30.9903 49.7173H30.0838V47.3779L31.1076 44.2281ZM19.4145 43.4462C18.7471 42.9833 17.9726 42.6978 17.164 42.6168C16.0927 42.5155 14.9452 42.6453 13.9531 42.6453V49.7015H14.0007C14.1909 49.7236 14.381 49.7426 14.5744 49.7553C15.3362 49.8183 16.1022 49.812 16.8629 49.7363C18.3178 49.5748 19.2529 49.1032 19.8266 48.489C20.335 47.9175 20.6217 47.1831 20.6349 46.4187V46.2509V46.1623C20.6222 45.1588 20.3337 44.149 19.4145 43.4462ZM17.798 47.7578C17.1989 48.0933 16.4699 48.011 15.8106 48.011V44.3357C16.5111 44.3357 17.3003 44.2439 17.9153 44.6744C18.9359 45.393 18.8979 47.1373 17.7885 47.7578H17.798ZM26.204 48.3086C26.0424 48.1725 25.8364 47.9414 25.6177 47.9034C25.269 47.8559 24.8347 48.3244 24.448 48.3624C23.8458 48.4226 23.4115 48.0079 23.1801 47.5077H26.8443C26.8443 46.4947 26.7587 45.4279 25.8934 44.7314C24.2864 43.4209 21.6492 44.3895 21.3544 46.4567C21.0374 48.6346 22.7522 50.0402 24.8411 49.7679C25.359 49.6949 25.8452 49.4752 26.2421 49.1348C26.3847 49.0082 26.5939 48.8341 26.4893 48.6283C26.4146 48.5052 26.3179 48.3969 26.204 48.3086ZM25.0344 46.5137H23.1643C23.2047 46.2955 23.3203 46.0983 23.4912 45.9563C23.662 45.8144 23.8772 45.7367 24.0994 45.7367C24.3216 45.7367 24.5368 45.8144 24.7076 45.9563C24.8784 46.0983 24.994 46.2955 25.0344 46.5137Z" fill="#02D35F"/>
</g>
<defs>
<clipPath id="clip0_1322_23197">
<rect width="90.72" height="90.72" fill="white" transform="translate(0.679688 0.679688)"/>
</clipPath>
</defs>
</svg>
