<svg width="32" height="32" viewBox="0 0 32 32" fill="none" xmlns="http://www.w3.org/2000/svg">
<path d="M1 11H31V21H1V11Z" fill="white"/>
<path d="M5 4H27C29.208 4 31 5.792 31 8V12H1V8C1 5.792 2.792 4 5 4Z" fill="#E06535"/>
<path d="M27 28L5 28C2.792 28 1 26.208 1 24V20L31 20V24C31 26.208 29.208 28 27 28Z" fill="#2C6837"/>
<path d="M16 12.293C13.952 12.293 12.292 13.953 12.292 16.001C12.292 18.049 13.952 19.709 16 19.709C18.048 19.709 19.708 18.049 19.708 16.001C19.708 13.953 18.048 12.293 16 12.293ZM19.041 16.402C19.031 16.478 19.083 16.547 19.158 16.559C19.125 16.745 19.078 16.926 19.015 17.099C18.944 17.071 18.863 17.105 18.834 17.176C18.805 17.247 18.838 17.327 18.907 17.358C18.867 17.443 18.824 17.525 18.777 17.606L17.166 16.537L16.574 16.288C16.587 16.262 16.598 16.235 16.608 16.207L17.203 16.449L19.098 16.832L17.265 16.216L16.629 16.129C16.635 16.101 16.638 16.072 16.64 16.042L17.278 16.122L19.208 16.002L17.278 15.882L16.64 15.962C16.638 15.932 16.635 15.903 16.629 15.875L17.265 15.788L19.098 15.172L17.203 15.555L16.608 15.797C16.599 15.769 16.587 15.742 16.574 15.716L17.166 15.467L18.777 14.398C18.824 14.479 18.867 14.561 18.907 14.646C18.837 14.677 18.804 14.757 18.834 14.828C18.863 14.899 18.944 14.933 19.015 14.905C19.078 15.078 19.126 15.259 19.158 15.445C19.083 15.457 19.031 15.526 19.041 15.602C19.051 15.678 19.119 15.731 19.195 15.723C19.203 15.815 19.208 15.908 19.208 16.002C19.208 16.096 19.203 16.189 19.195 16.281C19.12 16.273 19.051 16.326 19.041 16.402ZM18.457 13.94C18.398 13.988 18.387 14.074 18.434 14.134C18.48 14.194 18.566 14.206 18.628 14.162C18.681 14.238 18.731 14.317 18.777 14.398L17.047 15.259L16.535 15.647C16.519 15.623 16.501 15.6 16.481 15.578L16.989 15.184L18.269 13.734L16.819 15.014L16.425 15.522C16.403 15.503 16.38 15.484 16.356 15.468L16.744 14.956L17.605 13.225C17.686 13.272 17.765 13.322 17.841 13.375C17.796 13.436 17.808 13.522 17.869 13.569C17.93 13.615 18.016 13.605 18.063 13.546C18.134 13.606 18.204 13.669 18.27 13.735C18.336 13.801 18.399 13.87 18.459 13.942L18.457 13.94ZM16.28 12.807C16.272 12.882 16.325 12.951 16.401 12.961C16.477 12.971 16.546 12.919 16.558 12.844C16.744 12.877 16.925 12.924 17.098 12.987C17.07 13.058 17.104 13.139 17.175 13.168C17.246 13.197 17.326 13.164 17.357 13.095C17.442 13.135 17.524 13.178 17.605 13.225L16.536 14.836L16.287 15.428C16.261 15.415 16.234 15.404 16.206 15.394L16.448 14.799L16.831 12.904L16.215 14.737L16.128 15.373C16.1 15.367 16.071 15.364 16.041 15.362L16.121 14.724L16.001 12.794L15.881 14.724L15.961 15.362C15.931 15.364 15.902 15.367 15.874 15.373L15.787 14.737L15.171 12.904L15.554 14.799L15.796 15.394C15.768 15.403 15.741 15.415 15.715 15.428L15.466 14.836L14.397 13.225C14.478 13.178 14.56 13.135 14.645 13.095C14.676 13.165 14.756 13.198 14.827 13.168C14.898 13.139 14.932 13.058 14.904 12.987C15.077 12.924 15.258 12.876 15.444 12.844C15.456 12.919 15.525 12.971 15.601 12.961C15.677 12.951 15.73 12.883 15.722 12.807C15.814 12.799 15.907 12.794 16.001 12.794C16.095 12.794 16.188 12.799 16.28 12.807ZM13.167 17.175C13.138 17.104 13.057 17.07 12.986 17.098C12.923 16.925 12.875 16.744 12.843 16.558C12.918 16.546 12.97 16.477 12.96 16.401C12.95 16.325 12.882 16.272 12.806 16.28C12.798 16.188 12.793 16.095 12.793 16.001C12.793 15.907 12.798 15.814 12.806 15.722C12.881 15.73 12.95 15.677 12.96 15.601C12.97 15.525 12.918 15.456 12.843 15.444C12.876 15.258 12.923 15.077 12.986 14.904C13.057 14.932 13.138 14.898 13.167 14.827C13.196 14.756 13.163 14.676 13.094 14.645C13.134 14.56 13.177 14.478 13.224 14.397L14.835 15.466L15.427 15.715C15.414 15.741 15.403 15.768 15.393 15.796L14.798 15.554L12.903 15.171L14.736 15.787L15.372 15.874C15.366 15.902 15.363 15.931 15.361 15.961L14.723 15.881L12.793 16.001L14.723 16.121L15.361 16.041C15.363 16.071 15.366 16.1 15.372 16.128L14.736 16.215L12.903 16.831L14.798 16.448L15.393 16.206C15.402 16.234 15.414 16.261 15.427 16.287L14.835 16.536L13.224 17.605C13.177 17.524 13.134 17.442 13.094 17.357C13.164 17.326 13.197 17.246 13.167 17.175ZM13.939 13.545C13.987 13.604 14.073 13.615 14.133 13.568C14.193 13.522 14.205 13.436 14.161 13.374C14.237 13.321 14.316 13.27 14.397 13.224L15.258 14.955L15.646 15.467C15.622 15.483 15.599 15.501 15.577 15.521L15.183 15.013L13.733 13.733L15.013 15.183L15.521 15.577C15.502 15.599 15.483 15.622 15.467 15.646L14.955 15.258L13.224 14.397C13.271 14.316 13.321 14.237 13.374 14.161C13.435 14.206 13.521 14.194 13.568 14.133C13.614 14.072 13.604 13.986 13.545 13.939C13.605 13.868 13.668 13.798 13.734 13.732C13.8 13.666 13.869 13.603 13.941 13.543L13.939 13.545ZM13.544 18.063C13.603 18.015 13.614 17.929 13.567 17.869C13.521 17.809 13.435 17.797 13.373 17.841C13.32 17.765 13.269 17.686 13.223 17.605L14.954 16.744L15.466 16.356C15.482 16.38 15.5 16.403 15.52 16.425L15.012 16.819L13.732 18.269L15.182 16.989L15.576 16.481C15.598 16.5 15.621 16.519 15.645 16.535L15.257 17.047L14.396 18.778C14.315 18.731 14.236 18.681 14.16 18.628C14.205 18.567 14.193 18.481 14.132 18.434C14.071 18.388 13.985 18.398 13.938 18.457C13.867 18.397 13.797 18.334 13.731 18.268C13.665 18.202 13.602 18.133 13.542 18.061L13.544 18.063ZM15.721 19.196C15.729 19.121 15.676 19.052 15.6 19.042C15.524 19.032 15.455 19.084 15.443 19.159C15.257 19.126 15.076 19.079 14.903 19.016C14.931 18.945 14.897 18.864 14.826 18.835C14.755 18.806 14.675 18.839 14.644 18.908C14.559 18.868 14.477 18.825 14.396 18.778L15.465 17.167L15.714 16.575C15.74 16.588 15.767 16.599 15.795 16.609L15.553 17.204L15.17 19.099L15.786 17.266L15.873 16.63C15.901 16.636 15.93 16.639 15.96 16.641L15.88 17.279L16 19.209L16.12 17.279L16.04 16.641C16.07 16.639 16.099 16.636 16.127 16.63L16.214 17.266L16.83 19.099L16.447 17.204L16.205 16.609C16.233 16.6 16.26 16.588 16.286 16.575L16.535 17.167L17.604 18.778C17.523 18.825 17.441 18.868 17.356 18.908C17.325 18.838 17.245 18.805 17.174 18.835C17.103 18.864 17.069 18.945 17.097 19.016C16.924 19.079 16.743 19.127 16.557 19.159C16.545 19.084 16.476 19.032 16.4 19.042C16.324 19.052 16.271 19.12 16.279 19.196C16.187 19.204 16.094 19.209 16 19.209C15.906 19.209 15.813 19.204 15.721 19.196ZM18.062 18.458C18.014 18.399 17.928 18.388 17.868 18.435C17.808 18.481 17.796 18.567 17.84 18.629C17.764 18.682 17.685 18.732 17.604 18.778L16.743 17.048L16.355 16.536C16.379 16.52 16.402 16.502 16.424 16.482L16.818 16.99L18.268 18.27L16.988 16.82L16.48 16.426C16.499 16.404 16.518 16.381 16.534 16.357L17.046 16.745L18.777 17.606C18.73 17.687 18.68 17.766 18.627 17.842C18.566 17.797 18.48 17.809 18.433 17.87C18.387 17.931 18.397 18.017 18.456 18.064C18.396 18.135 18.333 18.205 18.267 18.271C18.201 18.337 18.132 18.4 18.06 18.46L18.062 18.458Z" fill="#2C2C6B"/>
</svg>
