<svg width="14" height="14" viewBox="0 0 14 14" fill="none" xmlns="http://www.w3.org/2000/svg">
<path d="M7.68539 0.333984C8.43539 0.335984 8.81605 0.339984 9.14472 0.349318L9.27405 0.353984C9.42339 0.359318 9.57072 0.365984 9.74872 0.373984C10.4581 0.407318 10.9421 0.519318 11.3667 0.683984C11.8067 0.853318 12.1774 1.08265 12.5481 1.45265C12.8872 1.78581 13.1495 2.18897 13.3167 2.63398C13.4814 3.05865 13.5934 3.54265 13.6267 4.25265C13.6347 4.42998 13.6414 4.57732 13.6467 4.72732L13.6507 4.85665C13.6607 5.18465 13.6647 5.56532 13.6661 6.31532L13.6667 6.81265V7.68598C13.6683 8.17225 13.6632 8.65852 13.6514 9.14465L13.6474 9.27398C13.6421 9.42398 13.6354 9.57132 13.6274 9.74865C13.5941 10.4587 13.4807 10.942 13.3167 11.3673C13.1495 11.8123 12.8872 12.2155 12.5481 12.5487C12.2149 12.8878 11.8117 13.1501 11.3667 13.3173C10.9421 13.482 10.4581 13.594 9.74872 13.6273L9.27405 13.6473L9.14472 13.6513C8.81605 13.6607 8.43539 13.6653 7.68539 13.6667L7.18805 13.6673H6.31539C5.82889 13.669 5.3424 13.6639 4.85605 13.652L4.72672 13.648C4.56846 13.642 4.41024 13.6351 4.25205 13.6273C3.54272 13.594 3.05872 13.482 2.63339 13.3173C2.18861 13.15 1.78568 12.8877 1.45272 12.5487C1.11335 12.2156 0.850793 11.8124 0.683387 11.3673C0.51872 10.9427 0.40672 10.4587 0.373387 9.74865L0.353387 9.27398L0.350054 9.14465C0.337764 8.65853 0.332208 8.17226 0.333387 7.68598V6.31532C0.331542 5.82905 0.336431 5.34278 0.348054 4.85665L0.35272 4.72732C0.358054 4.57732 0.36472 4.42998 0.37272 4.25265C0.406054 3.54265 0.518054 3.05932 0.68272 2.63398C0.850517 2.18878 1.11354 1.78561 1.45339 1.45265C1.78616 1.11368 2.18885 0.851367 2.63339 0.683984C3.05872 0.519318 3.54205 0.407318 4.25205 0.373984C4.42939 0.365984 4.57739 0.359318 4.72672 0.353984L4.85605 0.349984C5.34218 0.33814 5.82845 0.333028 6.31472 0.334651L7.68539 0.333984ZM7.00005 3.66732C6.116 3.66732 5.26815 4.01851 4.64303 4.64363C4.01791 5.26875 3.66672 6.1166 3.66672 7.00065C3.66672 7.88471 4.01791 8.73255 4.64303 9.35767C5.26815 9.98279 6.116 10.334 7.00005 10.334C7.88411 10.334 8.73195 9.98279 9.35708 9.35767C9.9822 8.73255 10.3334 7.88471 10.3334 7.00065C10.3334 6.1166 9.9822 5.26875 9.35708 4.64363C8.73195 4.01851 7.88411 3.66732 7.00005 3.66732ZM7.00005 5.00065C7.2627 5.00061 7.52278 5.0523 7.76545 5.15276C8.00811 5.25323 8.22862 5.40052 8.41436 5.5862C8.60011 5.77189 8.74747 5.99234 8.84802 6.23498C8.94857 6.47761 9.00034 6.73767 9.00039 7.00032C9.00043 7.26296 8.94874 7.52304 8.84827 7.76571C8.7478 8.00838 8.60052 8.22888 8.41484 8.41463C8.22915 8.60038 8.0087 8.74773 7.76606 8.84828C7.52343 8.94883 7.26336 9.00061 7.00072 9.00065C6.47029 9.00065 5.96158 8.78994 5.58651 8.41487C5.21143 8.03979 5.00072 7.53108 5.00072 7.00065C5.00072 6.47022 5.21143 5.96151 5.58651 5.58644C5.96158 5.21136 6.47029 5.00065 7.00072 5.00065M10.5007 2.66732C10.2797 2.66732 10.0677 2.75512 9.91146 2.9114C9.75519 3.06768 9.66739 3.27964 9.66739 3.50065C9.66739 3.72166 9.75519 3.93363 9.91146 4.08991C10.0677 4.24619 10.2797 4.33398 10.5007 4.33398C10.7217 4.33398 10.9337 4.24619 11.09 4.08991C11.2463 3.93363 11.3341 3.72166 11.3341 3.50065C11.3341 3.27964 11.2463 3.06768 11.09 2.9114C10.9337 2.75512 10.7217 2.66732 10.5007 2.66732Z" fill="black"/>
</svg>
