<svg width="96" height="96" viewBox="0 0 96 96" fill="none" xmlns="http://www.w3.org/2000/svg">
<path fill-rule="evenodd" clip-rule="evenodd" d="M40.0291 50.6586C40.0291 50.6586 37.7361 51.9928 41.6627 52.4435C46.4209 52.9869 48.8514 52.9087 54.0932 51.9171C54.0932 51.9171 55.4733 52.7812 57.3997 53.5288C45.6455 58.5654 30.7979 53.2374 40.0291 50.6586ZM38.5923 44.0859C38.5923 44.0859 36.0199 45.9899 39.9499 46.3963C45.0329 46.9213 49.0451 46.9641 55.9922 45.6274C55.9922 45.6274 56.9515 46.601 58.461 47.1329C44.2515 51.2891 28.4258 47.4602 38.5923 44.0859Z" fill="#0E8AC8"/>
<path fill-rule="evenodd" clip-rule="evenodd" d="M50.6997 32.9423C53.5973 36.2776 49.9402 39.2773 49.9402 39.2773C49.9402 39.2773 57.2943 35.4818 53.9166 30.727C50.763 26.2949 48.344 24.0931 61.4379 16.5C61.4379 16.5 40.8839 21.6313 50.6997 32.9423Z" fill="#ED2025"/>
<path fill-rule="evenodd" clip-rule="evenodd" d="M66.2438 55.5233C66.2438 55.5233 67.9411 56.9228 64.3742 58.005C57.5914 60.0594 36.1383 60.679 30.1793 58.0867C28.0387 57.1544 32.0549 55.862 33.3185 55.589C34.6363 55.3041 35.3883 55.3559 35.3883 55.3559C33.0062 53.6785 19.9909 58.6505 28.7783 60.0769C52.74 63.9621 72.4583 58.3277 66.2438 55.5233ZM41.1312 37.2781C41.1312 37.2781 30.2201 39.8704 37.2679 40.8127C40.2447 41.2106 46.1743 41.119 51.7021 40.6553C56.2183 40.2763 60.7514 39.4655 60.7514 39.4655C60.7514 39.4655 59.1602 40.1483 58.0072 40.9342C46.9254 43.8493 25.5207 42.4916 31.6834 39.5118C36.8939 36.9913 41.1312 37.2781 41.1312 37.2781ZM60.7061 48.2185C71.9703 42.3666 66.7623 36.7417 63.1261 37.4998C62.2371 37.6855 61.8382 37.8459 61.8382 37.8459C61.8382 37.8459 62.1698 37.3269 62.8004 37.1038C69.9925 34.5763 75.5228 44.5605 60.4815 48.5144C60.481 48.5144 60.6543 48.358 60.7061 48.2185Z" fill="#0E8AC8"/>
<path fill-rule="evenodd" clip-rule="evenodd" d="M53.9159 4.23828C53.9159 4.23828 60.1529 10.4792 47.9987 20.0729C38.2516 27.7716 45.7765 32.1598 47.9958 37.1756C42.3052 32.0423 38.1311 27.5226 40.9311 23.3172C45.0419 17.144 56.4325 14.1503 53.9159 4.23828Z" fill="#ED2025"/>
<path fill-rule="evenodd" clip-rule="evenodd" d="M42.2381 64.0863C53.0485 64.7776 69.6526 63.7023 70.0466 58.5859C70.0466 58.5859 69.2906 60.5253 61.1113 62.0637C51.8831 63.8009 40.4994 63.5987 33.75 62.4846C33.75 62.4846 35.1331 63.6291 42.2381 64.0863Z" fill="#0E8AC8"/>
<path fill-rule="evenodd" clip-rule="evenodd" d="M69.5477 73.2652H69.219V73.081H70.1061V73.2652H69.7773V74.1856H69.5477V73.2652ZM71.3178 73.3111H71.3138L70.9871 74.1851H70.8372L70.5124 73.3111H70.5085V74.1851H70.2903V73.0805H70.6106L70.9114 73.8619L71.2122 73.0805H71.5294V74.1851H71.3183L71.3178 73.3111ZM40.4673 83.6369C39.4478 84.5204 38.37 85.0175 37.4023 85.0175C36.0238 85.0175 35.2757 84.1892 35.2757 82.8639C35.2757 81.4291 36.0765 80.3792 39.2819 80.3792H40.4668L40.4673 83.6369ZM43.2812 86.8114V76.9841C43.2812 74.4725 41.8488 72.815 38.3959 72.815C36.3813 72.815 34.6153 73.3126 33.1795 73.9466L33.5928 75.6872C34.7239 75.2718 36.1861 74.8869 37.6215 74.8869C39.6106 74.8869 40.4668 75.6872 40.4668 77.3442V78.5868H39.4727C34.6407 78.5868 32.4603 80.4614 32.4603 83.2798C32.4603 85.7082 33.8971 87.0888 36.602 87.0888C38.3406 87.0888 39.6395 86.3711 40.8522 85.3208L41.0729 86.8114H43.2812ZM52.6727 86.8114H49.164L44.9391 73.065H48.0041L50.6263 81.5123L51.21 84.0503C52.5327 80.3792 53.4715 76.6524 53.9412 73.065H56.9215C56.1236 77.5912 54.6863 82.5606 52.6727 86.8114ZM66.1382 83.6369C65.1157 84.5204 64.0379 85.0175 63.0722 85.0175C61.6937 85.0175 60.9466 84.1892 60.9466 82.8639C60.9466 81.4291 61.748 80.3792 64.9513 80.3792H66.1382V83.6369ZM68.9531 86.8114V76.9841C68.9531 74.4725 67.5162 72.815 64.0668 72.815C62.0503 72.815 60.2847 73.3126 58.8489 73.9466L59.2622 75.6872C60.3933 75.2718 61.8585 74.8869 63.2944 74.8869C65.2806 74.8869 66.1377 75.6872 66.1377 77.3442V78.5868H65.1436C60.3111 78.5868 58.1322 80.4614 58.1322 83.2798C58.1322 85.7082 59.5661 87.0888 62.2714 87.0888C64.0115 87.0888 65.3084 86.3711 66.5242 85.3208L66.7458 86.8114H68.9531ZM29.3749 89.1472C28.5731 90.3191 27.2762 91.2469 25.8583 91.7704L24.4688 90.1338C25.549 89.5795 26.4744 88.6845 26.9052 87.8518C27.2762 87.1097 27.4311 86.1555 27.4311 83.8715V68.1758H30.4218V83.6548C30.4218 86.7098 30.1778 87.9444 29.3749 89.1472Z" fill="#0E8AC8"/>
</svg>
