<svg width="88" height="90" viewBox="0 0 88 90" fill="none" xmlns="http://www.w3.org/2000/svg">
<path d="M87.5063 20.4122C87.5386 20.5318 87.5555 20.655 87.5555 20.7789V40.0277C87.5555 40.5306 87.2864 40.9951 86.8502 41.2453L70.6943 50.5469V68.9835C70.6943 69.4853 70.4276 69.9484 69.9925 70.201L36.2684 89.6148C36.1912 89.6587 36.107 89.6867 36.0228 89.7166C35.9912 89.7271 35.9614 89.7464 35.9281 89.7552C35.6923 89.8172 35.4445 89.8172 35.2088 89.7552C35.1702 89.7446 35.1351 89.7236 35.0983 89.7095C35.0211 89.6815 34.9404 89.6569 34.8667 89.6148L1.14959 70.201C0.713622 69.9506 0.444336 69.4863 0.444336 68.9835V11.2369C0.444336 11.1106 0.46188 10.9878 0.493458 10.8685C0.503984 10.8281 0.528545 10.7913 0.54258 10.7509C0.568896 10.6773 0.593457 10.6018 0.632053 10.5334C0.658368 10.4878 0.696964 10.451 0.728543 10.4088C0.768893 10.3527 0.805735 10.2948 0.853102 10.2457C0.893453 10.2053 0.946084 10.1755 0.991697 10.1404C1.04257 10.0983 1.08819 10.0527 1.14608 10.0194H1.14784L18.0073 0.312491C18.4417 0.062503 18.9763 0.062503 19.4107 0.312491L36.2702 10.0194H36.2737C36.3298 10.0545 36.3772 10.0983 36.4281 10.1387C36.4737 10.1738 36.5246 10.2053 36.5649 10.2439C36.614 10.2948 36.6491 10.3527 36.6912 10.4088C36.721 10.451 36.7614 10.4878 36.786 10.5334C36.8263 10.6036 36.8491 10.6773 36.8772 10.7509C36.8912 10.7913 36.9158 10.8281 36.9263 10.8702C36.9586 10.9898 36.9751 11.1131 36.9754 11.2369V47.3048L51.0244 39.2155V20.7771C51.0244 20.6543 51.0419 20.5298 51.0735 20.4122C51.0858 20.3701 51.1086 20.3333 51.1226 20.2929C51.1507 20.2192 51.1752 20.1438 51.2138 20.0754C51.2402 20.0298 51.2787 19.9929 51.3086 19.9508C51.3507 19.8947 51.3858 19.8368 51.4349 19.7877C51.4752 19.7473 51.5261 19.7175 51.5717 19.6824C51.6244 19.6403 51.67 19.5947 51.7261 19.5614H51.7279L68.589 9.85447C69.0234 9.60412 69.5582 9.60412 69.9925 9.85447L86.852 19.5614C86.9116 19.5964 86.9572 19.6403 87.0099 19.6807C87.0537 19.7157 87.1046 19.7473 87.1449 19.7859C87.1941 19.8368 87.2291 19.8947 87.2713 19.9508C87.3028 19.9929 87.3414 20.0298 87.366 20.0754C87.4063 20.1438 87.4291 20.2192 87.4572 20.2929C87.473 20.3333 87.4958 20.3701 87.5063 20.4122ZM84.745 39.2155V23.2087L78.845 26.6051L70.6943 31.298V47.3048L84.7467 39.2155H84.745ZM67.8855 68.1712V52.1539L59.8681 56.7328L36.9737 69.7993V85.9675L67.8855 68.1712ZM3.25482 13.6667V68.1712L34.1632 85.9657V69.801L18.016 60.6626L18.0108 60.6591L18.0038 60.6555C17.9494 60.624 17.9038 60.5784 17.8529 60.5398C17.809 60.5047 17.7581 60.4766 17.7195 60.438L17.716 60.4327C17.6704 60.3889 17.6388 60.3345 17.6002 60.2854C17.5652 60.238 17.5231 60.1977 17.495 60.1485L17.4932 60.1433C17.4617 60.0906 17.4424 60.0275 17.4195 59.9678C17.3967 59.9152 17.3669 59.8661 17.3529 59.8099V59.8082C17.3353 59.7415 17.3318 59.6713 17.3248 59.6029C17.3178 59.5503 17.3038 59.4977 17.3038 59.445V59.4415V21.7561L9.15475 17.0614L3.25482 13.6685V13.6667ZM18.7108 3.15105L4.66358 11.2369L18.7073 19.3228L32.7527 11.2352L18.7073 3.15105H18.7108ZM26.0159 53.6135L34.1649 48.9224V13.6667L28.265 17.0631L20.1142 21.7561V57.0117L26.0159 53.6135ZM69.2908 12.693L55.2454 20.7789L69.2908 28.8647L83.3345 20.7771L69.2908 12.693ZM67.8855 31.298L59.7348 26.6051L53.8349 23.2087V39.2155L61.9839 43.9066L67.8855 47.3048V31.298ZM35.5667 67.3695L56.1682 55.6082L66.4663 49.7311L52.4314 41.6505L36.2719 50.9539L21.5441 59.4328L35.5667 67.3695Z" fill="#FF2D20"/>
</svg>
