<svg width="16" height="16" viewBox="0 0 16 16" fill="none" xmlns="http://www.w3.org/2000/svg">
<path d="M4.33843 5.54297H1.58273C1.46043 5.54297 1.36133 5.64211 1.36133 5.76437V14.6173C1.36133 14.7396 1.46043 14.8387 1.58273 14.8387H4.33843C4.46073 14.8387 4.55983 14.7396 4.55983 14.6173V5.76437C4.55983 5.64211 4.46073 5.54297 4.33843 5.54297Z" fill="#0A51C9"/>
<path d="M2.961 1.14258C1.95831 1.14258 1.14258 1.95743 1.14258 2.959C1.14258 3.96103 1.95831 4.77618 2.961 4.77618C3.96289 4.77618 4.77795 3.96098 4.77795 2.959C4.778 1.95743 3.96289 1.14258 2.961 1.14258Z" fill="#0A51C9"/>
<path d="M11.3468 5.32227C10.24 5.32227 9.42187 5.79806 8.92562 6.33868V5.7637C8.92562 5.64144 8.82652 5.54229 8.70422 5.54229H6.06515C5.94285 5.54229 5.84375 5.64144 5.84375 5.7637V14.6166C5.84375 14.7389 5.94285 14.838 6.06515 14.838H8.81483C8.93713 14.838 9.03623 14.7389 9.03623 14.6166V10.2365C9.03623 8.76046 9.43715 8.18544 10.466 8.18544C11.5866 8.18544 11.6757 9.10727 11.6757 10.3124V14.6166C11.6757 14.7389 11.7748 14.838 11.8971 14.838H14.6478C14.7701 14.838 14.8692 14.7389 14.8692 14.6166V9.76067C14.8692 7.56591 14.4507 5.32227 11.3468 5.32227Z" fill="#0A51C9"/>
</svg>
