<svg width="28" height="14" viewBox="0 0 28 14" fill="none" xmlns="http://www.w3.org/2000/svg">
<g clip-path="url(#clip0_46_4537)">
<path d="M0.204825 13.6142H2.51092V3.79717H0.204825V13.6142ZM1.3533 2.5098C2.07563 2.5098 2.64055 1.95414 2.64055 1.25959C2.64055 0.555556 2.07563 0 1.3533 0C0.640119 0 0.0751953 0.555664 0.0751953 1.25959C0.0751953 1.95414 0.640119 2.5098 1.3533 2.5098ZM10.1888 0.0276688C6.2899 0.0276688 3.8448 2.68573 3.8448 6.93682C3.8448 11.1878 6.28968 13.8366 10.1889 13.8366C14.0786 13.8366 16.5237 11.1878 16.5237 6.93682C16.5237 2.68584 14.0787 0.0276688 10.1888 0.0276688ZM10.1889 2.06525C12.5691 2.06525 14.0879 3.95458 14.0879 6.93671C14.0879 9.90959 12.5691 11.799 10.189 11.799C7.7996 11.799 6.29001 9.90969 6.29001 6.93671C6.29001 3.95458 7.7996 2.06525 10.1889 2.06525ZM17.4965 9.85403C17.5984 12.3176 19.6174 13.8364 22.6921 13.8364C25.9243 13.8364 27.9619 12.2435 27.9619 9.70577C27.9619 7.7146 26.8135 6.59401 24.0999 5.97353L22.5626 5.62168C20.9232 5.23268 20.2472 4.71405 20.2472 3.82495C20.2472 2.71351 21.2659 1.97266 22.7755 1.97266C24.3036 1.97266 25.3501 2.72288 25.4614 3.97309H27.7396C27.684 1.6207 25.7391 0.0276688 22.794 0.0276688C19.886 0.0276688 17.8207 1.62985 17.8207 4.00087C17.8207 5.90871 18.9876 7.09412 21.451 7.65915L23.1829 8.06656C24.8684 8.46492 25.5538 9.02059 25.5538 9.98377C25.5538 11.0951 24.4331 11.8916 22.8218 11.8916C21.1919 11.8916 19.9602 11.0858 19.812 9.85403H17.4965Z" fill="white"/>
</g>
<defs>
<clipPath id="clip0_46_4537">
<rect width="28" height="13.9434" fill="white"/>
</clipPath>
</defs>
</svg>
