<svg width="72" height="70" viewBox="0 0 72 70" fill="none" xmlns="http://www.w3.org/2000/svg">
<g clip-path="url(#clip0_1322_23175)">
<path d="M60.0469 0H11.9531C5.3516 0 0 5.32781 0 11.9V57.988C0 64.5602 5.3516 69.888 11.9531 69.888H60.0469C66.6484 69.888 72 64.5602 72 57.988V11.9C72 5.32781 66.6484 0 60.0469 0Z" fill="#470137"/>
<path d="M37.85 18.3767L28.866 33.1391L38.4777 48.8149C38.5396 48.9247 38.5568 49.0535 38.5261 49.1755C38.5112 49.2276 38.4791 49.2405 38.4299 49.2425L38.3754 49.2416L38.309 49.2399C38.273 49.2399 38.2328 49.2416 38.1881 49.2489H31.2581L31.1219 49.2467C30.7484 49.2369 30.4793 49.1837 30.3153 48.9109C29.6741 47.6673 29.03 46.4251 28.3831 45.1844C27.8045 44.0778 27.21 42.9794 26.6 41.8897L26.3306 41.4097C25.6009 40.1187 24.8844 38.8204 24.1812 37.5149H24.1329C23.4835 38.8068 22.8153 40.0891 22.1284 41.3616C21.4356 42.644 20.7513 43.9183 20.0755 45.1844C19.3993 46.4513 18.707 47.7096 17.9988 48.9591C17.8849 49.2139 17.6956 49.2671 17.4321 49.2758L17.3224 49.2775H10.7054L10.6767 49.2783L10.5822 49.2867C10.5296 49.2898 10.4981 49.2786 10.488 49.1996C10.47 49.0824 10.4958 48.9626 10.5606 48.8631L19.8823 33.6199L10.8019 18.3291C10.7055 18.2014 10.6894 18.0972 10.7535 18.0166C10.7892 17.9755 10.8339 17.9432 10.8842 17.9223C10.9346 17.9014 10.9891 17.8925 11.0435 17.8962H17.8537C18.0022 17.8882 18.1506 17.9128 18.2885 17.9684C18.4038 18.0337 18.5031 18.1241 18.5782 18.233C19.1577 19.5154 19.8018 20.7976 20.5104 22.0797C21.2133 23.3534 21.9298 24.6197 22.6597 25.8784C23.3783 27.1176 24.047 28.3849 24.6641 29.6772H24.7125C25.345 28.3852 25.9971 27.1028 26.6686 25.8305C27.3282 24.5802 28.0044 23.3219 28.697 22.0556C29.3806 20.8057 30.0488 19.5474 30.7015 18.2812C30.7386 18.1625 30.805 18.0549 30.8947 17.9684C31.014 17.9082 31.148 17.8832 31.2811 17.8962H37.6084C37.6666 17.8817 37.7279 17.8865 37.7831 17.9097C37.8383 17.933 37.8845 17.9734 37.9146 18.025C37.9447 18.0766 37.9572 18.1366 37.9502 18.1958C37.9431 18.2551 37.917 18.3105 37.8756 18.3537L37.85 18.3767ZM52.0447 49.8691L51.7117 49.8727C49.4885 49.9065 47.2857 49.4466 45.2635 48.5265C43.3796 47.6585 41.8048 46.2415 40.7474 44.4631C39.6811 42.7001 39.1341 40.5035 39.1063 37.8733L39.1052 37.6591C39.0871 35.4522 39.6536 33.2795 40.7477 31.36C41.8427 29.4601 43.4389 27.8948 45.3636 26.8335L45.5292 26.7439C47.6217 25.5897 50.1494 25.0127 53.1123 25.0127L53.2417 25.0141L53.3896 25.0188L53.5555 25.0261L53.7401 25.0367L54.05 25.0586L54.401 25.0866L54.6578 25.109V15.636C54.6578 15.4118 54.7543 15.2996 54.9475 15.2995H61.0334C61.0728 15.2938 61.1129 15.2974 61.1506 15.3099C61.1884 15.3224 61.2226 15.3435 61.2507 15.3715C61.2789 15.3995 61.3 15.4336 61.3126 15.4712C61.3252 15.5087 61.3288 15.5487 61.3231 15.5879V44.0065C61.3231 44.4838 61.3417 44.9975 61.3788 45.5476L61.4688 46.795L61.5166 47.5165C61.5226 47.6165 61.4981 47.7159 61.4463 47.8017C61.3946 47.8875 61.318 47.9558 61.2266 47.9976C59.6566 48.6494 58.0213 49.1328 56.3484 49.4399C54.9282 49.701 53.4887 49.8445 52.0447 49.8691ZM54.6578 43.9101V30.7829C54.3968 30.7125 54.1302 30.6642 53.861 30.6387C53.532 30.6056 53.2014 30.5895 52.8707 30.5905C51.6986 30.5788 50.5403 30.8424 49.4898 31.36C48.4667 31.8667 47.593 32.6288 46.954 33.572C46.3164 34.5005 45.9866 35.7129 45.9649 37.2092L45.9638 37.3707C45.9404 38.4188 46.1123 39.4622 46.4709 40.4479C46.7629 41.2423 47.2244 41.9642 47.8237 42.5639C48.3971 43.1156 49.0915 43.5271 49.8521 43.7659C50.6554 44.0248 51.495 44.1548 52.3394 44.1509C52.79 44.1509 53.2086 44.1348 53.5952 44.1025C53.9036 44.0794 54.2094 44.0288 54.5087 43.9513L54.6578 43.9101Z" fill="#FF61F6"/>
</g>
<defs>
<clipPath id="clip0_1322_23175">
<rect width="72" height="70" fill="white"/>
</clipPath>
</defs>
</svg>
