<svg width="24" height="24" viewBox="0 0 24 24" fill="none" xmlns="http://www.w3.org/2000/svg">
<path d="M4.2471 8.51001H4.1961C3.5401 8.51001 3.0061 9.04701 3.0061 9.70001V14.883C3.0061 15.539 3.5401 16.073 4.1961 16.073H4.2481C4.9031 16.073 5.4381 15.538 5.4381 14.883V9.70001C5.43679 9.38463 5.31085 9.08257 5.08775 8.85965C4.86465 8.63674 4.56248 8.51106 4.2471 8.51001ZM6.0071 16.883C6.0071 17.485 6.4991 17.975 7.1011 17.975H8.2711V20.775C8.2711 21.432 8.8061 21.966 9.4611 21.966H9.5111C10.1681 21.966 10.7031 21.431 10.7031 20.774V17.975H12.3371V20.775C12.3371 21.432 12.8751 21.966 13.5291 21.966H13.5791C14.2361 21.966 14.7701 21.431 14.7701 20.774V17.975H15.9401C16.5411 17.975 17.0331 17.485 17.0331 16.883V8.70101H6.0071V16.883ZM14.2661 3.73801L15.1951 2.30501C15.2101 2.28335 15.2205 2.25892 15.2259 2.23316C15.2312 2.20739 15.2313 2.18082 15.2263 2.155C15.2212 2.12918 15.211 2.10465 15.1962 2.08284C15.1815 2.06103 15.1626 2.0424 15.1405 2.02803C15.1185 2.01367 15.0938 2.00387 15.0679 1.99921C15.042 1.99455 15.0154 1.99512 14.9897 2.0009C14.9641 2.00668 14.9398 2.01754 14.9184 2.03284C14.897 2.04815 14.8789 2.06758 14.8651 2.09001L13.9021 3.57301C13.1462 3.26637 12.3379 3.10947 11.5221 3.11101C10.7057 3.10921 9.89667 3.26612 9.1401 3.57301L8.1791 2.09001C8.16501 2.06796 8.14667 2.04894 8.12515 2.03406C8.10363 2.01918 8.07937 2.00874 8.05377 2.00334C8.02817 1.99794 8.00175 1.9977 7.97605 2.00262C7.95035 2.00754 7.9259 2.01753 7.9041 2.03201C7.88233 2.04609 7.86356 2.06434 7.84886 2.08569C7.83415 2.10705 7.82381 2.1311 7.81842 2.15647C7.81303 2.18183 7.8127 2.20801 7.81745 2.2335C7.82221 2.25899 7.83194 2.28329 7.8461 2.30501L8.7761 3.73801C7.1001 4.56001 5.9701 6.10701 5.9701 7.88201C5.9701 7.99134 5.97544 8.09901 5.9861 8.20501H17.0561C17.0651 8.09757 17.0698 7.98982 17.0701 7.88201C17.0701 6.10701 15.9411 4.56001 14.2661 3.73801ZM8.9551 6.30501C8.81401 6.30527 8.67859 6.24948 8.57863 6.1499C8.47867 6.05031 8.42237 5.9151 8.4221 5.77401C8.42184 5.63291 8.47763 5.49749 8.57722 5.39753C8.6768 5.29758 8.81201 5.24127 8.9531 5.24101C9.0942 5.24074 9.22962 5.29654 9.32958 5.39612C9.42953 5.4957 9.48584 5.63091 9.4861 5.77201C9.48637 5.9131 9.43057 6.04852 9.33099 6.14848C9.23141 6.24844 9.0962 6.30474 8.9551 6.30501ZM14.0871 6.30501C14.0172 6.3052 13.948 6.29164 13.8834 6.26509C13.8188 6.23853 13.76 6.19951 13.7105 6.15025C13.6104 6.05076 13.554 5.9156 13.5536 5.77451C13.5532 5.63341 13.6089 5.49794 13.7084 5.39789C13.8079 5.29784 13.943 5.24141 14.0841 5.24101C14.2252 5.24061 14.3607 5.29628 14.4607 5.39577C14.5608 5.49525 14.6172 5.63041 14.6176 5.77151C14.618 5.9126 14.5623 6.04808 14.4628 6.14813C14.3634 6.24818 14.2282 6.30461 14.0871 6.30501ZM18.8451 8.51001H18.7951C18.1401 8.51001 17.6041 9.04701 17.6041 9.70001V14.883C17.6041 15.539 18.1411 16.073 18.7951 16.073H18.8451C19.5021 16.073 20.0361 15.538 20.0361 14.883V9.70001C20.0361 9.04601 19.5011 8.51001 18.8451 8.51001Z" fill="black"/>
</svg>
