<svg width="35" height="40" viewBox="0 0 35 40" fill="none" xmlns="http://www.w3.org/2000/svg">
<path d="M2.49396 13.02H2.39196C1.07996 13.02 0.0119629 14.094 0.0119629 15.4V25.766C0.0119629 27.078 1.07996 28.146 2.39196 28.146H2.49596C3.80596 28.146 4.87596 27.076 4.87596 25.766V15.4C4.87333 14.7693 4.62146 14.1651 4.17526 13.7193C3.72906 13.2735 3.12471 13.0221 2.49396 13.02ZM6.01396 29.766C6.01396 30.97 6.99796 31.95 8.20196 31.95H10.542V37.55C10.542 38.864 11.612 39.932 12.922 39.932H13.022C14.336 39.932 15.406 38.862 15.406 37.548V31.95H18.674V37.55C18.674 38.864 19.75 39.932 21.058 39.932H21.158C22.472 39.932 23.54 38.862 23.54 37.548V31.95H25.88C27.082 31.95 28.066 30.97 28.066 29.766V13.402H6.01396V29.766ZM22.532 3.47602L24.39 0.610015C24.4199 0.566704 24.4408 0.517843 24.4515 0.466315C24.4622 0.414787 24.4625 0.361638 24.4523 0.310003C24.4421 0.258369 24.4217 0.209296 24.3922 0.165683C24.3628 0.122069 24.3249 0.0847978 24.2808 0.0560695C24.2367 0.0273411 24.1873 0.00773775 24.1355 -0.0015834C24.0837 -0.0109045 24.0306 -0.00975458 23.9792 0.00179863C23.9279 0.0133518 23.8794 0.0350741 23.8366 0.0656832C23.7937 0.0962923 23.7575 0.135168 23.73 0.180015L21.804 3.14601C20.2921 2.53274 18.6755 2.21893 17.044 2.22201C15.4111 2.21841 13.7931 2.53223 12.28 3.14601L10.358 0.180015C10.3298 0.135925 10.2931 0.0978892 10.2501 0.0681289C10.207 0.0383685 10.1585 0.0174794 10.1073 0.00668081C10.0561 -0.00411777 10.0033 -0.00460945 9.95186 0.00523446C9.90047 0.0150784 9.85155 0.0350607 9.80796 0.0640149C9.76442 0.0921862 9.72687 0.128675 9.69747 0.17139C9.66806 0.214105 9.64738 0.262204 9.6366 0.31293C9.62582 0.363656 9.62516 0.416011 9.63467 0.466992C9.64417 0.517972 9.66364 0.566576 9.69196 0.610015L11.552 3.47602C8.19996 5.12002 5.93996 8.21402 5.93996 11.764C5.93996 11.9827 5.95063 12.198 5.97196 12.41H28.112C28.13 12.1951 28.1393 11.9796 28.14 11.764C28.14 8.21402 25.882 5.12002 22.532 3.47602ZM11.91 8.61001C11.6278 8.61055 11.3569 8.49895 11.157 8.29979C10.9571 8.10063 10.8445 7.8302 10.844 7.54801C10.8434 7.26582 10.955 6.99498 11.1542 6.79507C11.3534 6.59515 11.6238 6.48254 11.906 6.48201C12.1882 6.48148 12.459 6.59308 12.6589 6.79224C12.8588 6.9914 12.9714 7.26182 12.972 7.54401C12.9725 7.82621 12.8609 8.09705 12.6617 8.29696C12.4626 8.49688 12.1922 8.60948 11.91 8.61001ZM22.174 8.61001C22.0342 8.61041 21.8958 8.58328 21.7666 8.53017C21.6373 8.47706 21.5198 8.39902 21.4207 8.3005C21.2206 8.10152 21.1078 7.8312 21.107 7.54901C21.1062 7.26682 21.2175 6.99588 21.4165 6.79577C21.6155 6.59567 21.8858 6.48281 22.168 6.48201C22.4502 6.48122 22.7211 6.59256 22.9212 6.79153C23.1213 6.99051 23.2342 7.26082 23.235 7.54302C23.2358 7.82521 23.1244 8.09615 22.9254 8.29626C22.7265 8.49636 22.4562 8.60922 22.174 8.61001ZM31.69 13.02H31.59C30.28 13.02 29.208 14.094 29.208 15.4V25.766C29.208 27.078 30.282 28.146 31.59 28.146H31.69C33.004 28.146 34.072 27.076 34.072 25.766V15.4C34.072 14.092 33.002 13.02 31.69 13.02Z" fill="black"/>
</svg>
