<svg width="691" height="211" viewBox="0 0 691 211" fill="none" xmlns="http://www.w3.org/2000/svg">
<mask id="mask0_229_14371" style="mask-type:alpha" maskUnits="userSpaceOnUse" x="0" y="-50" width="557" height="371">
<line x1="59.0215" y1="-49.5" x2="59.0215" y2="320.5" stroke="black" stroke-width="1.5"/>
<path d="M62.2716 -49.5L62.2716 320.5" stroke="black" stroke-width="1.5"/>
<path d="M66.2716 -49.5L66.2716 320.5" stroke="black" stroke-width="1.5"/>
<path d="M70.2716 -49.5L70.2716 320.5" stroke="black" stroke-width="1.5"/>
<path d="M74.2716 -49.5L74.2716 320.5" stroke="black" stroke-width="1.5"/>
<path d="M78.2716 -49.5L78.2716 320.5" stroke="black" stroke-width="1.5"/>
<path d="M82.2716 -49.5L82.2716 320.5" stroke="black" stroke-width="1.5"/>
<path d="M86.2716 -49.5L86.2716 320.5" stroke="black" stroke-width="1.5"/>
<path d="M90.2716 -49.5L90.2716 320.5" stroke="black" stroke-width="1.5"/>
<path d="M94.2716 -49.5L94.2716 320.5" stroke="black" stroke-width="1.5"/>
<path d="M98.2716 -49.5L98.2716 320.5" stroke="black" stroke-width="1.5"/>
<path d="M102.272 -49.5L102.272 320.5" stroke="black" stroke-width="1.5"/>
<path d="M106.272 -49.5L106.272 320.5" stroke="black" stroke-width="1.5"/>
<path d="M110.272 -49.5L110.272 320.5" stroke="black" stroke-width="1.5"/>
<path d="M114.272 -49.5L114.272 320.5" stroke="black" stroke-width="1.5"/>
<path d="M118.272 -49.5L118.272 320.5" stroke="black" stroke-width="1.5"/>
<path d="M122.272 -49.5L122.272 320.5" stroke="black" stroke-width="1.5"/>
<path d="M126.272 -49.5L126.272 320.5" stroke="black" stroke-width="1.5"/>
<path d="M130.271 -49.5L130.271 320.5" stroke="black" stroke-width="1.5"/>
<path d="M134.272 -49.5L134.272 320.5" stroke="black" stroke-width="1.5"/>
<path d="M138.272 -49.5L138.272 320.5" stroke="black" stroke-width="1.5"/>
<path d="M142.272 -49.5L142.272 320.5" stroke="black" stroke-width="1.5"/>
<path d="M146.272 -49.5L146.272 320.5" stroke="black" stroke-width="1.5"/>
<path d="M150.272 -49.5L150.272 320.5" stroke="black" stroke-width="1.5"/>
<path d="M154.272 -49.5L154.272 320.5" stroke="black" stroke-width="1.5"/>
<path d="M158.272 -49.5L158.272 320.5" stroke="black" stroke-width="1.5"/>
<path d="M162.272 -49.5L162.272 320.5" stroke="black" stroke-width="1.5"/>
<path d="M166.272 -49.5L166.272 320.5" stroke="black" stroke-width="1.5"/>
<path d="M170.272 -49.5L170.272 320.5" stroke="black" stroke-width="1.5"/>
<path d="M174.272 -49.5L174.272 320.5" stroke="black" stroke-width="1.5"/>
<path d="M178.272 -49.5L178.272 320.5" stroke="black" stroke-width="1.5"/>
<path d="M182.272 -49.5L182.272 320.5" stroke="black" stroke-width="1.5"/>
<path d="M186.272 -49.5L186.272 320.5" stroke="black" stroke-width="1.5"/>
<path d="M190.272 -49.5L190.272 320.5" stroke="black" stroke-width="1.5"/>
<path d="M194.272 -49.5L194.272 320.5" stroke="black" stroke-width="1.5"/>
<path d="M198.272 -49.5L198.272 320.5" stroke="black" stroke-width="1.5"/>
<path d="M202.272 -49.5L202.272 320.5" stroke="black" stroke-width="1.5"/>
<path d="M206.272 -49.5L206.272 320.5" stroke="black" stroke-width="1.5"/>
<path d="M210.272 -49.5L210.272 320.5" stroke="black" stroke-width="1.5"/>
<path d="M214.272 -49.5L214.272 320.5" stroke="black" stroke-width="1.5"/>
<path d="M218.272 -49.5L218.272 320.5" stroke="black" stroke-width="1.5"/>
<path d="M222.272 -49.5L222.272 320.5" stroke="black" stroke-width="1.5"/>
<path d="M226.272 -49.5L226.272 320.5" stroke="black" stroke-width="1.5"/>
<path d="M230.272 -49.5L230.272 320.5" stroke="black" stroke-width="1.5"/>
<path d="M234.272 -49.5L234.272 320.5" stroke="black" stroke-width="1.5"/>
<path d="M238.272 -49.5L238.272 320.5" stroke="black" stroke-width="1.5"/>
<path d="M242.272 -49.5L242.272 320.5" stroke="black" stroke-width="1.5"/>
<path d="M246.272 -49.5L246.272 320.5" stroke="black" stroke-width="1.5"/>
<path d="M250.272 -49.5L250.272 320.5" stroke="black" stroke-width="1.5"/>
<path d="M254.272 -49.5L254.272 320.5" stroke="black" stroke-width="1.5"/>
<path d="M258.272 -49.5V320.5" stroke="black" stroke-width="1.5"/>
<path d="M262.272 -49.5V320.5" stroke="black" stroke-width="1.5"/>
<path d="M266.272 -49.5V320.5" stroke="black" stroke-width="1.5"/>
<path d="M270.272 -49.5V320.5" stroke="black" stroke-width="1.5"/>
<path d="M274.272 -49.5V320.5" stroke="black" stroke-width="1.5"/>
<path d="M278.272 -49.5V320.5" stroke="black" stroke-width="1.5"/>
<path d="M282.272 -49.5V320.5" stroke="black" stroke-width="1.5"/>
<path d="M286.272 -49.5V320.5" stroke="black" stroke-width="1.5"/>
<path d="M290.272 -49.5V320.5" stroke="black" stroke-width="1.5"/>
<path d="M294.272 -49.5V320.5" stroke="black" stroke-width="1.5"/>
<path d="M298.272 -49.5V320.5" stroke="black" stroke-width="1.5"/>
<path d="M302.272 -49.5V320.5" stroke="black" stroke-width="1.5"/>
<path d="M306.272 -49.5V320.5" stroke="black" stroke-width="1.5"/>
<path d="M310.272 -49.5V320.5" stroke="black" stroke-width="1.5"/>
<path d="M314.272 -49.5V320.5" stroke="black" stroke-width="1.5"/>
<path d="M318.272 -49.5V320.5" stroke="black" stroke-width="1.5"/>
<path d="M322.272 -49.5V320.5" stroke="black" stroke-width="1.5"/>
<path d="M326.272 -49.5V320.5" stroke="black" stroke-width="1.5"/>
<path d="M330.272 -49.5V320.5" stroke="black" stroke-width="1.5"/>
<path d="M334.272 -49.5V320.5" stroke="black" stroke-width="1.5"/>
<path d="M338.272 -49.5V320.5" stroke="black" stroke-width="1.5"/>
<path d="M342.272 -49.5V320.5" stroke="black" stroke-width="1.5"/>
<path d="M346.272 -49.5V320.5" stroke="black" stroke-width="1.5"/>
<path d="M350.272 -49.5V320.5" stroke="black" stroke-width="1.5"/>
<path d="M354.272 -49.5V320.5" stroke="black" stroke-width="1.5"/>
<path d="M358.272 -49.5V320.5" stroke="black" stroke-width="1.5"/>
<path d="M362.272 -49.5V320.5" stroke="black" stroke-width="1.5"/>
<path d="M366.272 -49.5V320.5" stroke="black" stroke-width="1.5"/>
<path d="M370.272 -49.5V320.5" stroke="black" stroke-width="1.5"/>
<path d="M374.272 -49.5V320.5" stroke="black" stroke-width="1.5"/>
<path d="M378.272 -49.5V320.5" stroke="black" stroke-width="1.5"/>
<path d="M382.272 -49.5V320.5" stroke="black" stroke-width="1.5"/>
<path d="M386.272 -49.5V320.5" stroke="black" stroke-width="1.5"/>
<path d="M390.272 -49.5V320.5" stroke="black" stroke-width="1.5"/>
<path d="M394.272 -49.5V320.5" stroke="black" stroke-width="1.5"/>
<path d="M398.272 -49.5V320.5" stroke="black" stroke-width="1.5"/>
<path d="M402.272 -49.5V320.5" stroke="black" stroke-width="1.5"/>
<path d="M406.272 -49.5V320.5" stroke="black" stroke-width="1.5"/>
<path d="M410.272 -49.5V320.5" stroke="black" stroke-width="1.5"/>
<path d="M414.272 -49.5V320.5" stroke="black" stroke-width="1.5"/>
<path d="M418.272 -49.5V320.5" stroke="black" stroke-width="1.5"/>
<path d="M422.272 -49.5V320.5" stroke="black" stroke-width="1.5"/>
<path d="M426.272 -49.5V320.5" stroke="black" stroke-width="1.5"/>
<path d="M430.272 -49.5V320.5" stroke="black" stroke-width="1.5"/>
<path d="M434.272 -49.5V320.5" stroke="black" stroke-width="1.5"/>
<path d="M438.272 -49.5V320.5" stroke="black" stroke-width="1.5"/>
<path d="M442.272 -49.5V320.5" stroke="black" stroke-width="1.5"/>
<path d="M446.272 -49.5V320.5" stroke="black" stroke-width="1.5"/>
<path d="M450.272 -49.5V320.5" stroke="black" stroke-width="1.5"/>
<path d="M454.272 -49.5V320.5" stroke="black" stroke-width="1.5"/>
<path d="M458.272 -49.5V320.5" stroke="black" stroke-width="1.5"/>
<path d="M462.272 -49.5V320.5" stroke="black" stroke-width="1.5"/>
<path d="M466.272 -49.5V320.5" stroke="black" stroke-width="1.5"/>
<path d="M470.272 -49.5V320.5" stroke="black" stroke-width="1.5"/>
<path d="M474.272 -49.5V320.5" stroke="black" stroke-width="1.5"/>
<path d="M478.272 -49.5V320.5" stroke="black" stroke-width="1.5"/>
<path d="M482.272 -49.5V320.5" stroke="black" stroke-width="1.5"/>
<path d="M486.272 -49.5V320.5" stroke="black" stroke-width="1.5"/>
<path d="M490.272 -49.5V320.5" stroke="black" stroke-width="1.5"/>
<path d="M494.272 -49.5V320.5" stroke="black" stroke-width="1.5"/>
<path d="M498.272 -49.5V320.5" stroke="black" stroke-width="1.5"/>
</mask>
<g mask="url(#mask0_229_14371)">
<path d="M144.592 126.428C124.813 126.136 8.18457 182.614 8.18457 182.614V211H564.046V60C564.046 60 446.736 114.723 436.505 116.186C426.274 117.649 330.107 114.723 313.056 116.186C296.005 117.649 274.18 139.831 257.129 140.475C240.078 141.119 195.063 140.475 186.879 140.475C178.694 140.475 164.371 126.721 144.592 126.428Z" fill="url(#paint0_linear_229_14371)"/>
<path d="M141.864 126.428C122.085 126.136 5.45605 182.614 5.45605 182.614V211H561.318V60C561.318 60 444.007 114.723 433.776 116.186C423.546 117.649 327.378 114.723 310.327 116.186C293.276 117.649 271.451 139.831 254.4 140.475C237.349 141.119 192.335 140.475 184.15 140.475C175.966 140.475 161.643 126.721 141.864 126.428Z" fill="url(#paint1_linear_229_14371)"/>
</g>
<path d="M5.45605 183C5.45605 183 122.228 126.344 142.031 126.637C161.835 126.931 176.175 140.728 184.369 140.728C192.564 140.728 237.634 141.374 254.706 140.728C271.778 140.082 293.63 117.831 310.701 116.363C327.773 114.895 424.059 117.831 434.302 116.363C444.545 114.895 562 60 562 60L689 2" stroke="#978FED" stroke-width="3" stroke-linecap="round"/>
<defs>
<linearGradient id="paint0_linear_229_14371" x1="360.117" y1="96.5795" x2="406.703" y2="271.74" gradientUnits="userSpaceOnUse">
<stop stop-color="#E6E5FB"/>
<stop offset="1" stop-color="#FEFDFF"/>
</linearGradient>
<linearGradient id="paint1_linear_229_14371" x1="357.388" y1="96.5795" x2="403.974" y2="271.74" gradientUnits="userSpaceOnUse">
<stop stop-color="#E6E5FB"/>
<stop offset="1" stop-color="#FEFDFF"/>
</linearGradient>
</defs>
</svg>
