<svg width="564" height="153" viewBox="0 0 564 153" fill="none" xmlns="http://www.w3.org/2000/svg">
<mask id="mask0_229_13749" style="mask-type:alpha" maskUnits="userSpaceOnUse" x="0" y="-108" width="557" height="371">
<line x1="59.0215" y1="-107.5" x2="59.0215" y2="262.5" stroke="black" stroke-width="1.5"/>
<path d="M62.2716 -107.5L62.2716 262.5" stroke="black" stroke-width="1.5"/>
<path d="M66.2716 -107.5L66.2716 262.5" stroke="black" stroke-width="1.5"/>
<path d="M70.2716 -107.5L70.2716 262.5" stroke="black" stroke-width="1.5"/>
<path d="M74.2716 -107.5L74.2716 262.5" stroke="black" stroke-width="1.5"/>
<path d="M78.2716 -107.5L78.2716 262.5" stroke="black" stroke-width="1.5"/>
<path d="M82.2716 -107.5L82.2716 262.5" stroke="black" stroke-width="1.5"/>
<path d="M86.2716 -107.5L86.2716 262.5" stroke="black" stroke-width="1.5"/>
<path d="M90.2716 -107.5L90.2716 262.5" stroke="black" stroke-width="1.5"/>
<path d="M94.2716 -107.5L94.2716 262.5" stroke="black" stroke-width="1.5"/>
<path d="M98.2716 -107.5L98.2716 262.5" stroke="black" stroke-width="1.5"/>
<path d="M102.272 -107.5L102.272 262.5" stroke="black" stroke-width="1.5"/>
<path d="M106.272 -107.5L106.272 262.5" stroke="black" stroke-width="1.5"/>
<path d="M110.272 -107.5L110.272 262.5" stroke="black" stroke-width="1.5"/>
<path d="M114.272 -107.5L114.272 262.5" stroke="black" stroke-width="1.5"/>
<path d="M118.272 -107.5L118.272 262.5" stroke="black" stroke-width="1.5"/>
<path d="M122.272 -107.5L122.272 262.5" stroke="black" stroke-width="1.5"/>
<path d="M126.272 -107.5L126.272 262.5" stroke="black" stroke-width="1.5"/>
<path d="M130.271 -107.5L130.271 262.5" stroke="black" stroke-width="1.5"/>
<path d="M134.272 -107.5L134.272 262.5" stroke="black" stroke-width="1.5"/>
<path d="M138.272 -107.5L138.272 262.5" stroke="black" stroke-width="1.5"/>
<path d="M142.272 -107.5L142.272 262.5" stroke="black" stroke-width="1.5"/>
<path d="M146.272 -107.5L146.272 262.5" stroke="black" stroke-width="1.5"/>
<path d="M150.272 -107.5L150.272 262.5" stroke="black" stroke-width="1.5"/>
<path d="M154.272 -107.5L154.272 262.5" stroke="black" stroke-width="1.5"/>
<path d="M158.272 -107.5L158.272 262.5" stroke="black" stroke-width="1.5"/>
<path d="M162.272 -107.5L162.272 262.5" stroke="black" stroke-width="1.5"/>
<path d="M166.272 -107.5L166.272 262.5" stroke="black" stroke-width="1.5"/>
<path d="M170.272 -107.5L170.272 262.5" stroke="black" stroke-width="1.5"/>
<path d="M174.272 -107.5L174.272 262.5" stroke="black" stroke-width="1.5"/>
<path d="M178.272 -107.5L178.272 262.5" stroke="black" stroke-width="1.5"/>
<path d="M182.272 -107.5L182.272 262.5" stroke="black" stroke-width="1.5"/>
<path d="M186.272 -107.5L186.272 262.5" stroke="black" stroke-width="1.5"/>
<path d="M190.272 -107.5L190.272 262.5" stroke="black" stroke-width="1.5"/>
<path d="M194.272 -107.5L194.272 262.5" stroke="black" stroke-width="1.5"/>
<path d="M198.272 -107.5L198.272 262.5" stroke="black" stroke-width="1.5"/>
<path d="M202.272 -107.5L202.272 262.5" stroke="black" stroke-width="1.5"/>
<path d="M206.272 -107.5L206.272 262.5" stroke="black" stroke-width="1.5"/>
<path d="M210.272 -107.5L210.272 262.5" stroke="black" stroke-width="1.5"/>
<path d="M214.272 -107.5L214.272 262.5" stroke="black" stroke-width="1.5"/>
<path d="M218.272 -107.5L218.272 262.5" stroke="black" stroke-width="1.5"/>
<path d="M222.272 -107.5L222.272 262.5" stroke="black" stroke-width="1.5"/>
<path d="M226.272 -107.5L226.272 262.5" stroke="black" stroke-width="1.5"/>
<path d="M230.272 -107.5L230.272 262.5" stroke="black" stroke-width="1.5"/>
<path d="M234.272 -107.5L234.272 262.5" stroke="black" stroke-width="1.5"/>
<path d="M238.272 -107.5L238.272 262.5" stroke="black" stroke-width="1.5"/>
<path d="M242.272 -107.5L242.272 262.5" stroke="black" stroke-width="1.5"/>
<path d="M246.272 -107.5L246.272 262.5" stroke="black" stroke-width="1.5"/>
<path d="M250.272 -107.5L250.272 262.5" stroke="black" stroke-width="1.5"/>
<path d="M254.272 -107.5L254.272 262.5" stroke="black" stroke-width="1.5"/>
<path d="M258.272 -107.5V262.5" stroke="black" stroke-width="1.5"/>
<path d="M262.272 -107.5V262.5" stroke="black" stroke-width="1.5"/>
<path d="M266.272 -107.5V262.5" stroke="black" stroke-width="1.5"/>
<path d="M270.272 -107.5V262.5" stroke="black" stroke-width="1.5"/>
<path d="M274.272 -107.5V262.5" stroke="black" stroke-width="1.5"/>
<path d="M278.272 -107.5V262.5" stroke="black" stroke-width="1.5"/>
<path d="M282.272 -107.5V262.5" stroke="black" stroke-width="1.5"/>
<path d="M286.272 -107.5V262.5" stroke="black" stroke-width="1.5"/>
<path d="M290.272 -107.5V262.5" stroke="black" stroke-width="1.5"/>
<path d="M294.272 -107.5V262.5" stroke="black" stroke-width="1.5"/>
<path d="M298.272 -107.5V262.5" stroke="black" stroke-width="1.5"/>
<path d="M302.272 -107.5V262.5" stroke="black" stroke-width="1.5"/>
<path d="M306.272 -107.5V262.5" stroke="black" stroke-width="1.5"/>
<path d="M310.272 -107.5V262.5" stroke="black" stroke-width="1.5"/>
<path d="M314.272 -107.5V262.5" stroke="black" stroke-width="1.5"/>
<path d="M318.272 -107.5V262.5" stroke="black" stroke-width="1.5"/>
<path d="M322.272 -107.5V262.5" stroke="black" stroke-width="1.5"/>
<path d="M326.272 -107.5V262.5" stroke="black" stroke-width="1.5"/>
<path d="M330.272 -107.5V262.5" stroke="black" stroke-width="1.5"/>
<path d="M334.272 -107.5V262.5" stroke="black" stroke-width="1.5"/>
<path d="M338.272 -107.5V262.5" stroke="black" stroke-width="1.5"/>
<path d="M342.272 -107.5V262.5" stroke="black" stroke-width="1.5"/>
<path d="M346.272 -107.5V262.5" stroke="black" stroke-width="1.5"/>
<path d="M350.272 -107.5V262.5" stroke="black" stroke-width="1.5"/>
<path d="M354.272 -107.5V262.5" stroke="black" stroke-width="1.5"/>
<path d="M358.272 -107.5V262.5" stroke="black" stroke-width="1.5"/>
<path d="M362.272 -107.5V262.5" stroke="black" stroke-width="1.5"/>
<path d="M366.272 -107.5V262.5" stroke="black" stroke-width="1.5"/>
<path d="M370.272 -107.5V262.5" stroke="black" stroke-width="1.5"/>
<path d="M374.272 -107.5V262.5" stroke="black" stroke-width="1.5"/>
<path d="M378.272 -107.5V262.5" stroke="black" stroke-width="1.5"/>
<path d="M382.272 -107.5V262.5" stroke="black" stroke-width="1.5"/>
<path d="M386.272 -107.5V262.5" stroke="black" stroke-width="1.5"/>
<path d="M390.272 -107.5V262.5" stroke="black" stroke-width="1.5"/>
<path d="M394.272 -107.5V262.5" stroke="black" stroke-width="1.5"/>
<path d="M398.272 -107.5V262.5" stroke="black" stroke-width="1.5"/>
<path d="M402.272 -107.5V262.5" stroke="black" stroke-width="1.5"/>
<path d="M406.272 -107.5V262.5" stroke="black" stroke-width="1.5"/>
<path d="M410.272 -107.5V262.5" stroke="black" stroke-width="1.5"/>
<path d="M414.272 -107.5V262.5" stroke="black" stroke-width="1.5"/>
<path d="M418.272 -107.5V262.5" stroke="black" stroke-width="1.5"/>
<path d="M422.272 -107.5V262.5" stroke="black" stroke-width="1.5"/>
<path d="M426.272 -107.5V262.5" stroke="black" stroke-width="1.5"/>
<path d="M430.272 -107.5V262.5" stroke="black" stroke-width="1.5"/>
<path d="M434.272 -107.5V262.5" stroke="black" stroke-width="1.5"/>
<path d="M438.272 -107.5V262.5" stroke="black" stroke-width="1.5"/>
<path d="M442.272 -107.5V262.5" stroke="black" stroke-width="1.5"/>
<path d="M446.272 -107.5V262.5" stroke="black" stroke-width="1.5"/>
<path d="M450.272 -107.5V262.5" stroke="black" stroke-width="1.5"/>
<path d="M454.272 -107.5V262.5" stroke="black" stroke-width="1.5"/>
<path d="M458.272 -107.5V262.5" stroke="black" stroke-width="1.5"/>
<path d="M462.272 -107.5V262.5" stroke="black" stroke-width="1.5"/>
<path d="M466.272 -107.5V262.5" stroke="black" stroke-width="1.5"/>
<path d="M470.272 -107.5V262.5" stroke="black" stroke-width="1.5"/>
<path d="M474.272 -107.5V262.5" stroke="black" stroke-width="1.5"/>
<path d="M478.272 -107.5V262.5" stroke="black" stroke-width="1.5"/>
<path d="M482.272 -107.5V262.5" stroke="black" stroke-width="1.5"/>
<path d="M486.272 -107.5V262.5" stroke="black" stroke-width="1.5"/>
<path d="M490.272 -107.5V262.5" stroke="black" stroke-width="1.5"/>
<path d="M494.272 -107.5V262.5" stroke="black" stroke-width="1.5"/>
<path d="M498.272 -107.5V262.5" stroke="black" stroke-width="1.5"/>
</mask>
<g mask="url(#mask0_229_13749)">
<path d="M144.592 68.4283C124.813 68.1357 8.18457 124.614 8.18457 124.614V153H564.046V2C564.046 2 446.736 56.7229 436.505 58.186C426.274 59.6492 330.107 56.7229 313.056 58.186C296.005 59.6492 274.18 81.8308 257.129 82.4748C240.078 83.1188 195.063 82.4748 186.879 82.4748C178.694 82.4748 164.371 68.7209 144.592 68.4283Z" fill="url(#paint0_linear_229_13749)"/>
<path d="M141.864 68.4283C122.085 68.1357 5.45605 124.614 5.45605 124.614V153H561.318V2C561.318 2 444.007 56.7229 433.776 58.186C423.546 59.6492 327.378 56.7229 310.327 58.186C293.276 59.6492 271.451 81.8308 254.4 82.4748C237.349 83.1188 192.335 82.4748 184.15 82.4748C175.966 82.4748 161.643 68.7209 141.864 68.4283Z" fill="url(#paint1_linear_229_13749)"/>
</g>
<path d="M5.45605 125C5.45605 125 122.228 68.3437 142.031 68.6372C161.835 68.9308 176.175 82.7279 184.369 82.7279C192.564 82.7279 237.634 83.374 254.706 82.7279C271.778 82.0819 293.63 59.8306 310.701 58.3628C327.773 56.895 424.059 59.8306 434.302 58.3628C444.545 56.895 562 2 562 2" stroke="#978FED" stroke-width="3" stroke-linecap="round"/>
<defs>
<linearGradient id="paint0_linear_229_13749" x1="360.117" y1="38.5795" x2="406.703" y2="213.74" gradientUnits="userSpaceOnUse">
<stop stop-color="#E6E5FB"/>
<stop offset="1" stop-color="#FEFDFF"/>
</linearGradient>
<linearGradient id="paint1_linear_229_13749" x1="357.388" y1="38.5795" x2="403.974" y2="213.74" gradientUnits="userSpaceOnUse">
<stop stop-color="#E6E5FB"/>
<stop offset="1" stop-color="#FEFDFF"/>
</linearGradient>
</defs>
</svg>
