<svg width="372" height="330" viewBox="0 0 372 330" fill="none" xmlns="http://www.w3.org/2000/svg">
<g filter="url(#filter0_d_229_14283)">
<rect x="53" y="14" width="266.252" height="223.647" rx="9.6029" fill="white" shape-rendering="crispEdges"/>
<path d="M69.9897 32.6938H71.2399L72.7348 35.3971H72.7945L74.2894 32.6938H75.5397L73.3167 36.525V38.8047H72.2127V36.525L69.9897 32.6938ZM77.1216 38.8942C76.6741 38.8942 76.2862 38.7957 75.9579 38.5988C75.6297 38.4019 75.3751 38.1264 75.1941 37.7723C75.015 37.4182 74.9255 37.0044 74.9255 36.531C74.9255 36.0576 75.015 35.6428 75.1941 35.2867C75.3751 34.9306 75.6297 34.6541 75.9579 34.4572C76.2862 34.2603 76.6741 34.1618 77.1216 34.1618C77.5692 34.1618 77.9571 34.2603 78.2853 34.4572C78.6136 34.6541 78.8672 34.9306 79.0462 35.2867C79.2272 35.6428 79.3177 36.0576 79.3177 36.531C79.3177 37.0044 79.2272 37.4182 79.0462 37.7723C78.8672 38.1264 78.6136 38.4019 78.2853 38.5988C77.9571 38.7957 77.5692 38.8942 77.1216 38.8942ZM77.1276 38.0289C77.3703 38.0289 77.5732 37.9622 77.7363 37.829C77.8994 37.6937 78.0208 37.5127 78.1003 37.2859C78.1819 37.0591 78.2227 36.8065 78.2227 36.528C78.2227 36.2475 78.1819 35.9939 78.1003 35.7671C78.0208 35.5384 77.8994 35.3563 77.7363 35.2211C77.5732 35.0858 77.3703 35.0182 77.1276 35.0182C76.8789 35.0182 76.6721 35.0858 76.507 35.2211C76.3438 35.3563 76.2215 35.5384 76.1399 35.7671C76.0604 35.9939 76.0206 36.2475 76.0206 36.528C76.0206 36.8065 76.0604 37.0591 76.1399 37.2859C76.2215 37.5127 76.3438 37.6937 76.507 37.829C76.6721 37.9622 76.8789 38.0289 77.1276 38.0289ZM82.8556 36.8771V34.2215H83.9358V38.8047H82.8885V37.9901H82.8407C82.7373 38.2467 82.5672 38.4566 82.3305 38.6197C82.0958 38.7828 81.8063 38.8644 81.4622 38.8644C81.1618 38.8644 80.8962 38.7977 80.6655 38.6644C80.4367 38.5292 80.2577 38.3332 80.1284 38.0766C79.9991 37.818 79.9344 37.5057 79.9344 37.1397V34.2215H81.0146V36.9726C81.0146 37.263 81.0942 37.4938 81.2533 37.6649C81.4125 37.8359 81.6213 37.9215 81.8799 37.9215C82.0391 37.9215 82.1932 37.8827 82.3424 37.8051C82.4916 37.7275 82.614 37.6121 82.7094 37.459C82.8069 37.3038 82.8556 37.1099 82.8556 36.8771ZM84.7464 38.8047V34.2215H85.7938V34.9854H85.8415C85.9251 34.7208 86.0683 34.5169 86.2712 34.3737C86.4761 34.2284 86.7098 34.1558 86.9724 34.1558C87.0321 34.1558 87.0987 34.1588 87.1723 34.1648C87.2479 34.1688 87.3106 34.1757 87.3603 34.1857V35.1793C87.3146 35.1634 87.2419 35.1495 87.1425 35.1375C87.045 35.1236 86.9505 35.1166 86.859 35.1166C86.6621 35.1166 86.485 35.1594 86.3279 35.2449C86.1727 35.3285 86.0504 35.4449 85.9609 35.5941C85.8714 35.7433 85.8266 35.9153 85.8266 36.1103V38.8047H84.7464ZM90.3945 38.8047H89.2129L91.3642 32.6938H92.7308L94.8852 38.8047H93.7036L92.0714 33.947H92.0236L90.3945 38.8047ZM90.4332 36.4087H93.6558V37.2978H90.4332V36.4087ZM98.8908 35.4329L97.9061 35.5404C97.8783 35.4409 97.8295 35.3474 97.7599 35.2599C97.6923 35.1723 97.6008 35.1017 97.4854 35.048C97.37 34.9943 97.2288 34.9674 97.0617 34.9674C96.8369 34.9674 96.6479 35.0162 96.4947 35.1137C96.3436 35.2111 96.269 35.3374 96.2709 35.4926C96.269 35.6259 96.3177 35.7343 96.4172 35.8178C96.5186 35.9014 96.6857 35.97 96.9184 36.0237L97.7002 36.1908C98.1339 36.2843 98.4561 36.4325 98.667 36.6354C98.8798 36.8383 98.9873 37.1039 98.9892 37.4321C98.9873 37.7206 98.9027 37.9752 98.7356 38.196C98.5705 38.4148 98.3407 38.5859 98.0463 38.7092C97.7519 38.8325 97.4138 38.8942 97.0318 38.8942C96.4709 38.8942 96.0193 38.7768 95.6772 38.5421C95.335 38.3054 95.1311 37.9762 95.0655 37.5545L96.1188 37.453C96.1665 37.6599 96.268 37.816 96.4231 37.9215C96.5783 38.0269 96.7802 38.0796 97.0288 38.0796C97.2855 38.0796 97.4913 38.0269 97.6465 37.9215C97.8037 37.816 97.8822 37.6857 97.8822 37.5306C97.8822 37.3993 97.8315 37.2909 97.7301 37.2053C97.6306 37.1198 97.4754 37.0542 97.2646 37.0084L96.4828 36.8443C96.0432 36.7528 95.7179 36.5986 95.5071 36.3818C95.2962 36.163 95.1918 35.8865 95.1938 35.5523C95.1918 35.2698 95.2684 35.0251 95.4235 34.8183C95.5807 34.6094 95.7985 34.4483 96.077 34.3349C96.3575 34.2195 96.6807 34.1618 97.0467 34.1618C97.5838 34.1618 98.0066 34.2762 98.3149 34.505C98.6252 34.7337 98.8172 35.043 98.8908 35.4329ZM103.202 35.4329L102.218 35.5404C102.19 35.4409 102.141 35.3474 102.071 35.2599C102.004 35.1723 101.912 35.1017 101.797 35.048C101.681 34.9943 101.54 34.9674 101.373 34.9674C101.148 34.9674 100.959 35.0162 100.806 35.1137C100.655 35.2111 100.58 35.3374 100.582 35.4926C100.58 35.6259 100.629 35.7343 100.729 35.8178C100.83 35.9014 100.997 35.97 101.23 36.0237L102.012 36.1908C102.445 36.2843 102.768 36.4325 102.978 36.6354C103.191 36.8383 103.299 37.1039 103.301 37.4321C103.299 37.7206 103.214 37.9752 103.047 38.196C102.882 38.4148 102.652 38.5859 102.358 38.7092C102.063 38.8325 101.725 38.8942 101.343 38.8942C100.782 38.8942 100.331 38.7768 99.9886 38.5421C99.6465 38.3054 99.4426 37.9762 99.3769 37.5545L100.43 37.453C100.478 37.6599 100.579 37.816 100.735 37.9215C100.89 38.0269 101.092 38.0796 101.34 38.0796C101.597 38.0796 101.803 38.0269 101.958 37.9215C102.115 37.816 102.194 37.6857 102.194 37.5306C102.194 37.3993 102.143 37.2909 102.042 37.2053C101.942 37.1198 101.787 37.0542 101.576 37.0084L100.794 36.8443C100.355 36.7528 100.029 36.5986 99.8185 36.3818C99.6077 36.163 99.5032 35.8865 99.5052 35.5523C99.5032 35.2698 99.5798 35.0251 99.735 34.8183C99.8921 34.6094 100.11 34.4483 100.388 34.3349C100.669 34.2195 100.992 34.1618 101.358 34.1618C101.895 34.1618 102.318 34.2762 102.626 34.505C102.937 34.7337 103.129 35.043 103.202 35.4329ZM105.92 38.8942C105.461 38.8942 105.064 38.7987 104.73 38.6078C104.398 38.4148 104.142 38.1423 103.963 37.7902C103.784 37.4361 103.694 37.0193 103.694 36.5399C103.694 36.0685 103.784 35.6547 103.963 35.2987C104.144 34.9406 104.397 34.6621 104.721 34.4632C105.045 34.2623 105.426 34.1618 105.864 34.1618C106.146 34.1618 106.413 34.2076 106.663 34.2991C106.916 34.3886 107.139 34.5278 107.332 34.7168C107.527 34.9058 107.68 35.1465 107.791 35.4389C107.903 35.7293 107.958 36.0755 107.958 36.4773V36.8085H104.202V36.0804H106.923C106.921 35.8735 106.876 35.6895 106.789 35.5284C106.701 35.3653 106.579 35.237 106.422 35.1435C106.266 35.05 106.085 35.0033 105.879 35.0033C105.658 35.0033 105.464 35.057 105.297 35.1644C105.13 35.2698 104.999 35.4091 104.906 35.5821C104.814 35.7532 104.768 35.9412 104.766 36.1461V36.7816C104.766 37.0482 104.814 37.277 104.912 37.4679C105.009 37.6569 105.145 37.8021 105.321 37.9036C105.496 38.003 105.7 38.0528 105.935 38.0528C106.092 38.0528 106.235 38.0309 106.362 37.9871C106.489 37.9414 106.6 37.8747 106.693 37.7872C106.787 37.6997 106.857 37.5913 106.905 37.462L107.914 37.5753C107.85 37.8419 107.729 38.0746 107.549 38.2736C107.372 38.4705 107.146 38.6237 106.869 38.7331C106.593 38.8405 106.276 38.8942 105.92 38.8942ZM110.861 34.2215V35.057H108.226V34.2215H110.861ZM108.876 33.1234H109.957V37.4261C109.957 37.5714 109.978 37.6828 110.022 37.7603C110.068 37.8359 110.128 37.8876 110.201 37.9155C110.275 37.9433 110.356 37.9573 110.446 37.9573C110.513 37.9573 110.575 37.9523 110.631 37.9424C110.689 37.9324 110.732 37.9235 110.762 37.9155L110.944 38.7599C110.886 38.7798 110.804 38.8017 110.697 38.8256C110.591 38.8494 110.462 38.8634 110.309 38.8673C110.038 38.8753 109.794 38.8345 109.578 38.745C109.361 38.6535 109.189 38.5123 109.061 38.3213C108.936 38.1303 108.874 37.8916 108.876 37.6052V33.1234ZM115.021 35.4329L114.036 35.5404C114.008 35.4409 113.959 35.3474 113.89 35.2599C113.822 35.1723 113.731 35.1017 113.615 35.048C113.5 34.9943 113.359 34.9674 113.192 34.9674C112.967 34.9674 112.778 35.0162 112.625 35.1137C112.473 35.2111 112.399 35.3374 112.401 35.4926C112.399 35.6259 112.448 35.7343 112.547 35.8178C112.648 35.9014 112.816 35.97 113.048 36.0237L113.83 36.1908C114.264 36.2843 114.586 36.4325 114.797 36.6354C115.01 36.8383 115.117 37.1039 115.119 37.4321C115.117 37.7206 115.033 37.9752 114.865 38.196C114.7 38.4148 114.471 38.5859 114.176 38.7092C113.882 38.8325 113.544 38.8942 113.162 38.8942C112.601 38.8942 112.149 38.7768 111.807 38.5421C111.465 38.3054 111.261 37.9762 111.195 37.5545L112.249 37.453C112.296 37.6599 112.398 37.816 112.553 37.9215C112.708 38.0269 112.91 38.0796 113.159 38.0796C113.415 38.0796 113.621 38.0269 113.776 37.9215C113.934 37.816 114.012 37.6857 114.012 37.5306C114.012 37.3993 113.961 37.2909 113.86 37.2053C113.76 37.1198 113.605 37.0542 113.394 37.0084L112.613 36.8443C112.173 36.7528 111.848 36.5986 111.637 36.3818C111.426 36.163 111.322 35.8865 111.324 35.5523C111.322 35.2698 111.398 35.0251 111.553 34.8183C111.711 34.6094 111.928 34.4483 112.207 34.3349C112.487 34.2195 112.811 34.1618 113.177 34.1618C113.714 34.1618 114.136 34.2762 114.445 34.505C114.755 34.7337 114.947 35.043 115.021 35.4329Z" fill="#242424"/>
<path d="M80.1885 64.4574V85.4092H76.393V68.1506H76.2703L71.3699 71.2811V67.8027L76.5772 64.4574H80.1885ZM84.3079 85.4092V82.6674L91.5817 75.5369C92.2774 74.8344 92.8571 74.2103 93.3209 73.6647C93.7847 73.1191 94.1325 72.5905 94.3644 72.079C94.5963 71.5675 94.7122 71.0219 94.7122 70.4422C94.7122 69.7806 94.5622 69.2145 94.2621 68.7439C93.962 68.2665 93.5494 67.8982 93.0242 67.639C92.499 67.3799 91.9023 67.2503 91.2339 67.2503C90.545 67.2503 89.9414 67.3935 89.4231 67.68C88.9048 67.9596 88.5024 68.3586 88.2159 68.8769C87.9363 69.3953 87.7965 70.0125 87.7965 70.7286H84.1852C84.1852 69.3987 84.4887 68.2426 85.0957 67.2605C85.7027 66.2784 86.5381 65.5179 87.6021 64.9791C88.6729 64.4404 89.9005 64.171 91.285 64.171C92.69 64.171 93.9245 64.4335 94.9884 64.9587C96.0524 65.4838 96.8776 66.2034 97.4642 67.1173C98.0575 68.0312 98.3542 69.0747 98.3542 70.2478C98.3542 71.0321 98.2042 71.8028 97.9041 72.5598C97.604 73.3169 97.0754 74.1558 96.3184 75.0765C95.5681 75.9972 94.5144 77.1124 93.1572 78.4218L89.5459 82.0945V82.2378H98.6714V85.4092H84.3079ZM100.172 81.5216V78.5037L109.062 64.4574H111.579V68.7542H110.044L104.059 78.2377V78.4014H116.469V81.5216H100.172ZM110.167 85.4092V80.6009L110.208 79.2505V64.4574H113.788V85.4092H110.167ZM122.335 82.5447L122.202 83.67C122.107 84.5294 121.936 85.4024 121.691 86.289C121.452 87.1824 121.199 88.0043 120.933 88.7545C120.667 89.5047 120.453 90.0947 120.289 90.5244H117.793C117.888 90.1083 118.018 89.5422 118.182 88.8261C118.352 88.11 118.516 87.3052 118.673 86.4118C118.829 85.5183 118.935 84.6112 118.99 83.6905L119.061 82.5447H122.335ZM124.864 81.5216V78.5037L133.754 64.4574H136.27V68.7542H134.736L128.751 78.2377V78.4014H141.161V81.5216H124.864ZM134.859 85.4092V80.6009L134.9 79.2505V64.4574H138.48V85.4092H134.859ZM143.229 85.4092V82.6674L150.503 75.5369C151.198 74.8344 151.778 74.2103 152.242 73.6647C152.706 73.1191 153.053 72.5905 153.285 72.079C153.517 71.5675 153.633 71.0219 153.633 70.4422C153.633 69.7806 153.483 69.2145 153.183 68.7439C152.883 68.2665 152.47 67.8982 151.945 67.639C151.42 67.3799 150.823 67.2503 150.155 67.2503C149.466 67.2503 148.862 67.3935 148.344 67.68C147.826 67.9596 147.423 68.3586 147.137 68.8769C146.857 69.3953 146.717 70.0125 146.717 70.7286H143.106C143.106 69.3987 143.41 68.2426 144.017 67.2605C144.624 66.2784 145.459 65.5179 146.523 64.9791C147.594 64.4404 148.821 64.171 150.206 64.171C151.611 64.171 152.845 64.4335 153.909 64.9587C154.973 65.4838 155.799 66.2034 156.385 67.1173C156.978 68.0312 157.275 69.0747 157.275 70.2478C157.275 71.0321 157.125 71.8028 156.825 72.5598C156.525 73.3169 155.996 74.1558 155.239 75.0765C154.489 75.9972 153.435 77.1124 152.078 78.4218L148.467 82.0945V82.2378H157.592V85.4092H143.229ZM167.666 85.8082C165.981 85.8082 164.535 85.3819 163.328 84.5294C162.128 83.67 161.204 82.4321 160.556 80.8157C159.915 79.1925 159.594 77.2385 159.594 74.9538C159.601 72.669 159.925 70.7252 160.566 69.1224C161.214 67.5129 162.138 66.2852 163.338 65.4395C164.545 64.5938 165.988 64.171 167.666 64.171C169.344 64.171 170.786 64.5938 171.993 65.4395C173.2 66.2852 174.125 67.5129 174.766 69.1224C175.414 70.732 175.738 72.6758 175.738 74.9538C175.738 77.2454 175.414 79.2028 174.766 80.826C174.125 82.4424 173.2 83.6768 171.993 84.5294C170.793 85.3819 169.35 85.8082 167.666 85.8082ZM167.666 82.6061C168.975 82.6061 170.009 81.9615 170.766 80.6725C171.529 79.3767 171.911 77.4704 171.911 74.9538C171.911 73.2896 171.737 71.8915 171.39 70.7593C171.042 69.6271 170.551 68.7746 169.916 68.2017C169.282 67.622 168.532 67.3321 167.666 67.3321C166.363 67.3321 165.333 67.9801 164.576 69.2759C163.819 70.5649 163.437 72.4575 163.43 74.9538C163.424 76.6247 163.591 78.0297 163.932 79.1687C164.28 80.3076 164.771 81.167 165.405 81.7467C166.039 82.3196 166.793 82.6061 167.666 82.6061ZM179.443 85.6342C178.822 85.6342 178.29 85.416 177.847 84.9795C177.403 84.543 177.185 84.011 177.192 83.3836C177.185 82.7697 177.403 82.2446 177.847 81.8081C178.29 81.3716 178.822 81.1533 179.443 81.1533C180.043 81.1533 180.565 81.3716 181.008 81.8081C181.458 82.2446 181.686 82.7697 181.693 83.3836C181.686 83.7996 181.577 84.1781 181.366 84.5191C181.161 84.8602 180.889 85.133 180.547 85.3376C180.213 85.5354 179.845 85.6342 179.443 85.6342ZM191.13 85.6956C189.93 85.6956 188.849 85.4569 187.887 84.9795C186.925 84.5021 186.155 83.8473 185.575 83.0153C184.995 82.1832 184.678 81.2352 184.623 80.1712H187.079C187.174 81.1192 187.604 81.9036 188.368 82.5242C189.138 83.138 190.059 83.445 191.13 83.445C191.989 83.445 192.753 83.2438 193.422 82.8414C194.097 82.439 194.625 81.8865 195.007 81.184C195.396 80.4747 195.59 79.6734 195.59 78.7799C195.59 77.866 195.389 77.051 194.987 76.3348C194.591 75.6119 194.046 75.0424 193.35 74.6264C192.654 74.2103 191.86 73.9989 190.966 73.9921C190.325 73.9853 189.667 74.0842 188.992 74.2888C188.317 74.4866 187.761 74.7423 187.324 75.0561L184.951 74.7696L186.219 64.4574H197.104V66.7081H188.347L187.611 72.8872H187.733C188.163 72.5462 188.702 72.2632 189.35 72.0381C189.998 71.813 190.673 71.7005 191.375 71.7005C192.658 71.7005 193.8 72.0074 194.803 72.6212C195.812 73.2282 196.603 74.0603 197.176 75.1174C197.756 76.1746 198.046 77.3818 198.046 78.739C198.046 80.0758 197.746 81.2693 197.145 82.3196C196.552 83.3631 195.734 84.1884 194.69 84.7954C193.647 85.3955 192.46 85.6956 191.13 85.6956ZM207.743 85.6956C206.202 85.6956 204.889 85.2762 203.805 84.4373C202.72 83.5916 201.891 82.3674 201.319 80.7646C200.746 79.155 200.459 77.2113 200.459 74.9333C200.459 72.669 200.746 70.7354 201.319 69.1327C201.898 67.5231 202.73 66.2955 203.815 65.4497C204.906 64.5972 206.215 64.171 207.743 64.171C209.271 64.171 210.577 64.5972 211.661 65.4497C212.753 66.2955 213.585 67.5231 214.158 69.1327C214.737 70.7354 215.027 72.669 215.027 74.9333C215.027 77.2113 214.741 79.155 214.168 80.7646C213.595 82.3674 212.766 83.5916 211.682 84.4373C210.597 85.2762 209.285 85.6956 207.743 85.6956ZM207.743 83.445C209.271 83.445 210.458 82.7084 211.303 81.2352C212.149 79.762 212.572 77.6614 212.572 74.9333C212.572 73.1191 212.378 71.5743 211.989 70.2989C211.607 69.0236 211.054 68.0517 210.331 67.3833C209.615 66.7149 208.753 66.3807 207.743 66.3807C206.229 66.3807 205.046 67.1275 204.193 68.6212C203.341 70.108 202.914 72.212 202.914 74.9333C202.914 76.7475 203.105 78.2888 203.487 79.5574C203.869 80.826 204.418 81.791 205.134 82.4526C205.857 83.1142 206.727 83.445 207.743 83.445Z" fill="#242424"/>
<path d="M70.0046 95.4984H71.0519L72.6483 98.2764H72.7139L74.3103 95.4984H75.3576L73.1406 99.2104V101.609H72.2216V99.2104L70.0046 95.4984ZM77.0321 101.702C76.6024 101.702 76.2275 101.603 75.9072 101.406C75.5869 101.21 75.3383 100.934 75.1612 100.58C74.9842 100.226 74.8957 99.8121 74.8957 99.3387C74.8957 98.8632 74.9842 98.4475 75.1612 98.0914C75.3383 97.7353 75.5869 97.4588 75.9072 97.2619C76.2275 97.065 76.6024 96.9665 77.0321 96.9665C77.4618 96.9665 77.8368 97.065 78.157 97.2619C78.4773 97.4588 78.726 97.7353 78.903 98.0914C79.08 98.4475 79.1686 98.8632 79.1686 99.3387C79.1686 99.8121 79.08 100.226 78.903 100.58C78.726 100.934 78.4773 101.21 78.157 101.406C77.8368 101.603 77.4618 101.702 77.0321 101.702ZM77.0351 100.953C77.3136 100.953 77.5443 100.879 77.7274 100.732C77.9104 100.585 78.0456 100.389 78.1332 100.144C78.2227 99.8996 78.2674 99.6301 78.2674 99.3357C78.2674 99.0433 78.2227 98.7747 78.1332 98.53C78.0456 98.2834 77.9104 98.0854 77.7274 97.9362C77.5443 97.7871 77.3136 97.7125 77.0351 97.7125C76.7546 97.7125 76.5219 97.7871 76.3369 97.9362C76.1539 98.0854 76.0176 98.2834 75.9281 98.53C75.8406 98.7747 75.7968 99.0433 75.7968 99.3357C75.7968 99.6301 75.8406 99.8996 75.9281 100.144C76.0176 100.389 76.1539 100.585 76.3369 100.732C76.5219 100.879 76.7546 100.953 77.0351 100.953ZM82.7676 99.7087V97.0262H83.6628V101.609H82.7855V100.816H82.7378C82.6324 101.06 82.4633 101.264 82.2305 101.427C81.9998 101.588 81.7123 101.669 81.3682 101.669C81.0738 101.669 80.8132 101.604 80.5864 101.475C80.3616 101.344 80.1846 101.15 80.0553 100.893C79.928 100.637 79.8643 100.319 79.8643 99.9414V97.0262H80.7565V99.834C80.7565 100.146 80.843 100.395 81.0161 100.58C81.1892 100.765 81.4139 100.857 81.6904 100.857C81.8575 100.857 82.0236 100.816 82.1888 100.732C82.3558 100.649 82.4941 100.522 82.6035 100.353C82.7149 100.184 82.7696 99.9692 82.7676 99.7087ZM88.4067 103.424C88.0426 103.424 87.7293 103.376 87.4668 103.28C87.2062 103.185 86.9933 103.059 86.8282 102.901C86.6631 102.744 86.5398 102.572 86.4582 102.385L87.2251 102.069C87.2788 102.156 87.3504 102.249 87.4399 102.346C87.5314 102.446 87.6547 102.53 87.8099 102.6C87.9671 102.67 88.169 102.704 88.4156 102.704C88.7538 102.704 89.0333 102.622 89.2541 102.457C89.4749 102.294 89.5853 102.033 89.5853 101.675V100.774H89.5286C89.4749 100.871 89.3973 100.98 89.2959 101.099C89.1964 101.218 89.0591 101.322 88.8841 101.409C88.709 101.497 88.4813 101.541 88.2008 101.541C87.8388 101.541 87.5125 101.456 87.2221 101.287C86.9336 101.116 86.7049 100.864 86.5358 100.532C86.3687 100.198 86.2852 99.7872 86.2852 99.2999C86.2852 98.8125 86.3677 98.3948 86.5328 98.0467C86.6999 97.6985 86.9287 97.432 87.2191 97.247C87.5095 97.06 87.8388 96.9665 88.2068 96.9665C88.4912 96.9665 88.721 97.0142 88.896 97.1097C89.0711 97.2032 89.2073 97.3126 89.3048 97.4379C89.4043 97.5633 89.4809 97.6737 89.5346 97.7692H89.6002V97.0262H90.4745V101.711C90.4745 102.105 90.383 102.428 90.2 102.681C90.017 102.933 89.7693 103.12 89.457 103.242C89.1467 103.363 88.7966 103.424 88.4067 103.424ZM88.3977 100.801C88.6543 100.801 88.8712 100.741 89.0482 100.622C89.2272 100.5 89.3625 100.327 89.454 100.103C89.5475 99.8758 89.5943 99.6042 89.5943 99.2879C89.5943 98.9796 89.5485 98.7081 89.457 98.4733C89.3655 98.2386 89.2312 98.0556 89.0542 97.9243C88.8771 97.791 88.6583 97.7244 88.3977 97.7244C88.1292 97.7244 87.9054 97.794 87.7264 97.9333C87.5473 98.0705 87.4121 98.2575 87.3206 98.4942C87.231 98.7309 87.1863 98.9955 87.1863 99.2879C87.1863 99.5883 87.232 99.8519 87.3235 100.079C87.415 100.305 87.5503 100.482 87.7293 100.61C87.9104 100.737 88.1332 100.801 88.3977 100.801ZM92.7047 101.711C92.4143 101.711 92.1517 101.657 91.917 101.55C91.6822 101.44 91.4962 101.282 91.359 101.075C91.2237 100.868 91.1561 100.615 91.1561 100.314C91.1561 100.056 91.2058 99.8429 91.3053 99.6758C91.4047 99.5087 91.539 99.3765 91.7081 99.279C91.8772 99.1815 92.0662 99.1079 92.275 99.0582C92.4839 99.0084 92.6968 98.9707 92.9136 98.9448C93.1881 98.913 93.4109 98.8871 93.582 98.8672C93.753 98.8453 93.8774 98.8105 93.9549 98.7628C94.0325 98.715 94.0713 98.6375 94.0713 98.53V98.5091C94.0713 98.2486 93.9977 98.0467 93.8505 97.9034C93.7053 97.7602 93.4885 97.6886 93.2 97.6886C92.8997 97.6886 92.6629 97.7552 92.4899 97.8885C92.3188 98.0198 92.2004 98.166 92.1348 98.3271L91.2963 98.1362C91.3958 97.8577 91.541 97.6329 91.732 97.4618C91.9249 97.2888 92.1467 97.1634 92.3974 97.0859C92.648 97.0063 92.9116 96.9665 93.1881 96.9665C93.3711 96.9665 93.5651 96.9884 93.7699 97.0321C93.9768 97.0739 94.1698 97.1515 94.3488 97.2649C94.5298 97.3783 94.678 97.5404 94.7934 97.7513C94.9088 97.9601 94.9665 98.2317 94.9665 98.5658V101.609H94.0952V100.983H94.0594C94.0017 101.098 93.9152 101.212 93.7998 101.323C93.6844 101.434 93.5362 101.527 93.3552 101.6C93.1742 101.674 92.9573 101.711 92.7047 101.711ZM92.8987 100.995C93.1453 100.995 93.3562 100.946 93.5312 100.848C93.7083 100.751 93.8426 100.624 93.9341 100.467C94.0276 100.307 94.0743 100.137 94.0743 99.9563V99.3655C94.0425 99.3973 93.9808 99.4272 93.8893 99.455C93.7998 99.4809 93.6973 99.5038 93.582 99.5237C93.4666 99.5416 93.3542 99.5585 93.2448 99.5744C93.1354 99.5883 93.0439 99.6002 92.9703 99.6102C92.7972 99.6321 92.6391 99.6689 92.4958 99.7206C92.3546 99.7723 92.2412 99.8469 92.1557 99.9444C92.0721 100.04 92.0304 100.167 92.0304 100.326C92.0304 100.547 92.1119 100.714 92.275 100.828C92.4381 100.939 92.646 100.995 92.8987 100.995ZM95.8547 101.609V97.0262H96.7469V101.609H95.8547ZM96.3053 96.319C96.1501 96.319 96.0168 96.2673 95.9054 96.1638C95.796 96.0584 95.7413 95.9331 95.7413 95.7879C95.7413 95.6407 95.796 95.5153 95.9054 95.4119C96.0168 95.3065 96.1501 95.2538 96.3053 95.2538C96.4604 95.2538 96.5927 95.3065 96.7021 95.4119C96.8135 95.5153 96.8692 95.6407 96.8692 95.7879C96.8692 95.9331 96.8135 96.0584 96.7021 96.1638C96.5927 96.2673 96.4604 96.319 96.3053 96.319ZM98.5392 98.8881V101.609H97.647V97.0262H98.5034V97.7721H98.5601C98.6655 97.5295 98.8306 97.3345 99.0554 97.1873C99.2822 97.0401 99.5676 96.9665 99.9118 96.9665C100.224 96.9665 100.498 97.0321 100.732 97.1634C100.967 97.2927 101.149 97.4857 101.278 97.7423C101.408 97.9989 101.472 98.3162 101.472 98.6941V101.609H100.58V98.8016C100.58 98.4694 100.494 98.2098 100.321 98.0228C100.148 97.8338 99.9098 97.7393 99.6074 97.7393C99.4006 97.7393 99.2165 97.7841 99.0554 97.8736C98.8963 97.9631 98.77 98.0944 98.6765 98.2675C98.585 98.4385 98.5392 98.6454 98.5392 98.8881ZM104.344 101.702C103.893 101.702 103.504 101.605 103.177 101.412C102.853 101.217 102.603 100.944 102.425 100.592C102.25 100.238 102.163 99.823 102.163 99.3476C102.163 98.8782 102.25 98.4644 102.425 98.1063C102.603 97.7483 102.849 97.4688 103.165 97.2679C103.484 97.067 103.856 96.9665 104.281 96.9665C104.54 96.9665 104.791 97.0093 105.033 97.0948C105.276 97.1803 105.494 97.3146 105.687 97.4976C105.88 97.6806 106.032 97.9183 106.143 98.2108C106.255 98.5012 106.31 98.8543 106.31 99.27V99.5863H102.667V98.9179H105.436C105.436 98.6832 105.388 98.4753 105.293 98.2943C105.197 98.1113 105.063 97.9671 104.89 97.8617C104.719 97.7562 104.518 97.7035 104.287 97.7035C104.037 97.7035 103.818 97.7652 103.631 97.8885C103.446 98.0099 103.303 98.169 103.201 98.3659C103.102 98.5609 103.052 98.7727 103.052 99.0015V99.5237C103.052 99.83 103.106 100.091 103.213 100.305C103.323 100.52 103.475 100.684 103.67 100.798C103.865 100.909 104.092 100.965 104.353 100.965C104.522 100.965 104.676 100.941 104.816 100.893C104.955 100.844 105.075 100.77 105.177 100.672C105.278 100.575 105.356 100.455 105.409 100.311L106.254 100.464C106.186 100.712 106.065 100.93 105.89 101.117C105.717 101.302 105.499 101.446 105.236 101.55C104.976 101.651 104.678 101.702 104.344 101.702ZM108.716 101.699C108.346 101.699 108.016 101.604 107.725 101.415C107.437 101.224 107.21 100.953 107.045 100.601C106.882 100.247 106.8 99.822 106.8 99.3267C106.8 98.8314 106.883 98.4077 107.048 98.0556C107.215 97.7035 107.444 97.434 107.734 97.247C108.025 97.06 108.354 96.9665 108.722 96.9665C109.006 96.9665 109.235 97.0142 109.408 97.1097C109.583 97.2032 109.719 97.3126 109.814 97.4379C109.911 97.5633 109.987 97.6737 110.041 97.7692H110.095V95.4984H110.987V101.609H110.115V100.896H110.041C109.987 100.994 109.91 101.105 109.808 101.23C109.709 101.356 109.571 101.465 109.396 101.559C109.221 101.652 108.994 101.699 108.716 101.699ZM108.913 100.938C109.17 100.938 109.386 100.87 109.563 100.735C109.742 100.598 109.878 100.408 109.969 100.165C110.063 99.9225 110.109 99.64 110.109 99.3178C110.109 98.9995 110.064 98.721 109.972 98.4823C109.881 98.2436 109.746 98.0576 109.569 97.9243C109.392 97.791 109.173 97.7244 108.913 97.7244C108.644 97.7244 108.421 97.794 108.242 97.9333C108.063 98.0725 107.927 98.2625 107.836 98.5032C107.746 98.7439 107.701 99.0154 107.701 99.3178C107.701 99.6241 107.747 99.8996 107.839 100.144C107.93 100.389 108.065 100.583 108.245 100.726C108.426 100.867 108.648 100.938 108.913 100.938ZM155.409 97.0262V97.7423H152.905V97.0262H155.409ZM153.577 95.9281H154.469V100.264C154.469 100.437 154.495 100.567 154.546 100.655C154.598 100.74 154.665 100.799 154.746 100.831C154.83 100.86 154.92 100.875 155.018 100.875C155.089 100.875 155.152 100.87 155.206 100.86C155.26 100.85 155.301 100.843 155.331 100.837L155.492 101.574C155.441 101.593 155.367 101.613 155.271 101.633C155.176 101.655 155.057 101.667 154.913 101.669C154.679 101.673 154.46 101.631 154.257 101.544C154.054 101.456 153.89 101.321 153.765 101.138C153.639 100.955 153.577 100.725 153.577 100.449V95.9281ZM157.086 98.8881V101.609H156.194V95.4984H157.074V97.7721H157.131C157.238 97.5255 157.402 97.3295 157.623 97.1843C157.844 97.0391 158.133 96.9665 158.489 96.9665C158.803 96.9665 159.077 97.0311 159.312 97.1604C159.549 97.2897 159.732 97.4827 159.861 97.7393C159.992 97.9939 160.058 98.3122 160.058 98.6941V101.609H159.166V98.8016C159.166 98.4654 159.079 98.2048 158.906 98.0198C158.733 97.8328 158.493 97.7393 158.184 97.7393C157.973 97.7393 157.784 97.7841 157.617 97.8736C157.452 97.9631 157.322 98.0944 157.226 98.2675C157.133 98.4385 157.086 98.6454 157.086 98.8881ZM160.949 101.609V97.0262H161.841V101.609H160.949ZM161.399 96.319C161.244 96.319 161.111 96.2673 160.999 96.1638C160.89 96.0584 160.835 95.9331 160.835 95.7879C160.835 95.6407 160.89 95.5153 160.999 95.4119C161.111 95.3065 161.244 95.2538 161.399 95.2538C161.554 95.2538 161.687 95.3065 161.796 95.4119C161.907 95.5153 161.963 95.6407 161.963 95.7879C161.963 95.9331 161.907 96.0584 161.796 96.1638C161.687 96.2673 161.554 96.319 161.399 96.319ZM166.175 98.1451L165.367 98.2883C165.333 98.1849 165.279 98.0864 165.206 97.9929C165.134 97.8994 165.036 97.8229 164.913 97.7632C164.79 97.7035 164.636 97.6737 164.451 97.6737C164.198 97.6737 163.987 97.7304 163.818 97.8437C163.649 97.9551 163.564 98.0994 163.564 98.2764C163.564 98.4296 163.621 98.5529 163.735 98.6464C163.848 98.7399 164.031 98.8165 164.284 98.8762L165.012 99.0433C165.433 99.1407 165.748 99.2909 165.955 99.4938C166.161 99.6967 166.265 99.9603 166.265 100.285C166.265 100.559 166.185 100.804 166.026 101.019C165.869 101.231 165.649 101.399 165.367 101.52C165.086 101.641 164.761 101.702 164.391 101.702C163.878 101.702 163.459 101.592 163.135 101.374C162.811 101.153 162.612 100.84 162.538 100.434L163.4 100.302C163.454 100.527 163.564 100.697 163.732 100.813C163.899 100.926 164.116 100.983 164.385 100.983C164.677 100.983 164.911 100.922 165.086 100.801C165.261 100.677 165.349 100.527 165.349 100.35C165.349 100.207 165.295 100.087 165.188 99.9891C165.082 99.8917 164.92 99.8181 164.701 99.7683L163.925 99.5983C163.498 99.5008 163.182 99.3456 162.977 99.1328C162.774 98.9199 162.672 98.6504 162.672 98.3242C162.672 98.0536 162.748 97.8169 162.899 97.614C163.05 97.4111 163.259 97.2529 163.526 97.1396C163.792 97.0242 164.098 96.9665 164.442 96.9665C164.937 96.9665 165.327 97.0739 165.611 97.2888C165.896 97.5016 166.084 97.7871 166.175 98.1451ZM169.863 101.609L168.514 97.0262H169.436L170.334 100.392H170.379L171.28 97.0262H172.202L173.097 100.377H173.142L174.034 97.0262H174.956L173.611 101.609H172.701L171.77 98.3003H171.701L170.77 101.609H169.863ZM177.339 101.702C176.887 101.702 176.498 101.605 176.172 101.412C175.848 101.217 175.597 100.944 175.42 100.592C175.245 100.238 175.158 99.823 175.158 99.3476C175.158 98.8782 175.245 98.4644 175.42 98.1063C175.597 97.7483 175.844 97.4688 176.16 97.2679C176.478 97.067 176.85 96.9665 177.276 96.9665C177.535 96.9665 177.785 97.0093 178.028 97.0948C178.271 97.1803 178.489 97.3146 178.682 97.4976C178.874 97.6806 179.027 97.9183 179.138 98.2108C179.249 98.5012 179.305 98.8543 179.305 99.27V99.5863H175.662V98.9179H178.431C178.431 98.6832 178.383 98.4753 178.288 98.2943C178.192 98.1113 178.058 97.9671 177.885 97.8617C177.714 97.7562 177.513 97.7035 177.282 97.7035C177.031 97.7035 176.813 97.7652 176.626 97.8885C176.441 98.0099 176.297 98.169 176.196 98.3659C176.096 98.5609 176.047 98.7727 176.047 99.0015V99.5237C176.047 99.83 176.1 100.091 176.208 100.305C176.317 100.52 176.469 100.684 176.664 100.798C176.859 100.909 177.087 100.965 177.348 100.965C177.517 100.965 177.671 100.941 177.81 100.893C177.949 100.844 178.07 100.77 178.171 100.672C178.273 100.575 178.35 100.455 178.404 100.311L179.248 100.464C179.181 100.712 179.059 100.93 178.884 101.117C178.711 101.302 178.494 101.446 178.231 101.55C177.97 101.651 177.673 101.702 177.339 101.702ZM181.97 101.702C181.519 101.702 181.13 101.605 180.804 101.412C180.479 101.217 180.229 100.944 180.052 100.592C179.877 100.238 179.789 99.823 179.789 99.3476C179.789 98.8782 179.877 98.4644 180.052 98.1063C180.229 97.7483 180.475 97.4688 180.792 97.2679C181.11 97.067 181.482 96.9665 181.908 96.9665C182.166 96.9665 182.417 97.0093 182.66 97.0948C182.902 97.1803 183.12 97.3146 183.313 97.4976C183.506 97.6806 183.658 97.9183 183.77 98.2108C183.881 98.5012 183.937 98.8543 183.937 99.27V99.5863H180.293V98.9179H183.062C183.062 98.6832 183.015 98.4753 182.919 98.2943C182.824 98.1113 182.689 97.9671 182.516 97.8617C182.345 97.7562 182.144 97.7035 181.914 97.7035C181.663 97.7035 181.444 97.7652 181.257 97.8885C181.072 98.0099 180.929 98.169 180.827 98.3659C180.728 98.5609 180.678 98.7727 180.678 99.0015V99.5237C180.678 99.83 180.732 100.091 180.839 100.305C180.949 100.52 181.101 100.684 181.296 100.798C181.491 100.909 181.719 100.965 181.979 100.965C182.148 100.965 182.302 100.941 182.442 100.893C182.581 100.844 182.701 100.77 182.803 100.672C182.904 100.575 182.982 100.455 183.035 100.311L183.88 100.464C183.812 100.712 183.691 100.93 183.516 101.117C183.343 101.302 183.125 101.446 182.862 101.55C182.602 101.651 182.304 101.702 181.97 101.702ZM185.447 100.055L185.441 98.9657H185.596L187.422 97.0262H188.49L186.408 99.2342H186.268L185.447 100.055ZM184.626 101.609V95.4984H185.519V101.609H184.626ZM187.521 101.609L185.88 99.4312L186.494 98.8075L188.616 101.609H187.521Z" fill="#7A7A7A"/>
<path d="M115.68 100.583V96.5488H116.483V100.583H115.68ZM114.066 98.9657V98.166H118.1V98.9657H114.066ZM121.054 102.373V94.7346H121.543V102.373H121.054ZM122.584 97.1038C122.552 96.8213 122.421 96.6025 122.19 96.4473C121.96 96.2902 121.669 96.2116 121.319 96.2116C121.068 96.2116 120.852 96.2514 120.669 96.3309C120.486 96.4085 120.343 96.5159 120.242 96.6532C120.142 96.7885 120.093 96.9426 120.093 97.1157C120.093 97.2609 120.127 97.3862 120.194 97.4917C120.264 97.5971 120.354 97.6856 120.466 97.7572C120.579 97.8268 120.7 97.8855 120.83 97.9333C120.959 97.979 121.083 98.0168 121.203 98.0467L121.8 98.2018C121.994 98.2496 122.194 98.3142 122.399 98.3958C122.604 98.4773 122.794 98.5847 122.969 98.718C123.144 98.8513 123.285 99.0164 123.393 99.2133C123.502 99.4103 123.557 99.646 123.557 99.9205C123.557 100.267 123.468 100.574 123.288 100.843C123.111 101.111 122.854 101.323 122.516 101.478C122.179 101.633 121.773 101.711 121.295 101.711C120.838 101.711 120.442 101.638 120.108 101.493C119.773 101.348 119.512 101.142 119.323 100.875C119.134 100.607 119.03 100.289 119.01 99.9205H119.935C119.953 100.141 120.024 100.325 120.149 100.473C120.277 100.618 120.439 100.726 120.636 100.798C120.835 100.867 121.053 100.902 121.289 100.902C121.55 100.902 121.782 100.861 121.985 100.78C122.189 100.696 122.351 100.581 122.468 100.434C122.585 100.285 122.644 100.11 122.644 99.9116C122.644 99.7305 122.592 99.5823 122.489 99.467C122.387 99.3516 122.249 99.2561 122.074 99.1805C121.901 99.1049 121.705 99.0383 121.486 98.9806L120.764 98.7837C120.275 98.6504 119.887 98.4544 119.6 98.1958C119.316 97.9372 119.174 97.5951 119.174 97.1694C119.174 96.8173 119.269 96.51 119.46 96.2474C119.651 95.9848 119.91 95.7809 120.236 95.6357C120.562 95.4885 120.93 95.4149 121.34 95.4149C121.754 95.4149 122.119 95.4875 122.435 95.6327C122.753 95.7779 123.004 95.9778 123.187 96.2325C123.37 96.4851 123.466 96.7755 123.473 97.1038H122.584ZM124.147 100.416V99.6699L126.788 95.4984H127.375V96.5965H127.002L125.114 99.5863V99.6341H128.733V100.416H124.147ZM127.044 101.609V100.189L127.05 99.8489V95.4984H127.924V101.609H127.044ZM129.473 101.609V100.941L131.541 98.7986C131.761 98.5658 131.943 98.3619 132.087 98.1869C132.232 98.0099 132.34 97.8418 132.412 97.6826C132.484 97.5235 132.519 97.3544 132.519 97.1754C132.519 96.9725 132.472 96.7974 132.376 96.6502C132.281 96.501 132.15 96.3866 131.985 96.3071C131.82 96.2255 131.634 96.1847 131.427 96.1847C131.208 96.1847 131.017 96.2295 130.854 96.319C130.691 96.4085 130.566 96.5348 130.478 96.6979C130.391 96.8611 130.347 97.052 130.347 97.2708H129.467C129.467 96.8989 129.552 96.5736 129.723 96.2951C129.895 96.0166 130.129 95.8008 130.428 95.6476C130.726 95.4925 131.065 95.4149 131.445 95.4149C131.829 95.4149 132.167 95.4915 132.46 95.6446C132.754 95.7958 132.984 96.0027 133.149 96.2653C133.314 96.5259 133.397 96.8203 133.397 97.1485C133.397 97.3753 133.354 97.5971 133.268 97.8139C133.185 98.0307 133.039 98.2724 132.83 98.539C132.621 98.8036 132.33 99.1248 131.958 99.5028L130.744 100.774V100.819H133.495V101.609H129.473ZM136.453 101.711C135.982 101.709 135.579 101.585 135.245 101.338C134.911 101.091 134.655 100.732 134.478 100.261C134.301 99.7892 134.212 99.2213 134.212 98.5569C134.212 97.8945 134.301 97.3285 134.478 96.8591C134.657 96.3896 134.914 96.0316 135.248 95.7849C135.584 95.5382 135.986 95.4149 136.453 95.4149C136.921 95.4149 137.322 95.5392 137.656 95.7879C137.99 96.0345 138.246 96.3926 138.423 96.8621C138.602 97.3295 138.691 97.8945 138.691 98.5569C138.691 99.2233 138.603 99.7922 138.426 100.264C138.249 100.733 137.993 101.092 137.659 101.341C137.325 101.587 136.923 101.711 136.453 101.711ZM136.453 100.914C136.867 100.914 137.19 100.712 137.423 100.308C137.658 99.9046 137.775 99.3208 137.775 98.5569C137.775 98.0496 137.721 97.621 137.614 97.2708C137.509 96.9188 137.356 96.6522 137.158 96.4712C136.961 96.2882 136.726 96.1967 136.453 96.1967C136.042 96.1967 135.718 96.3996 135.484 96.8054C135.249 97.2112 135.131 97.795 135.129 98.5569C135.129 99.0661 135.181 99.4968 135.287 99.8489C135.394 100.199 135.546 100.465 135.743 100.646C135.94 100.825 136.177 100.914 136.453 100.914ZM139.828 101.666C139.665 101.666 139.525 101.608 139.407 101.493C139.29 101.376 139.231 101.234 139.231 101.069C139.231 100.906 139.29 100.767 139.407 100.652C139.525 100.534 139.665 100.476 139.828 100.476C139.991 100.476 140.131 100.534 140.249 100.652C140.366 100.767 140.425 100.906 140.425 101.069C140.425 101.179 140.397 101.279 140.341 101.371C140.287 101.46 140.216 101.532 140.126 101.586C140.037 101.639 139.937 101.666 139.828 101.666ZM143.214 101.711C142.742 101.709 142.339 101.585 142.005 101.338C141.671 101.091 141.415 100.732 141.238 100.261C141.061 99.7892 140.973 99.2213 140.973 98.5569C140.973 97.8945 141.061 97.3285 141.238 96.8591C141.417 96.3896 141.674 96.0316 142.008 95.7849C142.344 95.5382 142.746 95.4149 143.214 95.4149C143.681 95.4149 144.082 95.5392 144.416 95.7879C144.75 96.0345 145.006 96.3926 145.183 96.8621C145.362 97.3295 145.451 97.8945 145.451 98.5569C145.451 99.2233 145.363 99.7922 145.186 100.264C145.009 100.733 144.753 101.092 144.419 101.341C144.085 101.587 143.683 101.711 143.214 101.711ZM143.214 100.914C143.627 100.914 143.951 100.712 144.183 100.308C144.418 99.9046 144.535 99.3208 144.535 98.5569C144.535 98.0496 144.482 97.621 144.374 97.2708C144.269 96.9188 144.117 96.6522 143.918 96.4712C143.721 96.2882 143.486 96.1967 143.214 96.1967C142.802 96.1967 142.479 96.3996 142.244 96.8054C142.009 97.2112 141.891 97.795 141.889 98.5569C141.889 99.0661 141.941 99.4968 142.047 99.8489C142.154 100.199 142.306 100.465 142.503 100.646C142.7 100.825 142.937 100.914 143.214 100.914ZM148.337 101.711C147.866 101.709 147.463 101.585 147.129 101.338C146.795 101.091 146.539 100.732 146.362 100.261C146.185 99.7892 146.097 99.2213 146.097 98.5569C146.097 97.8945 146.185 97.3285 146.362 96.8591C146.541 96.3896 146.798 96.0316 147.132 95.7849C147.468 95.5382 147.87 95.4149 148.337 95.4149C148.805 95.4149 149.206 95.5392 149.54 95.7879C149.874 96.0345 150.13 96.3926 150.307 96.8621C150.486 97.3295 150.575 97.8945 150.575 98.5569C150.575 99.2233 150.487 99.7922 150.31 100.264C150.133 100.733 149.877 101.092 149.543 101.341C149.209 101.587 148.807 101.711 148.337 101.711ZM148.337 100.914C148.751 100.914 149.074 100.712 149.307 100.308C149.542 99.9046 149.659 99.3208 149.659 98.5569C149.659 98.0496 149.606 97.621 149.498 97.2708C149.393 96.9188 149.241 96.6522 149.042 96.4712C148.845 96.2882 148.61 96.1967 148.337 96.1967C147.926 96.1967 147.602 96.3996 147.368 96.8054C147.133 97.2112 147.015 97.795 147.013 98.5569C147.013 99.0661 147.065 99.4968 147.171 99.8489C147.278 100.199 147.43 100.465 147.627 100.646C147.824 100.825 148.061 100.914 148.337 100.914Z" fill="#377E36"/>
<rect x="69.8047" y="122.015" width="46.0036" height="17.2022" rx="3.60109" fill="#242424"/>
<path d="M76.8246 132.616H75.9857L77.8706 127.378H78.7837L80.6686 132.616H79.8297L78.3489 128.33H78.308L76.8246 132.616ZM76.9652 130.565H79.6865V131.23H76.9652V130.565ZM82.1284 127.378V132.616H81.3636V127.378H82.1284ZM83.9219 127.378V132.616H83.1572V127.378H83.9219ZM87.3606 132.616H86.5217L88.4066 127.378H89.3197L91.2046 132.616H90.3657L88.8849 128.33H88.844L87.3606 132.616ZM87.5012 130.565H90.2225V131.23H87.5012V130.565ZM94.8153 129.647L94.1222 129.77C94.0932 129.681 94.0472 129.597 93.9841 129.516C93.9227 129.436 93.8391 129.371 93.7334 129.319C93.6277 129.268 93.4956 129.243 93.337 129.243C93.1205 129.243 92.9397 129.291 92.7948 129.389C92.6499 129.484 92.5774 129.608 92.5774 129.759C92.5774 129.891 92.626 129.996 92.7232 130.077C92.8204 130.157 92.9772 130.222 93.1938 130.273L93.8178 130.417C94.1793 130.5 94.4487 130.629 94.626 130.803C94.8034 130.977 94.892 131.203 94.892 131.481C94.892 131.716 94.8238 131.926 94.6874 132.11C94.5527 132.292 94.3643 132.435 94.1222 132.539C93.8818 132.643 93.603 132.695 93.2859 132.695C92.8459 132.695 92.487 132.602 92.2091 132.414C91.9312 132.225 91.7607 131.956 91.6976 131.609L92.4367 131.496C92.4828 131.689 92.5774 131.834 92.7206 131.933C92.8638 132.031 93.0506 132.079 93.2807 132.079C93.5314 132.079 93.7317 132.027 93.8818 131.923C94.0318 131.817 94.1068 131.689 94.1068 131.537C94.1068 131.414 94.0608 131.311 93.9687 131.227C93.8784 131.144 93.7394 131.081 93.5518 131.038L92.8869 130.892C92.5203 130.809 92.2492 130.676 92.0736 130.493C91.8996 130.311 91.8127 130.08 91.8127 129.8C91.8127 129.568 91.8775 129.366 92.0071 129.192C92.1366 129.018 92.3157 128.882 92.5441 128.785C92.7726 128.686 93.0344 128.637 93.3293 128.637C93.7539 128.637 94.0881 128.729 94.3319 128.913C94.5757 129.095 94.7369 129.34 94.8153 129.647ZM98.6766 129.647L97.9835 129.77C97.9545 129.681 97.9085 129.597 97.8454 129.516C97.784 129.436 97.7005 129.371 97.5948 129.319C97.489 129.268 97.3569 129.243 97.1983 129.243C96.9818 129.243 96.801 129.291 96.6561 129.389C96.5112 129.484 96.4387 129.608 96.4387 129.759C96.4387 129.891 96.4873 129.996 96.5845 130.077C96.6817 130.157 96.8386 130.222 97.0551 130.273L97.6792 130.417C98.0406 130.5 98.31 130.629 98.4874 130.803C98.6647 130.977 98.7533 131.203 98.7533 131.481C98.7533 131.716 98.6851 131.926 98.5487 132.11C98.414 132.292 98.2256 132.435 97.9835 132.539C97.7431 132.643 97.4643 132.695 97.1472 132.695C96.7073 132.695 96.3484 132.602 96.0704 132.414C95.7925 132.225 95.622 131.956 95.5589 131.609L96.2981 131.496C96.3441 131.689 96.4387 131.834 96.5819 131.933C96.7252 132.031 96.9119 132.079 97.1421 132.079C97.3927 132.079 97.593 132.027 97.7431 131.923C97.8931 131.817 97.9682 131.689 97.9682 131.537C97.9682 131.414 97.9221 131.311 97.83 131.227C97.7397 131.144 97.6007 131.081 97.4132 131.038L96.7482 130.892C96.3816 130.809 96.1105 130.676 95.9349 130.493C95.761 130.311 95.674 130.08 95.674 129.8C95.674 129.568 95.7388 129.366 95.8684 129.192C95.998 129.018 96.177 128.882 96.4055 128.785C96.6339 128.686 96.8957 128.637 97.1907 128.637C97.6152 128.637 97.9494 128.729 98.1932 128.913C98.4371 129.095 98.5982 129.34 98.6766 129.647ZM101.287 132.695C100.9 132.695 100.567 132.613 100.287 132.447C100.009 132.28 99.7945 132.046 99.6427 131.744C99.4927 131.441 99.4177 131.085 99.4177 130.678C99.4177 130.275 99.4927 129.921 99.6427 129.614C99.7945 129.307 100.006 129.067 100.277 128.895C100.55 128.723 100.869 128.637 101.234 128.637C101.455 128.637 101.67 128.673 101.878 128.747C102.086 128.82 102.273 128.935 102.438 129.092C102.604 129.249 102.734 129.452 102.829 129.703C102.925 129.952 102.973 130.255 102.973 130.611V130.882H99.8499V130.309H102.223C102.223 130.108 102.182 129.93 102.101 129.775C102.019 129.618 101.904 129.494 101.755 129.404C101.609 129.314 101.436 129.268 101.239 129.268C101.024 129.268 100.836 129.321 100.676 129.427C100.517 129.531 100.395 129.667 100.308 129.836C100.222 130.003 100.18 130.185 100.18 130.381V130.828C100.18 131.091 100.226 131.314 100.318 131.499C100.412 131.683 100.542 131.823 100.709 131.921C100.876 132.016 101.072 132.064 101.295 132.064C101.44 132.064 101.572 132.043 101.691 132.002C101.811 131.96 101.914 131.897 102.001 131.813C102.088 131.73 102.154 131.626 102.2 131.504L102.924 131.634C102.866 131.847 102.762 132.034 102.612 132.194C102.464 132.353 102.277 132.476 102.052 132.565C101.829 132.652 101.574 132.695 101.287 132.695ZM105.655 128.688V129.302H103.509V128.688H105.655ZM104.085 127.747H104.849V131.463C104.849 131.611 104.872 131.723 104.916 131.798C104.96 131.871 105.017 131.921 105.087 131.949C105.159 131.974 105.236 131.987 105.32 131.987C105.381 131.987 105.435 131.983 105.481 131.974C105.527 131.966 105.563 131.959 105.588 131.954L105.727 132.586C105.682 132.603 105.619 132.62 105.537 132.637C105.456 132.655 105.353 132.666 105.23 132.667C105.029 132.671 104.842 132.635 104.668 132.56C104.494 132.485 104.353 132.369 104.246 132.212C104.138 132.055 104.085 131.858 104.085 131.621V127.747ZM109.381 129.647L108.688 129.77C108.659 129.681 108.613 129.597 108.55 129.516C108.489 129.436 108.405 129.371 108.3 129.319C108.194 129.268 108.062 129.243 107.903 129.243C107.687 129.243 107.506 129.291 107.361 129.389C107.216 129.484 107.144 129.608 107.144 129.759C107.144 129.891 107.192 129.996 107.289 130.077C107.386 130.157 107.543 130.222 107.76 130.273L108.384 130.417C108.745 130.5 109.015 130.629 109.192 130.803C109.369 130.977 109.458 131.203 109.458 131.481C109.458 131.716 109.39 131.926 109.254 132.11C109.119 132.292 108.93 132.435 108.688 132.539C108.448 132.643 108.169 132.695 107.852 132.695C107.412 132.695 107.053 132.602 106.775 132.414C106.497 132.225 106.327 131.956 106.264 131.609L107.003 131.496C107.049 131.689 107.144 131.834 107.287 131.933C107.43 132.031 107.617 132.079 107.847 132.079C108.097 132.079 108.298 132.027 108.448 131.923C108.598 131.817 108.673 131.689 108.673 131.537C108.673 131.414 108.627 131.311 108.535 131.227C108.444 131.144 108.306 131.081 108.118 131.038L107.453 130.892C107.086 130.809 106.815 130.676 106.64 130.493C106.466 130.311 106.379 130.08 106.379 129.8C106.379 129.568 106.444 129.366 106.573 129.192C106.703 129.018 106.882 128.882 107.11 128.785C107.339 128.686 107.6 128.637 107.895 128.637C108.32 128.637 108.654 128.729 108.898 128.913C109.142 129.095 109.303 129.34 109.381 129.647Z" fill="white"/>
<rect x="119.409" y="122.015" width="36.0036" height="17.2022" rx="3.60109" fill="#F2F2F2"/>
<path d="M130.337 129.082H129.539C129.508 128.911 129.451 128.761 129.368 128.631C129.284 128.502 129.182 128.392 129.061 128.302C128.94 128.211 128.804 128.143 128.654 128.097C128.506 128.051 128.348 128.028 128.181 128.028C127.879 128.028 127.609 128.104 127.37 128.256C127.133 128.407 126.946 128.63 126.808 128.923C126.671 129.216 126.603 129.574 126.603 129.997C126.603 130.424 126.671 130.783 126.808 131.077C126.946 131.37 127.134 131.591 127.373 131.742C127.612 131.892 127.88 131.967 128.178 131.967C128.344 131.967 128.501 131.944 128.649 131.9C128.799 131.854 128.935 131.787 129.056 131.698C129.177 131.609 129.279 131.501 129.363 131.373C129.448 131.244 129.507 131.095 129.539 130.928L130.337 130.931C130.294 131.188 130.212 131.425 130.089 131.642C129.968 131.857 129.812 132.042 129.621 132.199C129.432 132.354 129.215 132.475 128.971 132.56C128.727 132.645 128.461 132.688 128.173 132.688C127.72 132.688 127.316 132.58 126.961 132.366C126.606 132.149 126.327 131.84 126.122 131.437C125.919 131.035 125.818 130.555 125.818 129.997C125.818 129.438 125.92 128.958 126.125 128.557C126.329 128.155 126.609 127.846 126.964 127.631C127.318 127.415 127.721 127.307 128.173 127.307C128.451 127.307 128.71 127.347 128.951 127.427C129.193 127.505 129.41 127.621 129.603 127.775C129.796 127.926 129.955 128.112 130.081 128.332C130.207 128.55 130.293 128.8 130.337 129.082ZM131.221 132.616V128.688H131.96V129.312H132.001C132.073 129.1 132.199 128.934 132.38 128.813C132.562 128.69 132.769 128.629 132.999 128.629C133.047 128.629 133.103 128.631 133.168 128.634C133.234 128.637 133.286 128.642 133.324 128.647V129.378C133.293 129.37 133.238 129.36 133.16 129.35C133.082 129.338 133.003 129.332 132.925 129.332C132.744 129.332 132.583 129.371 132.441 129.447C132.301 129.522 132.191 129.627 132.109 129.762C132.027 129.895 131.986 130.047 131.986 130.217V132.616H131.221ZM134.588 134.089C134.474 134.089 134.37 134.08 134.276 134.061C134.183 134.044 134.113 134.025 134.067 134.005L134.251 133.378C134.391 133.416 134.515 133.432 134.624 133.427C134.733 133.422 134.83 133.381 134.913 133.304C134.998 133.227 135.073 133.102 135.138 132.928L135.233 132.667L133.796 128.688H134.614L135.609 131.736H135.65L136.645 128.688H137.466L135.847 133.141C135.772 133.345 135.676 133.518 135.56 133.66C135.444 133.803 135.306 133.91 135.146 133.982C134.986 134.054 134.8 134.089 134.588 134.089ZM138.184 134.089V128.688H138.931V129.325H138.995C139.039 129.243 139.103 129.148 139.187 129.041C139.271 128.933 139.386 128.84 139.535 128.759C139.683 128.678 139.879 128.637 140.123 128.637C140.44 128.637 140.723 128.717 140.972 128.877C141.221 129.037 141.416 129.268 141.558 129.57C141.701 129.872 141.773 130.235 141.773 130.66C141.773 131.084 141.702 131.448 141.56 131.752C141.419 132.054 141.224 132.286 140.977 132.45C140.73 132.612 140.448 132.693 140.131 132.693C139.892 132.693 139.697 132.653 139.545 132.573C139.395 132.493 139.277 132.399 139.192 132.291C139.107 132.184 139.041 132.088 138.995 132.005H138.949V134.089H138.184ZM138.934 130.652C138.934 130.928 138.974 131.17 139.054 131.378C139.134 131.586 139.25 131.749 139.402 131.867C139.554 131.983 139.739 132.041 139.959 132.041C140.188 132.041 140.379 131.98 140.532 131.859C140.686 131.736 140.802 131.57 140.88 131.36C140.96 131.151 141 130.915 141 130.652C141 130.393 140.961 130.16 140.883 129.954C140.806 129.747 140.69 129.585 140.535 129.465C140.381 129.346 140.19 129.286 139.959 129.286C139.738 129.286 139.55 129.343 139.397 129.458C139.245 129.572 139.13 129.731 139.051 129.936C138.973 130.14 138.934 130.379 138.934 130.652ZM144.463 128.688V129.302H142.317V128.688H144.463ZM142.893 127.747H143.658V131.463C143.658 131.611 143.68 131.723 143.724 131.798C143.768 131.871 143.826 131.921 143.895 131.949C143.967 131.974 144.045 131.987 144.128 131.987C144.19 131.987 144.243 131.983 144.289 131.974C144.335 131.966 144.371 131.959 144.397 131.954L144.535 132.586C144.491 132.603 144.427 132.62 144.346 132.637C144.264 132.655 144.161 132.666 144.039 132.667C143.838 132.671 143.65 132.635 143.476 132.56C143.302 132.485 143.161 132.369 143.054 132.212C142.947 132.055 142.893 131.858 142.893 131.621V127.747ZM146.922 132.695C146.553 132.695 146.232 132.611 145.958 132.442C145.683 132.273 145.47 132.037 145.318 131.734C145.166 131.43 145.091 131.076 145.091 130.67C145.091 130.262 145.166 129.906 145.318 129.601C145.47 129.296 145.683 129.059 145.958 128.89C146.232 128.721 146.553 128.637 146.922 128.637C147.29 128.637 147.611 128.721 147.886 128.89C148.16 129.059 148.374 129.296 148.525 129.601C148.677 129.906 148.753 130.262 148.753 130.67C148.753 131.076 148.677 131.43 148.525 131.734C148.374 132.037 148.16 132.273 147.886 132.442C147.611 132.611 147.29 132.695 146.922 132.695ZM146.924 132.054C147.163 132.054 147.361 131.99 147.518 131.864C147.675 131.738 147.79 131.57 147.865 131.36C147.942 131.151 147.981 130.92 147.981 130.667C147.981 130.417 147.942 130.187 147.865 129.977C147.79 129.765 147.675 129.596 147.518 129.468C147.361 129.34 147.163 129.276 146.924 129.276C146.684 129.276 146.484 129.34 146.326 129.468C146.169 129.596 146.052 129.765 145.975 129.977C145.9 130.187 145.863 130.417 145.863 130.667C145.863 130.92 145.9 131.151 145.975 131.36C146.052 131.57 146.169 131.738 146.326 131.864C146.484 131.99 146.684 132.054 146.924 132.054Z" fill="#464646"/>
<rect x="70.1048" y="153.322" width="232.042" height="32.4098" rx="4.50136" fill="white"/>
<rect x="70.1048" y="153.322" width="232.042" height="32.4098" rx="4.50136" stroke="#F2F2F2" stroke-width="0.600181"/>
<path d="M84.8117 173.428V167.317H87.1511C87.5927 167.317 87.9597 167.386 88.2521 167.526C88.5465 167.663 88.7663 167.851 88.9115 168.09C89.0587 168.328 89.1323 168.599 89.1323 168.901C89.1323 169.15 89.0846 169.363 88.9891 169.54C88.8936 169.715 88.7653 169.857 88.6042 169.966C88.4431 170.076 88.263 170.154 88.0641 170.202V170.262C88.281 170.274 88.4888 170.34 88.6878 170.462C88.8887 170.581 89.0528 170.75 89.1801 170.969C89.3074 171.188 89.3711 171.452 89.3711 171.763C89.3711 172.079 89.2945 172.363 89.1413 172.616C88.9881 172.867 88.7574 173.065 88.449 173.21C88.1407 173.355 87.7528 173.428 87.2853 173.428H84.8117ZM85.9187 172.503H87.1093C87.5111 172.503 87.8006 172.426 87.9776 172.273C88.1566 172.118 88.2461 171.919 88.2461 171.676C88.2461 171.495 88.2014 171.332 88.1119 171.187C88.0224 171.04 87.895 170.924 87.7299 170.841C87.5648 170.755 87.3679 170.712 87.1391 170.712H85.9187V172.503ZM85.9187 169.916H87.0138C87.2048 169.916 87.3768 169.881 87.53 169.811C87.6832 169.74 87.8035 169.639 87.8911 169.51C87.9806 169.379 88.0253 169.223 88.0253 169.044C88.0253 168.808 87.9418 168.613 87.7747 168.46C87.6096 168.306 87.3639 168.23 87.0377 168.23H85.9187V169.916ZM89.9863 173.428V168.845H91.0664V173.428H89.9863ZM90.5293 168.194C90.3582 168.194 90.211 168.137 90.0877 168.024C89.9644 167.909 89.9027 167.77 89.9027 167.609C89.9027 167.446 89.9644 167.308 90.0877 167.194C90.211 167.079 90.3582 167.021 90.5293 167.021C90.7024 167.021 90.8496 167.079 90.9709 167.194C91.0943 167.308 91.1559 167.446 91.1559 167.609C91.1559 167.77 91.0943 167.909 90.9709 168.024C90.8496 168.137 90.7024 168.194 90.5293 168.194ZM94.1657 168.845V169.68H91.5309V168.845H94.1657ZM92.1814 167.746H93.2616V172.049C93.2616 172.194 93.2835 172.306 93.3272 172.383C93.373 172.459 93.4326 172.511 93.5063 172.539C93.5799 172.566 93.6614 172.58 93.7509 172.58C93.8186 172.58 93.8802 172.575 93.9359 172.565C93.9936 172.555 94.0374 172.547 94.0672 172.539L94.2492 173.383C94.1915 173.403 94.109 173.425 94.0016 173.449C93.8961 173.472 93.7668 173.486 93.6137 173.49C93.3431 173.498 93.0995 173.458 92.8826 173.368C92.6658 173.277 92.4937 173.135 92.3664 172.944C92.2411 172.753 92.1794 172.515 92.1814 172.228V167.746ZM96.7189 173.517C96.2614 173.517 95.8685 173.417 95.5403 173.216C95.214 173.015 94.9624 172.737 94.7854 172.383C94.6103 172.027 94.5228 171.618 94.5228 171.154C94.5228 170.689 94.6123 170.278 94.7913 169.922C94.9704 169.564 95.223 169.285 95.5492 169.086C95.8775 168.885 96.2654 168.785 96.7129 168.785C97.0849 168.785 97.4141 168.853 97.7006 168.991C97.989 169.126 98.2188 169.318 98.3899 169.567C98.5609 169.813 98.6584 170.102 98.6823 170.432H97.6499C97.6081 170.211 97.5086 170.027 97.3515 169.88C97.1963 169.731 96.9884 169.656 96.7279 169.656C96.507 169.656 96.3131 169.716 96.146 169.835C95.9789 169.953 95.8486 170.122 95.7551 170.342C95.6636 170.563 95.6179 170.828 95.6179 171.136C95.6179 171.448 95.6636 171.717 95.7551 171.942C95.8466 172.165 95.9749 172.337 96.14 172.458C96.3071 172.577 96.5031 172.637 96.7279 172.637C96.887 172.637 97.0292 172.607 97.1545 172.547C97.2819 172.486 97.3883 172.397 97.4738 172.282C97.5594 172.167 97.618 172.026 97.6499 171.861H98.6823C98.6564 172.185 98.5609 172.473 98.3958 172.724C98.2307 172.972 98.0059 173.167 97.7215 173.308C97.437 173.448 97.1028 173.517 96.7189 173.517ZM101.268 173.517C100.821 173.517 100.433 173.419 100.105 173.222C99.7764 173.025 99.5218 172.749 99.3408 172.395C99.1617 172.041 99.0722 171.627 99.0722 171.154C99.0722 170.681 99.1617 170.266 99.3408 169.91C99.5218 169.554 99.7764 169.277 100.105 169.08C100.433 168.883 100.821 168.785 101.268 168.785C101.716 168.785 102.104 168.883 102.432 169.08C102.76 169.277 103.014 169.554 103.193 169.91C103.374 170.266 103.464 170.681 103.464 171.154C103.464 171.627 103.374 172.041 103.193 172.395C103.014 172.749 102.76 173.025 102.432 173.222C102.104 173.419 101.716 173.517 101.268 173.517ZM101.274 172.652C101.517 172.652 101.72 172.585 101.883 172.452C102.046 172.317 102.167 172.136 102.247 171.909C102.329 171.682 102.369 171.43 102.369 171.151C102.369 170.871 102.329 170.617 102.247 170.39C102.167 170.161 102.046 169.979 101.883 169.844C101.72 169.709 101.517 169.641 101.274 169.641C101.026 169.641 100.819 169.709 100.654 169.844C100.491 169.979 100.368 170.161 100.287 170.39C100.207 170.617 100.167 170.871 100.167 171.151C100.167 171.43 100.207 171.682 100.287 171.909C100.368 172.136 100.491 172.317 100.654 172.452C100.819 172.585 101.026 172.652 101.274 172.652ZM104.081 173.428V168.845H105.161V173.428H104.081ZM104.624 168.194C104.453 168.194 104.306 168.137 104.183 168.024C104.059 167.909 103.998 167.77 103.998 167.609C103.998 167.446 104.059 167.308 104.183 167.194C104.306 167.079 104.453 167.021 104.624 167.021C104.797 167.021 104.944 167.079 105.066 167.194C105.189 167.308 105.251 167.446 105.251 167.609C105.251 167.77 105.189 167.909 105.066 168.024C104.944 168.137 104.797 168.194 104.624 168.194ZM107.052 170.742V173.428H105.972V168.845H107.004V169.623H107.058C107.163 169.367 107.332 169.163 107.562 169.012C107.795 168.86 108.083 168.785 108.425 168.785C108.741 168.785 109.016 168.852 109.251 168.988C109.488 169.123 109.671 169.319 109.8 169.576C109.932 169.832 109.996 170.144 109.994 170.51V173.428H108.914V170.677C108.914 170.37 108.834 170.131 108.675 169.958C108.518 169.784 108.3 169.698 108.022 169.698C107.833 169.698 107.665 169.74 107.518 169.823C107.372 169.905 107.258 170.023 107.174 170.178C107.093 170.333 107.052 170.521 107.052 170.742Z" fill="#242424"/>
<path d="M121.712 164.725C121.712 164.725 122.866 165.002 123.512 164.725C124.122 164.464 124.413 163.524 124.713 163.524C125.013 163.524 125.254 164.651 125.913 164.725C126.659 164.808 126.813 162.624 127.414 162.624C128.014 162.624 127.964 164.595 128.614 164.725C129.443 164.89 129.814 162.924 130.415 163.524C131.015 164.124 133.212 171.426 134.016 171.627C134.819 171.828 134.916 171.027 135.516 171.327C136.116 171.627 135.816 174.328 136.716 174.628C137.617 174.928 137.868 174.624 138.517 174.328C139.05 174.084 139.131 173.423 139.717 173.427C140.468 173.433 140.184 174.773 140.918 174.928C141.745 175.103 141.891 173.902 142.718 173.727C143.953 173.467 145.719 174.928 145.719 174.928" stroke="#EA973D" stroke-width="0.600181" stroke-linecap="round"/>
<path d="M123.258 164.725C122.595 165.002 121.412 164.725 121.412 164.725V176.428H146.02V174.928C146.02 174.928 144.21 173.467 142.944 173.727C142.096 173.902 141.946 175.103 141.098 174.928C140.346 174.773 140.637 173.433 139.868 173.427C139.267 173.423 139.184 174.084 138.637 174.328C137.973 174.624 137.715 174.928 136.792 174.628C135.869 174.328 136.177 171.627 135.561 171.327C134.946 171.027 134.847 171.828 134.023 171.627C133.2 171.426 130.947 164.124 130.332 163.524C129.717 162.924 129.336 164.89 128.487 164.725C127.82 164.595 127.872 162.624 127.256 162.624C126.641 162.624 126.483 164.808 125.718 164.725C125.043 164.651 124.796 163.524 124.488 163.524C124.18 163.524 123.882 164.464 123.258 164.725Z" fill="url(#paint0_linear_229_14283)"/>
<path d="M208.512 172.79V165.152H209.001V172.79H208.512ZM210.042 167.521C210.011 167.238 209.879 167.019 209.649 166.864C209.418 166.707 209.127 166.629 208.777 166.629C208.527 166.629 208.31 166.668 208.127 166.748C207.944 166.826 207.802 166.933 207.7 167.07C207.601 167.205 207.551 167.36 207.551 167.533C207.551 167.678 207.585 167.803 207.652 167.909C207.722 168.014 207.812 168.103 207.924 168.174C208.037 168.244 208.159 168.303 208.288 168.35C208.417 168.396 208.542 168.434 208.661 168.464L209.258 168.619C209.453 168.667 209.653 168.731 209.857 168.813C210.062 168.894 210.252 169.002 210.427 169.135C210.602 169.268 210.744 169.433 210.851 169.63C210.96 169.827 211.015 170.063 211.015 170.338C211.015 170.684 210.926 170.991 210.747 171.26C210.57 171.528 210.312 171.74 209.974 171.895C209.638 172.05 209.231 172.128 208.753 172.128C208.296 172.128 207.9 172.055 207.566 171.91C207.232 171.765 206.97 171.559 206.781 171.292C206.592 171.024 206.488 170.706 206.468 170.338H207.393C207.411 170.558 207.482 170.742 207.608 170.89C207.735 171.035 207.897 171.143 208.094 171.215C208.293 171.284 208.511 171.319 208.747 171.319C209.008 171.319 209.24 171.278 209.443 171.197C209.648 171.113 209.809 170.998 209.926 170.851C210.043 170.702 210.102 170.527 210.102 170.329C210.102 170.148 210.05 169.999 209.947 169.884C209.845 169.769 209.707 169.673 209.532 169.598C209.359 169.522 209.163 169.455 208.944 169.398L208.222 169.201C207.733 169.067 207.345 168.871 207.059 168.613C206.774 168.354 206.632 168.012 206.632 167.586C206.632 167.234 206.727 166.927 206.918 166.664C207.109 166.402 207.368 166.198 207.694 166.053C208.02 165.905 208.388 165.832 208.798 165.832C209.212 165.832 209.577 165.904 209.893 166.05C210.212 166.195 210.462 166.395 210.645 166.649C210.828 166.902 210.924 167.193 210.932 167.521H210.042ZM211.733 172.026V171.358L213.801 169.216C214.022 168.983 214.204 168.779 214.347 168.604C214.492 168.427 214.601 168.259 214.672 168.1C214.744 167.94 214.78 167.771 214.78 167.592C214.78 167.389 214.732 167.214 214.637 167.067C214.541 166.918 214.411 166.804 214.246 166.724C214.081 166.642 213.895 166.602 213.688 166.602C213.469 166.602 213.278 166.646 213.115 166.736C212.952 166.826 212.826 166.952 212.739 167.115C212.651 167.278 212.608 167.469 212.608 167.688H211.727C211.727 167.316 211.813 166.991 211.984 166.712C212.155 166.434 212.39 166.218 212.688 166.065C212.987 165.909 213.326 165.832 213.706 165.832C214.09 165.832 214.428 165.908 214.72 166.062C215.015 166.213 215.244 166.42 215.409 166.682C215.575 166.943 215.657 167.237 215.657 167.566C215.657 167.792 215.614 168.014 215.529 168.231C215.445 168.448 215.299 168.689 215.09 168.956C214.881 169.221 214.591 169.542 214.219 169.92L213.004 171.191V171.236H215.756V172.026H211.733ZM218.618 165.832C218.891 165.834 219.159 165.884 219.424 165.981C219.689 166.079 219.927 166.238 220.14 166.458C220.355 166.679 220.526 166.978 220.653 167.354C220.783 167.728 220.848 168.193 220.85 168.75C220.85 169.285 220.797 169.762 220.689 170.179C220.582 170.595 220.428 170.946 220.227 171.233C220.028 171.519 219.786 171.737 219.502 171.886C219.217 172.035 218.897 172.11 218.541 172.11C218.177 172.11 217.853 172.038 217.571 171.895C217.289 171.752 217.059 171.554 216.882 171.301C216.705 171.047 216.594 170.754 216.551 170.424H217.461C217.52 170.687 217.642 170.899 217.825 171.063C218.01 171.224 218.248 171.304 218.541 171.304C218.988 171.304 219.337 171.109 219.588 170.719C219.839 170.328 219.965 169.781 219.967 169.078H219.919C219.816 169.249 219.687 169.397 219.531 169.52C219.378 169.643 219.206 169.739 219.015 169.806C218.824 169.874 218.62 169.908 218.404 169.908C218.051 169.908 217.731 169.821 217.443 169.648C217.154 169.475 216.925 169.237 216.753 168.935C216.582 168.633 216.497 168.288 216.497 167.9C216.497 167.514 216.584 167.164 216.759 166.849C216.936 166.535 217.183 166.286 217.499 166.103C217.818 165.918 218.191 165.828 218.618 165.832ZM218.621 166.608C218.389 166.608 218.179 166.665 217.992 166.781C217.807 166.894 217.661 167.048 217.553 167.243C217.446 167.436 217.392 167.651 217.392 167.888C217.392 168.124 217.444 168.339 217.547 168.532C217.653 168.723 217.796 168.875 217.977 168.989C218.16 169.1 218.369 169.156 218.603 169.156C218.778 169.156 218.942 169.122 219.093 169.054C219.244 168.987 219.376 168.893 219.49 168.774C219.603 168.653 219.692 168.515 219.755 168.362C219.819 168.209 219.851 168.048 219.851 167.879C219.851 167.654 219.797 167.445 219.69 167.252C219.584 167.059 219.439 166.904 219.254 166.787C219.069 166.667 218.858 166.608 218.621 166.608ZM222.579 171.191L222.534 171.516C222.505 171.755 222.454 172.003 222.382 172.262C222.313 172.523 222.24 172.764 222.164 172.987C222.091 173.21 222.03 173.387 221.982 173.518H221.35C221.376 173.395 221.412 173.228 221.457 173.017C221.503 172.808 221.548 172.574 221.592 172.316C221.635 172.057 221.668 171.794 221.69 171.525L221.72 171.191H222.579ZM225.433 172.11C225.023 172.11 224.657 172.039 224.335 171.898C224.015 171.757 223.761 171.561 223.574 171.31C223.389 171.058 223.29 170.765 223.276 170.433H224.213C224.225 170.614 224.285 170.771 224.395 170.904C224.506 171.036 224.651 171.137 224.83 171.209C225.009 171.28 225.208 171.316 225.427 171.316C225.668 171.316 225.881 171.274 226.066 171.191C226.253 171.107 226.399 170.991 226.504 170.842C226.61 170.691 226.662 170.517 226.662 170.32C226.662 170.115 226.61 169.935 226.504 169.78C226.401 169.622 226.249 169.499 226.048 169.41C225.849 169.32 225.608 169.275 225.326 169.275H224.809V168.523H225.326C225.552 168.523 225.751 168.483 225.922 168.401C226.095 168.319 226.231 168.206 226.328 168.061C226.426 167.914 226.474 167.742 226.474 167.545C226.474 167.356 226.432 167.192 226.346 167.052C226.263 166.911 226.143 166.801 225.988 166.721C225.835 166.642 225.654 166.602 225.445 166.602C225.246 166.602 225.06 166.639 224.887 166.712C224.716 166.784 224.577 166.887 224.469 167.022C224.362 167.156 224.304 167.316 224.296 167.503H223.404C223.414 167.173 223.511 166.882 223.696 166.632C223.883 166.381 224.13 166.185 224.436 166.044C224.743 165.903 225.083 165.832 225.457 165.832C225.849 165.832 226.187 165.908 226.471 166.062C226.758 166.213 226.979 166.415 227.134 166.667C227.291 166.92 227.369 167.197 227.367 167.497C227.369 167.839 227.273 168.129 227.08 168.368C226.889 168.607 226.635 168.767 226.316 168.849V168.896C226.722 168.958 227.036 169.119 227.259 169.38C227.484 169.64 227.595 169.964 227.593 170.349C227.595 170.686 227.502 170.987 227.313 171.254C227.126 171.52 226.87 171.73 226.546 171.883C226.222 172.034 225.851 172.11 225.433 172.11ZM228.293 170.833V170.087L230.934 165.915H231.521V167.013H231.148L229.26 170.003V170.051H232.879V170.833H228.293ZM231.19 172.026V170.606L231.196 170.266V165.915H232.07V172.026H231.19ZM235.746 172.128C235.275 172.126 234.872 172.002 234.538 171.755C234.204 171.508 233.948 171.149 233.771 170.678C233.594 170.206 233.505 169.638 233.505 168.974C233.505 168.311 233.594 167.746 233.771 167.276C233.95 166.807 234.207 166.449 234.541 166.202C234.877 165.955 235.279 165.832 235.746 165.832C236.214 165.832 236.615 165.956 236.949 166.205C237.283 166.452 237.539 166.81 237.716 167.279C237.895 167.747 237.984 168.311 237.984 168.974C237.984 169.64 237.896 170.209 237.719 170.681C237.542 171.15 237.286 171.509 236.952 171.758C236.618 172.004 236.216 172.128 235.746 172.128ZM235.746 171.331C236.16 171.331 236.483 171.129 236.716 170.725C236.951 170.322 237.068 169.738 237.068 168.974C237.068 168.467 237.014 168.038 236.907 167.688C236.802 167.336 236.649 167.069 236.45 166.888C236.254 166.705 236.019 166.614 235.746 166.614C235.335 166.614 235.011 166.817 234.777 167.222C234.542 167.628 234.423 168.212 234.421 168.974C234.421 169.483 234.474 169.914 234.58 170.266C234.687 170.616 234.839 170.882 235.036 171.063C235.233 171.242 235.47 171.331 235.746 171.331ZM239.121 172.083C238.958 172.083 238.817 172.025 238.7 171.91C238.583 171.793 238.524 171.651 238.524 171.486C238.524 171.323 238.583 171.184 238.7 171.069C238.817 170.951 238.958 170.893 239.121 170.893C239.284 170.893 239.424 170.951 239.542 171.069C239.659 171.184 239.718 171.323 239.718 171.486C239.718 171.596 239.69 171.696 239.634 171.788C239.58 171.877 239.509 171.949 239.419 172.002C239.33 172.056 239.23 172.083 239.121 172.083ZM240.601 172.026V171.358L242.668 169.216C242.889 168.983 243.071 168.779 243.214 168.604C243.36 168.427 243.468 168.259 243.54 168.1C243.611 167.94 243.647 167.771 243.647 167.592C243.647 167.389 243.599 167.214 243.504 167.067C243.408 166.918 243.278 166.804 243.113 166.724C242.948 166.642 242.762 166.602 242.555 166.602C242.336 166.602 242.145 166.646 241.982 166.736C241.819 166.826 241.694 166.952 241.606 167.115C241.519 167.278 241.475 167.469 241.475 167.688H240.595C240.595 167.316 240.68 166.991 240.851 166.712C241.022 166.434 241.257 166.218 241.555 166.065C241.854 165.909 242.193 165.832 242.573 165.832C242.957 165.832 243.295 165.908 243.587 166.062C243.882 166.213 244.112 166.42 244.277 166.682C244.442 166.943 244.524 167.237 244.524 167.566C244.524 167.792 244.482 168.014 244.396 168.231C244.313 168.448 244.166 168.689 243.957 168.956C243.749 169.221 243.458 169.542 243.086 169.92L241.872 171.191V171.236H244.623V172.026H240.601ZM247.581 172.128C247.11 172.126 246.707 172.002 246.373 171.755C246.038 171.508 245.783 171.149 245.606 170.678C245.429 170.206 245.34 169.638 245.34 168.974C245.34 168.311 245.429 167.746 245.606 167.276C245.785 166.807 246.041 166.449 246.376 166.202C246.712 165.955 247.114 165.832 247.581 165.832C248.049 165.832 248.449 165.956 248.784 166.205C249.118 166.452 249.373 166.81 249.55 167.279C249.73 167.747 249.819 168.311 249.819 168.974C249.819 169.64 249.73 170.209 249.553 170.681C249.376 171.15 249.121 171.509 248.787 171.758C248.452 172.004 248.051 172.128 247.581 172.128ZM247.581 171.331C247.995 171.331 248.318 171.129 248.551 170.725C248.786 170.322 248.903 169.738 248.903 168.974C248.903 168.467 248.849 168.038 248.742 167.688C248.636 167.336 248.484 167.069 248.285 166.888C248.088 166.705 247.854 166.614 247.581 166.614C247.169 166.614 246.846 166.817 246.611 167.222C246.377 167.628 246.258 168.212 246.256 168.974C246.256 169.483 246.309 169.914 246.414 170.266C246.522 170.616 246.674 170.882 246.871 171.063C247.068 171.242 247.305 171.331 247.581 171.331Z" fill="#242424"/>
<rect x="261.241" y="163.326" width="26.8014" height="12.4007" rx="2.40072" fill="#E0F0E4"/>
<path d="M265.73 170.647V167.189H266.418V170.647H265.73ZM264.347 169.26V168.575H267.805V169.26H264.347ZM270.73 171.598C270.379 171.598 270.065 171.537 269.789 171.416C269.515 171.295 269.297 171.127 269.137 170.913C268.978 170.696 268.893 170.445 268.881 170.161H269.684C269.695 170.316 269.747 170.45 269.84 170.565C269.936 170.677 270.06 170.764 270.214 170.826C270.367 170.887 270.538 170.918 270.725 170.918C270.932 170.918 271.114 170.882 271.273 170.81C271.433 170.739 271.558 170.639 271.649 170.511C271.739 170.381 271.784 170.232 271.784 170.063C271.784 169.888 271.739 169.733 271.649 169.601C271.56 169.466 271.429 169.36 271.257 169.283C271.087 169.207 270.88 169.168 270.638 169.168H270.196V168.524H270.638C270.833 168.524 271.003 168.489 271.15 168.419C271.298 168.349 271.414 168.252 271.498 168.127C271.581 168.001 271.623 167.854 271.623 167.685C271.623 167.523 271.586 167.382 271.513 167.263C271.441 167.142 271.339 167.047 271.206 166.979C271.075 166.911 270.92 166.877 270.741 166.877C270.57 166.877 270.411 166.908 270.262 166.971C270.116 167.033 269.996 167.121 269.904 167.237C269.812 167.352 269.763 167.489 269.756 167.649H268.991C269 167.366 269.083 167.117 269.242 166.902C269.402 166.687 269.614 166.519 269.876 166.398C270.139 166.277 270.43 166.217 270.751 166.217C271.087 166.217 271.377 166.282 271.62 166.414C271.866 166.543 272.055 166.716 272.188 166.933C272.323 167.149 272.389 167.386 272.388 167.644C272.389 167.937 272.308 168.186 272.142 168.391C271.979 168.595 271.76 168.733 271.487 168.803V168.843C271.835 168.896 272.105 169.034 272.296 169.258C272.488 169.481 272.584 169.758 272.582 170.089C272.584 170.377 272.504 170.635 272.342 170.864C272.181 171.092 271.962 171.272 271.684 171.404C271.406 171.533 271.088 171.598 270.73 171.598ZM273.908 171.575C273.768 171.575 273.648 171.526 273.548 171.427C273.447 171.326 273.397 171.205 273.397 171.063C273.397 170.924 273.447 170.804 273.548 170.705C273.648 170.605 273.768 170.554 273.908 170.554C274.048 170.554 274.168 170.605 274.269 170.705C274.369 170.804 274.42 170.924 274.42 171.063C274.42 171.157 274.396 171.243 274.348 171.322C274.302 171.398 274.241 171.46 274.164 171.506C274.087 171.552 274.002 171.575 273.908 171.575ZM275.324 170.503V169.864L277.587 166.288H278.091V167.23H277.771L276.152 169.792V169.833H279.255V170.503H275.324ZM277.807 171.526V170.309L277.812 170.017V166.288H278.562V171.526H277.807ZM282.88 170.544V170.268C282.88 170.07 282.921 169.89 283.003 169.726C283.087 169.56 283.208 169.428 283.366 169.329C283.526 169.229 283.72 169.178 283.947 169.178C284.179 169.178 284.373 169.228 284.53 169.327C284.687 169.426 284.805 169.558 284.885 169.723C284.967 169.889 285.008 170.07 285.008 170.268V170.544C285.008 170.742 284.967 170.924 284.885 171.089C284.804 171.253 284.683 171.385 284.525 171.485C284.368 171.584 284.175 171.634 283.947 171.634C283.717 171.634 283.522 171.584 283.364 171.485C283.205 171.385 283.085 171.253 283.003 171.089C282.921 170.924 282.88 170.742 282.88 170.544ZM283.476 170.268V170.544C283.476 170.691 283.511 170.824 283.581 170.943C283.651 171.063 283.773 171.122 283.947 171.122C284.119 171.122 284.239 171.063 284.307 170.943C284.376 170.824 284.41 170.691 284.41 170.544V170.268C284.41 170.121 284.376 169.988 284.31 169.869C284.245 169.75 284.124 169.69 283.947 169.69C283.776 169.69 283.655 169.75 283.584 169.869C283.512 169.988 283.476 170.121 283.476 170.268ZM280.246 167.547V167.271C280.246 167.073 280.287 166.891 280.369 166.726C280.452 166.56 280.573 166.428 280.732 166.329C280.892 166.23 281.086 166.181 281.312 166.181C281.544 166.181 281.739 166.23 281.896 166.329C282.052 166.428 282.171 166.56 282.251 166.726C282.331 166.891 282.371 167.073 282.371 167.271V167.547C282.371 167.745 282.33 167.926 282.249 168.092C282.168 168.255 282.049 168.387 281.89 168.488C281.734 168.587 281.541 168.636 281.312 168.636C281.081 168.636 280.885 168.587 280.727 168.488C280.57 168.387 280.451 168.255 280.369 168.092C280.287 167.926 280.246 167.745 280.246 167.547ZM280.844 167.271V167.547C280.844 167.693 280.878 167.826 280.947 167.946C281.017 168.065 281.139 168.125 281.312 168.125C281.483 168.125 281.602 168.065 281.67 167.946C281.74 167.826 281.775 167.693 281.775 167.547V167.271C281.775 167.124 281.742 166.991 281.676 166.872C281.609 166.752 281.488 166.693 281.312 166.693C281.142 166.693 281.021 166.752 280.949 166.872C280.879 166.991 280.844 167.124 280.844 167.271ZM280.489 171.526L284.09 166.288H284.701L281.1 171.526H280.489Z" fill="#377E36"/>
<rect x="70.1048" y="189.332" width="231.07" height="31.2094" rx="4.50136" fill="white"/>
<rect x="70.1048" y="189.332" width="231.07" height="31.2094" rx="4.50136" stroke="#F2F2F2" stroke-width="0.600181"/>
<path d="M86.8825 208.238H84.8117V202.127H86.9243C87.531 202.127 88.0522 202.25 88.4878 202.494C88.9255 202.737 89.2616 203.086 89.4964 203.542C89.7311 203.997 89.8485 204.542 89.8485 205.177C89.8485 205.813 89.7301 206.36 89.4934 206.818C89.2587 207.275 88.9195 207.627 88.4759 207.871C88.0343 208.116 87.5032 208.238 86.8825 208.238ZM85.9187 207.28H86.8288C87.2545 207.28 87.6096 207.203 87.894 207.048C88.1785 206.891 88.3923 206.657 88.5356 206.347C88.6788 206.034 88.7504 205.644 88.7504 205.177C88.7504 204.709 88.6788 204.321 88.5356 204.013C88.3923 203.703 88.1805 203.471 87.9 203.318C87.6215 203.163 87.2754 203.085 86.8616 203.085H85.9187V207.28ZM92.5516 208.328C92.1041 208.328 91.7161 208.229 91.3879 208.032C91.0597 207.835 90.8051 207.56 90.6241 207.206C90.445 206.852 90.3555 206.438 90.3555 205.965C90.3555 205.491 90.445 205.076 90.6241 204.72C90.8051 204.364 91.0597 204.088 91.3879 203.891C91.7161 203.694 92.1041 203.595 92.5516 203.595C92.9992 203.595 93.3871 203.694 93.7153 203.891C94.0436 204.088 94.2972 204.364 94.4762 204.72C94.6572 205.076 94.7477 205.491 94.7477 205.965C94.7477 206.438 94.6572 206.852 94.4762 207.206C94.2972 207.56 94.0436 207.835 93.7153 208.032C93.3871 208.229 92.9992 208.328 92.5516 208.328ZM92.5576 207.462C92.8003 207.462 93.0032 207.396 93.1663 207.263C93.3294 207.127 93.4508 206.946 93.5303 206.719C93.6119 206.493 93.6527 206.24 93.6527 205.962C93.6527 205.681 93.6119 205.427 93.5303 205.201C93.4508 204.972 93.3294 204.79 93.1663 204.655C93.0032 204.519 92.8003 204.452 92.5576 204.452C92.3089 204.452 92.1021 204.519 91.937 204.655C91.7738 204.79 91.6515 204.972 91.5699 205.201C91.4904 205.427 91.4506 205.681 91.4506 205.962C91.4506 206.24 91.4904 206.493 91.5699 206.719C91.6515 206.946 91.7738 207.127 91.937 207.263C92.1021 207.396 92.3089 207.462 92.5576 207.462ZM96.4446 202.127V208.238H95.3644V202.127H96.4446ZM98.3354 202.127V208.238H97.2553V202.127H98.3354ZM100.465 208.331C100.174 208.331 99.9129 208.279 99.6802 208.176C99.4494 208.07 99.2664 207.915 99.1311 207.71C98.9979 207.505 98.9312 207.253 98.9312 206.952C98.9312 206.694 98.979 206.48 99.0744 206.311C99.1699 206.142 99.3002 206.006 99.4653 205.905C99.6304 205.803 99.8164 205.727 100.023 205.675C100.232 205.621 100.448 205.583 100.671 205.559C100.939 205.531 101.157 205.506 101.324 205.484C101.491 205.46 101.613 205.425 101.688 205.377C101.766 205.327 101.805 205.25 101.805 205.147V205.129C101.805 204.904 101.738 204.73 101.605 204.607C101.471 204.484 101.28 204.422 101.029 204.422C100.764 204.422 100.554 204.48 100.399 204.595C100.246 204.71 100.143 204.847 100.089 205.004L99.0804 204.861C99.16 204.582 99.2913 204.349 99.4743 204.162C99.6573 203.973 99.8811 203.832 100.146 203.739C100.41 203.643 100.703 203.595 101.023 203.595C101.244 203.595 101.464 203.621 101.682 203.673C101.901 203.725 102.101 203.81 102.282 203.93C102.463 204.047 102.608 204.207 102.718 204.41C102.829 204.613 102.885 204.867 102.885 205.171V208.238H101.846V207.609H101.811C101.745 207.736 101.652 207.855 101.533 207.967C101.416 208.076 101.268 208.165 101.089 208.232C100.912 208.298 100.704 208.331 100.465 208.331ZM100.745 207.537C100.962 207.537 101.15 207.494 101.309 207.409C101.468 207.321 101.591 207.206 101.676 207.063C101.764 206.919 101.808 206.763 101.808 206.594V206.054C101.774 206.082 101.716 206.108 101.635 206.132C101.555 206.156 101.466 206.176 101.366 206.194C101.267 206.212 101.168 206.228 101.071 206.242C100.973 206.256 100.889 206.268 100.817 206.278C100.656 206.3 100.512 206.336 100.384 206.385C100.257 206.435 100.157 206.505 100.083 206.594C100.009 206.682 99.9726 206.795 99.9726 206.934C99.9726 207.133 100.045 207.283 100.19 207.385C100.336 207.486 100.521 207.537 100.745 207.537ZM103.671 208.238V203.655H104.718V204.419H104.766C104.849 204.154 104.993 203.95 105.196 203.807C105.401 203.662 105.634 203.589 105.897 203.589C105.956 203.589 106.023 203.592 106.097 203.598C106.172 203.602 106.235 203.609 106.285 203.619V204.613C106.239 204.597 106.166 204.583 106.067 204.571C105.969 204.557 105.875 204.55 105.783 204.55C105.586 204.55 105.409 204.593 105.252 204.679C105.097 204.762 104.975 204.878 104.885 205.028C104.796 205.177 104.751 205.349 104.751 205.544V208.238H103.671ZM110.325 204.867L109.34 204.974C109.312 204.874 109.263 204.781 109.194 204.693C109.126 204.606 109.035 204.535 108.919 204.482C108.804 204.428 108.663 204.401 108.496 204.401C108.271 204.401 108.082 204.45 107.929 204.547C107.777 204.645 107.703 204.771 107.705 204.926C107.703 205.059 107.752 205.168 107.851 205.251C107.952 205.335 108.12 205.404 108.352 205.457L109.134 205.624C109.568 205.718 109.89 205.866 110.101 206.069C110.314 206.272 110.421 206.537 110.423 206.866C110.421 207.154 110.337 207.409 110.169 207.63C110.004 207.848 109.775 208.019 109.48 208.143C109.186 208.266 108.848 208.328 108.466 208.328C107.905 208.328 107.453 208.21 107.111 207.976C106.769 207.739 106.565 207.41 106.499 206.988L107.553 206.887C107.6 207.093 107.702 207.25 107.857 207.355C108.012 207.46 108.214 207.513 108.463 207.513C108.719 207.513 108.925 207.46 109.08 207.355C109.238 207.25 109.316 207.119 109.316 206.964C109.316 206.833 109.265 206.724 109.164 206.639C109.064 206.553 108.909 206.488 108.698 206.442L107.917 206.278C107.477 206.186 107.152 206.032 106.941 205.815C106.73 205.597 106.626 205.32 106.628 204.986C106.626 204.703 106.702 204.459 106.857 204.252C107.015 204.043 107.232 203.882 107.511 203.768C107.791 203.653 108.115 203.595 108.481 203.595C109.018 203.595 109.44 203.71 109.749 203.939C110.059 204.167 110.251 204.477 110.325 204.867Z" fill="#242424"/>
<path d="M121.712 202.835C121.712 202.835 123.431 202.998 123.813 202.235C124.113 201.634 124.413 201.334 124.713 201.334C125.013 201.334 125.151 202.05 125.613 202.235C126.442 202.566 126.912 201.014 127.714 201.334C128.175 201.519 128.171 202.008 128.614 202.235C130.034 202.96 129.514 198.934 131.015 198.934C132.418 198.934 131.315 202.835 133.716 204.035C134.316 204.335 134.875 204.024 135.516 204.335C136.838 204.976 135.896 207.266 137.317 207.636C138.252 207.88 138.76 206.905 139.717 207.036C140.343 207.121 140.587 207.654 141.218 207.636C142.063 207.613 142.18 206.541 143.018 206.436C144.058 206.306 145.419 207.636 145.419 207.636" stroke="#377E36" stroke-width="0.600181" stroke-linecap="round"/>
<path d="M124.086 202.016C123.71 202.798 121.412 202.836 121.412 202.836V211.239H145.719V207.637C145.719 207.637 144.076 206.187 143.049 206.32C142.221 206.427 142.105 207.526 141.271 207.55C140.648 207.568 140.407 207.022 139.79 206.935C138.844 206.801 138.343 207.799 137.419 207.55C136.017 207.17 136.946 204.824 135.642 204.168C135.008 203.85 134.457 204.168 133.864 203.861C131.494 202.631 132.583 198.635 131.197 198.635C129.716 198.635 130.229 202.759 128.827 202.016C128.39 201.785 128.394 201.283 127.938 201.094C127.147 200.766 126.682 202.356 125.864 202.016C125.408 201.827 125.272 201.094 124.975 201.094C124.679 201.094 124.383 201.401 124.086 202.016Z" fill="url(#paint1_linear_229_14283)"/>
<path d="M208.211 208.2V200.562H208.7V208.2H208.211ZM209.742 202.931C209.71 202.648 209.579 202.43 209.348 202.274C209.117 202.117 208.827 202.039 208.476 202.039C208.226 202.039 208.009 202.079 207.826 202.158C207.643 202.236 207.501 202.343 207.399 202.48C207.3 202.616 207.25 202.77 207.25 202.943C207.25 203.088 207.284 203.213 207.352 203.319C207.421 203.424 207.512 203.513 207.623 203.584C207.736 203.654 207.858 203.713 207.987 203.76C208.116 203.806 208.241 203.844 208.36 203.874L208.957 204.029C209.152 204.077 209.352 204.141 209.557 204.223C209.762 204.304 209.952 204.412 210.127 204.545C210.302 204.678 210.443 204.844 210.55 205.04C210.66 205.237 210.714 205.473 210.714 205.748C210.714 206.094 210.625 206.401 210.446 206.67C210.269 206.938 210.011 207.15 209.673 207.305C209.337 207.46 208.93 207.538 208.453 207.538C207.995 207.538 207.599 207.465 207.265 207.32C206.931 207.175 206.669 206.969 206.48 206.702C206.291 206.434 206.187 206.116 206.167 205.748H207.092C207.11 205.968 207.181 206.152 207.307 206.3C207.434 206.445 207.596 206.553 207.793 206.625C207.992 206.695 208.21 206.729 208.447 206.729C208.707 206.729 208.939 206.689 209.142 206.607C209.347 206.523 209.508 206.408 209.625 206.261C209.743 206.112 209.801 205.938 209.801 205.739C209.801 205.558 209.75 205.409 209.646 205.294C209.545 205.179 209.406 205.083 209.231 205.008C209.058 204.932 208.862 204.865 208.644 204.808L207.921 204.611C207.432 204.478 207.044 204.282 206.758 204.023C206.473 203.764 206.331 203.422 206.331 202.997C206.331 202.644 206.427 202.337 206.618 202.075C206.809 201.812 207.067 201.608 207.393 201.463C207.72 201.316 208.088 201.242 208.497 201.242C208.911 201.242 209.276 201.315 209.592 201.46C209.911 201.605 210.161 201.805 210.344 202.06C210.527 202.312 210.623 202.603 210.631 202.931H209.742ZM213.465 201.242C213.737 201.244 214.006 201.294 214.27 201.391C214.535 201.489 214.773 201.648 214.986 201.869C215.201 202.089 215.372 202.388 215.5 202.764C215.629 203.138 215.694 203.603 215.696 204.16C215.696 204.695 215.643 205.172 215.535 205.59C215.428 206.005 215.274 206.356 215.073 206.643C214.874 206.929 214.632 207.147 214.348 207.296C214.063 207.445 213.743 207.52 213.387 207.52C213.023 207.52 212.7 207.448 212.417 207.305C212.135 207.162 211.905 206.964 211.728 206.711C211.551 206.457 211.44 206.164 211.397 205.834H212.307C212.366 206.097 212.488 206.31 212.671 206.473C212.856 206.634 213.095 206.714 213.387 206.714C213.835 206.714 214.184 206.519 214.434 206.13C214.685 205.738 214.811 205.191 214.813 204.488H214.765C214.662 204.66 214.533 204.807 214.378 204.93C214.224 205.053 214.052 205.149 213.861 205.217C213.67 205.284 213.467 205.318 213.25 205.318C212.898 205.318 212.577 205.231 212.289 205.058C212 204.885 211.771 204.648 211.6 204.345C211.429 204.043 211.343 203.698 211.343 203.31C211.343 202.924 211.431 202.574 211.606 202.26C211.783 201.945 212.029 201.697 212.346 201.514C212.664 201.329 213.037 201.238 213.465 201.242ZM213.468 202.018C213.235 202.018 213.025 202.076 212.838 202.191C212.653 202.304 212.507 202.458 212.399 202.653C212.292 202.846 212.238 203.061 212.238 203.298C212.238 203.535 212.29 203.749 212.393 203.942C212.499 204.133 212.642 204.286 212.823 204.399C213.006 204.51 213.215 204.566 213.45 204.566C213.625 204.566 213.788 204.532 213.939 204.465C214.09 204.397 214.222 204.303 214.336 204.184C214.449 204.063 214.538 203.926 214.601 203.772C214.665 203.619 214.697 203.458 214.697 203.289C214.697 203.064 214.643 202.855 214.536 202.662C214.43 202.469 214.285 202.314 214.1 202.197C213.915 202.078 213.704 202.018 213.468 202.018ZM218.491 207.52C218.117 207.52 217.781 207.448 217.483 207.305C217.186 207.16 216.95 206.961 216.773 206.708C216.596 206.456 216.501 206.167 216.489 205.843H217.384C217.406 206.106 217.523 206.322 217.733 206.491C217.944 206.66 218.197 206.744 218.491 206.744C218.726 206.744 218.934 206.691 219.115 206.583C219.298 206.474 219.441 206.324 219.545 206.133C219.65 205.942 219.703 205.724 219.703 205.479C219.703 205.23 219.649 205.009 219.542 204.814C219.434 204.619 219.286 204.466 219.097 204.354C218.91 204.243 218.695 204.186 218.453 204.184C218.268 204.184 218.082 204.216 217.895 204.28C217.708 204.343 217.556 204.427 217.441 204.53L216.597 204.405L216.94 201.326H220.3V202.116H217.707L217.513 203.826H217.548C217.668 203.711 217.826 203.614 218.023 203.537C218.222 203.459 218.435 203.42 218.661 203.42C219.033 203.42 219.365 203.509 219.655 203.686C219.947 203.863 220.177 204.105 220.344 204.411C220.513 204.715 220.597 205.065 220.595 205.461C220.597 205.857 220.507 206.21 220.326 206.52C220.147 206.831 219.899 207.075 219.58 207.255C219.264 207.432 218.901 207.52 218.491 207.52ZM222.336 206.601L222.291 206.926C222.261 207.165 222.211 207.414 222.139 207.672C222.069 207.933 221.997 208.175 221.921 208.397C221.847 208.62 221.787 208.797 221.739 208.928H221.107C221.132 208.805 221.168 208.638 221.214 208.427C221.26 208.218 221.304 207.985 221.348 207.726C221.392 207.467 221.425 207.204 221.447 206.935L221.477 206.601H222.336ZM225.19 207.538C224.718 207.536 224.315 207.412 223.981 207.165C223.647 206.918 223.391 206.559 223.214 206.088C223.037 205.616 222.949 205.048 222.949 204.384C222.949 203.722 223.037 203.156 223.214 202.686C223.393 202.217 223.65 201.859 223.984 201.612C224.32 201.365 224.722 201.242 225.19 201.242C225.657 201.242 226.058 201.366 226.392 201.615C226.726 201.862 226.982 202.22 227.159 202.689C227.338 203.157 227.428 203.722 227.428 204.384C227.428 205.05 227.339 205.619 227.162 206.091C226.985 206.56 226.729 206.919 226.395 207.168C226.061 207.415 225.659 207.538 225.19 207.538ZM225.19 206.741C225.603 206.741 225.927 206.539 226.159 206.136C226.394 205.732 226.512 205.148 226.512 204.384C226.512 203.877 226.458 203.448 226.35 203.098C226.245 202.746 226.093 202.479 225.894 202.298C225.697 202.115 225.462 202.024 225.19 202.024C224.778 202.024 224.455 202.227 224.22 202.633C223.985 203.038 223.867 203.622 223.865 204.384C223.865 204.893 223.918 205.324 224.023 205.676C224.13 206.026 224.283 206.292 224.48 206.473C224.676 206.652 224.913 206.741 225.19 206.741ZM230.251 207.52C229.823 207.52 229.445 207.446 229.117 207.299C228.791 207.152 228.535 206.949 228.35 206.691C228.165 206.432 228.074 206.138 228.076 205.807C228.074 205.549 228.126 205.311 228.234 205.094C228.343 204.875 228.491 204.693 228.678 204.548C228.865 204.401 229.074 204.307 229.305 204.268V204.232C229.001 204.158 228.757 203.995 228.574 203.743C228.391 203.49 228.3 203.199 228.302 202.871C228.3 202.559 228.383 202.28 228.55 202.036C228.719 201.789 228.951 201.595 229.245 201.454C229.54 201.313 229.875 201.242 230.251 201.242C230.623 201.242 230.955 201.314 231.247 201.457C231.542 201.598 231.774 201.792 231.943 202.039C232.112 202.283 232.197 202.561 232.199 202.871C232.197 203.199 232.104 203.49 231.919 203.743C231.734 203.995 231.493 204.158 231.197 204.232V204.268C231.425 204.307 231.631 204.401 231.814 204.548C231.999 204.693 232.147 204.875 232.256 205.094C232.367 205.311 232.424 205.549 232.426 205.807C232.424 206.138 232.331 206.432 232.146 206.691C231.961 206.949 231.704 207.152 231.376 207.299C231.05 207.446 230.675 207.52 230.251 207.52ZM230.251 206.765C230.503 206.765 230.722 206.723 230.907 206.64C231.092 206.554 231.236 206.436 231.337 206.285C231.438 206.132 231.49 205.953 231.492 205.748C231.49 205.535 231.434 205.347 231.325 205.184C231.218 205.021 231.071 204.892 230.886 204.799C230.701 204.705 230.49 204.659 230.251 204.659C230.01 204.659 229.796 204.705 229.609 204.799C229.422 204.892 229.275 205.021 229.168 205.184C229.06 205.347 229.008 205.535 229.01 205.748C229.008 205.953 229.056 206.132 229.156 206.285C229.257 206.436 229.401 206.554 229.588 206.64C229.775 206.723 229.996 206.765 230.251 206.765ZM230.251 203.922C230.454 203.922 230.634 203.881 230.791 203.799C230.948 203.718 231.071 203.604 231.161 203.459C231.252 203.314 231.299 203.144 231.301 202.949C231.299 202.758 231.253 202.591 231.164 202.448C231.076 202.304 230.954 202.194 230.797 202.116C230.64 202.037 230.458 201.997 230.251 201.997C230.04 201.997 229.855 202.037 229.696 202.116C229.539 202.194 229.416 202.304 229.329 202.448C229.241 202.591 229.199 202.758 229.201 202.949C229.199 203.144 229.242 203.314 229.332 203.459C229.421 203.604 229.545 203.718 229.702 203.799C229.861 203.881 230.044 203.922 230.251 203.922ZM235.322 207.538C234.851 207.536 234.448 207.412 234.114 207.165C233.78 206.918 233.524 206.559 233.347 206.088C233.17 205.616 233.082 205.048 233.082 204.384C233.082 203.722 233.17 203.156 233.347 202.686C233.526 202.217 233.783 201.859 234.117 201.612C234.453 201.365 234.855 201.242 235.322 201.242C235.79 201.242 236.191 201.366 236.525 201.615C236.859 201.862 237.115 202.22 237.292 202.689C237.471 203.157 237.56 203.722 237.56 204.384C237.56 205.05 237.472 205.619 237.295 206.091C237.118 206.56 236.862 206.919 236.528 207.168C236.194 207.415 235.792 207.538 235.322 207.538ZM235.322 206.741C235.736 206.741 236.059 206.539 236.292 206.136C236.527 205.732 236.644 205.148 236.644 204.384C236.644 203.877 236.591 203.448 236.483 203.098C236.378 202.746 236.226 202.479 236.027 202.298C235.83 202.115 235.595 202.024 235.322 202.024C234.911 202.024 234.587 202.227 234.353 202.633C234.118 203.038 234 203.622 233.998 204.384C233.998 204.893 234.05 205.324 234.156 205.676C234.263 206.026 234.415 206.292 234.612 206.473C234.809 206.652 235.046 206.741 235.322 206.741ZM238.697 207.493C238.534 207.493 238.394 207.436 238.276 207.32C238.159 207.203 238.1 207.062 238.1 206.896C238.1 206.733 238.159 206.594 238.276 206.479C238.394 206.361 238.534 206.303 238.697 206.303C238.86 206.303 239 206.361 239.118 206.479C239.235 206.594 239.294 206.733 239.294 206.896C239.294 207.006 239.266 207.106 239.21 207.198C239.156 207.287 239.085 207.359 238.995 207.413C238.906 207.466 238.806 207.493 238.697 207.493ZM242.083 207.52C241.673 207.52 241.307 207.449 240.985 207.308C240.664 207.167 240.411 206.971 240.224 206.72C240.039 206.468 239.939 206.175 239.925 205.843H240.862C240.874 206.024 240.935 206.181 241.044 206.315C241.156 206.446 241.301 206.547 241.48 206.619C241.659 206.691 241.858 206.726 242.077 206.726C242.317 206.726 242.53 206.685 242.715 206.601C242.902 206.517 243.048 206.401 243.154 206.252C243.259 206.101 243.312 205.927 243.312 205.73C243.312 205.525 243.259 205.345 243.154 205.19C243.05 205.033 242.898 204.909 242.697 204.82C242.498 204.73 242.258 204.685 241.975 204.685H241.459V203.933H241.975C242.202 203.933 242.401 203.893 242.572 203.811C242.745 203.73 242.88 203.616 242.978 203.471C243.075 203.324 243.124 203.152 243.124 202.955C243.124 202.766 243.081 202.602 242.996 202.462C242.912 202.321 242.793 202.211 242.638 202.131C242.485 202.052 242.303 202.012 242.095 202.012C241.896 202.012 241.71 202.049 241.537 202.122C241.366 202.194 241.226 202.297 241.119 202.433C241.011 202.566 240.954 202.726 240.946 202.913H240.054C240.064 202.583 240.161 202.292 240.346 202.042C240.533 201.791 240.78 201.595 241.086 201.454C241.392 201.313 241.733 201.242 242.107 201.242C242.498 201.242 242.837 201.319 243.121 201.472C243.408 201.623 243.628 201.825 243.783 202.078C243.941 202.33 244.018 202.607 244.016 202.907C244.018 203.249 243.923 203.54 243.73 203.778C243.539 204.017 243.284 204.177 242.966 204.259V204.306C243.372 204.368 243.686 204.529 243.909 204.79C244.134 205.05 244.245 205.374 244.243 205.76C244.245 206.096 244.151 206.397 243.963 206.664C243.776 206.93 243.52 207.14 243.196 207.293C242.871 207.444 242.5 207.52 242.083 207.52ZM247.198 207.538C246.727 207.536 246.324 207.412 245.99 207.165C245.656 206.918 245.4 206.559 245.223 206.088C245.046 205.616 244.957 205.048 244.957 204.384C244.957 203.722 245.046 203.156 245.223 202.686C245.402 202.217 245.659 201.859 245.993 201.612C246.329 201.365 246.731 201.242 247.198 201.242C247.666 201.242 248.067 201.366 248.401 201.615C248.735 201.862 248.991 202.22 249.168 202.689C249.347 203.157 249.436 203.722 249.436 204.384C249.436 205.05 249.348 205.619 249.171 206.091C248.994 206.56 248.738 206.919 248.404 207.168C248.07 207.415 247.668 207.538 247.198 207.538ZM247.198 206.741C247.612 206.741 247.935 206.539 248.168 206.136C248.403 205.732 248.52 205.148 248.52 204.384C248.52 203.877 248.466 203.448 248.359 203.098C248.254 202.746 248.101 202.479 247.902 202.298C247.706 202.115 247.471 202.024 247.198 202.024C246.787 202.024 246.463 202.227 246.229 202.633C245.994 203.038 245.875 203.622 245.873 204.384C245.873 204.893 245.926 205.324 246.032 205.676C246.139 206.026 246.291 206.292 246.488 206.473C246.685 206.652 246.922 206.741 247.198 206.741Z" fill="#242424"/>
<rect x="263.341" y="198.736" width="23.8014" height="12.4007" rx="2.40072" fill="#FEECEB"/>
<path d="M268.786 203.985V204.65H266.464V203.985H268.786ZM271.618 207.023C271.214 207.022 270.869 206.915 270.583 206.704C270.296 206.492 270.077 206.185 269.925 205.78C269.774 205.376 269.698 204.89 269.698 204.32C269.698 203.752 269.774 203.267 269.925 202.865C270.079 202.462 270.299 202.156 270.585 201.944C270.873 201.733 271.218 201.627 271.618 201.627C272.019 201.627 272.363 201.734 272.649 201.947C272.936 202.158 273.155 202.465 273.306 202.867C273.46 203.268 273.537 203.752 273.537 204.32C273.537 204.891 273.461 205.379 273.309 205.783C273.157 206.185 272.938 206.493 272.652 206.706C272.365 206.918 272.021 207.023 271.618 207.023ZM271.618 206.341C271.973 206.341 272.25 206.168 272.45 205.821C272.651 205.475 272.751 204.975 272.751 204.32C272.751 203.885 272.705 203.518 272.613 203.218C272.523 202.916 272.392 202.688 272.222 202.532C272.053 202.375 271.852 202.297 271.618 202.297C271.265 202.297 270.988 202.471 270.787 202.819C270.586 203.167 270.485 203.667 270.483 204.32C270.483 204.757 270.528 205.126 270.618 205.428C270.71 205.728 270.841 205.955 271.01 206.11C271.178 206.264 271.381 206.341 271.618 206.341ZM274.768 206.985C274.628 206.985 274.508 206.936 274.407 206.837C274.307 206.736 274.257 206.615 274.257 206.474C274.257 206.334 274.307 206.214 274.407 206.116C274.508 206.015 274.628 205.965 274.768 205.965C274.908 205.965 275.028 206.015 275.129 206.116C275.229 206.214 275.28 206.334 275.28 206.474C275.28 206.567 275.256 206.653 275.208 206.732C275.162 206.809 275.101 206.87 275.024 206.916C274.947 206.962 274.862 206.985 274.768 206.985ZM277.648 201.699V206.937H276.855V202.491H276.824L275.571 203.31V202.553L276.878 201.699H277.648ZM281.799 205.954V205.678C281.799 205.48 281.84 205.3 281.922 205.136C282.005 204.971 282.126 204.838 282.285 204.74C282.445 204.639 282.639 204.589 282.865 204.589C283.097 204.589 283.292 204.638 283.449 204.737C283.605 204.836 283.724 204.968 283.804 205.133C283.886 205.299 283.927 205.48 283.927 205.678V205.954C283.927 206.152 283.886 206.334 283.804 206.499C283.722 206.663 283.602 206.795 283.443 206.896C283.287 206.994 283.094 207.044 282.865 207.044C282.635 207.044 282.441 206.994 282.282 206.896C282.124 206.795 282.003 206.663 281.922 206.499C281.84 206.334 281.799 206.152 281.799 205.954ZM282.395 205.678V205.954C282.395 206.101 282.43 206.234 282.5 206.353C282.57 206.473 282.691 206.532 282.865 206.532C283.038 206.532 283.158 206.473 283.226 206.353C283.294 206.234 283.328 206.101 283.328 205.954V205.678C283.328 205.532 283.295 205.399 283.229 205.279C283.164 205.16 283.043 205.1 282.865 205.1C282.695 205.1 282.574 205.16 282.502 205.279C282.431 205.399 282.395 205.532 282.395 205.678ZM279.165 202.957V202.681C279.165 202.483 279.205 202.301 279.287 202.136C279.371 201.971 279.492 201.838 279.65 201.739C279.811 201.641 280.004 201.591 280.231 201.591C280.463 201.591 280.657 201.641 280.814 201.739C280.971 201.838 281.09 201.971 281.17 202.136C281.25 202.301 281.29 202.483 281.29 202.681V202.957C281.29 203.155 281.249 203.336 281.167 203.502C281.087 203.665 280.968 203.798 280.809 203.898C280.652 203.997 280.46 204.046 280.231 204.046C279.999 204.046 279.804 203.997 279.645 203.898C279.489 203.798 279.369 203.665 279.287 203.502C279.205 203.336 279.165 203.155 279.165 202.957ZM279.763 202.681V202.957C279.763 203.104 279.797 203.237 279.865 203.356C279.935 203.475 280.057 203.535 280.231 203.535C280.402 203.535 280.521 203.475 280.589 203.356C280.659 203.237 280.694 203.104 280.694 202.957V202.681C280.694 202.534 280.661 202.401 280.594 202.282C280.528 202.162 280.407 202.103 280.231 202.103C280.061 202.103 279.94 202.162 279.868 202.282C279.798 202.401 279.763 202.534 279.763 202.681ZM279.408 206.937L283.009 201.699H283.62L280.019 206.937H279.408Z" fill="#B12F30"/>
</g>
<defs>
<filter id="filter0_d_229_14283" x="0.480865" y="0.870216" width="371.29" height="328.686" filterUnits="userSpaceOnUse" color-interpolation-filters="sRGB">
<feFlood flood-opacity="0" result="BackgroundImageFix"/>
<feColorMatrix in="SourceAlpha" type="matrix" values="0 0 0 0 0 0 0 0 0 0 0 0 0 0 0 0 0 0 127 0" result="hardAlpha"/>
<feOffset dy="39.3894"/>
<feGaussianBlur stdDeviation="26.2596"/>
<feComposite in2="hardAlpha" operator="out"/>
<feColorMatrix type="matrix" values="0 0 0 0 0 0 0 0 0 0 0 0 0 0 0 0 0 0 0.25 0"/>
<feBlend mode="normal" in2="BackgroundImageFix" result="effect1_dropShadow_229_14283"/>
<feBlend mode="normal" in="SourceGraphic" in2="effect1_dropShadow_229_14283" result="shape"/>
</filter>
<linearGradient id="paint0_linear_229_14283" x1="134.016" y1="165.625" x2="134.016" y2="177.328" gradientUnits="userSpaceOnUse">
<stop stop-color="#EA973D" stop-opacity="0.31"/>
<stop offset="0.929726" stop-color="#EA973D" stop-opacity="0.01"/>
</linearGradient>
<linearGradient id="paint1_linear_229_14283" x1="133.716" y1="198.635" x2="133.716" y2="211.239" gradientUnits="userSpaceOnUse">
<stop stop-color="#377E36" stop-opacity="0.65"/>
<stop offset="1" stop-color="#377E36" stop-opacity="0"/>
</linearGradient>
</defs>
</svg>
