<svg width="299" height="292" viewBox="0 0 299 292" fill="none" xmlns="http://www.w3.org/2000/svg">
<g filter="url(#filter0_d_229_14314)">
<rect x="47" y="12" width="205.505" height="198.664" rx="8.32428" fill="white" shape-rendering="crispEdges"/>
<rect x="47.2601" y="12.2601" width="204.985" height="198.143" rx="8.06414" stroke="#F2F2F2" stroke-width="0.520267" shape-rendering="crispEdges"/>
<path d="M61.7277 28.2701H62.8115L64.1074 30.6135H64.1591L65.455 28.2701H66.5387L64.6118 31.5913V33.5674H63.6547V31.5913L61.7277 28.2701ZM71.3929 30.9187C71.3929 31.4895 71.286 31.9784 71.0721 32.3853C70.86 32.7906 70.5704 33.1009 70.2031 33.3165C69.8375 33.532 69.4228 33.6398 68.9589 33.6398C68.4951 33.6398 68.0795 33.532 67.7122 33.3165C67.3466 33.0992 67.0569 32.788 66.8431 32.3827C66.631 31.9758 66.525 31.4878 66.525 30.9187C66.525 30.348 66.631 29.86 66.8431 29.4548C67.0569 29.0478 67.3466 28.7366 67.7122 28.521C68.0795 28.3055 68.4951 28.1977 68.9589 28.1977C69.4228 28.1977 69.8375 28.3055 70.2031 28.521C70.5704 28.7366 70.86 29.0478 71.0721 29.4548C71.286 29.86 71.3929 30.348 71.3929 30.9187ZM70.4281 30.9187C70.4281 30.517 70.3652 30.1781 70.2393 29.9022C70.1151 29.6246 69.9427 29.4151 69.722 29.2737C69.5012 29.1306 69.2469 29.059 68.9589 29.059C68.671 29.059 68.4166 29.1306 68.1959 29.2737C67.9752 29.4151 67.8019 29.6246 67.676 29.9022C67.5518 30.1781 67.4898 30.517 67.4898 30.9187C67.4898 31.3205 67.5518 31.6602 67.676 31.9379C67.8019 32.2138 67.9752 32.4233 68.1959 32.5664C68.4166 32.7078 68.671 32.7785 68.9589 32.7785C69.2469 32.7785 69.5012 32.7078 69.722 32.5664C69.9427 32.4233 70.1151 32.2138 70.2393 31.9379C70.3652 31.6602 70.4281 31.3205 70.4281 30.9187ZM75.3792 28.2701H76.3388V31.7309C76.3388 32.1103 76.2492 32.444 76.0698 32.7319C75.8922 33.0199 75.6422 33.2449 75.3197 33.407C74.9973 33.5674 74.6205 33.6476 74.1894 33.6476C73.7566 33.6476 73.379 33.5674 73.0565 33.407C72.734 33.2449 72.484 33.0199 72.3064 32.7319C72.1288 32.444 72.04 32.1103 72.04 31.7309V28.2701H72.9996V31.6507C72.9996 31.8715 73.0479 32.068 73.1444 32.2405C73.2427 32.4129 73.3807 32.5483 73.5583 32.6466C73.7359 32.7431 73.9463 32.7914 74.1894 32.7914C74.4325 32.7914 74.6429 32.7431 74.8205 32.6466C74.9999 32.5483 75.1378 32.4129 75.2344 32.2405C75.3309 32.068 75.3792 31.8715 75.3792 31.6507V28.2701ZM77.1217 33.5674V28.2701H79.1082C79.5152 28.2701 79.8566 28.3408 80.1325 28.4822C80.4101 28.6236 80.6196 28.8219 80.761 29.0771C80.9041 29.3306 80.9757 29.6263 80.9757 29.9643C80.9757 30.304 80.9033 30.5989 80.7584 30.8489C80.6153 31.0972 80.4041 31.2895 80.1247 31.4257C79.8454 31.5602 79.5022 31.6275 79.0953 31.6275H77.6804V30.8308H78.9659C79.2039 30.8308 79.3988 30.798 79.5505 30.7325C79.7023 30.6653 79.8143 30.5678 79.8868 30.4402C79.9609 30.3109 79.998 30.1523 79.998 29.9643C79.998 29.7764 79.9609 29.616 79.8868 29.4832C79.8126 29.3487 79.6997 29.247 79.5479 29.178C79.3962 29.1073 79.2005 29.0719 78.9608 29.0719H78.0813V33.5674H77.1217ZM79.8583 31.1671L81.1697 33.5674H80.0989L78.8108 31.1671H79.8583ZM87.6797 30.0574H86.7123C86.6847 29.8988 86.6339 29.7582 86.5597 29.6358C86.4856 29.5117 86.3933 29.4065 86.2829 29.3203C86.1726 29.234 86.0467 29.1694 85.9053 29.1263C85.7656 29.0814 85.6148 29.059 85.4527 29.059C85.1647 29.059 84.9095 29.1314 84.687 29.2763C84.4646 29.4194 84.2904 29.6298 84.1646 29.9074C84.0387 30.1833 83.9757 30.5204 83.9757 30.9187C83.9757 31.324 84.0387 31.6654 84.1646 31.943C84.2922 32.2189 84.4663 32.4276 84.687 32.569C84.9095 32.7086 85.1638 32.7785 85.4501 32.7785C85.6087 32.7785 85.757 32.7578 85.895 32.7164C86.0346 32.6733 86.1597 32.6104 86.27 32.5276C86.3821 32.4448 86.4761 32.3431 86.5519 32.2224C86.6295 32.1017 86.683 31.9637 86.7123 31.8085L87.6797 31.8137C87.6435 32.0655 87.565 32.3017 87.4443 32.5224C87.3253 32.7431 87.1693 32.938 86.9761 33.107C86.783 33.2742 86.5571 33.4053 86.2985 33.5001C86.0398 33.5932 85.7527 33.6398 85.4371 33.6398C84.9716 33.6398 84.556 33.532 84.1904 33.3165C83.8249 33.1009 83.5369 32.7897 83.3265 32.3827C83.1161 31.9758 83.011 31.4878 83.011 30.9187C83.011 30.348 83.117 29.86 83.3291 29.4548C83.5412 29.0478 83.83 28.7366 84.1956 28.521C84.5612 28.3055 84.975 28.1977 85.4371 28.1977C85.732 28.1977 86.0062 28.2391 86.2597 28.3218C86.5131 28.4046 86.739 28.5262 86.9373 28.6866C87.1356 28.8452 87.2986 29.04 87.4262 29.2711C87.5555 29.5005 87.64 29.7626 87.6797 30.0574ZM88.2983 33.5674V28.2701H90.2848C90.6918 28.2701 91.0332 28.3408 91.3091 28.4822C91.5867 28.6236 91.7962 28.8219 91.9376 29.0771C92.0807 29.3306 92.1523 29.6263 92.1523 29.9643C92.1523 30.304 92.0799 30.5989 91.935 30.8489C91.7919 31.0972 91.5807 31.2895 91.3013 31.4257C91.022 31.5602 90.6788 31.6275 90.2719 31.6275H88.857V30.8308H90.1425C90.3805 30.8308 90.5754 30.798 90.7271 30.7325C90.8789 30.6653 90.9909 30.5678 91.0634 30.4402C91.1375 30.3109 91.1746 30.1523 91.1746 29.9643C91.1746 29.7764 91.1375 29.616 91.0634 29.4832C90.9892 29.3487 90.8763 29.247 90.7245 29.178C90.5728 29.1073 90.3771 29.0719 90.1374 29.0719H89.2579V33.5674H88.2983ZM91.0349 31.1671L92.3463 33.5674H91.2755L89.9874 31.1671H91.0349ZM92.7755 33.5674V28.2701H96.2208V29.0745H93.7351V30.5127H96.0423V31.3171H93.7351V32.763H96.2415V33.5674H92.7755ZM98.7347 33.5674H96.9397V28.2701H98.7709C99.2969 28.2701 99.7487 28.3762 100.126 28.5883C100.506 28.7986 100.797 29.1013 101.001 29.4961C101.204 29.891 101.306 30.3635 101.306 30.9136C101.306 31.4654 101.203 31.9396 100.998 32.3362C100.794 32.7328 100.5 33.0371 100.116 33.2492C99.7331 33.4613 99.2727 33.5674 98.7347 33.5674ZM97.8993 32.7371H98.6882C99.0572 32.7371 99.365 32.6698 99.6116 32.5353C99.8581 32.3991 100.044 32.1965 100.168 31.9275C100.292 31.6568 100.354 31.3188 100.354 30.9136C100.354 30.5083 100.292 30.1721 100.168 29.9048C100.044 29.6358 99.8599 29.4349 99.6167 29.3022C99.3753 29.1677 99.0753 29.1004 98.7166 29.1004H97.8993V32.7371ZM102.917 28.2701V33.5674H101.957V28.2701H102.917ZM103.463 29.0745V28.2701H107.69V29.0745H106.052V33.5674H105.101V29.0745H103.463ZM112.67 29.7263C112.646 29.5005 112.544 29.3246 112.364 29.1987C112.187 29.0728 111.956 29.0099 111.671 29.0099C111.471 29.0099 111.3 29.04 111.157 29.1004C111.013 29.1608 110.904 29.2427 110.828 29.3461C110.752 29.4496 110.713 29.5677 110.712 29.7005C110.712 29.8108 110.737 29.9065 110.787 29.9876C110.838 30.0686 110.908 30.1376 110.996 30.1945C111.084 30.2497 111.182 30.2963 111.288 30.3342C111.395 30.3721 111.503 30.404 111.612 30.4299L112.108 30.554C112.308 30.6006 112.501 30.6635 112.685 30.7429C112.871 30.8222 113.038 30.9222 113.184 31.0429C113.333 31.1636 113.45 31.3093 113.536 31.48C113.622 31.6507 113.666 31.8508 113.666 32.0801C113.666 32.3905 113.586 32.6638 113.428 32.9001C113.269 33.1346 113.04 33.3182 112.74 33.451C112.441 33.582 112.08 33.6476 111.656 33.6476C111.244 33.6476 110.886 33.5838 110.582 33.4562C110.281 33.3286 110.044 33.1423 109.874 32.8975C109.705 32.6526 109.613 32.3543 109.599 32.0025H110.544C110.557 32.187 110.614 32.3405 110.714 32.4629C110.814 32.5854 110.944 32.6767 111.105 32.7371C111.267 32.7975 111.448 32.8276 111.648 32.8276C111.857 32.8276 112.039 32.7966 112.196 32.7345C112.355 32.6707 112.479 32.5828 112.569 32.4707C112.658 32.3569 112.704 32.2241 112.706 32.0724C112.704 31.9344 112.664 31.8206 112.584 31.7309C112.505 31.6395 112.394 31.5637 112.251 31.5033C112.109 31.4412 111.944 31.3861 111.754 31.3378L111.151 31.1826C110.715 31.0705 110.37 30.9006 110.117 30.673C109.865 30.4437 109.739 30.1393 109.739 29.76C109.739 29.4479 109.824 29.1745 109.993 28.94C110.163 28.7055 110.395 28.5236 110.688 28.3943C110.982 28.2632 111.313 28.1977 111.684 28.1977C112.06 28.1977 112.389 28.2632 112.672 28.3943C112.957 28.5236 113.18 28.7038 113.342 28.9349C113.504 29.1642 113.588 29.428 113.593 29.7263H112.67ZM118.795 30.0574H117.828C117.8 29.8988 117.749 29.7582 117.675 29.6358C117.601 29.5117 117.509 29.4065 117.398 29.3203C117.288 29.234 117.162 29.1694 117.021 29.1263C116.881 29.0814 116.73 29.059 116.568 29.059C116.28 29.059 116.025 29.1314 115.802 29.2763C115.58 29.4194 115.406 29.6298 115.28 29.9074C115.154 30.1833 115.091 30.5204 115.091 30.9187C115.091 31.324 115.154 31.6654 115.28 31.943C115.408 32.2189 115.582 32.4276 115.802 32.569C116.025 32.7086 116.279 32.7785 116.566 32.7785C116.724 32.7785 116.872 32.7578 117.01 32.7164C117.15 32.6733 117.275 32.6104 117.385 32.5276C117.498 32.4448 117.592 32.3431 117.667 32.2224C117.745 32.1017 117.798 31.9637 117.828 31.8085L118.795 31.8137C118.759 32.0655 118.68 32.3017 118.56 32.5224C118.441 32.7431 118.285 32.938 118.092 33.107C117.898 33.2742 117.673 33.4053 117.414 33.5001C117.155 33.5932 116.868 33.6398 116.553 33.6398C116.087 33.6398 115.671 33.532 115.306 33.3165C114.94 33.1009 114.652 32.7897 114.442 32.3827C114.232 31.9758 114.126 31.4878 114.126 30.9187C114.126 30.348 114.232 29.86 114.445 29.4548C114.657 29.0478 114.945 28.7366 115.311 28.521C115.677 28.3055 116.09 28.1977 116.553 28.1977C116.847 28.1977 117.122 28.2391 117.375 28.3218C117.629 28.4046 117.854 28.5262 118.053 28.6866C118.251 28.8452 118.414 29.04 118.542 29.2711C118.671 29.5005 118.755 29.7626 118.795 30.0574ZM124.147 30.9187C124.147 31.4895 124.04 31.9784 123.826 32.3853C123.614 32.7906 123.325 33.1009 122.957 33.3165C122.592 33.532 122.177 33.6398 121.713 33.6398C121.249 33.6398 120.834 33.532 120.467 33.3165C120.101 33.0992 119.811 32.788 119.597 32.3827C119.385 31.9758 119.279 31.4878 119.279 30.9187C119.279 30.348 119.385 29.86 119.597 29.4548C119.811 29.0478 120.101 28.7366 120.467 28.521C120.834 28.3055 121.249 28.1977 121.713 28.1977C122.177 28.1977 122.592 28.3055 122.957 28.521C123.325 28.7366 123.614 29.0478 123.826 29.4548C124.04 29.86 124.147 30.348 124.147 30.9187ZM123.182 30.9187C123.182 30.517 123.119 30.1781 122.994 29.9022C122.869 29.6246 122.697 29.4151 122.476 29.2737C122.256 29.1306 122.001 29.059 121.713 29.059C121.425 29.059 121.171 29.1306 120.95 29.2737C120.729 29.4151 120.556 29.6246 120.43 29.9022C120.306 30.1781 120.244 30.517 120.244 30.9187C120.244 31.3205 120.306 31.6602 120.43 31.9379C120.556 32.2138 120.729 32.4233 120.95 32.5664C121.171 32.7078 121.425 32.7785 121.713 32.7785C122.001 32.7785 122.256 32.7078 122.476 32.5664C122.697 32.4233 122.869 32.2138 122.994 31.9379C123.119 31.6602 123.182 31.3205 123.182 30.9187ZM124.794 33.5674V28.2701H126.781C127.188 28.2701 127.529 28.3408 127.805 28.4822C128.083 28.6236 128.292 28.8219 128.434 29.0771C128.577 29.3306 128.648 29.6263 128.648 29.9643C128.648 30.304 128.576 30.5989 128.431 30.8489C128.288 31.0972 128.077 31.2895 127.797 31.4257C127.518 31.5602 127.175 31.6275 126.768 31.6275H125.353V30.8308H126.638C126.876 30.8308 127.071 30.798 127.223 30.7325C127.375 30.6653 127.487 30.5678 127.559 30.4402C127.633 30.3109 127.671 30.1523 127.671 29.9643C127.671 29.7764 127.633 29.616 127.559 29.4832C127.485 29.3487 127.372 29.247 127.22 29.178C127.069 29.1073 126.873 29.0719 126.633 29.0719H125.754V33.5674H124.794ZM127.531 31.1671L128.842 33.5674H127.771L126.483 31.1671H127.531ZM129.271 33.5674V28.2701H132.717V29.0745H130.231V30.5127H132.538V31.3171H130.231V32.763H132.737V33.5674H129.271Z" fill="#7A7A7A"/>
<g filter="url(#filter1_f_229_14314)">
<ellipse cx="208.686" cy="85.4999" rx="9.10548" ry="7.66778" transform="rotate(1.07834 208.686 85.4999)" fill="#EA973D"/>
</g>
<path d="M91.3467 119.241C90.9456 121.995 90.7293 124.788 90.7054 127.603L90.9655 127.606C90.964 127.78 90.9633 127.954 90.9633 128.128H91.4421C91.4421 127.955 91.4428 127.783 91.4443 127.61L91.7044 127.612C91.7279 124.845 91.9405 122.098 92.3349 119.391L92.0775 119.354C92.1273 119.012 92.18 118.67 92.2356 118.33L92.4923 118.372C92.9368 115.647 93.5658 112.965 94.3717 110.343L94.1231 110.267C94.2246 109.937 94.3289 109.608 94.436 109.279L94.6833 109.36C95.5377 106.742 96.5699 104.187 97.7722 101.715L97.5383 101.602C97.6893 101.291 97.843 100.982 97.9994 100.674L98.2314 100.792C99.4758 98.3416 100.889 95.9767 102.464 93.7161L102.251 93.5674C102.448 93.2841 102.648 93.0025 102.85 92.7225L103.061 92.8749C104.667 90.6538 106.431 88.538 108.346 86.5462L108.158 86.3659C108.278 86.2414 108.398 86.1174 108.519 85.9938C108.638 85.8719 108.758 85.7506 108.878 85.6299L109.063 85.8134C110.991 83.8765 113.038 82.0908 115.186 80.4635L115.029 80.2562C115.301 80.0503 115.574 79.847 115.849 79.6462L116.002 79.8562C118.203 78.2492 120.505 76.8057 122.889 75.5334L122.767 75.3039C123.068 75.1435 123.369 74.9859 123.673 74.8309L123.791 75.0626C126.21 73.8263 128.711 72.7642 131.275 71.8842L131.191 71.6382C131.513 71.5276 131.836 71.4199 132.16 71.3151L132.24 71.5626C134.818 70.7291 137.456 70.0783 140.136 69.6181L140.092 69.3617C140.427 69.3041 140.764 69.2495 141.101 69.1978L141.14 69.4549C143.808 69.0458 146.516 68.8251 149.244 68.8007L149.242 68.5406C149.412 68.5391 149.583 68.5383 149.753 68.5383C149.924 68.5383 150.094 68.5391 150.265 68.5406L150.263 68.8007C152.991 68.8251 155.699 69.0458 158.367 69.4549L158.406 69.1978C158.743 69.2495 159.08 69.3041 159.415 69.3617L159.371 69.6181C162.051 70.0783 164.689 70.7291 167.266 71.5626L167.346 71.3151C167.671 71.4199 167.994 71.5276 168.316 71.6382L168.231 71.8842C170.796 72.7642 173.297 73.8263 175.716 75.0626L175.834 74.8309C176.137 74.9859 176.439 75.1435 176.74 75.3039L176.618 75.5334C179.002 76.8057 181.304 78.2492 183.505 79.8563L183.658 79.6462C183.933 79.847 184.206 80.0503 184.478 80.2562L184.321 80.4635C186.469 82.0908 188.516 83.8766 190.444 85.8134L190.629 85.6299C190.749 85.7506 190.869 85.8719 190.988 85.9938C191.109 86.1174 191.229 86.2414 191.349 86.3659L191.161 86.5462C193.076 88.538 194.84 90.6538 196.446 92.8749L196.656 92.7225C196.859 93.0025 197.059 93.2841 197.256 93.5674L197.043 93.7161C198.618 95.9768 200.031 98.3416 201.276 100.792L201.508 100.674C201.664 100.982 201.818 101.291 201.969 101.602L201.735 101.715C202.937 104.187 203.969 106.742 204.824 109.36L205.071 109.279C205.178 109.608 205.282 109.937 205.384 110.267L205.135 110.343C205.941 112.965 206.57 115.647 207.015 118.372L207.271 118.33C207.327 118.67 207.38 119.012 207.429 119.354L207.172 119.391C207.566 122.098 207.779 124.845 207.803 127.612L208.063 127.61C208.064 127.783 208.065 127.955 208.065 128.128H208.544C208.544 127.954 208.543 127.78 208.541 127.606L208.802 127.603C208.778 124.788 208.561 121.995 208.16 119.241L207.903 119.278C207.853 118.933 207.799 118.589 207.743 118.246L208 118.204C207.548 115.432 206.908 112.704 206.088 110.037L205.84 110.114C205.737 109.781 205.632 109.449 205.524 109.118L205.771 109.037C204.902 106.374 203.852 103.775 202.629 101.261L202.395 101.375C202.243 101.061 202.088 100.75 201.93 100.439L202.162 100.321C200.896 97.829 199.459 95.4234 197.857 93.1239L197.643 93.2726C197.444 92.9869 197.243 92.7029 197.038 92.4205L197.249 92.2681C195.616 90.0088 193.822 87.8567 191.874 85.8306L191.686 86.0109C191.566 85.8853 191.444 85.7602 191.322 85.6357C191.202 85.5128 191.081 85.3904 190.96 85.2687L191.145 85.0851C189.183 83.115 187.101 81.2984 184.916 79.6432L184.759 79.8506C184.485 79.643 184.209 79.438 183.932 79.2355L184.085 79.0255C181.847 77.3908 179.506 75.9224 177.08 74.6282L176.957 74.8577C176.654 74.6961 176.35 74.5371 176.044 74.3809L176.163 74.1493C173.702 72.8917 171.158 71.8114 168.549 70.9163L168.465 71.1623C168.14 71.0508 167.815 70.9423 167.488 70.8366L167.568 70.5891C164.946 69.7412 162.263 69.0792 159.537 68.6111L159.493 68.8675C159.154 68.8094 158.815 68.7543 158.476 68.7023L158.515 68.4451C155.801 68.0289 153.047 67.8045 150.271 67.7797L150.269 68.0398C150.097 68.0382 149.925 68.0375 149.753 68.0375C149.582 68.0375 149.41 68.0382 149.238 68.0398L149.236 67.7797C146.46 67.8045 143.706 68.0289 140.992 68.4451L141.031 68.7023C140.692 68.7543 140.353 68.8094 140.014 68.8675L139.97 68.6111C137.244 69.0792 134.561 69.7412 131.939 70.5891L132.019 70.8366C131.692 70.9423 131.367 71.0508 131.042 71.1623L130.957 70.9162C128.349 71.8114 125.805 72.8917 123.344 74.1493L123.463 74.3809C123.157 74.5371 122.853 74.6961 122.55 74.8577L122.427 74.6282C120.001 75.9224 117.66 77.3908 115.421 79.0255L115.575 79.2355C115.298 79.438 115.022 79.643 114.748 79.8506L114.591 79.6432C112.406 81.2984 110.324 83.1149 108.362 85.0851L108.547 85.2687C108.426 85.3904 108.305 85.5127 108.185 85.6357C108.063 85.7602 107.941 85.8853 107.821 86.0108L107.633 85.8306C105.685 87.8567 103.891 90.0088 102.258 92.2681L102.469 92.4205C102.264 92.7029 102.063 92.9869 101.864 93.2725L101.65 93.1238C100.048 95.4234 98.6105 97.829 97.3446 100.321L97.5766 100.439C97.4188 100.75 97.2638 101.061 97.1115 101.375L96.8776 101.261C95.6546 103.775 94.6046 106.374 93.7355 109.037L93.9828 109.118C93.8748 109.449 93.7696 109.781 93.6672 110.114L93.4186 110.037C92.5987 112.704 91.9589 115.432 91.5068 118.204L91.7635 118.246C91.7075 118.589 91.6543 118.933 91.6041 119.278L91.3467 119.241Z" stroke="#7A7A7A" stroke-width="0.520267" stroke-dasharray="1.04 8.32"/>
<path d="M80.4386 131.78C78.1446 131.926 76.1537 130.185 76.1368 127.886C76.004 109.85 82.5032 92.334 94.4809 78.7197C106.459 65.1053 123.004 56.4279 140.91 54.262C143.192 53.986 145.173 55.7389 145.32 58.0329L145.33 58.1911C145.477 60.4851 143.733 62.45 141.453 62.7428C125.793 64.7541 111.341 72.398 100.85 84.3229C90.3585 96.2478 84.6177 111.555 84.6176 127.344C84.6176 129.643 82.8909 131.623 80.5969 131.77L80.4386 131.78Z" fill="#D76B66"/>
<path d="M146.811 57.9538C146.714 55.6572 148.498 53.7042 150.797 53.7367C164.744 53.9343 178.352 58.0921 190.028 65.7235C191.952 66.9811 192.34 69.5978 190.976 71.4478L190.881 71.5755C189.517 73.4255 186.918 73.8069 184.985 72.5635C174.879 66.0639 163.168 62.4859 151.156 62.2273C148.858 62.1778 146.915 60.4089 146.818 58.1122L146.811 57.9538Z" fill="#F6CF7D"/>
<path d="M192.295 72.4456C193.703 70.6286 196.326 70.2883 198.06 71.7967C204.654 77.5306 210.174 84.3929 214.362 92.0617C215.464 94.0792 214.57 96.5684 212.493 97.5545L212.35 97.6225C210.273 98.6085 207.802 97.7168 206.686 95.7075C203.087 89.2315 198.409 83.4165 192.855 78.5137C191.131 76.9926 190.79 74.3879 192.198 72.5709L192.295 72.4456Z" fill="#EA973D"/>
<path d="M212.796 98.2003C214.883 97.2357 217.368 98.1414 218.213 100.279C221.689 109.069 223.439 118.446 223.368 127.898C223.351 130.197 221.36 131.938 219.066 131.791L218.907 131.781C216.613 131.634 214.887 129.654 214.887 127.355C214.888 119.315 213.4 111.343 210.499 103.845C209.67 101.701 210.566 99.2315 212.652 98.2668L212.796 98.2003Z" fill="#75C57F"/>
<circle cx="205.162" cy="85.4663" r="5.20267" fill="#F9F9F9" stroke="#EA973D" stroke-width="4.16214"/>
<path d="M134.344 125.843C133.475 125.837 132.627 125.686 131.799 125.391C130.971 125.089 130.226 124.601 129.564 123.928C128.902 123.248 128.376 122.346 127.986 121.223C127.596 120.093 127.403 118.695 127.409 117.028C127.409 115.473 127.575 114.087 127.906 112.869C128.237 111.651 128.713 110.622 129.334 109.783C129.955 108.937 130.702 108.293 131.577 107.849C132.458 107.406 133.443 107.184 134.53 107.184C135.672 107.184 136.683 107.409 137.563 107.858C138.45 108.308 139.166 108.923 139.71 109.703C140.253 110.477 140.59 111.352 140.72 112.328H137.484C137.318 111.63 136.978 111.075 136.464 110.661C135.955 110.241 135.311 110.031 134.53 110.031C133.271 110.031 132.302 110.578 131.622 111.672C130.948 112.765 130.608 114.267 130.602 116.177H130.726C131.016 115.656 131.391 115.21 131.852 114.838C132.313 114.465 132.834 114.178 133.413 113.977C133.998 113.77 134.616 113.667 135.267 113.667C136.331 113.667 137.286 113.921 138.131 114.43C138.982 114.938 139.656 115.639 140.153 116.531C140.65 117.418 140.895 118.435 140.889 119.582C140.895 120.776 140.623 121.849 140.073 122.801C139.523 123.747 138.758 124.492 137.776 125.036C136.795 125.58 135.651 125.849 134.344 125.843ZM134.327 123.183C134.971 123.183 135.547 123.026 136.056 122.713C136.564 122.399 136.966 121.977 137.262 121.444C137.557 120.912 137.702 120.315 137.696 119.653C137.702 119.003 137.56 118.414 137.271 117.888C136.987 117.362 136.594 116.945 136.091 116.638C135.589 116.33 135.015 116.177 134.371 116.177C133.892 116.177 133.446 116.268 133.032 116.452C132.618 116.635 132.257 116.889 131.95 117.214C131.642 117.534 131.4 117.906 131.223 118.332C131.051 118.751 130.963 119.201 130.957 119.68C130.963 120.312 131.11 120.895 131.4 121.427C131.69 121.959 132.089 122.384 132.597 122.704C133.106 123.023 133.682 123.183 134.327 123.183ZM149.497 125.843C148.628 125.837 147.78 125.686 146.952 125.391C146.124 125.089 145.379 124.601 144.717 123.928C144.055 123.248 143.529 122.346 143.139 121.223C142.748 120.093 142.556 118.695 142.562 117.028C142.562 115.473 142.728 114.087 143.059 112.869C143.39 111.651 143.866 110.622 144.487 109.783C145.107 108.937 145.855 108.293 146.73 107.849C147.611 107.406 148.595 107.184 149.683 107.184C150.824 107.184 151.835 107.409 152.716 107.858C153.603 108.308 154.318 108.923 154.862 109.703C155.406 110.477 155.743 111.352 155.873 112.328H152.636C152.471 111.63 152.131 111.075 151.617 110.661C151.108 110.241 150.464 110.031 149.683 110.031C148.424 110.031 147.454 110.578 146.775 111.672C146.101 112.765 145.761 114.267 145.755 116.177H145.879C146.169 115.656 146.544 115.21 147.005 114.838C147.466 114.465 147.986 114.178 148.566 113.977C149.151 113.77 149.769 113.667 150.419 113.667C151.484 113.667 152.438 113.921 153.284 114.43C154.135 114.938 154.809 115.639 155.306 116.531C155.802 117.418 156.048 118.435 156.042 119.582C156.048 120.776 155.776 121.849 155.226 122.801C154.676 123.747 153.91 124.492 152.929 125.036C151.948 125.58 150.804 125.849 149.497 125.843ZM149.479 123.183C150.124 123.183 150.7 123.026 151.209 122.713C151.717 122.399 152.119 121.977 152.415 121.444C152.71 120.912 152.855 120.315 152.849 119.653C152.855 119.003 152.713 118.414 152.424 117.888C152.14 117.362 151.747 116.945 151.244 116.638C150.742 116.33 150.168 116.177 149.524 116.177C149.045 116.177 148.598 116.268 148.185 116.452C147.771 116.635 147.41 116.889 147.103 117.214C146.795 117.534 146.553 117.906 146.375 118.332C146.204 118.751 146.115 119.201 146.109 119.68C146.115 120.312 146.263 120.895 146.553 121.427C146.842 121.959 147.242 122.384 147.75 122.704C148.258 123.023 148.835 123.183 149.479 123.183ZM164.712 125.941C163.252 125.941 161.998 125.571 160.952 124.832C159.911 124.087 159.11 123.014 158.549 121.613C157.993 120.206 157.715 118.512 157.715 116.531C157.721 114.551 158.002 112.866 158.557 111.477C159.119 110.081 159.92 109.017 160.961 108.284C162.007 107.551 163.258 107.184 164.712 107.184C166.166 107.184 167.417 107.551 168.463 108.284C169.51 109.017 170.311 110.081 170.866 111.477C171.428 112.872 171.709 114.557 171.709 116.531C171.709 118.518 171.428 120.215 170.866 121.622C170.311 123.023 169.51 124.093 168.463 124.832C167.423 125.571 166.172 125.941 164.712 125.941ZM164.712 123.165C165.847 123.165 166.743 122.606 167.399 121.489C168.061 120.365 168.392 118.713 168.392 116.531C168.392 115.089 168.241 113.877 167.94 112.895C167.638 111.914 167.213 111.175 166.663 110.678C166.113 110.176 165.463 109.925 164.712 109.925C163.583 109.925 162.69 110.486 162.034 111.61C161.377 112.727 161.046 114.368 161.04 116.531C161.035 117.98 161.179 119.198 161.475 120.185C161.777 121.172 162.202 121.917 162.752 122.42C163.302 122.917 163.955 123.165 164.712 123.165Z" fill="#242424"/>
<path d="M96.4352 141.029H97.6738L99.1548 143.707H99.2139L100.695 141.029H101.934L99.7312 144.825V147.083H98.6375V144.825L96.4352 141.029ZM103.538 147.172C103.095 147.172 102.71 147.074 102.385 146.879C102.06 146.684 101.808 146.411 101.628 146.06C101.451 145.709 101.362 145.3 101.362 144.83C101.362 144.361 101.451 143.951 101.628 143.598C101.808 143.245 102.06 142.971 102.385 142.776C102.71 142.581 103.095 142.483 103.538 142.483C103.981 142.483 104.366 142.581 104.691 142.776C105.016 142.971 105.267 143.245 105.445 143.598C105.624 143.951 105.714 144.361 105.714 144.83C105.714 145.3 105.624 145.709 105.445 146.06C105.267 146.411 105.016 146.684 104.691 146.879C104.366 147.074 103.981 147.172 103.538 147.172ZM103.544 146.314C103.784 146.314 103.985 146.248 104.147 146.116C104.308 145.982 104.429 145.803 104.508 145.578C104.588 145.354 104.629 145.103 104.629 144.828C104.629 144.55 104.588 144.298 104.508 144.074C104.429 143.847 104.308 143.667 104.147 143.533C103.985 143.399 103.784 143.332 103.544 143.332C103.297 143.332 103.093 143.399 102.929 143.533C102.767 143.667 102.646 143.847 102.565 144.074C102.487 144.298 102.447 144.55 102.447 144.828C102.447 145.103 102.487 145.354 102.565 145.578C102.646 145.803 102.767 145.982 102.929 146.116C103.093 146.248 103.297 146.314 103.544 146.314ZM109.256 145.173V142.542H110.326V147.083H109.288V146.276H109.241C109.138 146.53 108.97 146.738 108.735 146.9C108.503 147.061 108.216 147.142 107.875 147.142C107.578 147.142 107.315 147.076 107.086 146.944C106.859 146.81 106.682 146.616 106.554 146.362C106.426 146.106 106.362 145.796 106.362 145.434V142.542H107.432V145.268C107.432 145.556 107.511 145.784 107.668 145.954C107.826 146.123 108.033 146.208 108.289 146.208C108.447 146.208 108.599 146.17 108.747 146.093C108.895 146.016 109.016 145.902 109.111 145.75C109.207 145.596 109.256 145.404 109.256 145.173ZM111.166 147.083V142.542H112.204V143.299H112.251C112.334 143.037 112.476 142.835 112.677 142.693C112.88 142.549 113.111 142.477 113.371 142.477C113.43 142.477 113.496 142.48 113.569 142.486C113.644 142.49 113.706 142.497 113.756 142.507V143.491C113.71 143.476 113.638 143.462 113.54 143.45C113.443 143.436 113.35 143.429 113.259 143.429C113.064 143.429 112.888 143.472 112.733 143.556C112.579 143.639 112.458 143.754 112.369 143.902C112.28 144.05 112.236 144.221 112.236 144.414V147.083H111.166ZM121.24 143.072H120.135C120.103 142.89 120.045 142.73 119.96 142.59C119.876 142.448 119.77 142.328 119.644 142.229C119.518 142.131 119.374 142.057 119.212 142.007C119.053 141.956 118.88 141.931 118.695 141.931C118.366 141.931 118.074 142.013 117.82 142.179C117.566 142.342 117.367 142.583 117.223 142.9C117.079 143.215 117.007 143.601 117.007 144.056C117.007 144.519 117.079 144.909 117.223 145.227C117.369 145.542 117.568 145.78 117.82 145.942C118.074 146.102 118.365 146.181 118.692 146.181C118.873 146.181 119.043 146.158 119.201 146.11C119.36 146.061 119.503 145.989 119.629 145.895C119.757 145.8 119.865 145.684 119.951 145.546C120.04 145.408 120.101 145.25 120.135 145.073L121.24 145.079C121.199 145.367 121.109 145.637 120.971 145.889C120.835 146.141 120.657 146.364 120.436 146.557C120.216 146.748 119.957 146.898 119.662 147.006C119.366 147.113 119.038 147.166 118.677 147.166C118.145 147.166 117.67 147.043 117.253 146.796C116.835 146.55 116.506 146.194 116.265 145.729C116.025 145.264 115.905 144.706 115.905 144.056C115.905 143.404 116.026 142.846 116.268 142.383C116.511 141.918 116.841 141.562 117.258 141.316C117.676 141.069 118.149 140.946 118.677 140.946C119.014 140.946 119.328 140.994 119.617 141.088C119.907 141.183 120.165 141.322 120.392 141.505C120.619 141.686 120.805 141.909 120.951 142.173C121.098 142.435 121.195 142.735 121.24 143.072ZM121.937 147.083V142.542H122.975V143.299H123.022C123.105 143.037 123.247 142.835 123.448 142.693C123.651 142.549 123.882 142.477 124.142 142.477C124.202 142.477 124.268 142.48 124.34 142.486C124.415 142.49 124.477 142.497 124.527 142.507V143.491C124.481 143.476 124.409 143.462 124.311 143.45C124.214 143.436 124.121 143.429 124.03 143.429C123.835 143.429 123.66 143.472 123.504 143.556C123.35 143.639 123.229 143.754 123.14 143.902C123.052 144.05 123.007 144.221 123.007 144.414V147.083H121.937ZM126.801 147.172C126.345 147.172 125.952 147.077 125.621 146.888C125.292 146.697 125.039 146.427 124.861 146.078C124.684 145.727 124.595 145.314 124.595 144.839C124.595 144.372 124.684 143.962 124.861 143.61C125.041 143.255 125.291 142.979 125.612 142.782C125.934 142.583 126.311 142.483 126.744 142.483C127.024 142.483 127.288 142.529 127.537 142.619C127.787 142.708 128.008 142.846 128.199 143.033C128.392 143.22 128.544 143.459 128.654 143.749C128.764 144.036 128.82 144.379 128.82 144.777V145.105H125.098V144.384H127.794C127.792 144.179 127.748 143.997 127.661 143.837C127.574 143.676 127.453 143.549 127.297 143.456C127.144 143.363 126.964 143.317 126.759 143.317C126.541 143.317 126.348 143.37 126.183 143.477C126.017 143.581 125.888 143.719 125.796 143.89C125.705 144.06 125.659 144.246 125.657 144.449V145.079C125.657 145.343 125.705 145.57 125.802 145.759C125.898 145.946 126.033 146.09 126.206 146.19C126.38 146.289 126.583 146.338 126.815 146.338C126.971 146.338 127.112 146.316 127.238 146.273C127.364 146.228 127.474 146.162 127.566 146.075C127.659 145.988 127.729 145.881 127.776 145.753L128.775 145.865C128.712 146.129 128.592 146.36 128.415 146.557C128.239 146.752 128.015 146.904 127.741 147.012C127.467 147.118 127.153 147.172 126.801 147.172ZM131.15 147.163C130.793 147.163 130.474 147.071 130.192 146.888C129.91 146.705 129.688 146.439 129.524 146.09C129.36 145.741 129.279 145.317 129.279 144.819C129.279 144.314 129.361 143.888 129.527 143.542C129.694 143.193 129.92 142.93 130.204 142.752C130.488 142.573 130.804 142.483 131.153 142.483C131.419 142.483 131.638 142.529 131.809 142.619C131.98 142.708 132.116 142.815 132.217 142.942C132.317 143.066 132.395 143.183 132.45 143.293H132.495V141.029H133.568V147.083H132.515V146.368H132.45C132.395 146.478 132.315 146.595 132.211 146.719C132.107 146.842 131.969 146.946 131.797 147.033C131.626 147.119 131.41 147.163 131.15 147.163ZM131.448 146.285C131.675 146.285 131.868 146.224 132.028 146.102C132.187 145.977 132.309 145.805 132.391 145.584C132.474 145.364 132.515 145.106 132.515 144.813C132.515 144.519 132.474 144.264 132.391 144.047C132.311 143.83 132.19 143.662 132.031 143.542C131.873 143.421 131.679 143.361 131.448 143.361C131.21 143.361 131.011 143.423 130.851 143.548C130.692 143.672 130.571 143.843 130.491 144.062C130.41 144.281 130.369 144.531 130.369 144.813C130.369 145.097 130.41 145.35 130.491 145.572C130.573 145.793 130.695 145.968 130.854 146.096C131.016 146.222 131.214 146.285 131.448 146.285ZM134.448 147.083V142.542H135.518V147.083H134.448ZM134.986 141.898C134.817 141.898 134.671 141.842 134.549 141.73C134.426 141.615 134.365 141.478 134.365 141.319C134.365 141.157 134.426 141.02 134.549 140.908C134.671 140.793 134.817 140.736 134.986 140.736C135.157 140.736 135.303 140.793 135.424 140.908C135.546 141.02 135.607 141.157 135.607 141.319C135.607 141.478 135.546 141.615 135.424 141.73C135.303 141.842 135.157 141.898 134.986 141.898ZM138.626 142.542V143.37H136.015V142.542H138.626ZM136.66 141.455H137.73V145.717C137.73 145.861 137.752 145.972 137.795 146.048C137.84 146.123 137.899 146.175 137.972 146.202C138.045 146.23 138.126 146.243 138.215 146.243C138.282 146.243 138.343 146.239 138.398 146.229C138.455 146.219 138.499 146.21 138.528 146.202L138.708 147.039C138.651 147.058 138.569 147.08 138.463 147.104C138.359 147.127 138.231 147.141 138.079 147.145C137.811 147.153 137.569 147.113 137.355 147.024C137.14 146.933 136.969 146.793 136.843 146.604C136.719 146.415 136.658 146.178 136.66 145.895V141.455ZM144.403 142.693C144.375 142.435 144.259 142.234 144.054 142.09C143.851 141.946 143.587 141.874 143.262 141.874C143.033 141.874 142.837 141.909 142.673 141.978C142.51 142.047 142.385 142.14 142.298 142.259C142.211 142.377 142.167 142.512 142.165 142.664C142.165 142.79 142.193 142.899 142.251 142.992C142.31 143.084 142.389 143.163 142.49 143.228C142.59 143.291 142.702 143.345 142.824 143.388C142.946 143.431 143.069 143.468 143.194 143.497L143.761 143.639C143.99 143.692 144.209 143.764 144.42 143.855C144.633 143.946 144.823 144.06 144.991 144.198C145.16 144.336 145.294 144.502 145.393 144.697C145.491 144.893 145.541 145.121 145.541 145.383C145.541 145.738 145.45 146.05 145.269 146.32C145.087 146.588 144.825 146.798 144.482 146.95C144.141 147.1 143.729 147.175 143.244 147.175C142.773 147.175 142.364 147.102 142.017 146.956C141.672 146.81 141.402 146.597 141.207 146.317C141.014 146.038 140.909 145.697 140.894 145.295H141.973C141.988 145.505 142.053 145.681 142.168 145.821C142.282 145.961 142.431 146.065 142.614 146.134C142.799 146.203 143.006 146.238 143.235 146.238C143.473 146.238 143.682 146.202 143.862 146.131C144.043 146.058 144.185 145.958 144.287 145.83C144.39 145.7 144.442 145.548 144.444 145.374C144.442 145.217 144.396 145.087 144.305 144.984C144.214 144.88 144.087 144.793 143.924 144.724C143.762 144.653 143.573 144.59 143.356 144.535L142.667 144.358C142.169 144.229 141.775 144.035 141.485 143.775C141.197 143.513 141.053 143.165 141.053 142.732C141.053 142.375 141.15 142.063 141.343 141.795C141.538 141.527 141.803 141.319 142.138 141.171C142.473 141.021 142.853 140.946 143.276 140.946C143.706 140.946 144.082 141.021 144.406 141.171C144.731 141.319 144.986 141.525 145.171 141.789C145.356 142.051 145.452 142.352 145.458 142.693H144.403ZM148.191 147.172C147.738 147.172 147.349 147.072 147.024 146.873C146.701 146.674 146.451 146.399 146.276 146.048C146.103 145.696 146.016 145.29 146.016 144.83C146.016 144.369 146.105 143.962 146.282 143.61C146.459 143.255 146.71 142.979 147.033 142.782C147.358 142.583 147.742 142.483 148.186 142.483C148.554 142.483 148.88 142.551 149.164 142.687C149.45 142.821 149.677 143.012 149.847 143.258C150.016 143.502 150.113 143.788 150.137 144.115H149.114C149.072 143.896 148.974 143.714 148.818 143.568C148.664 143.42 148.459 143.347 148.2 143.347C147.982 143.347 147.789 143.406 147.624 143.524C147.458 143.64 147.329 143.808 147.237 144.026C147.146 144.245 147.101 144.507 147.101 144.813C147.101 145.122 147.146 145.388 147.237 145.611C147.327 145.832 147.454 146.002 147.618 146.122C147.784 146.241 147.978 146.3 148.2 146.3C148.358 146.3 148.499 146.27 148.623 146.211C148.749 146.15 148.855 146.062 148.939 145.948C149.024 145.834 149.082 145.695 149.114 145.531H150.137C150.111 145.852 150.016 146.137 149.853 146.385C149.689 146.632 149.467 146.825 149.185 146.965C148.903 147.103 148.572 147.172 148.191 147.172ZM152.736 147.172C152.292 147.172 151.908 147.074 151.583 146.879C151.258 146.684 151.005 146.411 150.826 146.06C150.649 145.709 150.56 145.3 150.56 144.83C150.56 144.361 150.649 143.951 150.826 143.598C151.005 143.245 151.258 142.971 151.583 142.776C151.908 142.581 152.292 142.483 152.736 142.483C153.179 142.483 153.563 142.581 153.889 142.776C154.214 142.971 154.465 143.245 154.642 143.598C154.822 143.951 154.911 144.361 154.911 144.83C154.911 145.3 154.822 145.709 154.642 146.06C154.465 146.411 154.214 146.684 153.889 146.879C153.563 147.074 153.179 147.172 152.736 147.172ZM152.742 146.314C152.982 146.314 153.183 146.248 153.345 146.116C153.506 145.982 153.626 145.803 153.705 145.578C153.786 145.354 153.826 145.103 153.826 144.828C153.826 144.55 153.786 144.298 153.705 144.074C153.626 143.847 153.506 143.667 153.345 143.533C153.183 143.399 152.982 143.332 152.742 143.332C152.495 143.332 152.29 143.399 152.127 143.533C151.965 143.667 151.844 143.847 151.763 144.074C151.684 144.298 151.645 144.55 151.645 144.828C151.645 145.103 151.684 145.354 151.763 145.578C151.844 145.803 151.965 145.982 152.127 146.116C152.29 146.248 152.495 146.314 152.742 146.314ZM155.559 147.083V142.542H156.597V143.299H156.644C156.727 143.037 156.869 142.835 157.07 142.693C157.273 142.549 157.505 142.477 157.765 142.477C157.824 142.477 157.89 142.48 157.963 142.486C158.038 142.49 158.1 142.497 158.149 142.507V143.491C158.104 143.476 158.032 143.462 157.933 143.45C157.837 143.436 157.743 143.429 157.652 143.429C157.457 143.429 157.282 143.472 157.126 143.556C156.972 143.639 156.851 143.754 156.763 143.902C156.674 144.05 156.63 144.221 156.63 144.414V147.083H155.559ZM160.423 147.172C159.968 147.172 159.575 147.077 159.243 146.888C158.914 146.697 158.661 146.427 158.484 146.078C158.306 145.727 158.218 145.314 158.218 144.839C158.218 144.372 158.306 143.962 158.484 143.61C158.663 143.255 158.913 142.979 159.235 142.782C159.556 142.583 159.933 142.483 160.367 142.483C160.647 142.483 160.911 142.529 161.159 142.619C161.409 142.708 161.63 142.846 161.821 143.033C162.014 143.22 162.166 143.459 162.276 143.749C162.387 144.036 162.442 144.379 162.442 144.777V145.105H158.72V144.384H161.416C161.414 144.179 161.37 143.997 161.283 143.837C161.196 143.676 161.075 143.549 160.92 143.456C160.766 143.363 160.587 143.317 160.382 143.317C160.163 143.317 159.971 143.37 159.805 143.477C159.64 143.581 159.511 143.719 159.418 143.89C159.327 144.06 159.281 144.246 159.279 144.449V145.079C159.279 145.343 159.327 145.57 159.424 145.759C159.52 145.946 159.655 146.09 159.829 146.19C160.002 146.289 160.205 146.338 160.438 146.338C160.593 146.338 160.734 146.316 160.86 146.273C160.987 146.228 161.096 146.162 161.189 146.075C161.281 145.988 161.351 145.881 161.398 145.753L162.398 145.865C162.335 146.129 162.214 146.36 162.037 146.557C161.862 146.752 161.637 146.904 161.363 147.012C161.089 147.118 160.776 147.172 160.423 147.172ZM164.892 147.083V142.542H165.962V147.083H164.892ZM165.43 141.898C165.26 141.898 165.114 141.842 164.992 141.73C164.87 141.615 164.809 141.478 164.809 141.319C164.809 141.157 164.87 141.02 164.992 140.908C165.114 140.793 165.26 140.736 165.43 140.736C165.601 140.736 165.747 140.793 165.867 140.908C165.989 141.02 166.051 141.157 166.051 141.319C166.051 141.478 165.989 141.615 165.867 141.73C165.747 141.842 165.601 141.898 165.43 141.898ZM170.391 143.743L169.415 143.849C169.388 143.751 169.339 143.658 169.27 143.571C169.203 143.484 169.113 143.415 168.998 143.361C168.884 143.308 168.744 143.282 168.579 143.282C168.356 143.282 168.169 143.33 168.017 143.426C167.867 143.523 167.793 143.648 167.795 143.802C167.793 143.934 167.842 144.041 167.94 144.124C168.041 144.207 168.206 144.275 168.437 144.328L169.211 144.493C169.641 144.586 169.96 144.733 170.169 144.934C170.38 145.135 170.486 145.398 170.488 145.723C170.486 146.009 170.403 146.261 170.237 146.48C170.074 146.697 169.846 146.866 169.554 146.988C169.263 147.111 168.928 147.172 168.549 147.172C167.993 147.172 167.546 147.055 167.207 146.823C166.868 146.588 166.666 146.262 166.601 145.844L167.645 145.744C167.692 145.949 167.792 146.104 167.946 146.208C168.1 146.312 168.3 146.365 168.546 146.365C168.8 146.365 169.004 146.312 169.158 146.208C169.314 146.104 169.392 145.974 169.392 145.821C169.392 145.691 169.341 145.583 169.241 145.499C169.142 145.414 168.989 145.349 168.78 145.303L168.005 145.141C167.57 145.05 167.248 144.897 167.039 144.683C166.83 144.466 166.726 144.192 166.728 143.861C166.726 143.581 166.802 143.339 166.956 143.134C167.112 142.927 167.327 142.767 167.603 142.655C167.881 142.541 168.201 142.483 168.564 142.483C169.096 142.483 169.515 142.597 169.82 142.823C170.128 143.05 170.318 143.356 170.391 143.743ZM174.222 147.175C173.934 147.175 173.675 147.123 173.444 147.021C173.216 146.916 173.034 146.763 172.9 146.56C172.768 146.357 172.702 146.107 172.702 145.809C172.702 145.553 172.75 145.341 172.844 145.173C172.939 145.006 173.068 144.872 173.232 144.771C173.395 144.671 173.579 144.595 173.784 144.544C173.991 144.491 174.205 144.452 174.426 144.428C174.692 144.401 174.908 144.376 175.073 144.355C175.239 144.331 175.359 144.295 175.434 144.248C175.511 144.199 175.549 144.123 175.549 144.021V144.003C175.549 143.78 175.483 143.608 175.351 143.485C175.219 143.363 175.029 143.302 174.781 143.302C174.518 143.302 174.311 143.359 174.157 143.474C174.005 143.588 173.903 143.723 173.849 143.879L172.85 143.737C172.929 143.461 173.059 143.23 173.24 143.045C173.422 142.858 173.643 142.718 173.906 142.625C174.168 142.531 174.457 142.483 174.775 142.483C174.993 142.483 175.211 142.509 175.428 142.56C175.645 142.611 175.843 142.696 176.022 142.814C176.201 142.931 176.345 143.089 176.454 143.29C176.564 143.491 176.619 143.743 176.619 144.044V147.083H175.591V146.459H175.555C175.49 146.585 175.398 146.704 175.28 146.814C175.164 146.922 175.017 147.01 174.84 147.077C174.664 147.142 174.458 147.175 174.222 147.175ZM174.5 146.388C174.715 146.388 174.901 146.346 175.058 146.261C175.216 146.175 175.337 146.06 175.422 145.918C175.509 145.776 175.552 145.622 175.552 145.454V144.919C175.519 144.947 175.461 144.972 175.381 144.996C175.302 145.02 175.213 145.04 175.115 145.058C175.016 145.076 174.918 145.092 174.822 145.105C174.725 145.119 174.642 145.131 174.571 145.141C174.411 145.163 174.268 145.198 174.142 145.247C174.016 145.297 173.916 145.366 173.843 145.454C173.771 145.541 173.734 145.653 173.734 145.791C173.734 145.988 173.806 146.137 173.95 146.238C174.094 146.338 174.277 146.388 174.5 146.388ZM181.328 142.542L179.711 147.083H178.529L176.912 142.542H178.053L179.096 145.915H179.144L180.19 142.542H181.328ZM183.664 147.172C183.209 147.172 182.816 147.077 182.485 146.888C182.156 146.697 181.902 146.427 181.725 146.078C181.548 145.727 181.459 145.314 181.459 144.839C181.459 144.372 181.548 143.962 181.725 143.61C181.904 143.255 182.155 142.979 182.476 142.782C182.797 142.583 183.175 142.483 183.608 142.483C183.888 142.483 184.152 142.529 184.4 142.619C184.651 142.708 184.871 142.846 185.062 143.033C185.256 143.22 185.407 143.459 185.518 143.749C185.628 144.036 185.683 144.379 185.683 144.777V145.105H181.962V144.384H184.657C184.656 144.179 184.611 143.997 184.524 143.837C184.438 143.676 184.317 143.549 184.161 143.456C184.007 143.363 183.828 143.317 183.623 143.317C183.404 143.317 183.212 143.37 183.046 143.477C182.881 143.581 182.752 143.719 182.659 143.89C182.569 144.06 182.522 144.246 182.52 144.449V145.079C182.52 145.343 182.569 145.57 182.665 145.759C182.762 145.946 182.897 146.09 183.07 146.19C183.244 146.289 183.446 146.338 183.679 146.338C183.835 146.338 183.976 146.316 184.102 146.273C184.228 146.228 184.337 146.162 184.43 146.075C184.523 145.988 184.592 145.881 184.64 145.753L185.639 145.865C185.576 146.129 185.456 146.36 185.278 146.557C185.103 146.752 184.878 146.904 184.604 147.012C184.33 147.118 184.017 147.172 183.664 147.172ZM186.328 147.083V142.542H187.366V143.299H187.413C187.496 143.037 187.638 142.835 187.839 142.693C188.042 142.549 188.274 142.477 188.534 142.477C188.593 142.477 188.659 142.48 188.732 142.486C188.807 142.49 188.869 142.497 188.918 142.507V143.491C188.873 143.476 188.801 143.462 188.702 143.45C188.606 143.436 188.512 143.429 188.421 143.429C188.226 143.429 188.051 143.472 187.895 143.556C187.741 143.639 187.62 143.754 187.532 143.902C187.443 144.05 187.399 144.221 187.399 144.414V147.083H186.328ZM190.594 147.175C190.306 147.175 190.047 147.123 189.817 147.021C189.588 146.916 189.407 146.763 189.273 146.56C189.141 146.357 189.075 146.107 189.075 145.809C189.075 145.553 189.122 145.341 189.216 145.173C189.311 145.006 189.44 144.872 189.604 144.771C189.767 144.671 189.952 144.595 190.157 144.544C190.363 144.491 190.577 144.452 190.798 144.428C191.064 144.401 191.28 144.376 191.445 144.355C191.611 144.331 191.731 144.295 191.806 144.248C191.883 144.199 191.921 144.123 191.921 144.021V144.003C191.921 143.78 191.855 143.608 191.723 143.485C191.591 143.363 191.401 143.302 191.153 143.302C190.891 143.302 190.683 143.359 190.529 143.474C190.377 143.588 190.275 143.723 190.222 143.879L189.222 143.737C189.301 143.461 189.431 143.23 189.613 143.045C189.794 142.858 190.016 142.718 190.278 142.625C190.54 142.531 190.83 142.483 191.147 142.483C191.366 142.483 191.583 142.509 191.8 142.56C192.017 142.611 192.215 142.696 192.394 142.814C192.574 142.931 192.717 143.089 192.826 143.29C192.936 143.491 192.991 143.743 192.991 144.044V147.083H191.963V146.459H191.927C191.862 146.585 191.771 146.704 191.652 146.814C191.536 146.922 191.389 147.01 191.212 147.077C191.036 147.142 190.831 147.175 190.594 147.175ZM190.872 146.388C191.087 146.388 191.273 146.346 191.431 146.261C191.588 146.175 191.709 146.06 191.794 145.918C191.881 145.776 191.924 145.622 191.924 145.454V144.919C191.891 144.947 191.834 144.972 191.753 144.996C191.674 145.02 191.585 145.04 191.487 145.058C191.388 145.076 191.291 145.092 191.194 145.105C191.098 145.119 191.014 145.131 190.943 145.141C190.783 145.163 190.64 145.198 190.514 145.247C190.388 145.297 190.289 145.366 190.216 145.454C190.143 145.541 190.106 145.653 190.106 145.791C190.106 145.988 190.178 146.137 190.322 146.238C190.466 146.338 190.649 146.388 190.872 146.388ZM195.782 148.88C195.398 148.88 195.068 148.828 194.792 148.724C194.516 148.621 194.294 148.483 194.127 148.31C193.959 148.136 193.843 147.944 193.778 147.733L194.741 147.5C194.785 147.588 194.848 147.676 194.931 147.763C195.013 147.852 195.125 147.925 195.265 147.982C195.406 148.041 195.585 148.07 195.8 148.07C196.103 148.07 196.354 147.996 196.553 147.849C196.752 147.703 196.852 147.462 196.852 147.127V146.267H196.799C196.744 146.377 196.663 146.491 196.556 146.607C196.452 146.723 196.313 146.821 196.14 146.9C195.968 146.979 195.752 147.018 195.492 147.018C195.143 147.018 194.827 146.936 194.543 146.773C194.262 146.607 194.037 146.361 193.869 146.034C193.704 145.704 193.621 145.293 193.621 144.798C193.621 144.299 193.704 143.879 193.869 143.536C194.037 143.191 194.262 142.93 194.546 142.752C194.83 142.573 195.146 142.483 195.495 142.483C195.761 142.483 195.98 142.529 196.151 142.619C196.325 142.708 196.463 142.815 196.565 142.942C196.668 143.066 196.746 143.183 196.799 143.293H196.858V142.542H197.913V147.157C197.913 147.545 197.821 147.866 197.635 148.121C197.45 148.375 197.197 148.565 196.876 148.691C196.554 148.817 196.19 148.88 195.782 148.88ZM195.791 146.178C196.017 146.178 196.211 146.123 196.37 146.013C196.53 145.903 196.651 145.744 196.734 145.537C196.817 145.33 196.858 145.082 196.858 144.792C196.858 144.506 196.817 144.256 196.734 144.041C196.653 143.826 196.533 143.66 196.373 143.542C196.215 143.421 196.021 143.361 195.791 143.361C195.552 143.361 195.353 143.423 195.194 143.548C195.034 143.672 194.914 143.842 194.833 144.059C194.752 144.274 194.712 144.518 194.712 144.792C194.712 145.07 194.752 145.313 194.833 145.522C194.916 145.729 195.037 145.891 195.197 146.007C195.358 146.121 195.556 146.178 195.791 146.178ZM200.76 147.172C200.305 147.172 199.912 147.077 199.58 146.888C199.251 146.697 198.998 146.427 198.821 146.078C198.643 145.727 198.555 145.314 198.555 144.839C198.555 144.372 198.643 143.962 198.821 143.61C199 143.255 199.25 142.979 199.572 142.782C199.893 142.583 200.27 142.483 200.704 142.483C200.984 142.483 201.248 142.529 201.496 142.619C201.746 142.708 201.967 142.846 202.158 143.033C202.351 143.22 202.503 143.459 202.613 143.749C202.724 144.036 202.779 144.379 202.779 144.777V145.105H199.057V144.384H201.753C201.751 144.179 201.707 143.997 201.62 143.837C201.533 143.676 201.412 143.549 201.257 143.456C201.103 143.363 200.923 143.317 200.719 143.317C200.5 143.317 200.308 143.37 200.142 143.477C199.977 143.581 199.847 143.719 199.755 143.89C199.664 144.06 199.618 144.246 199.616 144.449V145.079C199.616 145.343 199.664 145.57 199.761 145.759C199.857 145.946 199.992 146.09 200.166 146.19C200.339 146.289 200.542 146.338 200.775 146.338C200.93 146.338 201.071 146.316 201.197 146.273C201.324 146.228 201.433 146.162 201.526 146.075C201.618 145.988 201.688 145.881 201.735 145.753L202.735 145.865C202.672 146.129 202.551 146.36 202.374 146.557C202.199 146.752 201.974 146.904 201.7 147.012C201.426 147.118 201.113 147.172 200.76 147.172Z" fill="#242424"/>
<path d="M115.834 159.164V153.867H116.633V158.476H119.033V159.164H115.834ZM120.779 159.252C120.527 159.252 120.3 159.205 120.096 159.112C119.893 159.017 119.732 158.88 119.613 158.701C119.495 158.522 119.437 158.302 119.437 158.041C119.437 157.817 119.48 157.633 119.566 157.488C119.652 157.343 119.769 157.228 119.915 157.144C120.062 157.059 120.226 156.996 120.407 156.953C120.588 156.909 120.772 156.877 120.96 156.854C121.198 156.827 121.391 156.804 121.54 156.787C121.688 156.768 121.796 156.738 121.863 156.696C121.93 156.655 121.964 156.588 121.964 156.495V156.477C121.964 156.251 121.9 156.076 121.772 155.952C121.647 155.827 121.459 155.765 121.209 155.765C120.948 155.765 120.743 155.823 120.593 155.939C120.445 156.052 120.342 156.179 120.285 156.319L119.558 156.153C119.645 155.912 119.77 155.717 119.936 155.569C120.103 155.419 120.296 155.31 120.513 155.243C120.73 155.174 120.959 155.139 121.198 155.139C121.357 155.139 121.525 155.158 121.703 155.196C121.882 155.232 122.049 155.3 122.204 155.398C122.361 155.496 122.49 155.637 122.59 155.82C122.69 156.001 122.74 156.236 122.74 156.526V159.164H121.985V158.621H121.954C121.904 158.721 121.829 158.819 121.729 158.916C121.628 159.012 121.5 159.093 121.343 159.156C121.186 159.22 120.998 159.252 120.779 159.252ZM120.947 158.631C121.161 158.631 121.344 158.589 121.496 158.504C121.649 158.42 121.766 158.31 121.845 158.173C121.926 158.035 121.966 157.888 121.966 157.731V157.219C121.939 157.247 121.885 157.272 121.806 157.297C121.729 157.319 121.64 157.339 121.54 157.356C121.44 157.372 121.342 157.386 121.247 157.4C121.153 157.412 121.073 157.422 121.009 157.431C120.859 157.45 120.722 157.482 120.598 157.527C120.476 157.572 120.377 157.636 120.303 157.721C120.231 157.804 120.195 157.914 120.195 158.052C120.195 158.243 120.265 158.388 120.407 158.486C120.548 158.583 120.728 158.631 120.947 158.631ZM126.487 156.161L125.786 156.285C125.757 156.196 125.71 156.11 125.646 156.029C125.584 155.948 125.5 155.882 125.393 155.83C125.286 155.778 125.152 155.752 124.992 155.752C124.773 155.752 124.59 155.802 124.444 155.9C124.297 155.996 124.224 156.121 124.224 156.275C124.224 156.408 124.273 156.515 124.371 156.596C124.469 156.677 124.628 156.743 124.847 156.795L125.478 156.94C125.844 157.024 126.116 157.154 126.296 157.33C126.475 157.506 126.565 157.735 126.565 158.016C126.565 158.254 126.496 158.466 126.358 158.652C126.221 158.836 126.031 158.981 125.786 159.086C125.543 159.192 125.261 159.244 124.94 159.244C124.495 159.244 124.132 159.149 123.851 158.96C123.57 158.768 123.398 158.497 123.334 158.145L124.081 158.031C124.128 158.226 124.224 158.373 124.369 158.473C124.513 158.572 124.702 158.621 124.935 158.621C125.188 158.621 125.391 158.568 125.543 158.463C125.695 158.356 125.77 158.226 125.77 158.073C125.77 157.948 125.724 157.844 125.631 157.76C125.539 157.675 125.399 157.611 125.209 157.568L124.537 157.421C124.166 157.336 123.892 157.202 123.714 157.017C123.538 156.833 123.45 156.599 123.45 156.316C123.45 156.082 123.516 155.877 123.647 155.701C123.778 155.525 123.959 155.388 124.19 155.289C124.421 155.189 124.686 155.139 124.984 155.139C125.414 155.139 125.751 155.232 125.998 155.419C126.245 155.603 126.408 155.851 126.487 156.161ZM129.009 155.191V155.812H126.839V155.191H129.009ZM127.421 154.239H128.195V157.998C128.195 158.148 128.217 158.26 128.262 158.336C128.307 158.411 128.364 158.461 128.435 158.489C128.508 158.515 128.586 158.528 128.67 158.528C128.733 158.528 128.787 158.523 128.833 158.515C128.88 158.506 128.916 158.499 128.942 158.494L129.082 159.133C129.037 159.15 128.973 159.168 128.89 159.185C128.808 159.204 128.704 159.214 128.58 159.216C128.376 159.219 128.187 159.183 128.011 159.107C127.835 159.031 127.693 158.914 127.584 158.755C127.475 158.597 127.421 158.398 127.421 158.158V154.239ZM135.734 155.589H134.927C134.896 155.417 134.838 155.265 134.754 155.134C134.669 155.003 134.566 154.892 134.443 154.801C134.321 154.709 134.184 154.64 134.032 154.594C133.882 154.547 133.722 154.524 133.554 154.524C133.248 154.524 132.975 154.601 132.734 154.754C132.494 154.907 132.304 155.132 132.165 155.429C132.027 155.726 131.958 156.088 131.958 156.515C131.958 156.947 132.027 157.31 132.165 157.607C132.304 157.904 132.495 158.128 132.736 158.279C132.978 158.431 133.249 158.507 133.551 158.507C133.718 158.507 133.877 158.485 134.027 158.44C134.179 158.393 134.316 158.325 134.438 158.235C134.561 158.146 134.664 158.036 134.748 157.907C134.835 157.776 134.894 157.626 134.927 157.457L135.734 157.46C135.691 157.72 135.607 157.96 135.483 158.179C135.361 158.396 135.203 158.584 135.01 158.742C134.818 158.899 134.599 159.021 134.353 159.107C134.106 159.193 133.837 159.236 133.546 159.236C133.087 159.236 132.678 159.128 132.32 158.911C131.961 158.692 131.678 158.379 131.471 157.972C131.266 157.565 131.164 157.079 131.164 156.515C131.164 155.95 131.267 155.464 131.474 155.059C131.681 154.652 131.964 154.34 132.322 154.123C132.681 153.904 133.089 153.794 133.546 153.794C133.827 153.794 134.089 153.835 134.332 153.916C134.577 153.995 134.797 154.113 134.992 154.268C135.186 154.421 135.348 154.609 135.475 154.832C135.603 155.052 135.689 155.305 135.734 155.589ZM137.142 156.805V159.164H136.368V153.867H137.131V155.838H137.18C137.273 155.624 137.416 155.454 137.607 155.328C137.799 155.202 138.049 155.139 138.357 155.139C138.63 155.139 138.868 155.195 139.071 155.308C139.276 155.42 139.435 155.587 139.547 155.809C139.661 156.03 139.718 156.306 139.718 156.637V159.164H138.944V156.73C138.944 156.439 138.869 156.213 138.719 156.052C138.569 155.89 138.361 155.809 138.093 155.809C137.911 155.809 137.747 155.848 137.602 155.926C137.459 156.003 137.346 156.117 137.263 156.267C137.182 156.415 137.142 156.595 137.142 156.805ZM142.202 159.244C141.81 159.244 141.473 159.161 141.191 158.993C140.91 158.824 140.692 158.587 140.539 158.282C140.387 157.975 140.311 157.616 140.311 157.203C140.311 156.797 140.387 156.438 140.539 156.127C140.692 155.817 140.906 155.575 141.18 155.401C141.456 155.226 141.779 155.139 142.148 155.139C142.372 155.139 142.589 155.176 142.799 155.251C143.01 155.325 143.199 155.441 143.366 155.6C143.533 155.758 143.665 155.964 143.762 156.218C143.858 156.47 143.906 156.776 143.906 157.136V157.41H140.748V156.831H143.149C143.149 156.628 143.107 156.447 143.024 156.29C142.942 156.132 142.825 156.007 142.675 155.915C142.527 155.824 142.353 155.778 142.153 155.778C141.936 155.778 141.746 155.832 141.584 155.939C141.423 156.044 141.299 156.182 141.211 156.352C141.125 156.521 141.082 156.705 141.082 156.903V157.356C141.082 157.622 141.129 157.848 141.222 158.034C141.316 158.22 141.448 158.362 141.617 158.461C141.786 158.557 141.984 158.605 142.21 158.605C142.356 158.605 142.49 158.585 142.611 158.543C142.731 158.5 142.836 158.436 142.924 158.352C143.012 158.267 143.079 158.163 143.125 158.039L143.857 158.171C143.799 158.386 143.694 158.575 143.542 158.737C143.392 158.898 143.203 159.023 142.975 159.112C142.749 159.2 142.492 159.244 142.202 159.244ZM146.178 159.244C145.793 159.244 145.462 159.157 145.185 158.983C144.909 158.807 144.697 158.565 144.548 158.256C144.4 157.948 144.326 157.594 144.326 157.196C144.326 156.792 144.402 156.436 144.554 156.127C144.705 155.817 144.919 155.575 145.195 155.401C145.471 155.226 145.796 155.139 146.17 155.139C146.472 155.139 146.741 155.195 146.977 155.308C147.213 155.418 147.404 155.573 147.549 155.773C147.695 155.973 147.782 156.207 147.81 156.474H147.057C147.016 156.288 146.921 156.127 146.773 155.993C146.626 155.858 146.43 155.791 146.183 155.791C145.968 155.791 145.779 155.848 145.617 155.962C145.456 156.074 145.331 156.234 145.242 156.443C145.152 156.65 145.107 156.895 145.107 157.178C145.107 157.467 145.151 157.717 145.239 157.928C145.327 158.138 145.451 158.301 145.611 158.417C145.774 158.532 145.964 158.59 146.183 158.59C146.33 158.59 146.462 158.563 146.581 158.51C146.702 158.454 146.803 158.376 146.884 158.274C146.967 158.173 147.025 158.05 147.057 157.907H147.81C147.782 158.164 147.699 158.393 147.559 158.595C147.419 158.797 147.232 158.955 146.998 159.071C146.765 159.186 146.492 159.244 146.178 159.244ZM149.088 157.816L149.083 156.872H149.218L150.801 155.191H151.727L149.921 157.105H149.8L149.088 157.816ZM148.377 159.164V153.867H149.15V159.164H148.377ZM150.886 159.164L149.463 157.276L149.996 156.735L151.835 159.164H150.886ZM155.512 159.244C155.14 159.244 154.815 159.159 154.537 158.988C154.26 158.817 154.044 158.579 153.89 158.272C153.737 157.965 153.66 157.606 153.66 157.196C153.66 156.784 153.737 156.423 153.89 156.115C154.044 155.806 154.26 155.566 154.537 155.395C154.815 155.225 155.14 155.139 155.512 155.139C155.885 155.139 156.21 155.225 156.487 155.395C156.765 155.566 156.981 155.806 157.134 156.115C157.287 156.423 157.364 156.784 157.364 157.196C157.364 157.606 157.287 157.965 157.134 158.272C156.981 158.579 156.765 158.817 156.487 158.988C156.21 159.159 155.885 159.244 155.512 159.244ZM155.515 158.595C155.756 158.595 155.956 158.531 156.115 158.404C156.274 158.276 156.391 158.106 156.467 157.894C156.544 157.682 156.583 157.448 156.583 157.193C156.583 156.94 156.544 156.707 156.467 156.495C156.391 156.281 156.274 156.109 156.115 155.98C155.956 155.851 155.756 155.786 155.515 155.786C155.272 155.786 155.07 155.851 154.91 155.98C154.751 156.109 154.633 156.281 154.555 156.495C154.479 156.707 154.441 156.94 154.441 157.193C154.441 157.448 154.479 157.682 154.555 157.894C154.633 158.106 154.751 158.276 154.91 158.404C155.07 158.531 155.272 158.595 155.515 158.595ZM158.741 156.805V159.164H157.967V155.191H158.71V155.838H158.759C158.85 155.627 158.993 155.458 159.188 155.331C159.385 155.203 159.632 155.139 159.931 155.139C160.201 155.139 160.438 155.196 160.642 155.31C160.845 155.422 161.003 155.589 161.115 155.812C161.227 156.034 161.283 156.309 161.283 156.637V159.164H160.51V156.73C160.51 156.442 160.435 156.217 160.285 156.055C160.135 155.891 159.929 155.809 159.667 155.809C159.487 155.809 159.328 155.848 159.188 155.926C159.05 156.003 158.941 156.117 158.86 156.267C158.78 156.415 158.741 156.595 158.741 156.805ZM163.718 159.164V158.585L165.51 156.728C165.701 156.526 165.859 156.349 165.983 156.197C166.109 156.044 166.203 155.898 166.265 155.76C166.327 155.622 166.358 155.476 166.358 155.32C166.358 155.145 166.317 154.993 166.234 154.865C166.152 154.736 166.039 154.637 165.895 154.568C165.752 154.497 165.591 154.462 165.412 154.462C165.222 154.462 165.057 154.501 164.915 154.578C164.774 154.656 164.665 154.765 164.589 154.907C164.513 155.048 164.475 155.214 164.475 155.403H163.712C163.712 155.081 163.787 154.799 163.935 154.557C164.083 154.316 164.287 154.129 164.545 153.996C164.804 153.862 165.098 153.794 165.427 153.794C165.76 153.794 166.053 153.861 166.307 153.994C166.562 154.125 166.761 154.304 166.904 154.532C167.047 154.757 167.119 155.013 167.119 155.297C167.119 155.494 167.082 155.686 167.008 155.874C166.935 156.062 166.808 156.271 166.627 156.502C166.446 156.732 166.195 157.01 165.872 157.338L164.819 158.44V158.479H167.204V159.164H163.718ZM169.934 153.867V159.164H169.132V154.669H169.101L167.834 155.496V154.731L169.156 153.867H169.934ZM173.294 159.164H172.446L174.352 153.867H175.276L177.182 159.164H176.334L174.836 154.829H174.795L173.294 159.164ZM173.437 157.09H176.189V157.762H173.437V157.09ZM177.625 160.654V155.191H178.38V155.835H178.445C178.49 155.752 178.554 155.657 178.639 155.548C178.723 155.439 178.84 155.345 178.99 155.264C179.14 155.181 179.339 155.139 179.585 155.139C179.906 155.139 180.192 155.22 180.444 155.383C180.696 155.545 180.893 155.778 181.036 156.083C181.181 156.389 181.254 156.756 181.254 157.185C181.254 157.615 181.182 157.983 181.039 158.29C180.896 158.595 180.699 158.83 180.449 158.996C180.199 159.16 179.914 159.242 179.593 159.242C179.352 159.242 179.154 159.201 179.001 159.12C178.849 159.039 178.73 158.944 178.644 158.836C178.558 158.727 178.491 158.63 178.445 158.546H178.398V160.654H177.625ZM178.383 157.178C178.383 157.457 178.423 157.702 178.504 157.912C178.585 158.123 178.702 158.287 178.856 158.406C179.009 158.523 179.197 158.582 179.42 158.582C179.651 158.582 179.844 158.521 179.999 158.398C180.154 158.274 180.272 158.106 180.351 157.894C180.432 157.682 180.473 157.443 180.473 157.178C180.473 156.915 180.433 156.68 180.354 156.471C180.276 156.263 180.159 156.098 180.002 155.977C179.847 155.857 179.653 155.796 179.42 155.796C179.196 155.796 179.006 155.854 178.851 155.97C178.697 156.085 178.581 156.246 178.502 156.453C178.422 156.66 178.383 156.902 178.383 157.178ZM181.86 159.164V155.191H182.608V155.822H182.649C182.721 155.608 182.849 155.44 183.032 155.318C183.216 155.194 183.425 155.132 183.658 155.132C183.706 155.132 183.763 155.133 183.828 155.137C183.896 155.14 183.948 155.145 183.986 155.15V155.889C183.955 155.881 183.9 155.871 183.821 155.861C183.741 155.849 183.662 155.843 183.583 155.843C183.4 155.843 183.237 155.882 183.094 155.959C182.952 156.035 182.84 156.141 182.758 156.277C182.675 156.412 182.633 156.565 182.633 156.738V159.164H181.86Z" fill="#7A7A7A"/>
<rect x="105.05" y="171.528" width="89.4053" height="16.2432" rx="4.16214" fill="#EAEAEA"/>
<path d="M111.872 181.65L110.403 176.353H111.244L112.276 180.455H112.325L113.398 176.353H114.231L115.304 180.458H115.354L116.383 176.353H117.226L115.755 181.65H114.95L113.835 177.683H113.794L112.679 181.65H111.872ZM118.406 179.291V181.65H117.633V176.353H118.396V178.324H118.445C118.538 178.11 118.68 177.94 118.872 177.815C119.063 177.689 119.313 177.626 119.622 177.626C119.894 177.626 120.132 177.682 120.336 177.794C120.541 177.906 120.7 178.073 120.812 178.296C120.926 178.516 120.982 178.792 120.982 179.123V181.65H120.209V179.216C120.209 178.925 120.134 178.699 119.984 178.539C119.834 178.377 119.625 178.296 119.358 178.296C119.175 178.296 119.011 178.334 118.867 178.412C118.724 178.49 118.611 178.603 118.528 178.753C118.447 178.902 118.406 179.081 118.406 179.291ZM122.911 181.738C122.659 181.738 122.431 181.692 122.228 181.599C122.024 181.504 121.863 181.367 121.744 181.187C121.627 181.008 121.568 180.788 121.568 180.528C121.568 180.304 121.611 180.119 121.697 179.974C121.784 179.829 121.9 179.715 122.047 179.63C122.193 179.546 122.357 179.482 122.538 179.439C122.719 179.396 122.904 179.363 123.092 179.341C123.33 179.313 123.523 179.291 123.671 179.273C123.819 179.254 123.927 179.224 123.994 179.183C124.062 179.141 124.095 179.074 124.095 178.981V178.963C124.095 178.737 124.031 178.562 123.904 178.438C123.778 178.314 123.59 178.252 123.34 178.252C123.08 178.252 122.874 178.309 122.724 178.425C122.576 178.539 122.473 178.666 122.416 178.805L121.69 178.64C121.776 178.398 121.902 178.203 122.067 178.055C122.235 177.905 122.427 177.796 122.644 177.729C122.861 177.66 123.09 177.626 123.33 177.626C123.488 177.626 123.656 177.645 123.834 177.683C124.013 177.719 124.181 177.786 124.336 177.884C124.493 177.983 124.621 178.123 124.721 178.306C124.821 178.487 124.871 178.722 124.871 179.012V181.65H124.116V181.107H124.085C124.035 181.207 123.96 181.306 123.86 181.402C123.76 181.499 123.631 181.579 123.474 181.643C123.317 181.706 123.13 181.738 122.911 181.738ZM123.079 181.118C123.292 181.118 123.475 181.075 123.627 180.991C123.78 180.906 123.897 180.796 123.976 180.66C124.057 180.522 124.098 180.374 124.098 180.217V179.705C124.07 179.733 124.017 179.759 123.937 179.783C123.86 179.805 123.771 179.825 123.671 179.842C123.571 179.858 123.474 179.873 123.379 179.886C123.284 179.898 123.205 179.909 123.141 179.917C122.991 179.936 122.854 179.968 122.729 180.013C122.607 180.058 122.509 180.123 122.435 180.207C122.362 180.29 122.326 180.4 122.326 180.538C122.326 180.73 122.397 180.874 122.538 180.973C122.679 181.069 122.86 181.118 123.079 181.118ZM127.496 177.677V178.298H125.326V177.677H127.496ZM125.908 176.726H126.681V180.484C126.681 180.634 126.703 180.747 126.748 180.823C126.793 180.897 126.851 180.948 126.921 180.975C126.994 181.001 127.072 181.014 127.157 181.014C127.219 181.014 127.273 181.01 127.32 181.001C127.366 180.993 127.403 180.986 127.428 180.98L127.568 181.619C127.523 181.637 127.459 181.654 127.377 181.671C127.294 181.69 127.19 181.7 127.066 181.702C126.863 181.706 126.673 181.669 126.497 181.593C126.321 181.518 126.179 181.4 126.07 181.242C125.962 181.083 125.908 180.884 125.908 180.644V176.726ZM131.613 177.677V178.298H129.443V177.677H131.613ZM130.025 176.726H130.798V180.484C130.798 180.634 130.821 180.747 130.866 180.823C130.91 180.897 130.968 180.948 131.039 180.975C131.111 181.001 131.19 181.014 131.274 181.014C131.336 181.014 131.391 181.01 131.437 181.001C131.484 180.993 131.52 180.986 131.546 180.98L131.686 181.619C131.641 181.637 131.577 181.654 131.494 181.671C131.411 181.69 131.308 181.7 131.184 181.702C130.98 181.706 130.791 181.669 130.615 181.593C130.439 181.518 130.297 181.4 130.188 181.242C130.079 181.083 130.025 180.884 130.025 180.644V176.726ZM133.067 179.291V181.65H132.294V176.353H133.057V178.324H133.106C133.199 178.11 133.341 177.94 133.533 177.815C133.724 177.689 133.974 177.626 134.283 177.626C134.555 177.626 134.793 177.682 134.997 177.794C135.202 177.906 135.361 178.073 135.473 178.296C135.586 178.516 135.643 178.792 135.643 179.123V181.65H134.87V179.216C134.87 178.925 134.795 178.699 134.645 178.539C134.495 178.377 134.286 178.296 134.019 178.296C133.836 178.296 133.672 178.334 133.528 178.412C133.384 178.49 133.272 178.603 133.189 178.753C133.108 178.902 133.067 179.081 133.067 179.291ZM138.128 181.731C137.736 181.731 137.399 181.647 137.116 181.48C136.835 181.311 136.618 181.074 136.464 180.768C136.313 180.461 136.237 180.102 136.237 179.69C136.237 179.283 136.313 178.924 136.464 178.614C136.618 178.303 136.832 178.061 137.106 177.887C137.382 177.713 137.704 177.626 138.073 177.626C138.297 177.626 138.515 177.663 138.725 177.737C138.935 177.811 139.124 177.927 139.292 178.086C139.459 178.245 139.591 178.451 139.687 178.704C139.784 178.956 139.832 179.262 139.832 179.623V179.897H136.674V179.317H139.074C139.074 179.114 139.033 178.934 138.95 178.777C138.867 178.618 138.751 178.493 138.601 178.402C138.453 178.31 138.278 178.265 138.078 178.265C137.861 178.265 137.672 178.318 137.509 178.425C137.349 178.53 137.225 178.668 137.137 178.839C137.051 179.008 137.008 179.191 137.008 179.39V179.842C137.008 180.108 137.054 180.334 137.147 180.52C137.242 180.706 137.374 180.849 137.543 180.947C137.712 181.043 137.909 181.092 138.135 181.092C138.282 181.092 138.416 181.071 138.536 181.03C138.657 180.987 138.761 180.923 138.849 180.838C138.937 180.754 139.004 180.649 139.051 180.525L139.783 180.657C139.724 180.873 139.619 181.062 139.467 181.224C139.317 181.384 139.129 181.509 138.901 181.599C138.675 181.687 138.417 181.731 138.128 181.731ZM143.407 178.647L142.706 178.772C142.677 178.682 142.63 178.597 142.567 178.515C142.505 178.434 142.42 178.368 142.313 178.316C142.206 178.265 142.073 178.239 141.912 178.239C141.693 178.239 141.51 178.288 141.364 178.386C141.217 178.483 141.144 178.608 141.144 178.761C141.144 178.894 141.193 179.001 141.291 179.082C141.39 179.163 141.548 179.229 141.767 179.281L142.398 179.426C142.764 179.51 143.036 179.641 143.216 179.817C143.395 179.992 143.485 180.221 143.485 180.502C143.485 180.74 143.416 180.952 143.278 181.138C143.142 181.323 142.951 181.468 142.706 181.573C142.463 181.678 142.181 181.731 141.86 181.731C141.416 181.731 141.053 181.636 140.772 181.446C140.49 181.255 140.318 180.983 140.254 180.631L141.002 180.517C141.048 180.712 141.144 180.86 141.289 180.96C141.434 181.058 141.623 181.107 141.855 181.107C142.109 181.107 142.311 181.055 142.463 180.949C142.615 180.843 142.691 180.712 142.691 180.559C142.691 180.435 142.644 180.33 142.551 180.246C142.46 180.161 142.319 180.098 142.129 180.054L141.457 179.907C141.086 179.823 140.812 179.688 140.634 179.504C140.459 179.319 140.371 179.085 140.371 178.803C140.371 178.568 140.436 178.363 140.567 178.187C140.698 178.011 140.879 177.874 141.11 177.776C141.341 177.676 141.606 177.626 141.904 177.626C142.334 177.626 142.672 177.719 142.918 177.905C143.165 178.09 143.328 178.337 143.407 178.647ZM145.787 181.731C145.396 181.731 145.059 181.647 144.776 181.48C144.495 181.311 144.278 181.074 144.124 180.768C143.972 180.461 143.897 180.102 143.897 179.69C143.897 179.283 143.972 178.924 144.124 178.614C144.278 178.303 144.491 178.061 144.766 177.887C145.042 177.713 145.364 177.626 145.733 177.626C145.957 177.626 146.174 177.663 146.385 177.737C146.595 177.811 146.784 177.927 146.951 178.086C147.119 178.245 147.25 178.451 147.347 178.704C147.444 178.956 147.492 179.262 147.492 179.623V179.897H144.334V179.317H146.734C146.734 179.114 146.693 178.934 146.61 178.777C146.527 178.618 146.411 178.493 146.261 178.402C146.112 178.31 145.938 178.265 145.738 178.265C145.521 178.265 145.331 178.318 145.169 178.425C145.009 178.53 144.885 178.668 144.797 178.839C144.71 179.008 144.667 179.191 144.667 179.39V179.842C144.667 180.108 144.714 180.334 144.807 180.52C144.902 180.706 145.034 180.849 145.203 180.947C145.372 181.043 145.569 181.092 145.795 181.092C145.942 181.092 146.075 181.071 146.196 181.03C146.317 180.987 146.421 180.923 146.509 180.838C146.597 180.754 146.664 180.649 146.711 180.525L147.443 180.657C147.384 180.873 147.279 181.062 147.127 181.224C146.977 181.384 146.788 181.509 146.561 181.599C146.335 181.687 146.077 181.731 145.787 181.731ZM152.734 178.647L152.033 178.772C152.004 178.682 151.958 178.597 151.894 178.515C151.832 178.434 151.747 178.368 151.64 178.316C151.533 178.265 151.4 178.239 151.239 178.239C151.02 178.239 150.838 178.288 150.691 178.386C150.544 178.483 150.471 178.608 150.471 178.761C150.471 178.894 150.52 179.001 150.619 179.082C150.717 179.163 150.876 179.229 151.095 179.281L151.726 179.426C152.091 179.51 152.364 179.641 152.543 179.817C152.722 179.992 152.812 180.221 152.812 180.502C152.812 180.74 152.743 180.952 152.605 181.138C152.469 181.323 152.278 181.468 152.033 181.573C151.79 181.678 151.508 181.731 151.188 181.731C150.743 181.731 150.38 181.636 150.099 181.446C149.818 181.255 149.645 180.983 149.581 180.631L150.329 180.517C150.376 180.712 150.471 180.86 150.616 180.96C150.761 181.058 150.95 181.107 151.183 181.107C151.436 181.107 151.639 181.055 151.79 180.949C151.942 180.843 152.018 180.712 152.018 180.559C152.018 180.435 151.971 180.33 151.878 180.246C151.787 180.161 151.646 180.098 151.457 180.054L150.784 179.907C150.413 179.823 150.139 179.688 149.962 179.504C149.786 179.319 149.698 179.085 149.698 178.803C149.698 178.568 149.763 178.363 149.894 178.187C150.025 178.011 150.207 177.874 150.438 177.776C150.669 177.676 150.933 177.626 151.232 177.626C151.661 177.626 151.999 177.719 152.246 177.905C152.492 178.09 152.655 178.337 152.734 178.647ZM155.257 177.677V178.298H153.087V177.677H155.257ZM153.669 176.726H154.442V180.484C154.442 180.634 154.464 180.747 154.509 180.823C154.554 180.897 154.612 180.948 154.683 180.975C154.755 181.001 154.833 181.014 154.918 181.014C154.98 181.014 155.034 181.01 155.081 181.001C155.127 180.993 155.164 180.986 155.19 180.98L155.329 181.619C155.284 181.637 155.221 181.654 155.138 181.671C155.055 181.69 154.952 181.7 154.827 181.702C154.624 181.706 154.434 181.669 154.258 181.593C154.082 181.518 153.94 181.4 153.832 181.242C153.723 181.083 153.669 180.884 153.669 180.644V176.726ZM157.008 181.738C156.757 181.738 156.529 181.692 156.326 181.599C156.122 181.504 155.961 181.367 155.842 181.187C155.725 181.008 155.666 180.788 155.666 180.528C155.666 180.304 155.709 180.119 155.795 179.974C155.881 179.829 155.998 179.715 156.144 179.63C156.291 179.546 156.455 179.482 156.636 179.439C156.817 179.396 157.001 179.363 157.189 179.341C157.427 179.313 157.621 179.291 157.769 179.273C157.917 179.254 158.025 179.224 158.092 179.183C158.159 179.141 158.193 179.074 158.193 178.981V178.963C158.193 178.737 158.129 178.562 158.002 178.438C157.876 178.314 157.688 178.252 157.438 178.252C157.177 178.252 156.972 178.309 156.822 178.425C156.674 178.539 156.571 178.666 156.514 178.805L155.788 178.64C155.874 178.398 156 178.203 156.165 178.055C156.332 177.905 156.525 177.796 156.742 177.729C156.959 177.66 157.188 177.626 157.427 177.626C157.586 177.626 157.754 177.645 157.932 177.683C158.111 177.719 158.278 177.786 158.434 177.884C158.59 177.983 158.719 178.123 158.819 178.306C158.919 178.487 158.969 178.722 158.969 179.012V181.65H158.214V181.107H158.183C158.133 181.207 158.058 181.306 157.958 181.402C157.858 181.499 157.729 181.579 157.572 181.643C157.415 181.706 157.227 181.738 157.008 181.738ZM157.176 181.118C157.39 181.118 157.573 181.075 157.725 180.991C157.878 180.906 157.995 180.796 158.074 180.66C158.155 180.522 158.196 180.374 158.196 180.217V179.705C158.168 179.733 158.115 179.759 158.035 179.783C157.958 179.805 157.869 179.825 157.769 179.842C157.669 179.858 157.571 179.873 157.477 179.886C157.382 179.898 157.302 179.909 157.239 179.917C157.089 179.936 156.951 179.968 156.827 180.013C156.705 180.058 156.607 180.123 156.532 180.207C156.46 180.29 156.424 180.4 156.424 180.538C156.424 180.73 156.494 180.874 156.636 180.973C156.777 181.069 156.957 181.118 157.176 181.118ZM161.593 177.677V178.298H159.423V177.677H161.593ZM160.005 176.726H160.779V180.484C160.779 180.634 160.801 180.747 160.846 180.823C160.891 180.897 160.949 180.948 161.019 180.975C161.092 181.001 161.17 181.014 161.255 181.014C161.317 181.014 161.371 181.01 161.418 181.001C161.464 180.993 161.5 180.986 161.526 180.98L161.666 181.619C161.621 181.637 161.557 181.654 161.475 181.671C161.392 181.69 161.288 181.7 161.164 181.702C160.961 181.706 160.771 181.669 160.595 181.593C160.419 181.518 160.277 181.4 160.168 181.242C160.06 181.083 160.005 180.884 160.005 180.644V176.726ZM165.102 178.647L164.401 178.772C164.372 178.682 164.325 178.597 164.261 178.515C164.199 178.434 164.115 178.368 164.008 178.316C163.901 178.265 163.767 178.239 163.607 178.239C163.388 178.239 163.205 178.288 163.059 178.386C162.912 178.483 162.839 178.608 162.839 178.761C162.839 178.894 162.888 179.001 162.986 179.082C163.084 179.163 163.243 179.229 163.462 179.281L164.093 179.426C164.459 179.51 164.731 179.641 164.911 179.817C165.09 179.992 165.18 180.221 165.18 180.502C165.18 180.74 165.111 180.952 164.973 181.138C164.836 181.323 164.646 181.468 164.401 181.573C164.158 181.678 163.876 181.731 163.555 181.731C163.11 181.731 162.747 181.636 162.466 181.446C162.185 181.255 162.013 180.983 161.949 180.631L162.696 180.517C162.743 180.712 162.839 180.86 162.984 180.96C163.128 181.058 163.317 181.107 163.55 181.107C163.804 181.107 164.006 181.055 164.158 180.949C164.31 180.843 164.385 180.712 164.385 180.559C164.385 180.435 164.339 180.33 164.246 180.246C164.154 180.161 164.014 180.098 163.824 180.054L163.152 179.907C162.781 179.823 162.507 179.688 162.329 179.504C162.153 179.319 162.065 179.085 162.065 178.803C162.065 178.568 162.131 178.363 162.262 178.187C162.393 178.011 162.574 177.874 162.805 177.776C163.036 177.676 163.301 177.626 163.599 177.626C164.029 177.626 164.367 177.719 164.613 177.905C164.86 178.09 165.023 178.337 165.102 178.647ZM167.437 181.65V177.677H168.18V178.324H168.229C168.312 178.105 168.447 177.934 168.635 177.812C168.823 177.688 169.048 177.626 169.31 177.626C169.575 177.626 169.798 177.688 169.977 177.812C170.158 177.936 170.292 178.107 170.378 178.324H170.42C170.514 178.112 170.665 177.943 170.872 177.817C171.079 177.69 171.326 177.626 171.612 177.626C171.972 177.626 172.266 177.739 172.494 177.965C172.723 178.19 172.838 178.531 172.838 178.986V181.65H172.065V179.059C172.065 178.79 171.991 178.595 171.845 178.474C171.698 178.353 171.523 178.293 171.32 178.293C171.068 178.293 170.872 178.371 170.733 178.526C170.593 178.679 170.523 178.877 170.523 179.118V181.65H169.752V179.01C169.752 178.794 169.685 178.621 169.55 178.49C169.416 178.359 169.241 178.293 169.025 178.293C168.879 178.293 168.743 178.332 168.619 178.409C168.497 178.485 168.398 178.591 168.322 178.728C168.248 178.864 168.211 179.022 168.211 179.201V181.65H167.437ZM175.327 181.731C174.935 181.731 174.598 181.647 174.315 181.48C174.034 181.311 173.817 181.074 173.664 180.768C173.512 180.461 173.436 180.102 173.436 179.69C173.436 179.283 173.512 178.924 173.664 178.614C173.817 178.303 174.031 178.061 174.305 177.887C174.581 177.713 174.903 177.626 175.272 177.626C175.497 177.626 175.714 177.663 175.924 177.737C176.135 177.811 176.323 177.927 176.491 178.086C176.658 178.245 176.79 178.451 176.886 178.704C176.983 178.956 177.031 179.262 177.031 179.623V179.897H173.873V179.317H176.273C176.273 179.114 176.232 178.934 176.149 178.777C176.066 178.618 175.95 178.493 175.8 178.402C175.652 178.31 175.478 178.265 175.278 178.265C175.06 178.265 174.871 178.318 174.709 178.425C174.548 178.53 174.424 178.668 174.336 178.839C174.25 179.008 174.207 179.191 174.207 179.39V179.842C174.207 180.108 174.253 180.334 174.346 180.52C174.441 180.706 174.573 180.849 174.742 180.947C174.911 181.043 175.109 181.092 175.334 181.092C175.481 181.092 175.615 181.071 175.735 181.03C175.856 180.987 175.96 180.923 176.048 180.838C176.136 180.754 176.204 180.649 176.25 180.525L176.982 180.657C176.923 180.873 176.818 181.062 176.667 181.224C176.517 181.384 176.328 181.509 176.1 181.599C175.874 181.687 175.616 181.731 175.327 181.731ZM178.785 181.738C178.534 181.738 178.306 181.692 178.103 181.599C177.899 181.504 177.738 181.367 177.619 181.187C177.502 181.008 177.443 180.788 177.443 180.528C177.443 180.304 177.486 180.119 177.572 179.974C177.659 179.829 177.775 179.715 177.921 179.63C178.068 179.546 178.232 179.482 178.413 179.439C178.594 179.396 178.779 179.363 178.966 179.341C179.204 179.313 179.398 179.291 179.546 179.273C179.694 179.254 179.802 179.224 179.869 179.183C179.936 179.141 179.97 179.074 179.97 178.981V178.963C179.97 178.737 179.906 178.562 179.779 178.438C179.653 178.314 179.465 178.252 179.215 178.252C178.954 178.252 178.749 178.309 178.599 178.425C178.451 178.539 178.348 178.666 178.291 178.805L177.565 178.64C177.651 178.398 177.777 178.203 177.942 178.055C178.109 177.905 178.302 177.796 178.519 177.729C178.736 177.66 178.965 177.626 179.204 177.626C179.363 177.626 179.531 177.645 179.709 177.683C179.888 177.719 180.055 177.786 180.211 177.884C180.368 177.983 180.496 178.123 180.596 178.306C180.696 178.487 180.746 178.722 180.746 179.012V181.65H179.991V181.107H179.96C179.91 181.207 179.835 181.306 179.735 181.402C179.635 181.499 179.506 181.579 179.349 181.643C179.192 181.706 179.004 181.738 178.785 181.738ZM178.954 181.118C179.167 181.118 179.35 181.075 179.502 180.991C179.655 180.906 179.772 180.796 179.851 180.66C179.932 180.522 179.973 180.374 179.973 180.217V179.705C179.945 179.733 179.892 179.759 179.812 179.783C179.735 179.805 179.646 179.825 179.546 179.842C179.446 179.858 179.348 179.873 179.254 179.886C179.159 179.898 179.079 179.909 179.016 179.917C178.866 179.936 178.728 179.968 178.604 180.013C178.482 180.058 178.384 180.123 178.309 180.207C178.237 180.29 178.201 180.4 178.201 180.538C178.201 180.73 178.272 180.874 178.413 180.973C178.554 181.069 178.735 181.118 178.954 181.118ZM182.289 179.291V181.65H181.516V177.677H182.258V178.324H182.307C182.399 178.114 182.542 177.945 182.737 177.817C182.933 177.69 183.181 177.626 183.479 177.626C183.75 177.626 183.987 177.683 184.19 177.796C184.394 177.909 184.552 178.076 184.664 178.298C184.776 178.521 184.832 178.796 184.832 179.123V181.65H184.059V179.216C184.059 178.928 183.984 178.703 183.834 178.541C183.684 178.378 183.477 178.296 183.215 178.296C183.036 178.296 182.877 178.334 182.737 178.412C182.599 178.49 182.489 178.603 182.408 178.753C182.329 178.902 182.289 179.081 182.289 179.291ZM186.455 180.127V180.078C186.458 179.757 186.49 179.502 186.551 179.312C186.613 179.122 186.701 178.969 186.814 178.852C186.928 178.734 187.065 178.628 187.226 178.531C187.329 178.465 187.422 178.392 187.505 178.311C187.588 178.23 187.653 178.137 187.702 178.032C187.75 177.927 187.774 177.81 187.774 177.683C187.774 177.529 187.738 177.396 187.665 177.284C187.593 177.172 187.496 177.086 187.376 177.026C187.257 176.964 187.124 176.933 186.977 176.933C186.845 176.933 186.718 176.96 186.597 177.015C186.476 177.07 186.376 177.157 186.297 177.274C186.218 177.389 186.172 177.539 186.16 177.721H185.374C185.386 177.411 185.464 177.149 185.609 176.935C185.754 176.72 185.945 176.557 186.183 176.446C186.423 176.336 186.688 176.281 186.977 176.281C187.295 176.281 187.572 176.34 187.81 176.459C188.048 176.576 188.233 176.741 188.364 176.953C188.496 177.164 188.563 177.409 188.563 177.69C188.563 177.884 188.533 178.058 188.472 178.213C188.412 178.366 188.326 178.503 188.214 178.624C188.103 178.745 187.971 178.852 187.815 178.945C187.669 179.036 187.55 179.131 187.458 179.229C187.369 179.328 187.303 179.444 187.262 179.579C187.22 179.713 187.198 179.879 187.195 180.078V180.127H186.455ZM186.845 181.7C186.704 181.7 186.582 181.65 186.481 181.55C186.379 181.448 186.328 181.325 186.328 181.182C186.328 181.041 186.379 180.92 186.481 180.82C186.582 180.718 186.704 180.667 186.845 180.667C186.985 180.667 187.106 180.718 187.208 180.82C187.311 180.92 187.363 181.041 187.363 181.182C187.363 181.277 187.339 181.364 187.29 181.443C187.244 181.521 187.182 181.583 187.104 181.63C187.026 181.676 186.94 181.7 186.845 181.7Z" fill="#7A7A7A"/>
</g>
<defs>
<filter id="filter0_d_229_14314" x="0.732052" y="0.433014" width="298.041" height="291.2" filterUnits="userSpaceOnUse" color-interpolation-filters="sRGB">
<feFlood flood-opacity="0" result="BackgroundImageFix"/>
<feColorMatrix in="SourceAlpha" type="matrix" values="0 0 0 0 0 0 0 0 0 0 0 0 0 0 0 0 0 0 127 0" result="hardAlpha"/>
<feOffset dy="34.701"/>
<feGaussianBlur stdDeviation="23.134"/>
<feComposite in2="hardAlpha" operator="out"/>
<feColorMatrix type="matrix" values="0 0 0 0 0 0 0 0 0 0 0 0 0 0 0 0 0 0 0.25 0"/>
<feBlend mode="normal" in2="BackgroundImageFix" result="effect1_dropShadow_229_14314"/>
<feBlend mode="normal" in="SourceGraphic" in2="effect1_dropShadow_229_14314" result="shape"/>
</filter>
<filter id="filter1_f_229_14314" x="163.162" y="41.4123" width="91.0474" height="88.1743" filterUnits="userSpaceOnUse" color-interpolation-filters="sRGB">
<feFlood flood-opacity="0" result="BackgroundImageFix"/>
<feBlend mode="normal" in="SourceGraphic" in2="BackgroundImageFix" result="shape"/>
<feGaussianBlur stdDeviation="18.2094" result="effect1_foregroundBlur_229_14314"/>
</filter>
</defs>
</svg>
