<svg width="664" height="411" viewBox="0 0 664 411" fill="none" xmlns="http://www.w3.org/2000/svg">
<g filter="url(#filter0_d_229_14043)">
<rect x="44.4609" y="12" width="574.435" height="320.848" rx="12.945" fill="white" shape-rendering="crispEdges"/>
<path d="M76.3179 41.5345C76.3179 42.422 76.1517 43.1823 75.8191 43.8151C75.4893 44.4453 75.0388 44.928 74.4676 45.2632C73.8992 45.5983 73.2542 45.7659 72.5329 45.7659C71.8116 45.7659 71.1653 45.5983 70.5941 45.2632C70.0256 44.9253 69.5751 44.4413 69.2426 43.8111C68.9128 43.1782 68.7479 42.4194 68.7479 41.5345C68.7479 40.6469 68.9128 39.888 69.2426 39.2578C69.5751 38.625 70.0256 38.1409 70.5941 37.8057C71.1653 37.4706 71.8116 37.303 72.5329 37.303C73.2542 37.303 73.8992 37.4706 74.4676 37.8057C75.0388 38.1409 75.4893 38.625 75.8191 39.2578C76.1517 39.888 76.3179 40.6469 76.3179 41.5345ZM74.8176 41.5345C74.8176 40.9096 74.7197 40.3827 74.524 39.9537C74.3309 39.5219 74.0627 39.1961 73.7195 38.9762C73.3762 38.7537 72.9807 38.6424 72.5329 38.6424C72.0851 38.6424 71.6895 38.7537 71.3463 38.9762C71.0031 39.1961 70.7336 39.5219 70.5378 39.9537C70.3447 40.3827 70.2482 40.9096 70.2482 41.5345C70.2482 42.1593 70.3447 42.6875 70.5378 43.1193C70.7336 43.5483 71.0031 43.8741 71.3463 44.0967C71.6895 44.3166 72.0851 44.4265 72.5329 44.4265C72.9807 44.4265 73.3762 44.3166 73.7195 44.0967C74.0627 43.8741 74.3309 43.5483 74.524 43.1193C74.7197 42.6875 74.8176 42.1593 74.8176 41.5345ZM77.3242 45.6533V37.4156H80.4134C81.0462 37.4156 81.5772 37.5336 82.0062 37.7695C82.4379 38.0055 82.7638 38.33 82.9836 38.743C83.2062 39.1532 83.3175 39.6198 83.3175 40.1427C83.3175 40.671 83.2062 41.1403 82.9836 41.5505C82.7611 41.9608 82.4326 42.2839 81.9982 42.5199C81.5638 42.7532 81.0288 42.8699 80.3933 42.8699H78.3459V41.6431H80.1921C80.5622 41.6431 80.8652 41.5787 81.1012 41.45C81.3372 41.3213 81.5115 41.1443 81.6241 40.919C81.7394 40.6938 81.7971 40.435 81.7971 40.1427C81.7971 39.8504 81.7394 39.593 81.6241 39.3704C81.5115 39.1479 81.3358 38.9749 81.0972 38.8516C80.8612 38.7255 80.5568 38.6625 80.1841 38.6625H78.8165V45.6533H77.3242ZM84.2092 45.6533V37.4156H87.2983C87.9312 37.4156 88.4621 37.5336 88.8912 37.7695C89.3229 38.0055 89.6487 38.33 89.8686 38.743C90.0912 39.1532 90.2024 39.6198 90.2024 40.1427C90.2024 40.671 90.0912 41.1403 89.8686 41.5505C89.646 41.9608 89.3175 42.2839 88.8831 42.5199C88.4487 42.7532 87.9137 42.8699 87.2782 42.8699H85.2308V41.6431H87.0771C87.4471 41.6431 87.7502 41.5787 87.9861 41.45C88.2221 41.3213 88.3964 41.1443 88.509 40.919C88.6243 40.6938 88.682 40.435 88.682 40.1427C88.682 39.8504 88.6243 39.593 88.509 39.3704C88.3964 39.1479 88.2208 38.9749 87.9821 38.8516C87.7461 38.7255 87.4418 38.6625 87.069 38.6625H85.7014V45.6533H84.2092ZM98.455 41.5345C98.455 42.422 98.2887 43.1823 97.9562 43.8151C97.6264 44.4453 97.1759 44.928 96.6047 45.2632C96.0362 45.5983 95.3913 45.7659 94.67 45.7659C93.9486 45.7659 93.3024 45.5983 92.7312 45.2632C92.1627 44.9253 91.7122 44.4413 91.3797 43.8111C91.0499 43.1782 90.8849 42.4194 90.8849 41.5345C90.8849 40.6469 91.0499 39.888 91.3797 39.2578C91.7122 38.625 92.1627 38.1409 92.7312 37.8057C93.3024 37.4706 93.9486 37.303 94.67 37.303C95.3913 37.303 96.0362 37.4706 96.6047 37.8057C97.1759 38.1409 97.6264 38.625 97.9562 39.2578C98.2887 39.888 98.455 40.6469 98.455 41.5345ZM96.9546 41.5345C96.9546 40.9096 96.8568 40.3827 96.661 39.9537C96.4679 39.5219 96.1998 39.1961 95.8565 38.9762C95.5133 38.7537 95.1178 38.6424 94.67 38.6424C94.2221 38.6424 93.8266 38.7537 93.4834 38.9762C93.1401 39.1961 92.8706 39.5219 92.6749 39.9537C92.4818 40.3827 92.3853 40.9096 92.3853 41.5345C92.3853 42.1593 92.4818 42.6875 92.6749 43.1193C92.8706 43.5483 93.1401 43.8741 93.4834 44.0967C93.8266 44.3166 94.2221 44.4265 94.67 44.4265C95.1178 44.4265 95.5133 44.3166 95.8565 44.0967C96.1998 43.8741 96.4679 43.5483 96.661 43.1193C96.8568 42.6875 96.9546 42.1593 96.9546 41.5345ZM99.4613 45.6533V37.4156H102.55C103.183 37.4156 103.714 37.5255 104.143 37.7454C104.575 37.9653 104.901 38.2737 105.121 38.6705C105.343 39.0647 105.455 39.5246 105.455 40.0502C105.455 40.5785 105.342 41.037 105.117 41.4258C104.894 41.812 104.566 42.111 104.131 42.3228C103.697 42.532 103.163 42.6366 102.53 42.6366H100.33V41.3977H102.329C102.699 41.3977 103.002 41.3467 103.238 41.2448C103.474 41.1403 103.649 40.9888 103.761 40.7903C103.876 40.5892 103.934 40.3425 103.934 40.0502C103.934 39.7579 103.876 39.5085 103.761 39.3021C103.646 39.0929 103.47 38.9347 103.234 38.8274C102.998 38.7175 102.694 38.6625 102.321 38.6625H100.954V45.6533H99.4613ZM103.717 41.9206L105.756 45.6533H104.091L102.088 41.9206H103.717ZM106.062 38.6665V37.4156H112.634V38.6665H110.088V45.6533H108.608V38.6665H106.062ZM118.689 37.4156H120.182V42.7975C120.182 43.3874 120.042 43.9063 119.763 44.3541C119.487 44.8019 119.098 45.1519 118.597 45.4039C118.096 45.6533 117.51 45.778 116.839 45.778C116.166 45.778 115.579 45.6533 115.077 45.4039C114.576 45.1519 114.187 44.8019 113.911 44.3541C113.635 43.9063 113.497 43.3874 113.497 42.7975V37.4156H114.989V42.6728C114.989 43.016 115.064 43.3217 115.214 43.5899C115.367 43.858 115.582 44.0685 115.858 44.2214C116.134 44.3715 116.461 44.4466 116.839 44.4466C117.217 44.4466 117.544 44.3715 117.821 44.2214C118.1 44.0685 118.314 43.858 118.464 43.5899C118.614 43.3217 118.689 43.016 118.689 42.6728V37.4156ZM128.169 37.4156V45.6533H126.841L122.96 40.0422H122.892V45.6533H121.399V37.4156H122.735L126.612 43.0308H126.685V37.4156H128.169ZM130.883 37.4156V45.6533H129.39V37.4156H130.883ZM131.732 38.6665V37.4156H138.305V38.6665H135.758V45.6533H134.278V38.6665H131.732ZM140.659 37.4156V45.6533H139.167V37.4156H140.659ZM141.871 45.6533V37.4156H147.229V38.6665H143.363V40.9029H146.951V42.1539H143.363V44.4024H147.261V45.6533H141.871ZM152.823 39.6802C152.786 39.3289 152.628 39.0554 152.349 38.8596C152.072 38.6638 151.713 38.566 151.271 38.566C150.96 38.566 150.693 38.6129 150.47 38.7067C150.248 38.8006 150.077 38.928 149.959 39.0889C149.841 39.2498 149.781 39.4335 149.778 39.6399C149.778 39.8116 149.817 39.9604 149.895 40.0864C149.975 40.2124 150.084 40.3197 150.221 40.4082C150.358 40.494 150.509 40.5664 150.675 40.6254C150.842 40.6844 151.009 40.734 151.178 40.7742L151.95 40.9673C152.261 41.0397 152.56 41.1376 152.847 41.2609C153.137 41.3843 153.396 41.5398 153.624 41.7275C153.854 41.9152 154.037 42.1418 154.171 42.4073C154.305 42.6728 154.372 42.9838 154.372 43.3405C154.372 43.8232 154.249 44.2482 154.002 44.6156C153.755 44.9802 153.398 45.2658 152.932 45.4723C152.468 45.6761 151.906 45.778 151.247 45.778C150.606 45.778 150.049 45.6788 149.577 45.4804C149.108 45.2819 148.741 44.9923 148.475 44.6115C148.212 44.2308 148.07 43.7668 148.049 43.2198H149.517C149.538 43.5067 149.627 43.7454 149.782 43.9358C149.938 44.1262 150.14 44.2683 150.39 44.3622C150.642 44.456 150.923 44.5029 151.234 44.5029C151.559 44.5029 151.843 44.4547 152.087 44.3581C152.334 44.2589 152.527 44.1222 152.666 43.9479C152.806 43.7709 152.877 43.5644 152.88 43.3284C152.877 43.1139 152.814 42.9369 152.691 42.7975C152.567 42.6553 152.394 42.5374 152.172 42.4435C151.952 42.347 151.694 42.2612 151.399 42.1861L150.462 41.9447C149.784 41.7704 149.247 41.5063 148.853 41.1523C148.462 40.7957 148.266 40.3224 148.266 39.7324C148.266 39.2471 148.397 38.8221 148.66 38.4574C148.926 38.0927 149.286 37.8098 149.742 37.6087C150.198 37.4049 150.714 37.303 151.291 37.303C151.875 37.303 152.388 37.4049 152.827 37.6087C153.27 37.8098 153.617 38.09 153.869 38.4493C154.121 38.806 154.251 39.2162 154.259 39.6802H152.823Z" fill="#7A7A7A"/>
<g filter="url(#filter1_d_229_14043)">
<rect x="495.761" y="34.6533" width="99.4532" height="31.1813" rx="6.47251" fill="white" shape-rendering="crispEdges"/>
<rect x="496.165" y="35.0579" width="98.6441" height="30.3722" rx="6.06798" stroke="#F2F2F2" stroke-width="0.809064" shape-rendering="crispEdges"/>
<path d="M504.717 53.7441V45.5064H506.209V52.4932H509.837V53.7441H504.717ZM512.442 53.8688C512.05 53.8688 511.697 53.7991 511.384 53.6597C511.073 53.5175 510.826 53.3084 510.644 53.0322C510.464 52.756 510.374 52.4154 510.374 52.0105C510.374 51.6619 510.438 51.3736 510.567 51.1457C510.696 50.9178 510.872 50.7354 511.094 50.5987C511.317 50.4619 511.567 50.3587 511.846 50.289C512.128 50.2166 512.419 50.1643 512.719 50.1321C513.081 50.0945 513.375 50.061 513.6 50.0315C513.825 49.9993 513.989 49.9511 514.091 49.8867C514.195 49.8197 514.248 49.7164 514.248 49.577V49.5529C514.248 49.2499 514.158 49.0152 513.978 48.849C513.798 48.6827 513.54 48.5996 513.202 48.5996C512.845 48.5996 512.562 48.6773 512.353 48.8329C512.147 48.9884 512.007 49.1721 511.935 49.3839L510.575 49.1909C510.683 48.8154 510.859 48.5017 511.106 48.2496C511.353 47.9949 511.655 47.8045 512.011 47.6785C512.368 47.5497 512.762 47.4854 513.194 47.4854C513.491 47.4854 513.788 47.5202 514.083 47.59C514.378 47.6597 514.647 47.775 514.891 47.9359C515.135 48.0941 515.331 48.31 515.478 48.5835C515.629 48.857 515.704 49.1989 515.704 49.6092V53.7441H514.304V52.8954H514.256C514.167 53.067 514.042 53.2279 513.882 53.3781C513.723 53.5256 513.524 53.6449 513.282 53.7361C513.044 53.8246 512.763 53.8688 512.442 53.8688ZM512.82 52.7989C513.112 52.7989 513.365 52.7412 513.58 52.6259C513.794 52.5079 513.959 52.3524 514.075 52.1593C514.193 51.9663 514.252 51.7558 514.252 51.5278V50.7998C514.206 50.8373 514.128 50.8722 514.018 50.9044C513.911 50.9366 513.79 50.9647 513.656 50.9888C513.522 51.013 513.39 51.0344 513.258 51.0532C513.127 51.072 513.013 51.0881 512.916 51.1015C512.699 51.131 512.505 51.1792 512.333 51.2463C512.161 51.3133 512.026 51.4072 511.927 51.5278C511.828 51.6458 511.778 51.7987 511.778 51.9864C511.778 52.2545 511.876 52.457 512.072 52.5938C512.267 52.7305 512.517 52.7989 512.82 52.7989ZM521.646 49.1989L520.319 49.3437C520.282 49.2096 520.216 49.0836 520.122 48.9656C520.031 48.8476 519.907 48.7524 519.752 48.68C519.596 48.6076 519.406 48.5714 519.181 48.5714C518.878 48.5714 518.623 48.6371 518.416 48.7685C518.213 48.8999 518.112 49.0702 518.115 49.2793C518.112 49.459 518.178 49.6052 518.312 49.7178C518.449 49.8304 518.674 49.9229 518.988 49.9953L520.042 50.2206C520.626 50.3466 521.061 50.5464 521.345 50.8199C521.632 51.0934 521.776 51.4514 521.779 51.8939C521.776 52.2827 521.663 52.6259 521.437 52.9236C521.215 53.2186 520.905 53.4492 520.508 53.6154C520.111 53.7817 519.655 53.8648 519.141 53.8648C518.384 53.8648 517.776 53.7066 517.314 53.3902C516.853 53.0711 516.578 52.6273 516.49 52.0588L517.91 51.922C517.974 52.2009 518.111 52.4114 518.32 52.5535C518.529 52.6957 518.801 52.7667 519.136 52.7667C519.482 52.7667 519.76 52.6957 519.969 52.5535C520.181 52.4114 520.287 52.2358 520.287 52.0266C520.287 51.8496 520.218 51.7035 520.082 51.5882C519.948 51.4729 519.738 51.3844 519.454 51.3227L518.4 51.1015C517.808 50.9781 517.369 50.7703 517.085 50.478C516.801 50.183 516.66 49.8103 516.663 49.3598C516.66 48.979 516.763 48.6492 516.972 48.3703C517.184 48.0887 517.478 47.8715 517.853 47.7187C518.231 47.5632 518.667 47.4854 519.161 47.4854C519.885 47.4854 520.454 47.6396 520.87 47.948C521.288 48.2563 521.547 48.6733 521.646 49.1989ZM525.66 47.5658V48.6921H522.109V47.5658H525.66ZM522.986 46.0856H524.442V51.8858C524.442 52.0816 524.471 52.2317 524.53 52.3363C524.592 52.4382 524.672 52.5079 524.771 52.5455C524.871 52.583 524.981 52.6018 525.101 52.6018C525.192 52.6018 525.276 52.5951 525.351 52.5817C525.428 52.5683 525.487 52.5562 525.528 52.5455L525.773 53.6838C525.695 53.7106 525.584 53.7401 525.439 53.7723C525.297 53.8045 525.123 53.8232 524.916 53.8286C524.552 53.8393 524.223 53.7844 523.931 53.6637C523.639 53.5403 523.407 53.35 523.235 53.0925C523.066 52.8351 522.983 52.5133 522.986 52.1272V46.0856ZM529.164 53.7441L532.668 46.8096V46.7533H528.601V45.5064H534.212V46.7815L530.713 53.7441H529.164ZM540.383 53.7441H537.592V45.5064H540.439C541.257 45.5064 541.96 45.6713 542.547 46.0011C543.137 46.3283 543.59 46.7989 543.907 47.413C544.223 48.0271 544.381 48.7618 544.381 49.6172C544.381 50.4753 544.222 51.2128 543.903 51.8295C543.586 52.4463 543.129 52.9196 542.531 53.2494C541.936 53.5792 541.22 53.7441 540.383 53.7441ZM539.084 52.453H540.311C540.884 52.453 541.363 52.3484 541.747 52.1392C542.13 51.9274 542.418 51.6123 542.611 51.194C542.804 50.773 542.901 50.2474 542.901 49.6172C542.901 48.9871 542.804 48.4642 542.611 48.0485C542.418 47.6302 542.133 47.3178 541.755 47.1113C541.379 46.9022 540.913 46.7976 540.355 46.7976H539.084V52.453ZM547.108 53.8688C546.717 53.8688 546.364 53.7991 546.05 53.6597C545.739 53.5175 545.492 53.3084 545.31 53.0322C545.13 52.756 545.041 52.4154 545.041 52.0105C545.041 51.6619 545.105 51.3736 545.234 51.1457C545.362 50.9178 545.538 50.7354 545.761 50.5987C545.983 50.4619 546.234 50.3587 546.513 50.289C546.794 50.2166 547.085 50.1643 547.386 50.1321C547.748 50.0945 548.041 50.061 548.267 50.0315C548.492 49.9993 548.655 49.9511 548.757 49.8867C548.862 49.8197 548.914 49.7164 548.914 49.577V49.5529C548.914 49.2499 548.824 49.0152 548.645 48.849C548.465 48.6827 548.206 48.5996 547.868 48.5996C547.512 48.5996 547.229 48.6773 547.02 48.8329C546.813 48.9884 546.674 49.1721 546.601 49.3839L545.242 49.1909C545.349 48.8154 545.526 48.5017 545.773 48.2496C546.019 47.9949 546.321 47.8045 546.678 47.6785C547.034 47.5497 547.429 47.4854 547.86 47.4854C548.158 47.4854 548.454 47.5202 548.749 47.59C549.044 47.6597 549.314 47.775 549.558 47.9359C549.802 48.0941 549.997 48.31 550.145 48.5835C550.295 48.857 550.37 49.1989 550.37 49.6092V53.7441H548.97V52.8954H548.922C548.834 53.067 548.709 53.2279 548.548 53.3781C548.39 53.5256 548.19 53.6449 547.949 53.7361C547.71 53.8246 547.43 53.8688 547.108 53.8688ZM547.486 52.7989C547.778 52.7989 548.032 52.7412 548.246 52.6259C548.461 52.5079 548.626 52.3524 548.741 52.1593C548.859 51.9663 548.918 51.7558 548.918 51.5278V50.7998C548.873 50.8373 548.795 50.8722 548.685 50.9044C548.578 50.9366 548.457 50.9647 548.323 50.9888C548.189 51.013 548.056 51.0344 547.925 51.0532C547.793 51.072 547.679 51.0881 547.583 51.1015C547.366 51.131 547.171 51.1792 546.999 51.2463C546.828 51.3133 546.692 51.4072 546.593 51.5278C546.494 51.6458 546.444 51.7987 546.444 51.9864C546.444 52.2545 546.542 52.457 546.738 52.5938C546.934 52.7305 547.183 52.7989 547.486 52.7989ZM552.114 56.061C551.915 56.061 551.731 56.0449 551.563 56.0127C551.396 55.9832 551.264 55.9484 551.164 55.9082L551.502 54.7739C551.714 54.8355 551.903 54.865 552.069 54.8623C552.236 54.8597 552.382 54.8074 552.508 54.7055C552.636 54.6063 552.745 54.44 552.834 54.2067L552.958 53.8729L550.718 47.5658H552.262L553.686 52.2317H553.751L555.179 47.5658H556.727L554.253 54.4923C554.138 54.8194 553.985 55.0997 553.795 55.333C553.605 55.5689 553.371 55.7486 553.095 55.872C552.822 55.998 552.494 56.061 552.114 56.061ZM562.213 49.1989L560.886 49.3437C560.848 49.2096 560.783 49.0836 560.689 48.9656C560.598 48.8476 560.474 48.7524 560.319 48.68C560.163 48.6076 559.973 48.5714 559.748 48.5714C559.445 48.5714 559.19 48.6371 558.983 48.7685C558.78 48.8999 558.679 49.0702 558.682 49.2793C558.679 49.459 558.745 49.6052 558.879 49.7178C559.016 49.8304 559.241 49.9229 559.555 49.9953L560.608 50.2206C561.193 50.3466 561.627 50.5464 561.912 50.8199C562.199 51.0934 562.343 51.4514 562.346 51.8939C562.343 52.2827 562.229 52.6259 562.004 52.9236C561.782 53.2186 561.472 53.4492 561.075 53.6154C560.678 53.7817 560.222 53.8648 559.707 53.8648C558.951 53.8648 558.343 53.7066 557.881 53.3902C557.42 53.0711 557.145 52.6273 557.057 52.0588L558.477 51.922C558.541 52.2009 558.678 52.4114 558.887 52.5535C559.096 52.6957 559.368 52.7667 559.703 52.7667C560.049 52.7667 560.327 52.6957 560.536 52.5535C560.748 52.4114 560.854 52.2358 560.854 52.0266C560.854 51.8496 560.785 51.7035 560.649 51.5882C560.515 51.4729 560.305 51.3844 560.021 51.3227L558.967 51.1015C558.375 50.9781 557.936 50.7703 557.652 50.478C557.368 50.183 557.227 49.8103 557.23 49.3598C557.227 48.979 557.33 48.6492 557.539 48.3703C557.751 48.0887 558.045 47.8715 558.42 47.7187C558.798 47.5632 559.234 47.4854 559.728 47.4854C560.452 47.4854 561.021 47.6396 561.437 47.948C561.855 48.2563 562.114 48.6733 562.213 49.1989Z" fill="#7A7A7A"/>
<path d="M576.606 48.4082L579.557 51.3584C579.715 51.5164 579.971 51.5164 580.129 51.3584L583.079 48.4082" stroke="#CCCCCC" stroke-width="1.2136" stroke-linecap="round"/>
</g>
<path d="M80.756 112.311C79.4964 112.293 78.2552 112.063 77.0324 111.621C75.8188 111.18 74.7156 110.445 73.7226 109.415C72.7297 108.385 71.9344 107.001 71.3368 105.264C70.7484 103.526 70.4542 101.356 70.4542 98.7545C70.4542 96.2906 70.6978 94.1024 71.1851 92.1901C71.6816 90.2778 72.3941 88.6642 73.3227 87.3495C74.2513 86.0256 75.3729 85.0188 76.6877 84.3293C78.0024 83.6397 79.478 83.295 81.1145 83.295C82.797 83.295 84.291 83.626 85.5966 84.2879C86.9021 84.9499 87.9594 85.8647 88.7685 87.0323C89.5867 88.1999 90.1062 89.5284 90.3268 91.0179H86.1206C85.8356 89.841 85.2702 88.8803 84.4243 88.1356C83.5785 87.3909 82.4752 87.0185 81.1145 87.0185C79.0459 87.0185 77.4324 87.9195 76.2739 89.7215C75.1247 91.5235 74.5455 94.0289 74.5363 97.2375H74.7431C75.2304 96.4377 75.828 95.7573 76.536 95.1965C77.2531 94.6265 78.053 94.1898 78.9356 93.8864C79.8274 93.5738 80.7652 93.4175 81.7489 93.4175C83.3854 93.4175 84.8656 93.8174 86.1896 94.6173C87.5227 95.408 88.5846 96.502 89.3753 97.8995C90.1659 99.297 90.5613 100.897 90.5613 102.699C90.5613 104.501 90.1521 106.133 89.3339 107.594C88.5248 109.056 87.3848 110.215 85.9137 111.07C84.4427 111.916 82.7235 112.329 80.756 112.311ZM80.7422 108.725C81.8271 108.725 82.797 108.459 83.652 107.925C84.5071 107.392 85.1828 106.675 85.6793 105.774C86.1758 104.873 86.424 103.866 86.424 102.754C86.424 101.669 86.1804 100.681 85.6931 99.7888C85.215 98.897 84.553 98.1891 83.7072 97.6651C82.8706 97.141 81.9144 96.879 80.8387 96.879C80.0205 96.879 79.262 97.0353 78.5632 97.3479C77.8737 97.6605 77.2669 98.0926 76.7428 98.6442C76.2188 99.1958 75.805 99.8302 75.5016 100.547C75.2074 101.255 75.0603 102.005 75.0603 102.795C75.0603 103.853 75.304 104.832 75.7913 105.733C76.2877 106.634 76.9635 107.36 77.8185 107.912C78.6827 108.454 79.6573 108.725 80.7422 108.725ZM98.0968 108.063L97.89 109.567C97.7521 110.67 97.5176 111.819 97.1866 113.014C96.8648 114.219 96.5293 115.336 96.1799 116.365C95.8397 117.395 95.5593 118.213 95.3387 118.82H92.415C92.5345 118.25 92.7 117.478 92.9115 116.503C93.1229 115.538 93.3298 114.458 93.532 113.263C93.7343 112.067 93.886 110.849 93.9871 109.608L94.1251 108.063H98.0968ZM101.654 106.408V102.961L113.859 83.6811H116.575V88.7562H114.852L106.122 102.575V102.795H122.85V106.408H101.654ZM115.045 111.925V105.36L115.072 103.788V83.6811H119.113V111.925H115.045ZM126.424 111.925V83.6811H130.686V97.1686H131.031L142.877 83.6811H148.242L136.85 96.3963L148.283 111.925H143.153L134.023 99.3062L130.686 103.14V111.925H126.424Z" fill="#242424"/>
<rect x="153.189" y="89.3066" width="36.4725" height="16.2363" rx="3.23625" fill="#E0F0E4"/>
<path d="M159.413 99.7388V95.0775H160.341V99.7388H159.413ZM157.548 97.8701V96.9461H162.209V97.8701H157.548ZM166.153 101.021C165.68 101.021 165.257 100.94 164.885 100.777C164.515 100.613 164.221 100.387 164.005 100.097C163.792 99.8054 163.677 99.4676 163.661 99.0837H164.743C164.757 99.2929 164.827 99.4745 164.954 99.6285C165.082 99.7802 165.25 99.8974 165.457 99.9801C165.664 100.063 165.894 100.104 166.146 100.104C166.425 100.104 166.671 100.056 166.884 99.9594C167.1 99.8629 167.269 99.7284 167.391 99.5561C167.513 99.3814 167.574 99.1803 167.574 98.9527C167.574 98.716 167.513 98.508 167.391 98.3287C167.272 98.1471 167.096 98.0046 166.864 97.9012C166.634 97.7977 166.356 97.746 166.029 97.746H165.433V96.8772H166.029C166.291 96.8772 166.521 96.8301 166.719 96.7358C166.919 96.6416 167.075 96.5106 167.188 96.3428C167.3 96.1727 167.357 95.9739 167.357 95.7463C167.357 95.528 167.307 95.3384 167.208 95.1775C167.112 95.0143 166.974 94.8867 166.795 94.7948C166.618 94.7028 166.408 94.6569 166.167 94.6569C165.937 94.6569 165.722 94.6994 165.522 94.7844C165.325 94.8672 165.164 94.9867 165.04 95.143C164.916 95.297 164.849 95.482 164.84 95.6981H163.809C163.82 95.3165 163.933 94.9809 164.147 94.6913C164.363 94.4017 164.648 94.1753 165.002 94.0121C165.356 93.8489 165.749 93.7673 166.181 93.7673C166.634 93.7673 167.024 93.8558 167.353 94.0328C167.684 94.2075 167.939 94.4408 168.119 94.7327C168.3 95.0246 168.39 95.3441 168.387 95.6912C168.39 96.0865 168.279 96.4221 168.057 96.6979C167.836 96.9737 167.542 97.1588 167.174 97.253V97.3082C167.643 97.3794 168.006 97.5656 168.263 97.8667C168.523 98.1678 168.652 98.5413 168.65 98.9872C168.652 99.3756 168.544 99.7239 168.325 100.032C168.109 100.34 167.814 100.582 167.439 100.759C167.065 100.934 166.636 101.021 166.153 101.021ZM170.437 100.99C170.249 100.99 170.087 100.924 169.951 100.79C169.815 100.655 169.748 100.492 169.748 100.301C169.748 100.112 169.815 99.9514 169.951 99.8181C170.087 99.6825 170.249 99.6147 170.437 99.6147C170.626 99.6147 170.788 99.6825 170.923 99.8181C171.059 99.9514 171.127 100.112 171.127 100.301C171.127 100.427 171.095 100.543 171.03 100.649C170.968 100.752 170.885 100.835 170.782 100.897C170.678 100.959 170.564 100.99 170.437 100.99ZM172.345 99.5457V98.6838L175.397 93.8639H176.076V95.1326H175.645L173.463 98.5873V98.6424H177.645V99.5457H172.345ZM175.693 100.925V99.2837L175.7 98.8907V93.8639H176.71V100.925H175.693ZM182.532 99.6009V99.2285C182.532 98.9619 182.587 98.7183 182.697 98.4976C182.81 98.2747 182.973 98.0965 183.187 97.9632C183.403 97.8276 183.664 97.7598 183.969 97.7598C184.282 97.7598 184.544 97.8265 184.756 97.9598C184.967 98.0931 185.127 98.2712 185.235 98.4942C185.345 98.7171 185.4 98.9619 185.4 99.2285V99.6009C185.4 99.8675 185.345 100.112 185.235 100.335C185.124 100.556 184.962 100.734 184.749 100.87C184.537 101.003 184.277 101.07 183.969 101.07C183.659 101.07 183.397 101.003 183.183 100.87C182.97 100.734 182.808 100.556 182.697 100.335C182.587 100.112 182.532 99.8675 182.532 99.6009ZM183.335 99.2285V99.6009C183.335 99.7986 183.382 99.9778 183.476 100.139C183.571 100.3 183.735 100.38 183.969 100.38C184.202 100.38 184.364 100.3 184.456 100.139C184.547 99.9778 184.593 99.7986 184.593 99.6009V99.2285C184.593 99.0309 184.549 98.8516 184.459 98.6907C184.372 98.5298 184.208 98.4493 183.969 98.4493C183.74 98.4493 183.576 98.5298 183.48 98.6907C183.383 98.8516 183.335 99.0309 183.335 99.2285ZM178.981 95.5602V95.1878C178.981 94.9212 179.036 94.6764 179.146 94.4534C179.259 94.2305 179.422 94.0524 179.636 93.919C179.852 93.7857 180.113 93.7191 180.418 93.7191C180.731 93.7191 180.993 93.7857 181.204 93.919C181.416 94.0524 181.576 94.2305 181.684 94.4534C181.792 94.6764 181.846 94.9212 181.846 95.1878V95.5602C181.846 95.8268 181.79 96.0716 181.68 96.2945C181.572 96.5152 181.411 96.6933 181.197 96.8289C180.986 96.9622 180.726 97.0289 180.418 97.0289C180.106 97.0289 179.843 96.9622 179.629 96.8289C179.417 96.6933 179.256 96.5152 179.146 96.2945C179.036 96.0716 178.981 95.8268 178.981 95.5602ZM179.787 95.1878V95.5602C179.787 95.7578 179.833 95.9371 179.925 96.098C180.019 96.2589 180.184 96.3393 180.418 96.3393C180.648 96.3393 180.809 96.2589 180.901 96.098C180.995 95.9371 181.042 95.7578 181.042 95.5602V95.1878C181.042 94.9901 180.997 94.8109 180.908 94.65C180.818 94.4891 180.655 94.4086 180.418 94.4086C180.188 94.4086 180.025 94.4891 179.929 94.65C179.834 94.8109 179.787 94.9901 179.787 95.1878ZM179.308 100.925L184.163 93.8639H184.987L180.132 100.925H179.308Z" fill="#377E36"/>
<g clip-path="url(#clip0_229_14043)">
<path d="M67.1152 138.725C67.1152 137.385 68.2019 136.298 69.5424 136.298H186.857V141.152H69.5424C68.2019 141.152 67.1152 140.066 67.1152 138.725Z" fill="#B6B0FB"/>
<path d="M68.7336 129.421V148.838" stroke="#978FED" stroke-width="1.2136"/>
<path d="M71.9699 129.421V148.838" stroke="#978FED" stroke-width="1.2136"/>
<path d="M75.2062 129.421V148.838" stroke="#978FED" stroke-width="1.2136"/>
<path d="M78.4425 129.421V148.838" stroke="#978FED" stroke-width="1.2136"/>
<path d="M81.6789 129.421V148.838" stroke="#978FED" stroke-width="1.2136"/>
<path d="M84.9152 129.421V148.838" stroke="#978FED" stroke-width="1.2136"/>
<path d="M88.1515 129.421V148.838" stroke="#978FED" stroke-width="1.2136"/>
<path d="M91.3869 129.421V148.838" stroke="#978FED" stroke-width="1.2136"/>
<path d="M94.6232 129.421V148.838" stroke="#978FED" stroke-width="1.2136"/>
<path d="M97.8595 129.421V148.838" stroke="#978FED" stroke-width="1.2136"/>
<path d="M101.096 129.421V148.838" stroke="#978FED" stroke-width="1.2136"/>
<path d="M104.332 129.421V148.838" stroke="#978FED" stroke-width="1.2136"/>
<path d="M107.569 129.421V148.838" stroke="#978FED" stroke-width="1.2136"/>
<path d="M110.805 129.421V148.838" stroke="#978FED" stroke-width="1.2136"/>
<path d="M114.041 129.421V148.838" stroke="#978FED" stroke-width="1.2136"/>
<path d="M117.277 129.421V148.838" stroke="#978FED" stroke-width="1.2136"/>
<path d="M120.514 129.421V148.838" stroke="#978FED" stroke-width="1.2136"/>
<path d="M123.75 129.421V148.838" stroke="#978FED" stroke-width="1.2136"/>
<path d="M126.986 129.421V148.838" stroke="#978FED" stroke-width="1.2136"/>
<path d="M130.223 129.421V148.838" stroke="#978FED" stroke-width="1.2136"/>
<path d="M133.458 129.421V148.838" stroke="#978FED" stroke-width="1.2136"/>
<path d="M136.694 129.421V148.838" stroke="#978FED" stroke-width="1.2136"/>
<path d="M139.931 129.421V148.838" stroke="#978FED" stroke-width="1.2136"/>
<path d="M143.167 129.421V148.838" stroke="#978FED" stroke-width="1.2136"/>
<path d="M146.403 129.421V148.838" stroke="#978FED" stroke-width="1.2136"/>
<path d="M149.64 129.421V148.838" stroke="#978FED" stroke-width="1.2136"/>
<path d="M152.876 129.421V148.838" stroke="#978FED" stroke-width="1.2136"/>
<path d="M156.112 129.421V148.838" stroke="#978FED" stroke-width="1.2136"/>
<path d="M159.349 129.421V148.838" stroke="#978FED" stroke-width="1.2136"/>
<path d="M162.585 129.421V148.838" stroke="#978FED" stroke-width="1.2136"/>
<path d="M165.821 129.421V148.838" stroke="#978FED" stroke-width="1.2136"/>
<path d="M169.058 129.421V148.838" stroke="#978FED" stroke-width="1.2136"/>
<path d="M172.294 129.421V148.838" stroke="#978FED" stroke-width="1.2136"/>
<path d="M175.529 129.421V148.838" stroke="#978FED" stroke-width="1.2136"/>
<path d="M178.767 129.421V148.838" stroke="#978FED" stroke-width="1.2136"/>
<path d="M182.002 129.421V148.838" stroke="#978FED" stroke-width="1.2136"/>
<path d="M185.238 129.421V148.838" stroke="#978FED" stroke-width="1.2136"/>
</g>
<g clip-path="url(#clip1_229_14043)">
<rect width="167.476" height="4.85438" transform="translate(193.329 136.298)" fill="#BBEEED"/>
<line x1="195.554" y1="129.421" x2="195.554" y2="148.838" stroke="#A4DDDC" stroke-width="1.2136"/>
<path d="M198.184 129.421V148.838" stroke="#A4DDDC" stroke-width="1.2136"/>
<path d="M201.42 129.421V148.838" stroke="#A4DDDC" stroke-width="1.2136"/>
<path d="M204.656 129.421V148.838" stroke="#A4DDDC" stroke-width="1.2136"/>
<path d="M207.893 129.421V148.838" stroke="#A4DDDC" stroke-width="1.2136"/>
<path d="M211.129 129.421V148.838" stroke="#A4DDDC" stroke-width="1.2136"/>
<path d="M214.365 129.421V148.838" stroke="#A4DDDC" stroke-width="1.2136"/>
<path d="M217.601 129.421V148.838" stroke="#A4DDDC" stroke-width="1.2136"/>
<path d="M220.837 129.421V148.838" stroke="#A4DDDC" stroke-width="1.2136"/>
<path d="M224.073 129.421V148.838" stroke="#A4DDDC" stroke-width="1.2136"/>
<path d="M227.31 129.421V148.838" stroke="#A4DDDC" stroke-width="1.2136"/>
<path d="M230.546 129.421V148.838" stroke="#A4DDDC" stroke-width="1.2136"/>
<path d="M233.782 129.421V148.838" stroke="#A4DDDC" stroke-width="1.2136"/>
<path d="M237.019 129.421V148.838" stroke="#A4DDDC" stroke-width="1.2136"/>
<path d="M240.255 129.421V148.838" stroke="#A4DDDC" stroke-width="1.2136"/>
<path d="M243.491 129.421V148.838" stroke="#A4DDDC" stroke-width="1.2136"/>
<path d="M246.728 129.421V148.838" stroke="#A4DDDC" stroke-width="1.2136"/>
<path d="M249.964 129.421V148.838" stroke="#A4DDDC" stroke-width="1.2136"/>
<path d="M253.2 129.421V148.838" stroke="#A4DDDC" stroke-width="1.2136"/>
<path d="M256.436 129.421V148.838" stroke="#A4DDDC" stroke-width="1.2136"/>
<path d="M259.673 129.421V148.838" stroke="#A4DDDC" stroke-width="1.2136"/>
<path d="M262.908 129.421V148.838" stroke="#A4DDDC" stroke-width="1.2136"/>
<path d="M266.145 129.421V148.838" stroke="#A4DDDC" stroke-width="1.2136"/>
<path d="M269.381 129.421V148.838" stroke="#A4DDDC" stroke-width="1.2136"/>
<path d="M272.617 129.421V148.838" stroke="#A4DDDC" stroke-width="1.2136"/>
<path d="M275.854 129.421V148.838" stroke="#A4DDDC" stroke-width="1.2136"/>
<path d="M279.09 129.421V148.838" stroke="#A4DDDC" stroke-width="1.2136"/>
<path d="M282.326 129.421V148.838" stroke="#A4DDDC" stroke-width="1.2136"/>
<path d="M285.563 129.421V148.838" stroke="#A4DDDC" stroke-width="1.2136"/>
<path d="M288.799 129.421V148.838" stroke="#A4DDDC" stroke-width="1.2136"/>
<path d="M292.035 129.421V148.838" stroke="#A4DDDC" stroke-width="1.2136"/>
<path d="M295.272 129.421V148.838" stroke="#A4DDDC" stroke-width="1.2136"/>
<path d="M298.508 129.421V148.838" stroke="#A4DDDC" stroke-width="1.2136"/>
<path d="M301.743 129.421V148.838" stroke="#A4DDDC" stroke-width="1.2136"/>
<path d="M304.981 129.421V148.838" stroke="#A4DDDC" stroke-width="1.2136"/>
<path d="M308.216 129.421V148.838" stroke="#A4DDDC" stroke-width="1.2136"/>
<path d="M311.452 129.421V148.838" stroke="#A4DDDC" stroke-width="1.2136"/>
<path d="M314.689 129.421V148.838" stroke="#A4DDDC" stroke-width="1.2136"/>
<path d="M317.925 129.421V148.838" stroke="#A4DDDC" stroke-width="1.2136"/>
<path d="M321.161 129.421V148.838" stroke="#A4DDDC" stroke-width="1.2136"/>
<path d="M324.398 129.421V148.838" stroke="#A4DDDC" stroke-width="1.2136"/>
<path d="M327.634 129.421V148.838" stroke="#A4DDDC" stroke-width="1.2136"/>
<path d="M330.87 129.421V148.838" stroke="#A4DDDC" stroke-width="1.2136"/>
<path d="M334.107 129.421V148.838" stroke="#A4DDDC" stroke-width="1.2136"/>
<path d="M337.343 129.421V148.838" stroke="#A4DDDC" stroke-width="1.2136"/>
<path d="M340.579 129.421V148.838" stroke="#A4DDDC" stroke-width="1.2136"/>
<path d="M343.815 129.421V148.838" stroke="#A4DDDC" stroke-width="1.2136"/>
<path d="M347.051 129.421V148.838" stroke="#A4DDDC" stroke-width="1.2136"/>
<path d="M350.287 129.421V148.838" stroke="#A4DDDC" stroke-width="1.2136"/>
<path d="M353.524 129.421V148.838" stroke="#A4DDDC" stroke-width="1.2136"/>
<path d="M356.76 129.421V148.838" stroke="#A4DDDC" stroke-width="1.2136"/>
<path d="M359.996 129.421V148.838" stroke="#A4DDDC" stroke-width="1.2136"/>
</g>
<g clip-path="url(#clip2_229_14043)">
<rect width="63.916" height="4.85438" transform="translate(367.277 136.298)" fill="#FBDE9D"/>
<path d="M368.897 129.421V148.838" stroke="#F6CF7D" stroke-width="1.2136"/>
<path d="M372.133 129.421V148.838" stroke="#F6CF7D" stroke-width="1.2136"/>
<path d="M375.369 129.421V148.838" stroke="#F6CF7D" stroke-width="1.2136"/>
<path d="M378.605 129.421V148.838" stroke="#F6CF7D" stroke-width="1.2136"/>
<path d="M381.841 129.421V148.838" stroke="#F6CF7D" stroke-width="1.2136"/>
<path d="M385.077 129.421V148.838" stroke="#F6CF7D" stroke-width="1.2136"/>
<path d="M388.314 129.421V148.838" stroke="#F6CF7D" stroke-width="1.2136"/>
<path d="M391.55 129.421V148.838" stroke="#F6CF7D" stroke-width="1.2136"/>
<path d="M394.786 129.421V148.838" stroke="#F6CF7D" stroke-width="1.2136"/>
<path d="M398.023 129.421V148.838" stroke="#F6CF7D" stroke-width="1.2136"/>
<path d="M401.259 129.421V148.838" stroke="#F6CF7D" stroke-width="1.2136"/>
<path d="M404.495 129.421V148.838" stroke="#F6CF7D" stroke-width="1.2136"/>
<path d="M407.732 129.421V148.838" stroke="#F6CF7D" stroke-width="1.2136"/>
<path d="M410.968 129.421V148.838" stroke="#F6CF7D" stroke-width="1.2136"/>
<path d="M414.204 129.421V148.838" stroke="#F6CF7D" stroke-width="1.2136"/>
<path d="M417.441 129.421V148.838" stroke="#F6CF7D" stroke-width="1.2136"/>
<path d="M420.677 129.421V148.838" stroke="#F6CF7D" stroke-width="1.2136"/>
<path d="M423.913 129.421V148.838" stroke="#F6CF7D" stroke-width="1.2136"/>
<path d="M427.149 129.421V148.838" stroke="#F6CF7D" stroke-width="1.2136"/>
<path d="M430.385 129.421V148.838" stroke="#F6CF7D" stroke-width="1.2136"/>
</g>
<g clip-path="url(#clip3_229_14043)">
<path d="M437.666 136.298H593.815C595.156 136.298 596.242 137.385 596.242 138.725C596.242 140.066 595.156 141.152 593.815 141.152H437.666V136.298Z" fill="#95A1FC"/>
<line x1="438.273" y1="129.421" x2="438.273" y2="148.838" stroke="#697BE9" stroke-width="1.2136"/>
<path d="M440.902 129.421V148.838" stroke="#697BE9" stroke-width="1.2136"/>
<path d="M444.139 129.421V148.838" stroke="#697BE9" stroke-width="1.2136"/>
<path d="M447.375 129.421V148.838" stroke="#697BE9" stroke-width="1.2136"/>
<path d="M450.611 129.421V148.838" stroke="#697BE9" stroke-width="1.2136"/>
<path d="M453.848 129.421V148.838" stroke="#697BE9" stroke-width="1.2136"/>
<path d="M457.084 129.421V148.838" stroke="#697BE9" stroke-width="1.2136"/>
<path d="M460.319 129.421V148.838" stroke="#697BE9" stroke-width="1.2136"/>
<path d="M463.556 129.421V148.838" stroke="#697BE9" stroke-width="1.2136"/>
<path d="M466.792 129.421V148.838" stroke="#697BE9" stroke-width="1.2136"/>
<path d="M470.028 129.421V148.838" stroke="#697BE9" stroke-width="1.2136"/>
<path d="M473.265 129.421V148.838" stroke="#697BE9" stroke-width="1.2136"/>
<path d="M476.501 129.421V148.838" stroke="#697BE9" stroke-width="1.2136"/>
<path d="M479.737 129.421V148.838" stroke="#697BE9" stroke-width="1.2136"/>
<path d="M482.974 129.421V148.838" stroke="#697BE9" stroke-width="1.2136"/>
<path d="M486.21 129.421V148.838" stroke="#697BE9" stroke-width="1.2136"/>
<path d="M489.446 129.421V148.838" stroke="#697BE9" stroke-width="1.2136"/>
<path d="M492.683 129.421V148.838" stroke="#697BE9" stroke-width="1.2136"/>
<path d="M495.918 129.421V148.838" stroke="#697BE9" stroke-width="1.2136"/>
<path d="M499.155 129.421V148.838" stroke="#697BE9" stroke-width="1.2136"/>
<path d="M502.392 129.421V148.838" stroke="#697BE9" stroke-width="1.2136"/>
<path d="M505.627 129.421V148.838" stroke="#697BE9" stroke-width="1.2136"/>
<path d="M508.863 129.421V148.838" stroke="#697BE9" stroke-width="1.2136"/>
<path d="M512.1 129.421V148.838" stroke="#697BE9" stroke-width="1.2136"/>
<path d="M515.336 129.421V148.838" stroke="#697BE9" stroke-width="1.2136"/>
<path d="M518.572 129.421V148.838" stroke="#697BE9" stroke-width="1.2136"/>
<path d="M521.809 129.421V148.838" stroke="#697BE9" stroke-width="1.2136"/>
<path d="M525.045 129.421V148.838" stroke="#697BE9" stroke-width="1.2136"/>
<path d="M528.281 129.421V148.838" stroke="#697BE9" stroke-width="1.2136"/>
<path d="M531.518 129.421V148.838" stroke="#697BE9" stroke-width="1.2136"/>
<path d="M534.754 129.421V148.838" stroke="#697BE9" stroke-width="1.2136"/>
<path d="M537.99 129.421V148.838" stroke="#697BE9" stroke-width="1.2136"/>
<path d="M541.227 129.421V148.838" stroke="#697BE9" stroke-width="1.2136"/>
<path d="M544.463 129.421V148.838" stroke="#697BE9" stroke-width="1.2136"/>
<path d="M547.698 129.421V148.838" stroke="#697BE9" stroke-width="1.2136"/>
<path d="M550.935 129.421V148.838" stroke="#697BE9" stroke-width="1.2136"/>
<path d="M554.171 129.421V148.838" stroke="#697BE9" stroke-width="1.2136"/>
<path d="M557.407 129.421V148.838" stroke="#697BE9" stroke-width="1.2136"/>
<path d="M560.644 129.421V148.838" stroke="#697BE9" stroke-width="1.2136"/>
<path d="M563.88 129.421V148.838" stroke="#697BE9" stroke-width="1.2136"/>
<path d="M567.116 129.421V148.838" stroke="#697BE9" stroke-width="1.2136"/>
<path d="M570.353 129.421V148.838" stroke="#697BE9" stroke-width="1.2136"/>
<path d="M573.589 129.421V148.838" stroke="#697BE9" stroke-width="1.2136"/>
<path d="M576.825 129.421V148.838" stroke="#697BE9" stroke-width="1.2136"/>
<path d="M580.062 129.421V148.838" stroke="#697BE9" stroke-width="1.2136"/>
<path d="M583.298 129.421V148.838" stroke="#697BE9" stroke-width="1.2136"/>
<path d="M586.533 129.421V148.838" stroke="#697BE9" stroke-width="1.2136"/>
<path d="M589.77 129.421V148.838" stroke="#697BE9" stroke-width="1.2136"/>
<path d="M593.006 129.421V148.838" stroke="#697BE9" stroke-width="1.2136"/>
<path d="M596.242 129.421V148.838" stroke="#697BE9" stroke-width="1.2136"/>
</g>
<rect x="68.7327" y="170.683" width="257.282" height="63.89" rx="6.06798" fill="white"/>
<rect x="68.7327" y="170.683" width="257.282" height="63.89" rx="6.06798" stroke="#F2F2F2" stroke-width="0.809064"/>
<g clip-path="url(#clip4_229_14043)">
<circle cx="80.4643" cy="187.488" r="2.42719" fill="#978FED"/>
</g>
<path d="M92.0432 190.987H90.4504L93.3505 182.75H95.1927L98.0968 190.987H96.504L94.3038 184.439H94.2394L92.0432 190.987ZM92.0955 187.757H96.4396V188.956H92.0955V187.757ZM103.121 185.014C103.084 184.663 102.926 184.389 102.647 184.194C102.371 183.998 102.011 183.9 101.569 183.9C101.258 183.9 100.991 183.947 100.768 184.041C100.546 184.135 100.376 184.262 100.258 184.423C100.14 184.584 100.079 184.767 100.077 184.974C100.077 185.146 100.115 185.294 100.193 185.42C100.274 185.546 100.382 185.654 100.519 185.742C100.656 185.828 100.807 185.9 100.974 185.959C101.14 186.018 101.307 186.068 101.476 186.108L102.249 186.301C102.56 186.374 102.859 186.472 103.146 186.595C103.435 186.718 103.694 186.874 103.922 187.062C104.153 187.249 104.335 187.476 104.469 187.741C104.603 188.007 104.67 188.318 104.67 188.674C104.67 189.157 104.547 189.582 104.3 189.95C104.053 190.314 103.697 190.6 103.23 190.806C102.766 191.01 102.204 191.112 101.545 191.112C100.904 191.112 100.347 191.013 99.8754 190.814C99.4062 190.616 99.0388 190.326 98.7733 189.946C98.5105 189.565 98.3684 189.101 98.347 188.554H99.8151C99.8366 188.841 99.925 189.079 100.081 189.27C100.236 189.46 100.439 189.602 100.688 189.696C100.94 189.79 101.222 189.837 101.533 189.837C101.857 189.837 102.141 189.789 102.385 189.692C102.632 189.593 102.825 189.456 102.965 189.282C103.104 189.105 103.175 188.898 103.178 188.662C103.175 188.448 103.112 188.271 102.989 188.131C102.865 187.989 102.692 187.871 102.47 187.777C102.25 187.681 101.993 187.595 101.698 187.52L100.76 187.279C100.082 187.104 99.5456 186.84 99.1514 186.486C98.7599 186.13 98.5642 185.656 98.5642 185.066C98.5642 184.581 98.6956 184.156 98.9583 183.791C99.2238 183.427 99.5845 183.144 100.04 182.943C100.496 182.739 101.012 182.637 101.589 182.637C102.174 182.637 102.686 182.739 103.125 182.943C103.568 183.144 103.915 183.424 104.167 183.783C104.419 184.14 104.549 184.55 104.557 185.014H103.121ZM110.073 185.014C110.035 184.663 109.877 184.389 109.598 184.194C109.322 183.998 108.963 183.9 108.52 183.9C108.209 183.9 107.942 183.947 107.72 184.041C107.497 184.135 107.327 184.262 107.209 184.423C107.091 184.584 107.031 184.767 107.028 184.974C107.028 185.146 107.067 185.294 107.145 185.42C107.225 185.546 107.334 185.654 107.47 185.742C107.607 185.828 107.759 185.9 107.925 185.959C108.091 186.018 108.259 186.068 108.428 186.108L109.2 186.301C109.511 186.374 109.81 186.472 110.097 186.595C110.387 186.718 110.645 186.874 110.873 187.062C111.104 187.249 111.286 187.476 111.42 187.741C111.554 188.007 111.621 188.318 111.621 188.674C111.621 189.157 111.498 189.582 111.251 189.95C111.005 190.314 110.648 190.6 110.181 190.806C109.717 191.01 109.156 191.112 108.496 191.112C107.855 191.112 107.299 191.013 106.827 190.814C106.357 190.616 105.99 190.326 105.725 189.946C105.462 189.565 105.32 189.101 105.298 188.554H106.766C106.788 188.841 106.876 189.079 107.032 189.27C107.187 189.46 107.39 189.602 107.639 189.696C107.891 189.79 108.173 189.837 108.484 189.837C108.808 189.837 109.093 189.789 109.337 189.692C109.583 189.593 109.776 189.456 109.916 189.282C110.055 189.105 110.126 188.898 110.129 188.662C110.126 188.448 110.063 188.271 109.94 188.131C109.817 187.989 109.644 187.871 109.421 187.777C109.201 187.681 108.944 187.595 108.649 187.52L107.712 187.279C107.033 187.104 106.497 186.84 106.103 186.486C105.711 186.13 105.515 185.656 105.515 185.066C105.515 184.581 105.647 184.156 105.91 183.791C106.175 183.427 106.536 183.144 106.992 182.943C107.448 182.739 107.964 182.637 108.54 182.637C109.125 182.637 109.637 182.739 110.077 182.943C110.519 183.144 110.867 183.424 111.119 183.783C111.371 184.14 111.501 184.55 111.509 185.014H110.073ZM112.547 190.987V182.75H117.905V184.001H114.04V186.237H117.627V187.488H114.04V189.736H117.937V190.987H112.547ZM118.661 184.001V182.75H125.233V184.001H122.687V190.987H121.207V184.001H118.661ZM128.501 190.987V182.75H131.59C132.223 182.75 132.754 182.86 133.183 183.079C133.615 183.299 133.94 183.608 134.16 184.005C134.383 184.399 134.494 184.859 134.494 185.384C134.494 185.912 134.382 186.371 134.156 186.76C133.934 187.146 133.605 187.445 133.171 187.657C132.736 187.866 132.203 187.971 131.57 187.971H129.37V186.732H131.369C131.739 186.732 132.042 186.681 132.278 186.579C132.514 186.474 132.688 186.323 132.801 186.124C132.916 185.923 132.974 185.676 132.974 185.384C132.974 185.092 132.916 184.843 132.801 184.636C132.686 184.427 132.51 184.269 132.274 184.161C132.038 184.051 131.734 183.996 131.361 183.996H129.993V190.987H128.501ZM132.757 187.255L134.796 190.987H133.131L131.128 187.255H132.757ZM135.463 190.987V182.75H140.821V184.001H136.956V186.237H140.544V187.488H136.956V189.736H140.853V190.987H135.463ZM148.99 185.529H147.486C147.443 185.282 147.364 185.064 147.248 184.873C147.133 184.68 146.99 184.517 146.818 184.383C146.646 184.249 146.451 184.148 146.231 184.081C146.014 184.011 145.779 183.976 145.527 183.976C145.079 183.976 144.682 184.089 144.336 184.314C143.99 184.537 143.72 184.864 143.524 185.296C143.328 185.725 143.23 186.249 143.23 186.868C143.23 187.499 143.328 188.03 143.524 188.461C143.722 188.89 143.993 189.215 144.336 189.435C144.682 189.652 145.078 189.76 145.523 189.76C145.77 189.76 146 189.728 146.215 189.664C146.432 189.597 146.626 189.499 146.798 189.37C146.972 189.242 147.118 189.083 147.236 188.896C147.357 188.708 147.44 188.493 147.486 188.252L148.99 188.26C148.934 188.652 148.812 189.019 148.624 189.362C148.439 189.706 148.196 190.009 147.896 190.271C147.596 190.531 147.244 190.735 146.842 190.883C146.44 191.028 145.994 191.1 145.503 191.1C144.779 191.1 144.133 190.932 143.564 190.597C142.996 190.262 142.548 189.778 142.221 189.145C141.893 188.512 141.73 187.753 141.73 186.868C141.73 185.981 141.895 185.222 142.225 184.592C142.554 183.959 143.004 183.475 143.572 183.14C144.141 182.805 144.784 182.637 145.503 182.637C145.961 182.637 146.388 182.701 146.782 182.83C147.176 182.959 147.527 183.148 147.836 183.397C148.144 183.644 148.398 183.947 148.596 184.306C148.797 184.663 148.928 185.07 148.99 185.529ZM149.952 190.987V182.75H155.31V184.001H151.444V186.237H155.032V187.488H151.444V189.736H155.342V190.987H149.952ZM157.92 182.75V190.987H156.428V182.75H157.92ZM160.234 182.75L162.378 189.234H162.462L164.602 182.75H166.243L163.339 190.987H161.497L158.597 182.75H160.234ZM166.924 190.987V182.75H172.281V184.001H168.416V186.237H172.004V187.488H168.416V189.736H172.314V190.987H166.924ZM176.191 190.987H173.399V182.75H176.247C177.065 182.75 177.767 182.914 178.355 183.244C178.945 183.571 179.398 184.042 179.714 184.656C180.031 185.27 180.189 186.005 180.189 186.86C180.189 187.718 180.029 188.456 179.71 189.073C179.394 189.689 178.937 190.163 178.339 190.493C177.743 190.822 177.027 190.987 176.191 190.987ZM174.892 189.696H176.118C176.692 189.696 177.171 189.592 177.554 189.382C177.938 189.171 178.226 188.855 178.419 188.437C178.612 188.016 178.709 187.491 178.709 186.86C178.709 186.23 178.612 185.707 178.419 185.292C178.226 184.873 177.94 184.561 177.562 184.354C177.187 184.145 176.72 184.041 176.163 184.041H174.892V189.696Z" fill="#7A7A7A"/>
<path d="M84.7533 206.147V220.269H82.6157V208.284H82.5329L79.1542 210.491V208.45L82.6777 206.147H84.7533ZM89.6588 218.338L89.5554 219.089C89.4864 219.641 89.3692 220.216 89.2037 220.813C89.0428 221.415 88.875 221.974 88.7003 222.489C88.5302 223.004 88.39 223.413 88.2797 223.716H86.8179C86.8776 223.431 86.9604 223.045 87.0661 222.558C87.1718 222.075 87.2753 221.535 87.3764 220.937C87.4775 220.34 87.5534 219.731 87.6039 219.11L87.6729 218.338H89.6588ZM95.3849 206.147V220.269H93.2473V208.284H93.1645L89.7858 210.491V208.45L93.3093 206.147H95.3849ZM98.5889 220.269V206.147H100.72V212.89H100.892L106.815 206.147H109.498L103.802 212.504L109.518 220.269H106.953L102.388 213.959L100.72 215.876V220.269H98.5889Z" fill="#242424"/>
<rect x="118.128" y="205.65" width="36.4725" height="16.2363" rx="3.23625" fill="#E0F0E4"/>
<path d="M124.352 216.083V211.421H125.279V216.083H124.352ZM122.486 214.214V213.29H127.148V214.214H122.486ZM131.092 217.365C130.618 217.365 130.195 217.283 129.823 217.12C129.453 216.957 129.16 216.731 128.944 216.441C128.73 216.149 128.615 215.811 128.599 215.427H129.682C129.696 215.637 129.766 215.818 129.892 215.972C130.021 216.124 130.189 216.241 130.395 216.324C130.602 216.407 130.832 216.448 131.085 216.448C131.363 216.448 131.609 216.4 131.823 216.303C132.039 216.207 132.208 216.072 132.33 215.9C132.451 215.725 132.512 215.524 132.512 215.296C132.512 215.06 132.451 214.852 132.33 214.672C132.21 214.491 132.034 214.348 131.802 214.245C131.572 214.141 131.294 214.09 130.968 214.09H130.371V213.221H130.968C131.23 213.221 131.46 213.174 131.657 213.08C131.857 212.985 132.014 212.854 132.126 212.687C132.239 212.516 132.295 212.318 132.295 212.09C132.295 211.872 132.246 211.682 132.147 211.521C132.05 211.358 131.912 211.23 131.733 211.139C131.556 211.047 131.347 211.001 131.106 211.001C130.876 211.001 130.661 211.043 130.461 211.128C130.263 211.211 130.102 211.33 129.978 211.487C129.854 211.641 129.787 211.826 129.778 212.042H128.747C128.759 211.66 128.872 211.325 129.085 211.035C129.301 210.745 129.586 210.519 129.94 210.356C130.294 210.193 130.687 210.111 131.119 210.111C131.572 210.111 131.963 210.2 132.292 210.377C132.623 210.551 132.878 210.785 133.057 211.076C133.239 211.368 133.328 211.688 133.326 212.035C133.328 212.43 133.218 212.766 132.995 213.042C132.774 213.317 132.48 213.503 132.112 213.597V213.652C132.581 213.723 132.944 213.909 133.202 214.21C133.462 214.512 133.59 214.885 133.588 215.331C133.59 215.719 133.482 216.068 133.264 216.376C133.048 216.684 132.752 216.926 132.378 217.103C132.003 217.278 131.575 217.365 131.092 217.365ZM135.376 217.334C135.187 217.334 135.025 217.267 134.889 217.134C134.754 216.998 134.686 216.835 134.686 216.645C134.686 216.456 134.754 216.295 134.889 216.162C135.025 216.026 135.187 215.958 135.376 215.958C135.564 215.958 135.726 216.026 135.862 216.162C135.997 216.295 136.065 216.456 136.065 216.645C136.065 216.771 136.033 216.887 135.969 216.993C135.907 217.096 135.824 217.179 135.72 217.241C135.617 217.303 135.502 217.334 135.376 217.334ZM137.284 215.889V215.028L140.335 210.208H141.014V211.476H140.583L138.401 214.931V214.986H142.583V215.889H137.284ZM140.632 217.269V215.627L140.639 215.234V210.208H141.649V217.269H140.632ZM147.47 215.945V215.572C147.47 215.306 147.525 215.062 147.636 214.841C147.748 214.618 147.912 214.44 148.125 214.307C148.341 214.171 148.602 214.104 148.908 214.104C149.22 214.104 149.483 214.17 149.694 214.304C149.905 214.437 150.065 214.615 150.173 214.838C150.284 215.061 150.339 215.306 150.339 215.572V215.945C150.339 216.211 150.284 216.456 150.173 216.679C150.063 216.9 149.901 217.078 149.687 217.213C149.476 217.347 149.216 217.413 148.908 217.413C148.598 217.413 148.336 217.347 148.122 217.213C147.908 217.078 147.746 216.9 147.636 216.679C147.525 216.456 147.47 216.211 147.47 215.945ZM148.274 215.572V215.945C148.274 216.142 148.321 216.322 148.415 216.482C148.509 216.643 148.673 216.724 148.908 216.724C149.14 216.724 149.302 216.643 149.394 216.482C149.486 216.322 149.532 216.142 149.532 215.945V215.572C149.532 215.375 149.487 215.195 149.397 215.034C149.31 214.874 149.147 214.793 148.908 214.793C148.678 214.793 148.515 214.874 148.418 215.034C148.322 215.195 148.274 215.375 148.274 215.572ZM143.919 211.904V211.532C143.919 211.265 143.974 211.02 144.085 210.797C144.197 210.574 144.36 210.396 144.574 210.263C144.79 210.129 145.051 210.063 145.357 210.063C145.669 210.063 145.931 210.129 146.143 210.263C146.354 210.396 146.514 210.574 146.622 210.797C146.73 211.02 146.784 211.265 146.784 211.532V211.904C146.784 212.171 146.729 212.415 146.619 212.638C146.511 212.859 146.35 213.037 146.136 213.173C145.924 213.306 145.665 213.373 145.357 213.373C145.044 213.373 144.781 213.306 144.567 213.173C144.356 213.037 144.195 212.859 144.085 212.638C143.974 212.415 143.919 212.171 143.919 211.904ZM144.726 211.532V211.904C144.726 212.102 144.772 212.281 144.864 212.442C144.958 212.603 145.122 212.683 145.357 212.683C145.587 212.683 145.748 212.603 145.839 212.442C145.934 212.281 145.981 212.102 145.981 211.904V211.532C145.981 211.334 145.936 211.155 145.846 210.994C145.757 210.833 145.594 210.752 145.357 210.752C145.127 210.752 144.964 210.833 144.867 210.994C144.773 211.155 144.726 211.334 144.726 211.532ZM144.247 217.269L149.101 210.208H149.925L145.071 217.269H144.247Z" fill="#377E36"/>
<rect x="337.342" y="170.683" width="257.282" height="63.89" rx="6.06798" fill="white"/>
<rect x="337.342" y="170.683" width="257.282" height="63.89" rx="6.06798" stroke="#F2F2F2" stroke-width="0.809064"/>
<g clip-path="url(#clip5_229_14043)">
<circle cx="349.074" cy="187.488" r="2.42719" fill="#A4DDDC"/>
</g>
<path d="M364.072 185.014C364.034 184.663 363.876 184.389 363.597 184.194C363.321 183.998 362.961 183.9 362.519 183.9C362.208 183.9 361.941 183.947 361.719 184.041C361.496 184.135 361.326 184.262 361.208 184.423C361.09 184.584 361.029 184.767 361.027 184.974C361.027 185.146 361.066 185.294 361.143 185.42C361.224 185.546 361.332 185.654 361.469 185.742C361.606 185.828 361.757 185.9 361.924 185.959C362.09 186.018 362.258 186.068 362.426 186.108L363.199 186.301C363.51 186.374 363.809 186.472 364.096 186.595C364.385 186.718 364.644 186.874 364.872 187.062C365.103 187.249 365.285 187.476 365.419 187.741C365.553 188.007 365.62 188.318 365.62 188.674C365.62 189.157 365.497 189.582 365.25 189.95C365.003 190.314 364.647 190.6 364.18 190.806C363.716 191.01 363.155 191.112 362.495 191.112C361.854 191.112 361.298 191.013 360.826 190.814C360.356 190.616 359.989 190.326 359.723 189.946C359.461 189.565 359.319 189.101 359.297 188.554H360.765C360.787 188.841 360.875 189.079 361.031 189.27C361.186 189.46 361.389 189.602 361.638 189.696C361.89 189.79 362.172 189.837 362.483 189.837C362.807 189.837 363.091 189.789 363.336 189.692C363.582 189.593 363.775 189.456 363.915 189.282C364.054 189.105 364.125 188.898 364.128 188.662C364.125 188.448 364.062 188.271 363.939 188.131C363.816 187.989 363.643 187.871 363.42 187.777C363.2 187.681 362.943 187.595 362.648 187.52L361.71 187.279C361.032 187.104 360.496 186.84 360.102 186.486C359.71 186.13 359.514 185.656 359.514 185.066C359.514 184.581 359.646 184.156 359.908 183.791C360.174 183.427 360.535 183.144 360.99 182.943C361.446 182.739 361.963 182.637 362.539 182.637C363.124 182.637 363.636 182.739 364.076 182.943C364.518 183.144 364.865 183.424 365.117 183.783C365.369 184.14 365.5 184.55 365.508 185.014H364.072ZM366.546 190.987V182.75H369.635C370.268 182.75 370.799 182.868 371.228 183.104C371.66 183.34 371.986 183.664 372.205 184.077C372.428 184.487 372.539 184.954 372.539 185.477C372.539 186.005 372.428 186.474 372.205 186.885C371.983 187.295 371.654 187.618 371.22 187.854C370.786 188.087 370.251 188.204 369.615 188.204H367.568V186.977H369.414C369.784 186.977 370.087 186.913 370.323 186.784C370.559 186.655 370.733 186.478 370.846 186.253C370.961 186.028 371.019 185.769 371.019 185.477C371.019 185.184 370.961 184.927 370.846 184.704C370.733 184.482 370.558 184.309 370.319 184.186C370.083 184.06 369.779 183.996 369.406 183.996H368.038V190.987H366.546ZM373.431 190.987V182.75H378.789V184.001H374.923V186.237H378.511V187.488H374.923V189.736H378.821V190.987H373.431ZM386.676 182.75V190.987H385.349L381.467 185.376H381.399V190.987H379.907V182.75H381.242L385.12 188.365H385.192V182.75H386.676ZM390.689 190.987H387.898V182.75H390.746C391.563 182.75 392.266 182.914 392.853 183.244C393.443 183.571 393.896 184.042 394.213 184.656C394.529 185.27 394.687 186.005 394.687 186.86C394.687 187.718 394.528 188.456 394.209 189.073C393.892 189.689 393.435 190.163 392.837 190.493C392.242 190.822 391.526 190.987 390.689 190.987ZM389.39 189.696H390.617C391.191 189.696 391.669 189.592 392.053 189.382C392.436 189.171 392.725 188.855 392.918 188.437C393.111 188.016 393.207 187.491 393.207 186.86C393.207 186.23 393.111 185.707 392.918 185.292C392.725 184.873 392.439 184.561 392.061 184.354C391.685 184.145 391.219 184.041 390.661 184.041H389.39V189.696ZM397.193 182.75V190.987H395.701V182.75H397.193ZM405.174 182.75V190.987H403.847L399.965 185.376H399.897V190.987H398.405V182.75H399.74L403.617 188.365H403.69V182.75H405.174ZM411.914 185.38C411.847 185.163 411.755 184.969 411.637 184.797C411.521 184.623 411.382 184.474 411.218 184.35C411.057 184.227 410.872 184.135 410.663 184.073C410.454 184.009 410.226 183.976 409.979 183.976C409.537 183.976 409.143 184.088 408.797 184.31C408.451 184.533 408.179 184.86 407.98 185.292C407.785 185.721 407.687 186.244 407.687 186.86C407.687 187.483 407.785 188.009 407.98 188.441C408.176 188.873 408.448 189.201 408.797 189.427C409.146 189.649 409.55 189.76 410.012 189.76C410.43 189.76 410.792 189.68 411.098 189.519C411.406 189.358 411.643 189.13 411.81 188.835C411.976 188.538 412.059 188.189 412.059 187.79L412.397 187.842H410.161V186.675H413.503V187.665C413.503 188.37 413.353 188.98 413.053 189.495C412.752 190.01 412.339 190.407 411.814 190.686C411.288 190.962 410.685 191.1 410.004 191.1C409.245 191.1 408.578 190.93 408.005 190.589C407.433 190.246 406.987 189.759 406.665 189.129C406.346 188.496 406.186 187.745 406.186 186.876C406.186 186.211 406.28 185.617 406.468 185.095C406.658 184.572 406.924 184.128 407.264 183.763C407.605 183.396 408.005 183.117 408.463 182.927C408.922 182.733 409.42 182.637 409.959 182.637C410.415 182.637 410.84 182.704 411.234 182.838C411.629 182.969 411.979 183.157 412.284 183.401C412.593 183.645 412.846 183.935 413.045 184.27C413.243 184.605 413.373 184.975 413.435 185.38H411.914Z" fill="#7A7A7A"/>
<path d="M348.005 220.269V218.724L352.783 213.773C353.294 213.235 353.714 212.764 354.045 212.359C354.381 211.95 354.631 211.562 354.797 211.194C354.962 210.826 355.045 210.436 355.045 210.022C355.045 209.553 354.935 209.149 354.714 208.808C354.493 208.464 354.192 208.199 353.811 208.015C353.429 207.827 352.999 207.733 352.521 207.733C352.016 207.733 351.574 207.836 351.197 208.043C350.821 208.25 350.531 208.542 350.329 208.919C350.126 209.296 350.025 209.737 350.025 210.243H347.991C347.991 209.383 348.189 208.631 348.584 207.988C348.979 207.344 349.522 206.845 350.211 206.491C350.901 206.133 351.685 205.954 352.563 205.954C353.45 205.954 354.231 206.131 354.907 206.485C355.588 206.834 356.119 207.312 356.5 207.919C356.882 208.521 357.072 209.201 357.072 209.96C357.072 210.484 356.974 210.997 356.776 211.498C356.583 211.999 356.245 212.557 355.762 213.173C355.28 213.785 354.608 214.527 353.749 215.4L350.942 218.338V218.441H357.3V220.269H348.005ZM361.814 218.338L361.711 219.089C361.642 219.641 361.525 220.216 361.359 220.813C361.198 221.415 361.03 221.974 360.856 222.489C360.686 223.004 360.545 223.413 360.435 223.716H358.973C359.033 223.431 359.116 223.045 359.221 222.558C359.327 222.075 359.431 221.535 359.532 220.937C359.633 220.34 359.709 219.731 359.759 219.11L359.828 218.338H361.814ZM368.294 220.462C367.347 220.462 366.501 220.298 365.756 219.972C365.016 219.646 364.43 219.193 363.998 218.614C363.57 218.03 363.34 217.354 363.308 216.586H365.473C365.501 217.005 365.641 217.368 365.894 217.676C366.151 217.979 366.487 218.214 366.901 218.379C367.314 218.545 367.774 218.627 368.28 218.627C368.836 218.627 369.328 218.531 369.755 218.338C370.187 218.145 370.525 217.876 370.769 217.531C371.013 217.182 371.134 216.779 371.134 216.324C371.134 215.851 371.013 215.435 370.769 215.076C370.53 214.713 370.178 214.428 369.714 214.221C369.254 214.014 368.698 213.911 368.045 213.911H366.852V212.173H368.045C368.569 212.173 369.029 212.079 369.424 211.891C369.824 211.702 370.137 211.44 370.362 211.105C370.587 210.764 370.7 210.367 370.7 209.912C370.7 209.475 370.601 209.096 370.404 208.774C370.21 208.447 369.935 208.192 369.576 208.008C369.222 207.825 368.804 207.733 368.321 207.733C367.861 207.733 367.432 207.818 367.032 207.988C366.636 208.153 366.315 208.392 366.066 208.705C365.818 209.013 365.685 209.383 365.666 209.815H363.605C363.628 209.052 363.853 208.381 364.28 207.802C364.713 207.222 365.283 206.77 365.99 206.443C366.698 206.117 367.484 205.954 368.349 205.954C369.254 205.954 370.036 206.131 370.693 206.485C371.355 206.834 371.865 207.301 372.224 207.884C372.587 208.468 372.766 209.107 372.762 209.801C372.766 210.592 372.546 211.263 372.1 211.815C371.659 212.366 371.07 212.736 370.335 212.925V213.035C371.272 213.178 371.999 213.55 372.514 214.152C373.033 214.755 373.29 215.502 373.286 216.393C373.29 217.17 373.074 217.867 372.638 218.483C372.206 219.099 371.615 219.584 370.866 219.938C370.116 220.287 369.259 220.462 368.294 220.462ZM375.276 220.269V206.147H377.407V212.89H377.579L383.503 206.147H386.185L380.489 212.504L386.206 220.269H383.64L379.076 213.959L377.407 215.876V220.269H375.276Z" fill="#242424"/>
<rect x="394.737" y="205.65" width="39.4725" height="16.2363" rx="3.23625" fill="#E0F0E4"/>
<path d="M401.053 216.083V211.421H401.98V216.083H401.053ZM399.188 214.214V213.29H403.849V214.214H399.188ZM408.109 210.208V217.269H407.04V211.276H406.999L405.309 212.38V211.359L407.071 210.208H408.109ZM412.698 210.208V217.269H411.629V211.276H411.587L409.898 212.38V211.359L411.66 210.208H412.698ZM414.893 217.334C414.704 217.334 414.542 217.267 414.407 217.134C414.271 216.998 414.203 216.835 414.203 216.645C414.203 216.456 414.271 216.295 414.407 216.162C414.542 216.026 414.704 215.958 414.893 215.958C415.081 215.958 415.243 216.026 415.379 216.162C415.515 216.295 415.583 216.456 415.583 216.645C415.583 216.771 415.55 216.887 415.486 216.993C415.424 217.096 415.341 217.179 415.238 217.241C415.134 217.303 415.019 217.334 414.893 217.334ZM416.801 215.889V215.028L419.852 210.208H420.532V211.476H420.101L417.918 214.931V214.986H422.1V215.889H416.801ZM420.149 217.269V215.627L420.156 215.234V210.208H421.166V217.269H420.149ZM426.988 215.945V215.572C426.988 215.306 427.043 215.062 427.153 214.841C427.266 214.618 427.429 214.44 427.643 214.307C427.859 214.171 428.12 214.104 428.425 214.104C428.738 214.104 429 214.17 429.211 214.304C429.423 214.437 429.583 214.615 429.691 214.838C429.801 215.061 429.856 215.306 429.856 215.572V215.945C429.856 216.211 429.801 216.456 429.691 216.679C429.58 216.9 429.418 217.078 429.204 217.213C428.993 217.347 428.733 217.413 428.425 217.413C428.115 217.413 427.853 217.347 427.639 217.213C427.425 217.078 427.263 216.9 427.153 216.679C427.043 216.456 426.988 216.211 426.988 215.945ZM427.791 215.572V215.945C427.791 216.142 427.838 216.322 427.932 216.482C428.026 216.643 428.191 216.724 428.425 216.724C428.657 216.724 428.819 216.643 428.911 216.482C429.003 216.322 429.049 216.142 429.049 215.945V215.572C429.049 215.375 429.004 215.195 428.915 215.034C428.827 214.874 428.664 214.793 428.425 214.793C428.195 214.793 428.032 214.874 427.936 215.034C427.839 215.195 427.791 215.375 427.791 215.572ZM423.436 211.904V211.532C423.436 211.265 423.492 211.02 423.602 210.797C423.715 210.574 423.878 210.396 424.091 210.263C424.308 210.129 424.568 210.063 424.874 210.063C425.187 210.063 425.449 210.129 425.66 210.263C425.872 210.396 426.031 210.574 426.139 210.797C426.247 211.02 426.301 211.265 426.301 211.532V211.904C426.301 212.171 426.246 212.415 426.136 212.638C426.028 212.859 425.867 213.037 425.653 213.173C425.442 213.306 425.182 213.373 424.874 213.373C424.562 213.373 424.298 213.306 424.085 213.173C423.873 213.037 423.712 212.859 423.602 212.638C423.492 212.415 423.436 212.171 423.436 211.904ZM424.243 211.532V211.904C424.243 212.102 424.289 212.281 424.381 212.442C424.475 212.603 424.64 212.683 424.874 212.683C425.104 212.683 425.265 212.603 425.357 212.442C425.451 212.281 425.498 212.102 425.498 211.904V211.532C425.498 211.334 425.453 211.155 425.364 210.994C425.274 210.833 425.111 210.752 424.874 210.752C424.644 210.752 424.481 210.833 424.385 210.994C424.29 211.155 424.243 211.334 424.243 211.532ZM423.764 217.269L428.618 210.208H429.442L424.588 217.269H423.764Z" fill="#377E36"/>
<rect x="67.5188" y="245.9" width="257.282" height="63.89" rx="6.06798" fill="white"/>
<rect x="67.5188" y="245.9" width="257.282" height="63.89" rx="6.06798" stroke="#F2F2F2" stroke-width="0.809064"/>
<g clip-path="url(#clip6_229_14043)">
<circle cx="79.2504" cy="262.705" r="2.42719" fill="#F6CF7D"/>
</g>
<path d="M91.2638 257.966V266.204H89.7715V257.966H91.2638ZM99.2448 257.966V266.204H97.9174L94.0359 260.593H93.9675V266.204H92.4752V257.966H93.8106L97.6882 263.582H97.7606V257.966H99.2448ZM101.568 257.966L103.712 264.45H103.797L105.937 257.966H107.578L104.674 266.204H102.831L99.9313 257.966H101.568ZM108.258 266.204V257.966H113.616V259.217H109.751V261.454H113.338V262.705H109.751V264.953H113.648V266.204H108.258ZM119.211 260.231C119.173 259.88 119.015 259.606 118.736 259.41C118.46 259.215 118.101 259.117 117.658 259.117C117.347 259.117 117.08 259.164 116.858 259.258C116.635 259.351 116.465 259.479 116.347 259.64C116.229 259.801 116.169 259.984 116.166 260.191C116.166 260.362 116.205 260.511 116.283 260.637C116.363 260.763 116.472 260.87 116.608 260.959C116.745 261.045 116.897 261.117 117.063 261.176C117.229 261.235 117.397 261.285 117.566 261.325L118.338 261.518C118.649 261.59 118.948 261.688 119.235 261.812C119.525 261.935 119.783 262.091 120.011 262.278C120.242 262.466 120.424 262.693 120.558 262.958C120.692 263.224 120.759 263.535 120.759 263.891C120.759 264.374 120.636 264.799 120.389 265.166C120.143 265.531 119.786 265.817 119.319 266.023C118.856 266.227 118.294 266.329 117.634 266.329C116.993 266.329 116.437 266.23 115.965 266.031C115.496 265.833 115.128 265.543 114.863 265.162C114.6 264.782 114.458 264.318 114.436 263.771H115.904C115.926 264.058 116.014 264.296 116.17 264.487C116.325 264.677 116.528 264.819 116.777 264.913C117.029 265.007 117.311 265.054 117.622 265.054C117.946 265.054 118.231 265.005 118.475 264.909C118.721 264.81 118.915 264.673 119.054 264.499C119.193 264.322 119.264 264.115 119.267 263.879C119.264 263.665 119.201 263.488 119.078 263.348C118.955 263.206 118.782 263.088 118.559 262.994C118.339 262.898 118.082 262.812 117.787 262.737L116.85 262.496C116.171 262.321 115.635 262.057 115.241 261.703C114.849 261.346 114.654 260.873 114.654 260.283C114.654 259.798 114.785 259.373 115.048 259.008C115.313 258.643 115.674 258.361 116.13 258.159C116.586 257.956 117.102 257.854 117.678 257.854C118.263 257.854 118.775 257.956 119.215 258.159C119.657 258.361 120.005 258.641 120.257 259C120.509 259.357 120.639 259.767 120.647 260.231H119.211ZM121.323 259.217V257.966H127.896V259.217H125.35V266.204H123.869V259.217H121.323ZM130.251 257.966V266.204H128.758V257.966H130.251ZM138.232 257.966V266.204H136.904L133.023 260.593H132.954V266.204H131.462V257.966H132.797L136.675 263.582H136.747V257.966H138.232ZM144.972 260.597C144.905 260.38 144.812 260.185 144.694 260.014C144.579 259.839 144.439 259.691 144.276 259.567C144.115 259.444 143.93 259.351 143.721 259.29C143.512 259.225 143.284 259.193 143.037 259.193C142.595 259.193 142.2 259.304 141.854 259.527C141.508 259.75 141.236 260.077 141.038 260.508C140.842 260.938 140.744 261.46 140.744 262.077C140.744 262.699 140.842 263.226 141.038 263.658C141.234 264.09 141.506 264.418 141.854 264.643C142.203 264.866 142.608 264.977 143.069 264.977C143.487 264.977 143.849 264.897 144.155 264.736C144.464 264.575 144.701 264.347 144.867 264.052C145.033 263.755 145.117 263.406 145.117 263.006L145.454 263.059H143.218V261.892H146.561V262.882C146.561 263.587 146.41 264.197 146.11 264.712C145.81 265.227 145.397 265.624 144.871 265.902C144.346 266.179 143.742 266.317 143.061 266.317C142.302 266.317 141.636 266.146 141.062 265.806C140.491 265.463 140.044 264.976 139.723 264.346C139.403 263.713 139.244 262.962 139.244 262.093C139.244 261.428 139.338 260.834 139.525 260.311C139.716 259.788 139.981 259.345 140.322 258.98C140.662 258.613 141.062 258.334 141.521 258.143C141.979 257.95 142.478 257.854 143.017 257.854C143.473 257.854 143.898 257.921 144.292 258.055C144.686 258.186 145.036 258.374 145.342 258.618C145.65 258.862 145.904 259.152 146.102 259.487C146.3 259.822 146.43 260.192 146.492 260.597H144.972Z" fill="#7A7A7A"/>
<path d="M83.5394 281.364V295.485H81.4018V283.501H81.3191L77.9403 285.708V283.667L81.4639 281.364H83.5394ZM88.4449 293.555L88.3415 294.306C88.2725 294.858 88.1553 295.432 87.9898 296.03C87.8289 296.632 87.6611 297.191 87.4864 297.706C87.3164 298.221 87.1762 298.63 87.0658 298.933H85.604C85.6638 298.648 85.7465 298.262 85.8522 297.775C85.958 297.292 86.0614 296.752 86.1625 296.154C86.2637 295.557 86.3395 294.948 86.3901 294.327L86.459 293.555H88.4449ZM94.9536 295.678C94.0894 295.678 93.3125 295.513 92.623 295.182C91.938 294.846 91.391 294.387 90.9819 293.803C90.5727 293.219 90.3544 292.552 90.3268 291.803H92.3954C92.446 292.41 92.7149 292.909 93.2022 293.3C93.6895 293.69 94.2733 293.886 94.9536 293.886C95.4961 293.886 95.9764 293.761 96.3948 293.513C96.8177 293.26 97.1487 292.913 97.3877 292.472C97.6314 292.031 97.7532 291.527 97.7532 290.962C97.7532 290.387 97.6291 289.875 97.3808 289.424C97.1326 288.974 96.7901 288.62 96.3534 288.362C95.9213 288.105 95.4248 287.974 94.864 287.969C94.4365 287.969 94.0067 288.043 93.5745 288.19C93.1424 288.337 92.7931 288.53 92.5264 288.769L90.575 288.48L91.368 281.364H99.1323V283.191H93.1401L92.6919 287.142H92.7747C93.0505 286.875 93.4159 286.652 93.871 286.473C94.3307 286.294 94.8226 286.204 95.3467 286.204C96.2063 286.204 96.9717 286.409 97.6428 286.818C98.3186 287.227 98.8495 287.785 99.2357 288.493C99.6264 289.197 99.8195 290.006 99.8149 290.921C99.8195 291.835 99.6126 292.651 99.1943 293.368C98.7806 294.086 98.206 294.651 97.4705 295.065C96.7395 295.474 95.9006 295.678 94.9536 295.678ZM101.717 295.485V281.364H103.848V288.107H104.021L109.944 281.364H112.626L106.93 287.721L112.647 295.485H110.082L105.517 289.176L103.848 291.093V295.485H101.717Z" fill="#242424"/>
<rect x="121.914" y="280.867" width="32.4725" height="16.2363" rx="3.23625" fill="#FEECEB"/>
<path d="M129.055 288.507V289.403H125.924V288.507H129.055ZM133.094 285.424V292.485H132.025V286.493H131.984L130.294 287.596V286.576L132.056 285.424H133.094ZM135.289 292.551C135.101 292.551 134.939 292.484 134.803 292.351C134.667 292.215 134.6 292.052 134.6 291.861C134.6 291.673 134.667 291.512 134.803 291.379C134.939 291.243 135.101 291.175 135.289 291.175C135.478 291.175 135.64 291.243 135.775 291.379C135.911 291.512 135.979 291.673 135.979 291.861C135.979 291.988 135.947 292.104 135.882 292.21C135.82 292.313 135.737 292.396 135.634 292.458C135.531 292.52 135.416 292.551 135.289 292.551ZM137.198 291.106V290.244L140.249 285.424H140.928V286.693H140.497L138.315 290.148V290.203H142.497V291.106H137.198ZM140.545 292.485V290.844L140.552 290.451V285.424H141.562V292.485H140.545ZM147.384 291.161V290.789C147.384 290.522 147.439 290.279 147.549 290.058C147.662 289.835 147.825 289.657 148.039 289.524C148.255 289.388 148.516 289.32 148.821 289.32C149.134 289.32 149.396 289.387 149.608 289.52C149.819 289.654 149.979 289.832 150.087 290.055C150.197 290.278 150.252 290.522 150.252 290.789V291.161C150.252 291.428 150.197 291.673 150.087 291.896C149.976 292.116 149.814 292.295 149.601 292.43C149.389 292.563 149.129 292.63 148.821 292.63C148.511 292.63 148.249 292.563 148.035 292.43C147.822 292.295 147.66 292.116 147.549 291.896C147.439 291.673 147.384 291.428 147.384 291.161ZM148.187 290.789V291.161C148.187 291.359 148.234 291.538 148.328 291.699C148.423 291.86 148.587 291.941 148.821 291.941C149.054 291.941 149.216 291.86 149.308 291.699C149.4 291.538 149.446 291.359 149.446 291.161V290.789C149.446 290.591 149.401 290.412 149.311 290.251C149.224 290.09 149.061 290.01 148.821 290.01C148.592 290.01 148.428 290.09 148.332 290.251C148.235 290.412 148.187 290.591 148.187 290.789ZM143.833 287.121V286.748C143.833 286.482 143.888 286.237 143.998 286.014C144.111 285.791 144.274 285.613 144.488 285.48C144.704 285.346 144.965 285.28 145.27 285.28C145.583 285.28 145.845 285.346 146.056 285.48C146.268 285.613 146.428 285.791 146.536 286.014C146.644 286.237 146.698 286.482 146.698 286.748V287.121C146.698 287.387 146.643 287.632 146.532 287.855C146.424 288.076 146.263 288.254 146.05 288.389C145.838 288.523 145.578 288.589 145.27 288.589C144.958 288.589 144.695 288.523 144.481 288.389C144.269 288.254 144.108 288.076 143.998 287.855C143.888 287.632 143.833 287.387 143.833 287.121ZM144.639 286.748V287.121C144.639 287.318 144.685 287.498 144.777 287.659C144.872 287.819 145.036 287.9 145.27 287.9C145.5 287.9 145.661 287.819 145.753 287.659C145.847 287.498 145.894 287.318 145.894 287.121V286.748C145.894 286.551 145.85 286.371 145.76 286.211C145.67 286.05 145.507 285.969 145.27 285.969C145.041 285.969 144.877 286.05 144.781 286.211C144.687 286.371 144.639 286.551 144.639 286.748ZM144.16 292.485L149.015 285.424H149.839L144.984 292.485H144.16Z" fill="#B12F30"/>
<rect x="338.555" y="245.9" width="257.282" height="63.89" rx="6.06798" fill="white"/>
<rect x="338.555" y="245.9" width="257.282" height="63.89" rx="6.06798" stroke="#F2F2F2" stroke-width="0.809064"/>
<g clip-path="url(#clip7_229_14043)">
<circle cx="350.287" cy="262.705" r="2.42719" fill="#697BE9"/>
</g>
<path d="M361.866 266.204H360.273L363.173 257.966H365.015L367.919 266.204H366.326L364.126 259.656H364.062L361.866 266.204ZM361.918 262.974H366.262V264.173H361.918V262.974ZM368.6 266.204V257.966H370.092V264.953H373.72V266.204H368.6ZM374.611 266.204V257.966H376.103V264.953H379.731V266.204H374.611ZM387.662 262.085C387.662 262.973 387.496 263.733 387.163 264.366C386.833 264.996 386.383 265.479 385.812 265.814C385.243 266.149 384.598 266.317 383.877 266.317C383.156 266.317 382.509 266.149 381.938 265.814C381.37 265.476 380.919 264.992 380.587 264.362C380.257 263.729 380.092 262.97 380.092 262.085C380.092 261.198 380.257 260.439 380.587 259.809C380.919 259.176 381.37 258.692 381.938 258.357C382.509 258.021 383.156 257.854 383.877 257.854C384.598 257.854 385.243 258.021 385.812 258.357C386.383 258.692 386.833 259.176 387.163 259.809C387.496 260.439 387.662 261.198 387.662 262.085ZM386.162 262.085C386.162 261.46 386.064 260.934 385.868 260.504C385.675 260.073 385.407 259.747 385.063 259.527C384.72 259.304 384.325 259.193 383.877 259.193C383.429 259.193 383.034 259.304 382.69 259.527C382.347 259.747 382.078 260.073 381.882 260.504C381.689 260.934 381.592 261.46 381.592 262.085C381.592 262.71 381.689 263.238 381.882 263.67C382.078 264.099 382.347 264.425 382.69 264.647C383.034 264.867 383.429 264.977 383.877 264.977C384.325 264.977 384.72 264.867 385.063 264.647C385.407 264.425 385.675 264.099 385.868 263.67C386.064 263.238 386.162 262.71 386.162 262.085ZM395.719 260.746H394.215C394.172 260.499 394.093 260.281 393.978 260.09C393.862 259.897 393.719 259.734 393.547 259.599C393.376 259.465 393.18 259.365 392.96 259.298C392.743 259.228 392.508 259.193 392.256 259.193C391.808 259.193 391.411 259.306 391.065 259.531C390.72 259.754 390.449 260.081 390.253 260.512C390.057 260.942 389.959 261.466 389.959 262.085C389.959 262.715 390.057 263.246 390.253 263.678C390.451 264.107 390.722 264.432 391.065 264.651C391.411 264.869 391.807 264.977 392.252 264.977C392.499 264.977 392.729 264.945 392.944 264.881C393.161 264.814 393.356 264.716 393.527 264.587C393.701 264.458 393.848 264.3 393.966 264.112C394.086 263.925 394.169 263.71 394.215 263.469L395.719 263.477C395.663 263.868 395.541 264.236 395.353 264.579C395.168 264.922 394.926 265.225 394.625 265.488C394.325 265.748 393.974 265.952 393.571 266.1C393.169 266.244 392.723 266.317 392.232 266.317C391.508 266.317 390.862 266.149 390.293 265.814C389.725 265.479 389.277 264.995 388.95 264.362C388.623 263.729 388.459 262.97 388.459 262.085C388.459 261.198 388.624 260.439 388.954 259.809C389.284 259.176 389.733 258.692 390.301 258.357C390.87 258.021 391.513 257.854 392.232 257.854C392.691 257.854 393.117 257.918 393.511 258.047C393.905 258.176 394.257 258.365 394.565 258.614C394.873 258.861 395.127 259.164 395.325 259.523C395.526 259.88 395.658 260.287 395.719 260.746ZM397.64 266.204H396.047L398.947 257.966H400.789L403.693 266.204H402.1L399.9 259.656H399.836L397.64 266.204ZM397.692 262.974H402.036V264.173H397.692V262.974ZM403.016 259.217V257.966H409.589V259.217H407.043V266.204H405.562V259.217H403.016ZM411.944 257.966V266.204H410.451V257.966H411.944ZM420.516 262.085C420.516 262.973 420.35 263.733 420.017 264.366C419.687 264.996 419.237 265.479 418.666 265.814C418.097 266.149 417.452 266.317 416.731 266.317C416.01 266.317 415.363 266.149 414.792 265.814C414.224 265.476 413.773 264.992 413.441 264.362C413.111 263.729 412.946 262.97 412.946 262.085C412.946 261.198 413.111 260.439 413.441 259.809C413.773 259.176 414.224 258.692 414.792 258.357C415.363 258.021 416.01 257.854 416.731 257.854C417.452 257.854 418.097 258.021 418.666 258.357C419.237 258.692 419.687 259.176 420.017 259.809C420.35 260.439 420.516 261.198 420.516 262.085ZM419.016 262.085C419.016 261.46 418.918 260.934 418.722 260.504C418.529 260.073 418.261 259.747 417.917 259.527C417.574 259.304 417.179 259.193 416.731 259.193C416.283 259.193 415.888 259.304 415.544 259.527C415.201 259.747 414.932 260.073 414.736 260.504C414.543 260.934 414.446 261.46 414.446 262.085C414.446 262.71 414.543 263.238 414.736 263.67C414.932 264.099 415.201 264.425 415.544 264.647C415.888 264.867 416.283 264.977 416.731 264.977C417.179 264.977 417.574 264.867 417.917 264.647C418.261 264.425 418.529 264.099 418.722 263.67C418.918 263.238 419.016 262.71 419.016 262.085ZM428.292 257.966V266.204H426.964L423.083 260.593H423.014V266.204H421.522V257.966H422.858L426.735 263.582H426.808V257.966H428.292Z" fill="#7A7A7A"/>
<path d="M354.576 281.364V295.485H352.438V283.501H352.355L348.976 285.708V283.667L352.5 281.364H354.576ZM359.481 293.555L359.378 294.306C359.309 294.858 359.191 295.432 359.026 296.03C358.865 296.632 358.697 297.191 358.523 297.706C358.352 298.221 358.212 298.63 358.102 298.933H356.64C356.7 298.648 356.783 298.262 356.888 297.775C356.994 297.292 357.098 296.752 357.199 296.154C357.3 295.557 357.376 294.948 357.426 294.327L357.495 293.555H359.481ZM365.974 295.678C365.344 295.669 364.724 295.554 364.112 295.334C363.506 295.113 362.954 294.745 362.458 294.23C361.961 293.716 361.563 293.024 361.265 292.155C360.97 291.286 360.823 290.201 360.823 288.9C360.823 287.668 360.945 286.574 361.189 285.618C361.437 284.662 361.793 283.855 362.258 283.198C362.722 282.536 363.283 282.032 363.94 281.688C364.597 281.343 365.335 281.17 366.154 281.17C366.995 281.17 367.742 281.336 368.395 281.667C369.047 281.998 369.576 282.455 369.98 283.039C370.39 283.623 370.649 284.287 370.76 285.032H368.657C368.514 284.443 368.231 283.963 367.808 283.591C367.386 283.218 366.834 283.032 366.154 283.032C365.119 283.032 364.312 283.483 363.733 284.384C363.159 285.285 362.869 286.537 362.864 288.142H362.968C363.211 287.742 363.51 287.402 363.864 287.121C364.223 286.836 364.623 286.618 365.064 286.466C365.51 286.31 365.979 286.232 366.471 286.232C367.289 286.232 368.029 286.432 368.691 286.832C369.358 287.227 369.889 287.774 370.284 288.473C370.679 289.171 370.877 289.971 370.877 290.872C370.877 291.773 370.672 292.589 370.263 293.32C369.859 294.051 369.289 294.63 368.553 295.058C367.818 295.481 366.958 295.688 365.974 295.678ZM365.967 293.886C366.51 293.886 366.995 293.752 367.422 293.486C367.85 293.219 368.188 292.86 368.436 292.41C368.684 291.959 368.808 291.456 368.808 290.9C368.808 290.357 368.686 289.863 368.443 289.417C368.204 288.971 367.873 288.618 367.45 288.355C367.032 288.093 366.553 287.962 366.016 287.962C365.606 287.962 365.227 288.041 364.878 288.197C364.533 288.353 364.23 288.569 363.968 288.845C363.706 289.121 363.499 289.438 363.347 289.797C363.2 290.151 363.126 290.525 363.126 290.921C363.126 291.449 363.248 291.939 363.492 292.389C363.74 292.84 364.078 293.203 364.506 293.479C364.938 293.75 365.425 293.886 365.967 293.886ZM372.773 295.485V281.364H374.903V288.107H375.076L380.999 281.364H383.681L377.986 287.721L383.702 295.485H381.137L376.572 289.176L374.903 291.093V295.485H372.773Z" fill="#242424"/>
<rect x="392.95" y="280.867" width="34.4725" height="16.2363" rx="3.23625" fill="#E0F0E4"/>
<path d="M399.236 291.299V286.638H400.163V291.299H399.236ZM397.371 289.431V288.507H402.032V289.431H397.371ZM403.613 292.485L406.696 286.39V286.338H403.131V285.424H407.799V286.369L404.727 292.485H403.613ZM408.477 292.551C408.289 292.551 408.127 292.484 407.991 292.351C407.856 292.215 407.788 292.052 407.788 291.861C407.788 291.673 407.856 291.512 407.991 291.379C408.127 291.243 408.289 291.175 408.477 291.175C408.666 291.175 408.828 291.243 408.963 291.379C409.099 291.512 409.167 291.673 409.167 291.861C409.167 291.988 409.135 292.104 409.07 292.21C409.008 292.313 408.926 292.396 408.822 292.458C408.719 292.52 408.604 292.551 408.477 292.551ZM412.736 292.603C412.191 292.6 411.726 292.457 411.34 292.172C410.954 291.887 410.658 291.472 410.454 290.927C410.249 290.382 410.147 289.726 410.147 288.958C410.147 288.193 410.249 287.539 410.454 286.997C410.661 286.454 410.957 286.04 411.343 285.755C411.732 285.47 412.196 285.328 412.736 285.328C413.276 285.328 413.739 285.472 414.126 285.759C414.512 286.044 414.807 286.458 415.012 287C415.218 287.54 415.322 288.193 415.322 288.958C415.322 289.728 415.22 290.386 415.015 290.93C414.81 291.473 414.515 291.888 414.129 292.175C413.743 292.46 413.279 292.603 412.736 292.603ZM412.736 291.682C413.214 291.682 413.588 291.449 413.857 290.982C414.128 290.516 414.263 289.841 414.263 288.958C414.263 288.372 414.201 287.877 414.077 287.472C413.955 287.066 413.78 286.758 413.55 286.548C413.322 286.337 413.051 286.231 412.736 286.231C412.26 286.231 411.887 286.466 411.616 286.935C411.344 287.403 411.208 288.078 411.205 288.958C411.205 289.547 411.266 290.044 411.388 290.451C411.512 290.856 411.688 291.163 411.916 291.372C412.143 291.579 412.417 291.682 412.736 291.682ZM420.231 291.161V290.789C420.231 290.522 420.286 290.279 420.396 290.058C420.509 289.835 420.672 289.657 420.886 289.524C421.102 289.388 421.363 289.32 421.668 289.32C421.981 289.32 422.243 289.387 422.454 289.52C422.666 289.654 422.826 289.832 422.934 290.055C423.044 290.278 423.099 290.522 423.099 290.789V291.161C423.099 291.428 423.044 291.673 422.934 291.896C422.823 292.116 422.661 292.295 422.447 292.43C422.236 292.563 421.976 292.63 421.668 292.63C421.358 292.63 421.096 292.563 420.882 292.43C420.668 292.295 420.506 292.116 420.396 291.896C420.286 291.673 420.231 291.428 420.231 291.161ZM421.034 290.789V291.161C421.034 291.359 421.081 291.538 421.175 291.699C421.269 291.86 421.434 291.941 421.668 291.941C421.9 291.941 422.062 291.86 422.154 291.699C422.246 291.538 422.292 291.359 422.292 291.161V290.789C422.292 290.591 422.247 290.412 422.158 290.251C422.071 290.09 421.907 290.01 421.668 290.01C421.438 290.01 421.275 290.09 421.179 290.251C421.082 290.412 421.034 290.591 421.034 290.789ZM416.679 287.121V286.748C416.679 286.482 416.735 286.237 416.845 286.014C416.958 285.791 417.121 285.613 417.334 285.48C417.551 285.346 417.811 285.28 418.117 285.28C418.43 285.28 418.692 285.346 418.903 285.48C419.115 285.613 419.274 285.791 419.382 286.014C419.49 286.237 419.544 286.482 419.544 286.748V287.121C419.544 287.387 419.489 287.632 419.379 287.855C419.271 288.076 419.11 288.254 418.896 288.389C418.685 288.523 418.425 288.589 418.117 288.589C417.805 288.589 417.541 288.523 417.328 288.389C417.116 288.254 416.955 288.076 416.845 287.855C416.735 287.632 416.679 287.387 416.679 287.121ZM417.486 286.748V287.121C417.486 287.318 417.532 287.498 417.624 287.659C417.718 287.819 417.883 287.9 418.117 287.9C418.347 287.9 418.508 287.819 418.6 287.659C418.694 287.498 418.741 287.318 418.741 287.121V286.748C418.741 286.551 418.696 286.371 418.607 286.211C418.517 286.05 418.354 285.969 418.117 285.969C417.887 285.969 417.724 286.05 417.628 286.211C417.533 286.371 417.486 286.551 417.486 286.748ZM417.007 292.485L421.861 285.424H422.685L417.831 292.485H417.007Z" fill="#377E36"/>
</g>
<defs>
<filter id="filter0_d_229_14043" x="0.21896" y="0.939507" width="662.92" height="409.333" filterUnits="userSpaceOnUse" color-interpolation-filters="sRGB">
<feFlood flood-opacity="0" result="BackgroundImageFix"/>
<feColorMatrix in="SourceAlpha" type="matrix" values="0 0 0 0 0 0 0 0 0 0 0 0 0 0 0 0 0 0 127 0" result="hardAlpha"/>
<feOffset dy="33.1815"/>
<feGaussianBlur stdDeviation="22.121"/>
<feComposite in2="hardAlpha" operator="out"/>
<feColorMatrix type="matrix" values="0 0 0 0 0 0 0 0 0 0 0 0 0 0 0 0 0 0 0.25 0"/>
<feBlend mode="normal" in2="BackgroundImageFix" result="effect1_dropShadow_229_14043"/>
<feBlend mode="normal" in="SourceGraphic" in2="effect1_dropShadow_229_14043" result="shape"/>
</filter>
<filter id="filter1_d_229_14043" x="492.524" y="33.0352" width="105.926" height="37.6542" filterUnits="userSpaceOnUse" color-interpolation-filters="sRGB">
<feFlood flood-opacity="0" result="BackgroundImageFix"/>
<feColorMatrix in="SourceAlpha" type="matrix" values="0 0 0 0 0 0 0 0 0 0 0 0 0 0 0 0 0 0 127 0" result="hardAlpha"/>
<feOffset dy="1.61813"/>
<feGaussianBlur stdDeviation="1.61813"/>
<feComposite in2="hardAlpha" operator="out"/>
<feColorMatrix type="matrix" values="0 0 0 0 0 0 0 0 0 0 0 0 0 0 0 0 0 0 0.04 0"/>
<feBlend mode="normal" in2="BackgroundImageFix" result="effect1_dropShadow_229_14043"/>
<feBlend mode="normal" in="SourceGraphic" in2="effect1_dropShadow_229_14043" result="shape"/>
</filter>
<clipPath id="clip0_229_14043">
<path d="M67.1152 138.725C67.1152 137.385 68.2019 136.298 69.5424 136.298H186.857V141.152H69.5424C68.2019 141.152 67.1152 140.066 67.1152 138.725Z" fill="white"/>
</clipPath>
<clipPath id="clip1_229_14043">
<rect width="167.476" height="4.85438" fill="white" transform="translate(193.329 136.298)"/>
</clipPath>
<clipPath id="clip2_229_14043">
<rect width="63.916" height="4.85438" fill="white" transform="translate(367.277 136.298)"/>
</clipPath>
<clipPath id="clip3_229_14043">
<path d="M437.666 136.298H593.815C595.156 136.298 596.242 137.385 596.242 138.725C596.242 140.066 595.156 141.152 593.815 141.152H437.666V136.298Z" fill="white"/>
</clipPath>
<clipPath id="clip4_229_14043">
<rect width="4.85438" height="4.85438" fill="white" transform="translate(78.0371 185.061)"/>
</clipPath>
<clipPath id="clip5_229_14043">
<rect width="4.85438" height="4.85438" fill="white" transform="translate(346.646 185.061)"/>
</clipPath>
<clipPath id="clip6_229_14043">
<rect width="4.85438" height="4.85438" fill="white" transform="translate(76.8232 260.277)"/>
</clipPath>
<clipPath id="clip7_229_14043">
<rect width="4.85438" height="4.85438" fill="white" transform="translate(347.859 260.277)"/>
</clipPath>
</defs>
</svg>
