<svg width="132" height="132" viewBox="0 0 132 132" fill="none" xmlns="http://www.w3.org/2000/svg">
<g clip-path="url(#clip0_1322_23224)">
<path d="M120.811 60.6836C120.494 60.6836 120.185 60.7491 119.912 60.9036L111.275 65.8916C110.716 66.2138 110.376 66.8219 110.376 67.4691V77.4271C110.376 78.0737 110.716 78.6811 111.275 79.0041L113.53 80.3063C114.626 80.8464 115.03 80.8379 115.529 80.8379C117.152 80.8379 118.078 79.8533 118.078 78.1423V68.3125C118.078 68.1736 117.958 68.0742 117.822 68.0742H116.74C116.601 68.0742 116.483 68.1736 116.483 68.3125V78.1423C116.483 78.9006 115.693 79.6634 114.411 79.0224L112.063 77.6471C111.98 77.6019 111.916 77.5222 111.916 77.4271V67.4688C111.916 67.3745 111.979 67.2784 112.063 67.2305L120.682 62.2611C120.721 62.2383 120.766 62.2263 120.811 62.2263C120.856 62.2263 120.9 62.2383 120.939 62.2611L129.558 67.2308C129.641 67.2802 129.705 67.3717 129.705 67.4693V77.4274C129.705 77.5224 129.657 77.6198 129.577 77.6657L120.939 82.6354C120.865 82.6795 120.763 82.6795 120.682 82.6354L118.463 81.3151C118.43 81.2968 118.392 81.2872 118.353 81.2872C118.315 81.2872 118.277 81.2968 118.243 81.3151C117.631 81.6622 117.516 81.7025 116.941 81.9018C116.8 81.9513 116.585 82.028 117.015 82.2689L119.912 83.974C120.185 84.1316 120.495 84.214 120.811 84.2126C121.126 84.2146 121.436 84.1323 121.709 83.9743L130.347 79.0043C130.906 78.6793 131.246 78.074 131.246 77.4274V67.4691C131.246 66.8222 130.906 66.2151 130.347 65.8921L121.709 60.9041C121.439 60.7494 121.128 60.6838 120.811 60.6838L120.811 60.6836Z" fill="#83CD29"/>
<path d="M123.122 67.7969C120.662 67.7969 119.198 68.8437 119.198 70.5845C119.198 72.4727 120.652 72.9916 123.012 73.2251C125.836 73.5017 126.056 73.9164 126.056 74.4723C126.056 75.4365 125.288 75.8476 123.471 75.8476C121.188 75.8476 120.686 75.2777 120.518 74.1422C120.498 74.0203 120.404 73.922 120.28 73.922H119.161C119.023 73.922 118.904 74.0407 118.904 74.1789C118.904 75.6325 119.695 77.3514 123.471 77.3514C126.204 77.3514 127.78 76.2786 127.78 74.3988C127.78 72.5357 126.507 72.0353 123.856 71.6849C121.177 71.3303 120.921 71.1567 120.921 70.5295C120.921 70.0116 121.138 69.3188 123.122 69.3188C124.895 69.3188 125.55 69.7011 125.818 70.8963C125.841 71.0084 125.94 71.0979 126.056 71.0979H127.175C127.244 71.0979 127.311 71.0556 127.359 71.0061C127.405 70.9533 127.439 70.894 127.432 70.8228C127.259 68.7649 125.886 67.7969 123.122 67.7969Z" fill="#83CD29"/>
<path d="M70.0318 47.6173C69.9353 47.6174 69.8404 47.6426 69.7566 47.6905C69.6732 47.7392 69.6041 47.8088 69.5558 47.8924C69.5076 47.9761 69.482 48.0708 69.4815 48.1673V62.1966C69.4815 62.3342 69.4176 62.4576 69.2983 62.5267C69.2398 62.5607 69.1734 62.5787 69.1057 62.5787C69.0381 62.5787 68.9716 62.5607 68.9132 62.5267L66.6207 61.2064C66.4535 61.1096 66.2638 61.0587 66.0706 61.0587C65.8774 61.0587 65.6876 61.1096 65.5204 61.2064L56.3694 66.4878C56.0273 66.6853 55.8193 67.0649 55.8193 67.4599V78.023C55.8193 78.4176 56.0276 78.779 56.3694 78.9766L65.5204 84.2582C65.6875 84.3552 65.8773 84.4063 66.0706 84.4063C66.2638 84.4063 66.4536 84.3552 66.6207 84.2582L75.7718 78.9766C75.9393 78.8801 76.0785 78.7412 76.1751 78.5737C76.2717 78.4063 76.3224 78.2164 76.3221 78.023V51.6885C76.3218 51.4907 76.2691 51.2965 76.1692 51.1257C76.0694 50.9549 75.926 50.8137 75.7537 50.7164L70.3069 47.6721C70.2215 47.6244 70.1267 47.616 70.0318 47.6173ZM11.1641 60.8029C10.9898 60.8098 10.8256 60.8404 10.6691 60.9311L1.51782 66.2128C1.35018 66.3091 1.211 66.448 1.1144 66.6155C1.0178 66.7829 0.967217 66.973 0.967778 67.1663L0.98613 81.3426C0.98613 81.5397 1.08783 81.7229 1.26115 81.8193C1.34424 81.8692 1.43935 81.8956 1.53629 81.8956C1.63323 81.8956 1.72835 81.8692 1.81144 81.8193L7.23968 78.7018C7.58352 78.4974 7.80807 78.1421 7.80807 77.748V71.1277C7.80807 70.7326 8.0158 70.3702 8.35836 70.1739L10.6689 68.8353C10.8359 68.7381 11.0259 68.6875 11.2192 68.6885C11.4078 68.6885 11.6015 68.7356 11.7692 68.8353L14.08 70.1739C14.2478 70.2701 14.3871 70.4091 14.4837 70.5766C14.5804 70.7441 14.6309 70.9343 14.6303 71.1277V77.7478C14.6303 78.1418 14.8571 78.4997 15.1986 78.7015L20.6269 81.8193C20.71 81.8692 20.8051 81.8956 20.902 81.8956C20.999 81.8956 21.0941 81.8692 21.1772 81.8193C21.2608 81.7709 21.3303 81.7013 21.3786 81.6176C21.4269 81.5339 21.4524 81.439 21.4525 81.3424L21.4703 67.1663C21.4714 66.9729 21.421 66.7826 21.3244 66.6151C21.2277 66.4475 21.0882 66.3087 20.9203 66.2128L11.7692 60.9311C11.6145 60.8404 11.4498 60.81 11.2742 60.8029H11.1641ZM93.3954 60.9311C93.2043 60.9311 93.0169 60.9795 92.8454 61.0779L83.6943 66.3596C83.5267 66.456 83.3876 66.5949 83.291 66.7624C83.1943 66.9298 83.1437 67.1198 83.144 67.3131V77.8762C83.144 78.2736 83.3678 78.6335 83.7124 78.83L92.7903 84.0016C93.1255 84.1927 93.5348 84.2073 93.8723 84.0194L99.374 80.957C99.5485 80.8601 99.6666 80.6792 99.6673 80.4804C99.6683 80.3836 99.6432 80.2883 99.5949 80.2044C99.5465 80.1205 99.4766 80.0512 99.3923 80.0035L90.1862 74.7218C90.0139 74.6234 89.8928 74.4243 89.8928 74.2266V70.9258C89.8928 70.7283 90.0152 70.5473 90.1862 70.4489L93.047 68.7983C93.1306 68.7499 93.2255 68.7244 93.3221 68.7244C93.4188 68.7244 93.5137 68.7499 93.5973 68.7983L96.4578 70.4489C96.5416 70.4971 96.6112 70.5665 96.6596 70.6502C96.7079 70.7339 96.7333 70.8289 96.7331 70.9256V73.5297C96.7328 73.6264 96.7582 73.7213 96.8065 73.805C96.8548 73.8888 96.9243 73.9582 97.0081 74.0063C97.1797 74.1055 97.3871 74.1057 97.5582 74.0063L103.042 70.816C103.209 70.7192 103.348 70.5801 103.444 70.4127C103.541 70.2453 103.592 70.0555 103.592 69.8622V67.3134C103.592 66.9196 103.383 66.5574 103.042 66.3596L93.9457 61.0779C93.7785 60.9812 93.5886 60.9304 93.3954 60.9311ZM66.0338 68.8169C66.0817 68.8169 66.1377 68.8287 66.1806 68.8534L69.3166 70.6689C69.4018 70.7181 69.4635 70.8091 69.4635 70.9072V74.5383C69.4635 74.6369 69.4023 74.7277 69.3166 74.7769L66.1806 76.5924C66.1387 76.6163 66.0913 76.6289 66.0431 76.6289C65.9948 76.6289 65.9474 76.6163 65.9055 76.5924L62.7697 74.7769C62.6843 74.7274 62.6229 74.6369 62.6229 74.5383V70.9072C62.6229 70.8088 62.6846 70.7186 62.7697 70.6689L65.9055 68.8536C65.9441 68.8297 65.9886 68.817 66.034 68.8172L66.0338 68.8169Z" fill="#404137"/>
<path d="M38.6528 60.8789C38.4621 60.8789 38.2735 60.9273 38.1027 61.0257L28.9517 66.2891C28.6094 66.4861 28.4014 66.8664 28.4014 67.2609V77.824C28.4014 78.2191 28.6096 78.58 28.9517 78.7778L38.1027 84.0592C38.2698 84.1563 38.4596 84.2074 38.6529 84.2074C38.8461 84.2074 39.0359 84.1563 39.203 84.0592L48.3541 78.7778C48.5216 78.6813 48.6607 78.5423 48.7573 78.3748C48.8539 78.2074 48.9045 78.0174 48.9041 77.824V67.2609C48.9041 66.8659 48.6962 66.4861 48.3541 66.2891L39.203 61.0257C39.0358 60.9291 38.8459 60.8785 38.6528 60.8789ZM93.3758 70.3052C93.3394 70.3052 93.2989 70.3052 93.266 70.3236L91.5055 71.3505C91.4727 71.3688 91.4452 71.3953 91.4259 71.4275C91.4065 71.4597 91.396 71.4965 91.3954 71.534V73.5512C91.3954 73.6271 91.4392 73.6967 91.5055 73.7347L93.266 74.7433C93.332 74.7815 93.4024 74.7815 93.4676 74.7433L95.2281 73.7344C95.2608 73.7161 95.2881 73.6895 95.3074 73.6574C95.3267 73.6253 95.3373 73.5887 95.3382 73.5512V71.5338C95.3373 71.4963 95.3267 71.4597 95.3074 71.4275C95.2881 71.3954 95.2608 71.3689 95.2281 71.3505L93.4676 70.3233C93.435 70.3042 93.4125 70.3052 93.3758 70.3052Z" fill="#83CD29"/>
</g>
<defs>
<clipPath id="clip0_1322_23224">
<rect width="130.5" height="130.5" fill="white" transform="translate(0.75 0.75)"/>
</clipPath>
</defs>
</svg>
