<svg width="94" height="94" viewBox="0 0 94 94" fill="none" xmlns="http://www.w3.org/2000/svg">
<path fill-rule="evenodd" clip-rule="evenodd" d="M36.7916 0C29.4539 0 23.5057 5.75944 23.5057 12.8641V21.77H46.5005V24.2439H13.2859C5.94827 24.2439 0 30.0033 0 37.1079V56.4041C0 63.5087 5.94827 69.268 13.2859 69.268H20.9508V58.3832C20.9508 51.2787 26.8991 45.519 34.2367 45.519H58.7643C64.9731 45.519 70.0061 40.6457 70.0061 34.6342V12.8641C70.0061 5.75944 64.0581 0 56.7204 0H36.7916ZM33.7258 15.8327C36.2656 15.8327 38.3246 13.839 38.3246 11.3798C38.3246 8.92048 36.2656 6.9268 33.7258 6.9268C31.1856 6.9268 29.1267 8.92048 29.1267 11.3798C29.1267 13.839 31.1856 15.8327 33.7258 15.8327Z" fill="#3775AA"/>
<path fill-rule="evenodd" clip-rule="evenodd" d="M56.7204 93.5181C64.058 93.5181 70.0064 87.7588 70.0064 80.6542V71.7482H47.0115V69.2744H80.2263C87.564 69.2744 93.512 63.5148 93.512 56.4102V37.114C93.512 30.0094 87.564 24.25 80.2263 24.25H72.5613V35.1349C72.5613 42.2398 66.6129 47.9991 59.2756 47.9991H34.7477C28.5388 47.9991 23.5059 52.8724 23.5059 58.8839V80.6542C23.5059 87.7588 29.4543 93.5181 36.7916 93.5181H56.7204ZM59.7866 77.6855C57.2464 77.6855 55.1874 79.679 55.1874 82.1384C55.1874 84.5977 57.2464 86.5912 59.7866 86.5912C62.3264 86.5912 64.3853 84.5977 64.3853 82.1384C64.3853 79.679 62.3264 77.6855 59.7866 77.6855Z" fill="#FFD94A"/>
</svg>
