<svg width="87" height="105" viewBox="0 0 87 105" fill="none" xmlns="http://www.w3.org/2000/svg">
<path d="M74.2695 31.0437L66.5357 38.7775C79.2344 51.4762 79.2344 71.9087 66.5357 84.4165C53.837 97.1152 33.4046 97.1152 20.8968 84.4165C8.19813 71.7178 8.19813 51.2852 20.8968 38.7775L41.0429 18.6315L43.9072 15.7671V0.585938L13.5449 30.9483C-3.35483 47.848 -3.35483 75.155 13.5449 92.0548C30.4447 108.955 57.7517 108.955 74.365 92.0548C91.1693 75.155 91.1693 48.039 74.2695 31.0437Z" fill="#EE4C2C"/>
<path d="M59.0893 29.2313C62.2005 29.2313 64.7226 26.7093 64.7226 23.5981C64.7226 20.487 62.2005 17.9648 59.0893 17.9648C55.9782 17.9648 53.4561 20.487 53.4561 23.5981C53.4561 26.7093 55.9782 29.2313 59.0893 29.2313Z" fill="#EE4C2C"/>
</svg>
