<svg width="95" height="85" viewBox="0 0 95 85" fill="none" xmlns="http://www.w3.org/2000/svg">
<path d="M77.574 27.4973C76.598 27.1613 75.5867 26.8435 74.5455 26.5429C74.7166 25.8444 74.8737 25.155 75.0134 24.4773C77.3059 13.349 75.807 4.38404 70.6885 1.43238C65.7806 -1.39787 57.7541 1.55312 49.6476 8.60789C48.8681 9.28627 48.0864 10.0045 47.305 10.7572C46.7844 10.2592 46.2646 9.77794 45.7461 9.31759C37.2504 1.77417 28.7347 -1.40474 23.6213 1.55546C18.718 4.39392 17.266 12.8219 19.3296 23.3682C19.5289 24.3869 19.7618 25.4271 20.0252 26.4848C18.82 26.8269 17.6565 27.1916 16.5432 27.5797C6.58283 31.0523 0.22168 36.4947 0.22168 42.14C0.22168 47.9705 7.05038 53.8185 17.4249 57.3645C18.2436 57.6443 19.0931 57.9089 19.9686 58.1601C19.6844 59.304 19.4373 60.425 19.2298 61.5184C17.2621 71.8817 18.7987 80.1105 23.6889 82.931C28.74 85.8438 37.2172 82.8498 45.4718 75.6343C46.1243 75.0639 46.779 74.459 47.435 73.825C48.2852 74.6437 49.134 75.4186 49.9784 76.1454C57.9739 83.0258 65.8709 85.8041 70.7565 82.9757C75.8026 80.0546 77.4425 71.2148 75.3134 60.4598C75.1508 59.6384 74.9616 58.7993 74.7491 57.9453C75.3444 57.7693 75.9289 57.5876 76.4987 57.3987C87.284 53.8252 94.3013 48.0483 94.3013 42.14C94.3013 36.4743 87.735 30.9952 77.574 27.4973ZM75.2347 53.5838C74.7203 53.7541 74.1925 53.9187 73.6546 54.0783C72.4639 50.3089 70.857 46.3007 68.8905 42.1596C70.7671 38.1171 72.3119 34.1602 73.4692 30.4153C74.4316 30.6937 75.3657 30.9875 76.2658 31.2974C84.9717 34.2945 90.2822 38.7257 90.2822 42.14C90.2822 45.7769 84.5471 50.4981 75.2347 53.5838ZM71.3708 61.2404C72.3122 65.9961 72.4467 70.2958 71.8231 73.6571C71.2627 76.6774 70.1359 78.6911 68.7426 79.4976C65.7777 81.2137 59.4374 78.983 52.5995 73.0988C51.8156 72.4242 51.026 71.704 50.2339 70.9417C52.8848 68.0424 55.5342 64.672 58.12 60.9287C62.668 60.5252 66.9649 59.8654 70.8615 58.9646C71.0534 59.7388 71.2239 60.498 71.3708 61.2404ZM32.2955 79.201C29.3988 80.224 27.0917 80.2533 25.6971 79.4492C22.7295 77.7376 21.4959 71.1306 23.1787 62.2679C23.3714 61.2529 23.6008 60.2103 23.8652 59.1446C27.7192 59.9968 31.9846 60.6101 36.5435 60.9796C39.1467 64.6425 41.8726 68.0093 44.6196 70.9573C44.0194 71.5367 43.4216 72.0883 42.8271 72.6081C39.177 75.7987 35.5192 78.0624 32.2955 79.201ZM18.7247 53.5615C14.1373 51.9935 10.3488 49.9557 7.75204 47.732C5.41865 45.7337 4.24056 43.7498 4.24056 42.14C4.24056 38.7143 9.34794 34.3447 17.8661 31.3748C18.8997 31.0144 19.9817 30.6748 21.1045 30.3558C22.2817 34.1853 23.8261 38.1891 25.6897 42.2378C23.802 46.3466 22.2357 50.4142 21.0469 54.2886C20.2464 54.0585 19.4709 53.8164 18.7247 53.5615ZM23.2738 22.5964C21.5057 13.5605 22.68 6.74422 25.6348 5.03378C28.7822 3.21165 35.742 5.80963 43.0775 12.323C43.5464 12.7393 44.0171 13.175 44.4892 13.6258C41.7557 16.5609 39.0547 19.9024 36.4747 23.5437C32.05 23.9538 27.8146 24.6126 23.9205 25.4948C23.6757 24.5099 23.4588 23.5423 23.2738 22.5964ZM63.8555 32.617C62.9246 31.0091 61.9689 29.4391 60.9946 27.9121C63.9963 28.2915 66.8723 28.7952 69.5731 29.4117C68.7622 32.0103 67.7516 34.7274 66.562 37.5127C65.7086 35.8926 64.806 34.259 63.8555 32.617ZM47.3064 16.4981C49.1601 18.5065 51.0166 20.7488 52.8426 23.1816C51.0025 23.0947 49.1397 23.0495 47.2615 23.0495C45.401 23.0495 43.5519 23.0937 41.7232 23.1791C43.5511 20.7689 45.4236 18.5296 47.3064 16.4981ZM30.6512 32.6448C29.7213 34.2573 28.8355 35.882 27.9955 37.5097C26.8251 34.7341 25.8239 32.0046 25.006 29.3691C27.6902 28.7685 30.5526 28.2773 33.5353 27.905C32.5472 29.4462 31.5837 31.028 30.6512 32.6448ZM33.6212 56.6617C30.5396 56.3179 27.6341 55.852 24.9506 55.2679C25.7815 52.5854 26.8048 49.7976 28 46.9622C28.8422 48.5887 29.7316 50.2141 30.6672 51.8301C31.6202 53.4764 32.6077 55.089 33.6212 56.6617ZM47.4176 68.0652C45.5127 66.01 43.6127 63.7365 41.7571 61.2911C43.5584 61.3618 45.395 61.398 47.2615 61.398C49.1791 61.398 51.0747 61.3548 52.9406 61.2717C51.1085 63.7612 49.2588 66.0381 47.4176 68.0652ZM66.6003 46.8177C67.8578 49.6838 68.9178 52.4569 69.7595 55.0937C67.0317 55.716 64.0866 56.2172 60.9835 56.5897C61.9602 55.042 62.9242 53.4451 63.8715 51.8025C64.8299 50.1406 65.7399 48.4762 66.6003 46.8177ZM60.3902 49.7946C58.9196 52.3445 57.4098 54.7787 55.877 57.0765C53.0853 57.2761 50.2011 57.3789 47.2615 57.3789C44.3338 57.3789 41.4859 57.288 38.7436 57.11C37.149 54.7821 35.6064 52.3407 34.1451 49.8166C32.6877 47.2993 31.3467 44.7608 30.1313 42.2365C31.3464 39.7063 32.6842 37.1649 34.1333 34.6522L34.1329 34.6527C35.5858 32.1332 37.1149 29.7037 38.6947 27.3904C41.4926 27.1789 44.3617 27.0686 47.2613 27.0686C50.174 27.0686 53.0469 27.1798 55.844 27.3931C57.3997 29.6895 58.9184 32.1111 60.377 34.6309C61.8521 37.179 63.2072 39.7035 64.4327 42.1794C63.2109 44.6978 61.8588 47.2477 60.3902 49.7946ZM68.681 4.91422C71.8314 6.731 73.0566 14.0581 71.0772 23.6661C70.9509 24.2792 70.8088 24.9036 70.6544 25.5365C66.7512 24.6359 62.5128 23.9657 58.0752 23.5494C55.4902 19.8681 52.8113 16.5214 50.1224 13.624C50.8453 12.9285 51.5672 12.2654 52.2861 11.6396C59.2317 5.59511 65.7233 3.20863 68.681 4.91422ZM47.2615 33.739C51.9011 33.739 55.6625 37.5002 55.6625 42.14C55.6625 46.7797 51.9011 50.541 47.2615 50.541C42.6218 50.541 38.8605 46.7797 38.8605 42.14C38.8605 37.5002 42.6218 33.739 47.2615 33.739Z" fill="#66C0FF"/>
</svg>
