<svg width="16" height="16" viewBox="0 0 16 16" fill="none" xmlns="http://www.w3.org/2000/svg">
<path d="M8.68441 1.33398C9.43441 1.33598 9.81508 1.33998 10.1437 1.34932L10.2731 1.35398C10.4224 1.35932 10.5697 1.36598 10.7477 1.37398C11.4571 1.40732 11.9411 1.51932 12.3657 1.68398C12.8057 1.85332 13.1764 2.08265 13.5471 2.45265C13.8862 2.78581 14.1485 3.18897 14.3157 3.63398C14.4804 4.05865 14.5924 4.54265 14.6257 5.25265C14.6337 5.42998 14.6404 5.57732 14.6457 5.72732L14.6497 5.85665C14.6597 6.18465 14.6637 6.56532 14.6651 7.31532L14.6657 7.81265V8.68598C14.6674 9.17225 14.6623 9.65852 14.6504 10.1447L14.6464 10.274C14.6411 10.424 14.6344 10.5713 14.6264 10.7487C14.5931 11.4587 14.4797 11.942 14.3157 12.3673C14.1485 12.8123 13.8862 13.2155 13.5471 13.5487C13.2139 13.8878 12.8108 14.1501 12.3657 14.3173C11.9411 14.482 11.4571 14.594 10.7477 14.6273L10.2731 14.6473L10.1437 14.6513C9.81508 14.6607 9.43441 14.6653 8.68441 14.6667L8.18708 14.6673H7.31441C6.82792 14.669 6.34143 14.6639 5.85508 14.652L5.72574 14.648C5.56748 14.642 5.40926 14.6351 5.25108 14.6273C4.54174 14.594 4.05774 14.482 3.63241 14.3173C3.18763 14.15 2.78471 13.8877 2.45174 13.5487C2.11237 13.2156 1.84982 12.8124 1.68241 12.3673C1.51774 11.9427 1.40574 11.4587 1.37241 10.7487L1.35241 10.274L1.34908 10.1447C1.33679 9.65853 1.33123 9.17226 1.33241 8.68598V7.31532C1.33057 6.82905 1.33545 6.34278 1.34708 5.85665L1.35174 5.72732C1.35708 5.57732 1.36374 5.42998 1.37174 5.25265C1.40508 4.54265 1.51708 4.05932 1.68174 3.63398C1.84954 3.18878 2.11256 2.78561 2.45241 2.45265C2.78518 2.11368 3.18787 1.85137 3.63241 1.68398C4.05774 1.51932 4.54108 1.40732 5.25108 1.37398C5.42841 1.36598 5.57641 1.35932 5.72574 1.35398L5.85508 1.34998C6.34121 1.33814 6.82747 1.33303 7.31374 1.33465L8.68441 1.33398ZM7.99908 4.66732C7.11502 4.66732 6.26718 5.01851 5.64205 5.64363C5.01693 6.26875 4.66574 7.1166 4.66574 8.00065C4.66574 8.88471 5.01693 9.73255 5.64205 10.3577C6.26718 10.9828 7.11502 11.334 7.99908 11.334C8.88313 11.334 9.73098 10.9828 10.3561 10.3577C10.9812 9.73255 11.3324 8.88471 11.3324 8.00065C11.3324 7.1166 10.9812 6.26875 10.3561 5.64363C9.73098 5.01851 8.88313 4.66732 7.99908 4.66732ZM7.99908 6.00065C8.26172 6.00061 8.5218 6.0523 8.76447 6.15276C9.00714 6.25323 9.22764 6.40052 9.41339 6.5862C9.59914 6.77189 9.74649 6.99234 9.84704 7.23498C9.94759 7.47761 9.99937 7.73767 9.99941 8.00032C9.99945 8.26296 9.94777 8.52304 9.8473 8.76571C9.74683 9.00838 9.59955 9.22888 9.41386 9.41463C9.22817 9.60038 9.00772 9.74773 8.76509 9.84828C8.52245 9.94883 8.26239 10.0006 7.99974 10.0007C7.46931 10.0007 6.9606 9.78994 6.58553 9.41487C6.21046 9.03979 5.99974 8.53108 5.99974 8.00065C5.99974 7.47022 6.21046 6.96151 6.58553 6.58644C6.9606 6.21136 7.46931 6.00065 7.99974 6.00065M11.4997 3.66732C11.2787 3.66732 11.0668 3.75512 10.9105 3.9114C10.7542 4.06768 10.6664 4.27964 10.6664 4.50065C10.6664 4.72166 10.7542 4.93363 10.9105 5.08991C11.0668 5.24619 11.2787 5.33398 11.4997 5.33398C11.7208 5.33398 11.9327 5.24619 12.089 5.08991C12.2453 4.93363 12.3331 4.72166 12.3331 4.50065C12.3331 4.27964 12.2453 4.06768 12.089 3.9114C11.9327 3.75512 11.7208 3.66732 11.4997 3.66732Z" fill="url(#paint0_linear_169_669)"/>
<defs>
<linearGradient id="paint0_linear_169_669" x1="1.99908" y1="3.50098" x2="12.4991" y2="15.001" gradientUnits="userSpaceOnUse">
<stop stop-color="#F2416B"/>
<stop offset="1" stop-color="#EB7500"/>
</linearGradient>
</defs>
</svg>
