<svg width="28" height="28" viewBox="0 0 28 28" fill="none" xmlns="http://www.w3.org/2000/svg">
<path d="M21.2918 3.88501H6.7085C5.78024 3.88501 4.89 4.25376 4.23362 4.91014C3.57724 5.56651 3.2085 6.45675 3.2085 7.38501V16.5667C3.2085 17.495 3.57724 18.3851 4.23362 19.0415C4.89 19.6979 5.78024 20.0667 6.7085 20.0667H21.2918C22.22 20.0667 23.1103 19.6979 23.7667 19.0415C24.423 18.3851 24.7918 17.495 24.7918 16.5667V7.38501C24.7918 6.45675 24.423 5.56651 23.7667 4.91014C23.1103 4.25376 22.22 3.88501 21.2918 3.88501Z" stroke="black" stroke-width="1.5" stroke-linecap="round" stroke-linejoin="round"/>
<path d="M14 20.0667V24.115" stroke="black" stroke-width="1.5" stroke-linecap="round" stroke-linejoin="round"/>
<path d="M9.95166 24.115H18.0483" stroke="black" stroke-width="1.5" stroke-linecap="round" stroke-linejoin="round"/>
<path d="M10.5 11.8802L12.47 13.8502C12.5393 13.9203 12.6218 13.976 12.7128 14.014C12.8038 14.052 12.9014 14.0715 13.0001 14.0715C13.0986 14.0715 13.1963 14.052 13.2872 14.014C13.3782 13.976 13.4607 13.9203 13.5301 13.8502L17.5 9.88013" stroke="black" stroke-width="1.5" stroke-linecap="round" stroke-linejoin="round"/>
</svg>
