<svg width="28" height="28" viewBox="0 0 28 28" fill="none" xmlns="http://www.w3.org/2000/svg">
<path d="M22.5733 6.13044L18.7962 9.76007L15.0671 4.67956C14.9665 4.48316 14.8136 4.31833 14.6253 4.20323C14.437 4.08812 14.2207 4.02722 13.9999 4.02722C13.7792 4.02722 13.5629 4.08812 13.3746 4.20323C13.1863 4.31833 13.0333 4.48316 12.9328 4.67956L9.20362 9.76007L5.42654 6.13044C5.29131 5.91165 5.0893 5.74214 4.85036 5.64694C4.61141 5.55174 4.34819 5.5359 4.09955 5.60175C3.85091 5.6676 3.63004 5.81167 3.46955 6.01267C3.30905 6.21366 3.21745 6.46095 3.20825 6.71799L5.06682 19.7879C5.21632 20.9512 5.78692 22.0194 6.67073 22.7906C7.55453 23.5617 8.69024 23.9823 9.86312 23.9727H18.2566C19.4295 23.9823 20.5652 23.5617 21.449 22.7906C22.3328 22.0194 22.9035 20.9512 23.0529 19.7879L24.7916 6.71799C24.7824 6.46095 24.6908 6.21366 24.5303 6.01267C24.3698 5.81167 24.1489 5.6676 23.9003 5.60175C23.6516 5.5359 23.3884 5.55174 23.1495 5.64694C22.9106 5.74214 22.7085 5.91165 22.5733 6.13044Z" stroke="white" stroke-width="1.5" stroke-linecap="round" stroke-linejoin="round"/>
<path d="M9.33325 19.1884H18.6666" stroke="white" stroke-width="1.5" stroke-linecap="round" stroke-linejoin="round"/>
</svg>
