<svg width="24" height="24" viewBox="0 0 24 24" fill="none" xmlns="http://www.w3.org/2000/svg">
<path d="M13.1987 0.333984C14.5112 0.337484 15.1774 0.344484 15.7525 0.360818L15.9789 0.368984C16.2402 0.378318 16.498 0.389984 16.8095 0.403984C18.0509 0.462318 18.8979 0.658318 19.641 0.946484C20.411 1.24282 21.0597 1.64415 21.7084 2.29165C22.3018 2.87467 22.7609 3.5802 23.0535 4.35898C23.3417 5.10215 23.5377 5.94915 23.596 7.19165C23.61 7.50198 23.6217 7.75982 23.631 8.02232L23.638 8.24865C23.6555 8.82265 23.6625 9.48882 23.6649 10.8013L23.666 11.6717V13.2C23.6689 14.051 23.6599 14.9019 23.6392 15.7527L23.6322 15.979C23.6229 16.2415 23.6112 16.4993 23.5972 16.8097C23.5389 18.0522 23.3405 18.898 23.0535 19.6423C22.7609 20.4211 22.3018 21.1266 21.7084 21.7097C21.1253 22.3031 20.4198 22.7622 19.641 23.0548C18.8979 23.343 18.0509 23.539 16.8095 23.5973L15.9789 23.6323L15.7525 23.6393C15.1774 23.6556 14.5112 23.6638 13.1987 23.6662L12.3284 23.6673H10.8012C9.94983 23.6703 9.09847 23.6614 8.24736 23.6405L8.02103 23.6335C7.74407 23.623 7.46718 23.6109 7.19036 23.5973C5.94903 23.539 5.10203 23.343 4.35769 23.0548C3.57933 22.762 2.87421 22.303 2.29153 21.7097C1.69763 21.1267 1.23816 20.4212 0.945195 19.6423C0.657028 18.8991 0.461028 18.0522 0.402695 16.8097L0.367695 15.979L0.361862 15.7527C0.340355 14.9019 0.330632 14.051 0.332695 13.2V10.8013C0.329466 9.95035 0.338022 9.09938 0.358362 8.24865L0.366528 8.02232C0.375862 7.75982 0.387528 7.50198 0.401528 7.19165C0.459862 5.94915 0.655861 5.10332 0.944028 4.35898C1.23767 3.57988 1.69796 2.87433 2.29269 2.29165C2.87504 1.69846 3.57975 1.2394 4.35769 0.946484C5.10203 0.658318 5.94786 0.462318 7.19036 0.403984C7.50069 0.389984 7.7597 0.378318 8.02103 0.368984L8.24736 0.361984C9.09809 0.341256 9.94906 0.332311 10.8 0.335151L13.1987 0.333984ZM11.9994 6.16732C10.4523 6.16732 8.96853 6.7819 7.87457 7.87586C6.78061 8.96982 6.16603 10.4536 6.16603 12.0007C6.16603 13.5477 6.78061 15.0315 7.87457 16.1254C8.96853 17.2194 10.4523 17.834 11.9994 17.834C13.5465 17.834 15.0302 17.2194 16.1242 16.1254C17.2181 15.0315 17.8327 13.5477 17.8327 12.0007C17.8327 10.4536 17.2181 8.96982 16.1242 7.87586C15.0302 6.7819 13.5465 6.16732 11.9994 6.16732ZM11.9994 8.50065C12.459 8.50057 12.9141 8.59103 13.3388 8.76685C13.7635 8.94267 14.1493 9.20041 14.4744 9.52536C14.7995 9.85032 15.0573 10.2361 15.2333 10.6607C15.4093 11.0853 15.4999 11.5404 15.4999 12.0001C15.5 12.4597 15.4096 12.9148 15.2337 13.3395C15.0579 13.7642 14.8002 14.1501 14.4752 14.4751C14.1503 14.8002 13.7645 15.058 13.3399 15.234C12.9153 15.41 12.4602 15.5006 12.0005 15.5007C11.0723 15.5007 10.182 15.1319 9.52565 14.4755C8.86928 13.8191 8.50053 12.9289 8.50053 12.0007C8.50053 11.0724 8.86928 10.1822 9.52565 9.52578C10.182 8.8694 11.0723 8.50065 12.0005 8.50065M18.1255 4.41732C17.7388 4.41732 17.3678 4.57096 17.0943 4.84445C16.8208 5.11794 16.6672 5.48888 16.6672 5.87565C16.6672 6.26242 16.8208 6.63336 17.0943 6.90685C17.3678 7.18034 17.7388 7.33398 18.1255 7.33398C18.5123 7.33398 18.8832 7.18034 19.1567 6.90685C19.4302 6.63336 19.5839 6.26242 19.5839 5.87565C19.5839 5.48888 19.4302 5.11794 19.1567 4.84445C18.8832 4.57096 18.5123 4.41732 18.1255 4.41732Z" fill="#136DFB"/>
</svg>
