<svg width="28" height="28" viewBox="0 0 28 28" fill="none" xmlns="http://www.w3.org/2000/svg">
<path d="M14.0005 0.560547C6.57775 0.560547 0.560547 6.57775 0.560547 14.0005C0.560547 21.4233 6.57775 27.4405 14.0005 27.4405C21.4233 27.4405 27.4405 21.4233 27.4405 14.0005C27.4405 6.57775 21.4233 0.560547 14.0005 0.560547ZM10.7105 19.5711H7.98895V10.8127H10.7105V19.5711ZM9.33295 9.73755C8.47335 9.73755 7.91755 9.12855 7.91755 8.37535C7.91755 7.60675 8.49015 7.01595 9.36795 7.01595C10.2457 7.01595 10.7833 7.60675 10.8001 8.37535C10.8001 9.12855 10.2457 9.73755 9.33295 9.73755ZM20.6505 19.5711H17.9289V14.7173C17.9289 13.5875 17.5341 12.8203 16.5499 12.8203C15.7981 12.8203 15.3515 13.3397 15.1541 13.8395C15.0813 14.0173 15.0631 14.2693 15.0631 14.5199V19.5697H12.3401V13.6057C12.3401 12.5123 12.3051 11.5981 12.2687 10.8113H14.6333L14.7579 12.0279H14.8125C15.1709 11.4567 16.0487 10.6139 17.5173 10.6139C19.3079 10.6139 20.6505 11.8137 20.6505 14.3925V19.5711Z" fill="#136DFB"/>
</svg>
